/* XPM */
static char * fastforward_xpm[] = {
"32 20 2 1",
" 	c None",
".	c #000000",
"                                ",
"                                ",
"                                ",
"                                ",
"                                ",
"       .       .       ..       ",
"       ...     ...     ..       ",
"       .....   .....   ..       ",
"       ....... ....... ..       ",
"       ..................       ",
"       ....... ....... ..       ",
"       .....   .....   ..       ",
"       ...     ...     ..       ",
"       .       .       ..       ",
"                                ",
"                                ",
"                                ",
"                                ",
"                                ",
"                                "};
