/* XPM */
static char * mat_preview_bg_xpm[] = {
"20 22 153 2",
"  	c None",
". 	c #AE6874",
"+ 	c #80525B",
"@ 	c #D57786",
"# 	c #FE8899",
"$ 	c #F08292",
"% 	c #FE8798",
"& 	c #EE8191",
"* 	c #A87AA3",
"= 	c #8698FB",
"- 	c #8899FE",
"; 	c #8292F0",
"> 	c #8697FB",
", 	c #8191F0",
"' 	c #8697FA",
") 	c #7F8FEB",
"! 	c #6470A8",
"~ 	c #EB8393",
"{ 	c #D97A89",
"] 	c #EF8293",
"^ 	c #FD8899",
"/ 	c #8292F1",
"( 	c #8797FB",
"_ 	c #8192F0",
": 	c #8697F9",
"< 	c #8090E7",
"[ 	c #EE8090",
"} 	c #E87D8D",
"| 	c #E17A8A",
"1 	c #DF7989",
"2 	c #9F7399",
"3 	c #8090EC",
"4 	c #8090EE",
"5 	c #7B8AE2",
"6 	c #7A8AE1",
"7 	c #7E8DE8",
"8 	c #FB8797",
"9 	c #ED8090",
"0 	c #FC8798",
"a 	c #FB8798",
"b 	c #8798FC",
"c 	c #8191EF",
"d 	c #8191EE",
"e 	c #8596F8",
"f 	c #EF8191",
"g 	c #EF8292",
"h 	c #FD8798",
"i 	c #8698FA",
"j 	c #8797FA",
"k 	c #8292EF",
"l 	c #EE8091",
"m 	c #E07A8A",
"n 	c #E17B8A",
"o 	c #E07A89",
"p 	c #7A8AE2",
"q 	c #7B8AE1",
"r 	c #EF8192",
"s 	c #8798FE",
"t 	c #EC8090",
"u 	c #DE7989",
"v 	c #9E7298",
"w 	c #8090EB",
"x 	c #8090ED",
"y 	c #7A89E0",
"z 	c #7E8EEA",
"A 	c #7A89DF",
"B 	c #FD8898",
"C 	c #8696F9",
"D 	c #8898FE",
"E 	c #8192EF",
"F 	c #8798FB",
"G 	c #BA9384",
"H 	c #B08C7E",
"I 	c #BA9385",
"J 	c #BA9485",
"K 	c #B18C7F",
"L 	c #B08B7E",
"M 	c #8C7C89",
"N 	c #939DD1",
"O 	c #939DD3",
"P 	c #8D96C9",
"Q 	c #939CD1",
"R 	c #8C96C8",
"S 	c #929CD0",
"T 	c #949DD3",
"U 	c #8C95C7",
"V 	c #95F596",
"W 	c #8FE98F",
"X 	c #96F796",
"Y 	c #96F696",
"Z 	c #90EA90",
"` 	c #A2CBA1",
" .	c #F3F3F3",
"..	c #F7F7F7",
"+.	c #EAEAEA",
"@.	c #F3F3F2",
"#.	c #98FD98",
"$.	c #91EF91",
"%.	c #99FE99",
"&.	c #98FE98",
"*.	c #92F092",
"=.	c #91EE91",
"-.	c #A3CFA3",
";.	c #FBFAFB",
">.	c #FEFEFE",
",.	c #F1F1F1",
"'.	c #FBFBFB",
").	c #F0F0F0",
"!.	c #FAFAFA",
"~.	c #EFEFEF",
"{.	c #8AE28A",
"].	c #91F091",
"^.	c #8BE38B",
"/.	c #92EF92",
"(.	c #9AC39B",
"_.	c #EDEDED",
":.	c #E4E4E4",
"<.	c #E3E3E3",
"[.	c #ECECEC",
"}.	c #E2E2E2",
"|.	c #96F996",
"1.	c #8FEC8F",
"2.	c #97FA97",
"3.	c #97F997",
"4.	c #90EC90",
"5.	c #8FEB8F",
"6.	c #A1CCA2",
"7.	c #F7F6F7",
"8.	c #F6F6F6",
"9.	c #FFFFFF",
"0.	c #92F192",
"a.	c #8BE48C",
"b.	c #9BC49B",
"c.	c #EEEEEE",
"d.	c #E5E5E5",
"e.	c #A1CCA1",
"f.	c #8DE68D",
"g.	c #8BE18B",
"h.	c #8AE08A",
"i.	c #9AC29A",
"j.	c #E6E6E6",
"k.	c #93EF93",
"l.	c #8CE48C",
"m.	c #94F494",
"n.	c #97FB97",
"o.	c #97FC97",
"p.	c #90ED90",
"q.	c #98FB98",
"r.	c #A2CDA2",
"s.	c #F8F8F8",
"t.	c #FCFCFC",
"u.	c #F9F9F9",
"v.	c #DCDCDC",
". + @ # $ % # & % # * = - ; > - , ' ) ! ",
"~ { ] ^ $ # # & % ^ * = - / ( - _ ' : < ",
"[ } [ [ | [ [ 1 [ & 2 3 4 5 ) 4 6 ) 4 7 ",
"8 9 0 a & 0 0 9 0 0 * : b c : b d e b d ",
"0 f # ^ g # ^ & h ^ * i - ; j - _ ' - k ",
"l m & & n & & o & & 2 3 d 5 3 d p ) d q ",
"0 & % h r % h & h ^ * i s ; > s , ' - k ",
"h f # ^ $ # ^ & % ^ * = - ; ( - _ ' - k ",
"t 1 9 9 o 9 9 u 9 9 v w x 6 ) x y z x A ",
"0 & h h r h h l h B * ' s _ ' s , C D E ",
"h f # ^ $ # # f # ^ * F - ; F - _ ' - k ",
"G H I J K I J L I J M N O P Q O R S T U ",
"V W X Y Z Y Y W Y Y `  ...+. ...+.@...+.",
"#.$.%.&.*.%.%.=.&.%.-.;.>.,.'.>.).!.>.~.",
"$.{.].$.^.].*.{.]./.(._.).:._.).<.[.).}.",
"|.1.2.3.4.2.2.5.2.3.6.7.!._...!._.8.!.[.",
"#.$.%.&.*.%.%.=.&.%.-.;.>.,.'.>.).!.9.~.",
"*.^.0.0.a.0.0.^.0.*.b.c.,.d.c.,.:.c.,.:.",
"|.1.2.3.4.2.3.5.2.3.e.7.!._...!._.8.!.[.",
"#.$.%.&.*.%.%.=.&.%.-.;.>.,.'.>.).!.9.~.",
"=.f.$.=.g.$.=.h.=.=.i.[.~.}.[.~.}.[.~.j.",
"k.l.m.n.=.o.n.p.n.q.r.s.t.c.u.t.c.s.s.v."};
