/* XPM */
static char * mat_edit_shader_icon_xpm[] = {
"24 24 353 2",
"  	c None",
". 	c #000000",
"+ 	c #2C2C2C",
"@ 	c #3F3F3F",
"# 	c #010101",
"$ 	c #202020",
"% 	c #5F5E5E",
"& 	c #858585",
"* 	c #AFAFAF",
"= 	c #E0E0E0",
"- 	c #FDFDFD",
"; 	c #E1E1E1",
"> 	c #050505",
", 	c #232323",
"' 	c #5D5D5D",
") 	c #7E7E7E",
"! 	c #A9A9A9",
"~ 	c #DEDEDE",
"{ 	c #FEFDFD",
"] 	c #FCFCFB",
"^ 	c #FCFBFB",
"/ 	c #FBFAFA",
"( 	c #555555",
"_ 	c #242423",
": 	c #7E7E7D",
"< 	c #A6A5A4",
"[ 	c #D8D7D7",
"} 	c #FAF9FA",
"| 	c #FEFEFE",
"1 	c #FEFEFD",
"2 	c #FDFDFC",
"3 	c #FCFCFA",
"4 	c #8C8C8B",
"5 	c #4D4D4C",
"6 	c #FDFDFA",
"7 	c #FEFEFC",
"8 	c #FFFFFF",
"9 	c #E4E4E4",
"0 	c #ACACAC",
"a 	c #767676",
"b 	c #58595C",
"c 	c #ABABAA",
"d 	c #CECDCD",
"e 	c #1D1D1D",
"f 	c #FAFAF8",
"g 	c #F4F4F4",
"h 	c #C2C2C2",
"i 	c #8C8B8B",
"j 	c #6B6567",
"k 	c #44383D",
"l 	c #3D343E",
"m 	c #777893",
"n 	c #A5ADD6",
"o 	c #A9B1DE",
"p 	c #7F7D80",
"q 	c #F9F9F9",
"r 	c #2F2F2F",
"s 	c #020202",
"t 	c #DADAD8",
"u 	c #E7E7E7",
"v 	c #6D6D6D",
"w 	c #5C5556",
"x 	c #685256",
"y 	c #5B464A",
"z 	c #64414B",
"A 	c #824F5B",
"B 	c #8E525B",
"C 	c #92565F",
"D 	c #84515C",
"E 	c #856376",
"F 	c #B5B9E7",
"G 	c #70707C",
"H 	c #717170",
"I 	c #171717",
"J 	c #9F9F9F",
"K 	c #060606",
"L 	c #AEAEAD",
"M 	c #F0F0F0",
"N 	c #785E63",
"O 	c #E0A9B0",
"P 	c #A98087",
"Q 	c #734B57",
"R 	c #874950",
"S 	c #965358",
"T 	c #A6686B",
"U 	c #B57E80",
"V 	c #AF7477",
"W 	c #955155",
"X 	c #8B5E62",
"Y 	c #646272",
"Z 	c #A7A7A5",
"` 	c #575757",
" .	c #878787",
"..	c #151515",
"+.	c #0E0E20",
"@.	c #8F90BF",
"#.	c #7B696D",
"$.	c #DAA4AC",
"%.	c #60363D",
"&.	c #7F454A",
"*.	c #8D4C4B",
"=.	c #9E6255",
"-.	c #B07E69",
";.	c #C1967E",
">.	c #BE927D",
",.	c #A46761",
"'.	c #863A3A",
").	c #58322E",
"!.	c #D0D0D0",
"~.	c #EAEAE8",
"{.	c #595959",
"].	c #A1A1A1",
"^.	c #F3F3F3",
"/.	c #777777",
"(.	c #303030",
"_.	c #1F1F45",
":.	c #6868E6",
"<.	c #8787FA",
"[.	c #FBFBF8",
"}.	c #7C7778",
"|.	c #8A5B60",
"1.	c #5F1C1C",
"2.	c #7E4137",
"3.	c #936040",
"4.	c #A57A49",
"5.	c #B59155",
"6.	c #BFA060",
"7.	c #B78E60",
"8.	c #9F6252",
"9.	c #883A3A",
"0.	c #71322E",
"a.	c #ABA9A7",
"b.	c #F2F2F0",
"c.	c #C0C0BF",
"d.	c #DDDCDB",
"e.	c #A3A1A1",
"f.	c #1B1B39",
"g.	c #7475FE",
"h.	c #6F70FD",
"i.	c #F8F8F6",
"j.	c #939393",
"k.	c #4F292B",
"l.	c #5D1918",
"m.	c #773828",
"n.	c #8E5E35",
"o.	c #9F773C",
"p.	c #AD8D42",
"q.	c #B49748",
"r.	c #A97E49",
"s.	c #945443",
"t.	c #843635",
"u.	c #6E2C29",
"v.	c #857978",
"w.	c #CACBC8",
"x.	c #BFBFBD",
"y.	c #E1DDDC",
"z.	c #6A6969",
"A.	c #6061BB",
"B.	c #6A6BFF",
"C.	c #E2E3F4",
"D.	c #C8C8C8",
"E.	c #381A19",
"F.	c #541919",
"G.	c #6C3026",
"H.	c #7F4A31",
"I.	c #8E6036",
"J.	c #9E7B39",
"K.	c #A3833A",
"L.	c #97653A",
"M.	c #884437",
"N.	c #7D3432",
"O.	c #6F3735",
"P.	c #534643",
"Q.	c #B3B4B2",
"R.	c #E3E3E2",
"S.	c #A5A1A1",
"T.	c #797979",
"U.	c #282828",
"V.	c #2F2F47",
"W.	c #7171FC",
"X.	c #C4C4F4",
"Y.	c #F7F7F7",
"Z.	c #311717",
"`.	c #491E1D",
" +	c #61302C",
".+	c #734338",
"++	c #83593A",
"@+	c #917137",
"#+	c #926F33",
"$+	c #854E2F",
"%+	c #79342C",
"&+	c #702D2A",
"*+	c #653735",
"=+	c #625654",
"-+	c #A5A5A5",
";+	c #DEDAD9",
">+	c #666565",
",+	c #6C6C6C",
"'+	c #5C5DAA",
")+	c #A9A9F6",
"!+	c #524545",
"~+	c #461E1D",
"{+	c #5A3432",
"]+	c #6D4841",
"^+	c #7A5941",
"/+	c #816537",
"(+	c #7C582E",
"_+	c #703B28",
":+	c #672924",
"<+	c #602521",
"[+	c #6E4743",
"}+	c #B3B3B2",
"|+	c #AEADAD",
"1+	c #9B9898",
"2+	c #717171",
"3+	c #292929",
"4+	c #2C2D3B",
"5+	c #9293F0",
"6+	c #7B7B79",
"7+	c #5E4640",
"8+	c #573633",
"9+	c #654642",
"0+	c #6B4D3F",
"a+	c #6A4D34",
"b+	c #643F2A",
"c+	c #5B2C24",
"d+	c #532622",
"e+	c #502C28",
"f+	c #C0B1AF",
"g+	c #DFDFDF",
"h+	c #B2AFAE",
"i+	c #848580",
"j+	c #646492",
"k+	c #F9F9F5",
"l+	c #9D9D9D",
"m+	c #A3C09D",
"n+	c #5B3F38",
"o+	c #54322F",
"p+	c #5B3834",
"q+	c #57332E",
"r+	c #512B26",
"s+	c #4A2622",
"t+	c #4A2D28",
"u+	c #A69490",
"v+	c #CCCCCD",
"w+	c #CACACB",
"x+	c #9D9999",
"y+	c #6A6A66",
"z+	c #CCCBC2",
"A+	c #070707",
"B+	c #39393A",
"C+	c #F2F2EC",
"D+	c #D2D2D2",
"E+	c #88A788",
"F+	c #BAE5B8",
"G+	c #858670",
"H+	c #614941",
"I+	c #553430",
"J+	c #553530",
"K+	c #4B3430",
"L+	c #5D5351",
"M+	c #777776",
"N+	c #797978",
"O+	c #A7A2A1",
"P+	c #5F5E5D",
"Q+	c #B0B0A8",
"R+	c #F2F1E6",
"S+	c #494946",
"T+	c #D3D3CD",
"U+	c #FBFBFB",
"V+	c #546053",
"W+	c #738A70",
"X+	c #687564",
"Y+	c #757973",
"Z+	c #908E8E",
"`+	c #C1C0C0",
" @	c #E0E0DB",
".@	c #CCCACA",
"+@	c #8A8685",
"@@	c #676763",
"#@	c #DDDDD2",
"$@	c #F3F2E6",
"%@	c #7C7C77",
"&@	c #A1A19C",
"*@	c #BDBDBD",
"=@	c #F8F8F3",
"-@	c #CBCBC8",
";@	c #B5B0AE",
">@	c #626161",
",@	c #A8A79F",
"'@	c #EFEEE3",
")@	c #B8B8B0",
"!@	c #212121",
"~@	c #787772",
"{@	c #FAFAF5",
"]@	c #FCFCF9",
"^@	c #FAFAF4",
"/@	c #F7F8F0",
"(@	c #F5F6EC",
"_@	c #DFE1D5",
":@	c #C4C3C3",
"<@	c #898585",
"[@	c #676663",
"}@	c #C6C5BC",
"|@	c #C8C8C1",
"1@	c #BBBBB7",
"2@	c #70716F",
"3@	c #565552",
"4@	c #F4F4EA",
"5@	c #FAF9F4",
"6@	c #FBFBF7",
"7@	c #F6F6EF",
"8@	c #F3F4E9",
"9@	c #F2F2E6",
"0@	c #F0F0E4",
"a@	c #E6E7DC",
"b@	c #B5B6AE",
"c@	c #8D8D8D",
"d@	c #757575",
"e@	c #7F7F7F",
"f@	c #676767",
"g@	c #545454",
"h@	c #272727",
"i@	c #242422",
"j@	c #F0EEDF",
"k@	c #F3F1E3",
"l@	c #F4F1E4",
"m@	c #F2EFE2",
"n@	c #D7D5D9",
"o@	c #A6A4D1",
"p@	c #7675D0",
"q@	c #6969B0",
"r@	c #6C6C75",
"s@	c #707070",
"t@	c #808080",
"u@	c #C1C2B8",
"v@	c #C9C9BF",
"w@	c #8584B6",
"x@	c #3C3DDA",
"y@	c #3436EA",
"z@	c #494BED",
"A@	c #4B4C86",
"B@	c #2A2A2A",
"C@	c #535353",
"D@	c #242424",
"E@	c #262626",
"F@	c #565656",
"G@	c #666675",
"H@	c #6A6BF9",
"I@	c #696AC0",
"J@	c #30313C",
"K@	c #3D3D3D",
"L@	c #313131",
"  . . . . . . . . . . . . . . + @ . . . . . .   ",
". . . . . . . . . # $ % & * = - ; > . . . . . . ",
". . . . . , ' ) ! ~ - - { { ] ^ / ( . . . . . . ",
". _ : < [ } - { | | | | | - 1 2 3 4 . . . . . . ",
". 5 6 7 1 | | | | 8 8 | 9 0 a b c d # . . . . . ",
". e f - | 8 8 g h i j k l m n o p q r . . . . . ",
". s t | u v w x y z A B C D E F G 2 H . . I J > ",
". K L - M N O P Q R S T U V W X Y q Z > `  .J ..",
". +.@.] | #.$.%.&.*.=.-.;.>.,.'.).!.~.{.].^./.(.",
"_.:.<.[.| }.|.1.2.3.4.5.6.7.8.9.0.a.b.c.d.e.v . ",
"f.g.h.i.1 j.k.l.m.n.o.p.q.r.s.t.u.v.w.x.y.z.v . ",
". A.B.C.2 D.E.F.G.H.I.J.K.L.M.N.O.P.Q.R.S.T.U.. ",
". V.W.X.] Y.Z.`. +.+++@+#+$+%+&+*+=+-+;+>+,+. . ",
". . '+)+3 | !+~+{+]+^+/+(+_+:+<+[+}+|+1+2+3+. . ",
". . 4+5+[.| 6+7+8+9+0+a+b+c+d+e+f+g+h+% i+. . . ",
". . . j+k+| l+m+n+o+p+q+r+s+t+u+v+w+x+y+z+A+. . ",
". . . B+C+- D+E+F+G+H+I+J+K+L+M+N+O+P+Q+R+S+. . ",
". . . s T+] U+V+W+X+Y+Z+`+M 3  @.@+@@@#@$@%@. . ",
". . . # &@3 8 *@= | 8 | { ] =@-@;@>@,@'@R+)@. . ",
". . . !@~@{@| | | 2 ]@^@/@(@_@:@<@[@}@|@1@2@. . ",
". . . . 3@4@5@6@k+7@8@9@0@a@b@c@d@e@f@g@h@. . . ",
". . . . i@j@k@l@m@n@o@p@q@r@s@t@l+3+. . . . . . ",
". . . . . u@v@w@x@y@z@A@B@. C@l+D@. . . . . . . ",
"  . . . . E@F@G@H@I@J@. . . K@L@. . . . . . .   "};
