/* XPM */
static char * pinned_xpm[] = {
"16 15 59 1",
" 	c None",
".	c #101010",
"+	c #000000",
"@	c #141414",
"#	c #040404",
"$	c #010101",
"%	c #0F0F0F",
"&	c #FAFAFA",
"*	c #FFFFFF",
"=	c #EAEAEA",
"-	c #F2F2F2",
";	c #0A0A0A",
">	c #050505",
",	c #FCFCFC",
"'	c #F1F1F1",
")	c #B9B9B9",
"!	c #BEBEBE",
"~	c #C6C6C6",
"{	c #8E8E8E",
"]	c #060606",
"^	c #F5F5F5",
"/	c #C5C5C5",
"(	c #CDCDCD",
"_	c #D3D3D3",
":	c #BBBBBB",
"<	c #838383",
"[	c #070707",
"}	c #EDEDED",
"|	c #F6F6F6",
"1	c #020202",
"2	c #BFBFBF",
"3	c #C2C2C2",
"4	c #696969",
"5	c #0E0E0E",
"6	c #0B0B0B",
"7	c #BDBDBD",
"8	c #030303",
"9	c #848484",
"0	c #BABABA",
"a	c #828282",
"b	c #8C8C8C",
"c	c #727272",
"d	c #898989",
"e	c #080808",
"f	c #0C0C0C",
"g	c #7E7E7E",
"h	c #757575",
"i	c #8F8F8F",
"j	c #8B8B8B",
"k	c #151515",
"l	c #7C7C7C",
"m	c #6F6F6F",
"n	c #808080",
"o	c #787878",
"p	c #282828",
"q	c #8A8A8A",
"r	c #7F7F7F",
"s	c #858585",
"t	c #707070",
"                ",
"                ",
"        .+@#    ",
"      $%&*=-;   ",
"    >++,')!~{]  ",
"    %*.^/(_:<+  ",
"   [}|1&)23456  ",
"   +*789~0ab+#  ",
"   +c/d#+e#8+   ",
"   f{ghij+5>k   ",
"    ;lmn1+]#o   ",
"    ++p$%#8b    ",
"   1qr1e+st     ",
"                ",
"                "};
