/* XPM */
static char * preview_xpm[] = {
"32 20 199 2",
"  	c None",
". 	c #706E70",
"+ 	c #4A4A4A",
"@ 	c #3D3C3D",
"# 	c #5F5E5F",
"$ 	c #6A686A",
"% 	c #4F4E4F",
"& 	c #636263",
"* 	c #878587",
"= 	c #7D7B7D",
"- 	c #4E4C4E",
"; 	c #3A393A",
"> 	c #5D5C5D",
", 	c #4B4B4B",
"' 	c #464546",
") 	c #7B7A7C",
"! 	c #7C7A7D",
"~ 	c #565456",
"{ 	c #7F7C7F",
"] 	c #BEBBBE",
"^ 	c #3E3E40",
"/ 	c #232223",
"( 	c #B0ADB0",
"_ 	c #626062",
": 	c #050505",
"< 	c #484748",
"[ 	c #7C787B",
"} 	c #3E3F3F",
"| 	c #BDBABD",
"1 	c #B1ADB1",
"2 	c #212121",
"3 	c #1D1C1D",
"4 	c #BAB7BA",
"5 	c #6A6769",
"6 	c #020202",
"7 	c #A8A5A8",
"8 	c #040404",
"9 	c #575557",
"0 	c #EDE9ED",
"a 	c #121212",
"b 	c #A19EA1",
"c 	c #444244",
"d 	c #A9A5A9",
"e 	c #383838",
"f 	c #FDF9FD",
"g 	c #545354",
"h 	c #030303",
"i 	c #605E60",
"j 	c #BBB8BB",
"k 	c #070707",
"l 	c #393839",
"m 	c #D1CED1",
"n 	c #2E2D2E",
"o 	c #5B595B",
"p 	c #646364",
"q 	c #323132",
"r 	c #2C2B2C",
"s 	c #515051",
"t 	c #8D8A8D",
"u 	c #0F0F0F",
"v 	c #111111",
"w 	c #4D4C4D",
"x 	c #464446",
"y 	c #222424",
"z 	c #3B3B3B",
"A 	c #4D4D4D",
"B 	c #505050",
"C 	c #565658",
"D 	c #666668",
"E 	c #5C5B5C",
"F 	c #949194",
"G 	c #3A3A3A",
"H 	c #C6C2C6",
"I 	c #262626",
"J 	c #131313",
"K 	c #B1AEB1",
"L 	c #727273",
"M 	c #858385",
"N 	c #7E7D7F",
"O 	c #777577",
"P 	c #646264",
"Q 	c #6A696A",
"R 	c #6A6A6A",
"S 	c #1D1D1D",
"T 	c #747274",
"U 	c #010101",
"V 	c #868486",
"W 	c #EBE7EB",
"X 	c #242324",
"Y 	c #0E0E0E",
"Z 	c #CECBCE",
"` 	c #9F9D9F",
" .	c #2A292A",
"..	c #918E91",
"+.	c #B0ACB0",
"@.	c #2F2F2F",
"#.	c #404040",
"$.	c #434343",
"%.	c #393939",
"&.	c #2F2F2E",
"*.	c #303030",
"=.	c #363636",
"-.	c #7C7A7C",
";.	c #959295",
">.	c #F5F1F5",
",.	c #1A191A",
"'.	c #545254",
").	c #E2DFE2",
"!.	c #1C1C1C",
"~.	c #737173",
"{.	c #414141",
"].	c #4D4E4E",
"^.	c #575757",
"/.	c #626262",
"(.	c #595A59",
"_.	c #4C4C4C",
":.	c #3F3F3F",
"<.	c #323232",
"[.	c #252525",
"}.	c #1E1E1E",
"|.	c #0C0C0C",
"1.	c #5D5D5C",
"2.	c #565656",
"3.	c #5F5F5F",
"4.	c #5E5D5E",
"5.	c #666768",
"6.	c #4B4C4C",
"7.	c #4E4E4E",
"8.	c #484848",
"9.	c #353535",
"0.	c #2D2D2D",
"a.	c #1D1E1D",
"b.	c #4E4D4D",
"c.	c #50504E",
"d.	c #474747",
"e.	c #676566",
"f.	c #525454",
"g.	c #585858",
"h.	c #505051",
"i.	c #484847",
"j.	c #434340",
"k.	c #343434",
"l.	c #313131",
"m.	c #494849",
"n.	c #434342",
"o.	c #4C4D4D",
"p.	c #5A5A5B",
"q.	c #504F50",
"r.	c #5B5A5A",
"s.	c #575657",
"t.	c #39393A",
"u.	c #424242",
"v.	c #494949",
"w.	c #30302D",
"x.	c #2C2C2C",
"y.	c #3D3E3D",
"z.	c #414140",
"A.	c #5A595A",
"B.	c #595959",
"C.	c #5F6060",
"D.	c #615F60",
"E.	c #515151",
"F.	c #474646",
"G.	c #4B4949",
"H.	c #333333",
"I.	c #2E2C2A",
"J.	c #202020",
"K.	c #4B4A4B",
"L.	c #454545",
"M.	c #4F4F4F",
"N.	c #4B4B4C",
"O.	c #3F3F3E",
"P.	c #1C1D1C",
"Q.	c #232323",
"R.	c #4A4A49",
"S.	c #464646",
"T.	c #373737",
"U.	c #343432",
"V.	c #3D3D3D",
"W.	c #333435",
"X.	c #2E2D2F",
"Y.	c #3C3B3C",
"Z.	c #282727",
"`.	c #2A2828",
" +	c #2E2E2E",
".+	c #30302F",
"++	c #2D2C2B",
"@+	c #292828",
"#+	c #282828",
"$+	c #262628",
"%+	c #202023",
"&+	c #434243",
"*+	c #2B2B2B",
"=+	c #31302F",
"-+	c #1C1F1F",
";+	c #1C1C1E",
">+	c #414041",
",+	c #3C3C3C",
"'+	c #191919",
"                                          . +                   ",
"                              @ # $ % & * = - ;                 ",
"                    > , ' ) ! ~ { ] ^ / ( _ : <                 ",
"              [ } | 1 2 3 4 5 6 4 7 8 9 0 a 9 b c               ",
"              d e f g h i j k l m n h o p q r s                 ",
"                / t u v i w x                                   ",
"                q 2 y z A B C D E                               ",
"              F G H I J K > I L M E N O P Q R ;                 ",
"                S T ' U V ( 8 e W X Y Z `  ...+.@.              ",
"                #.$.%.&.*.=.v Y -.@ U ;.>.,.'.).!.              ",
"              ~.{.].^./.(.A _.:.%.<.I !.[.}.|.A #.              ",
"              1.G 2.3.4.5.6.^.~ _.% 7.8.9.@.0.a.                ",
"              b.z + c.d.e.f.E g.2.h.i.j.k.l.*.=.                ",
"              m.n., p o.p.q.r.s.:.t.u.v., , w.x.                ",
"              y.z.A.B.C.D.E.F.G.E., '.H.*.I.J.,                 ",
"            . H.#.K.8.d.v.L.M.M.B 7.N.O.e @.P.                  ",
"              Q.{.+ R.S.z T.H.*.*.*.U.%.V.W.X.                  ",
"              Y.Z.`.0.l.<. +@.*..+++@+#+$+%+q                   ",
"                          &+*+#+=+#+2 -+;+!.>+                  ",
"                                      _ ,+'+                    "};
