/* XPM */
static char * unpinned_xpm[] = {
"16 15 57 1",
" 	c None",
".	c #000000",
"+	c #0C0C0C",
"@	c #161616",
"#	c #EEEEEE",
"$	c #000100",
"%	c #0E0E0E",
"&	c #151314",
"*	c #010101",
"=	c #C8C8C8",
"-	c #FEFFFF",
";	c #111312",
">	c #020202",
",	c #1B1B1B",
"'	c #F4F4F4",
")	c #090708",
"!	c #0A0A0A",
"~	c #C0C0C0",
"{	c #F2F4F3",
"]	c #737574",
"^	c #FFFFFF",
"/	c #787878",
"(	c #F8F8F8",
"_	c #020001",
":	c #9A9A9A",
"<	c #8B8B8B",
"[	c #777777",
"}	c #929292",
"|	c #7E7E7E",
"1	c #BCBCBC",
"2	c #BEC0BF",
"3	c #858786",
"4	c #BDBDBD",
"5	c #CCCCCC",
"6	c #7C7C7C",
"7	c #BBBBBB",
"8	c #161415",
"9	c #050505",
"0	c #030303",
"a	c #040404",
"b	c #C9C9C9",
"c	c #7C7E7D",
"d	c #050706",
"e	c #7F7F7F",
"f	c #060606",
"g	c #CBCBCB",
"h	c #010000",
"i	c #888888",
"j	c #0D0D0D",
"k	c #797979",
"l	c #141414",
"m	c #6F6F6F",
"n	c #111111",
"o	c #080808",
"p	c #0B0B0B",
"q	c #070707",
"r	c #101010",
"                ",
"                ",
"      .+        ",
"      @#$    %& ",
"      *=-;>.,') ",
"      !~{]^^/(_ ",
"/:<[}|>12345678 ",
"9.0*>9abcde[fgh ",
"      >if.j9>k. ",
"      lm.!a.a.n ",
"      *o9    pq ",
"      r.        ",
"                ",
"                ",
"                "};
