<?xml version="1.0" encoding="UTF-8" standalone="no"?>
<svg
   xmlns:dc="http://purl.org/dc/elements/1.1/"
   xmlns:cc="http://web.resource.org/cc/"
   xmlns:rdf="http://www.w3.org/1999/02/22-rdf-syntax-ns#"
   xmlns:svg="http://www.w3.org/2000/svg"
   xmlns="http://www.w3.org/2000/svg"
   xmlns:sodipodi="http://inkscape.sourceforge.net/DTD/sodipodi-0.dtd"
   xmlns:inkscape="http://www.inkscape.org/namespaces/inkscape"
   width="24.000000pt"
   height="24.000000pt"
   id="svg4046"
   sodipodi:version="0.32"
   inkscape:version="0.43"
   sodipodi:docbase="I:\ArtWorks\K3d_Tests\Dev_Notes\Icons"
   sodipodi:docname="AlternateArray3D.svg"
   preserveAspectRatio="xMidYMid meet"
   zoomAndPan="magnify"
   version="1.0"
   contentScriptType="text/ecmascript"
   contentStyleType="text/css"
   inkscape:export-filename="I:\ArtWorks\K3d_Tests\Dev_Notes\Icons\AlternateArray2D.png"
   inkscape:export-xdpi="90"
   inkscape:export-ydpi="90">
  <defs
     id="defs3" />
  <sodipodi:namedview
     id="base"
     pagecolor="#ffffff"
     bordercolor="#666666"
     borderopacity="1.0"
     inkscape:pageopacity="0.0"
     inkscape:pageshadow="2"
     inkscape:zoom="13.893067"
     inkscape:cx="14.212775"
     inkscape:cy="12.035718"
     inkscape:current-layer="layer1"
     inkscape:window-width="1680"
     inkscape:window-height="1035"
     inkscape:window-x="-4"
     inkscape:window-y="-4" />
  <metadata
     id="metadata4">
    <rdf:RDF>
      <cc:Work
         rdf:about="">
        <dc:format>image/svg+xml</dc:format>
        <dc:type
           rdf:resource="http://purl.org/dc/dcmitype/StillImage" />
      </cc:Work>
    </rdf:RDF>
  </metadata>
  <g
     inkscape:label="Layer 1"
     inkscape:groupmode="layer"
     id="layer1">
    <g
       id="g14774"
       transform="matrix(0.922989,0,0,0.922989,-0.502502,3.268987)">
      <g
         transform="matrix(-1,0,0,-1,-0.719793,29.19326)"
         id="g14630">
        <path
           sodipodi:type="spiral"
           style="fill:none;fill-opacity:0.75;fill-rule:evenodd;stroke:#7f7fff;stroke-width:1px;stroke-linecap:butt;stroke-linejoin:miter;stroke-opacity:1"
           id="path14602"
           sodipodi:cx="-34.333672"
           sodipodi:cy="2.7202065"
           sodipodi:expansion="1.53"
           sodipodi:revolution="2.3800001"
           sodipodi:radius="6.5480518"
           sodipodi:argument="-30.732147"
           sodipodi:t0="0"
           d="M -34.333672,2.7202065 C -34.251883,2.7868588 -34.418594,2.877577 -34.465293,2.881719 C -34.742988,2.906349 -34.85058,2.5551543 -34.800097,2.340102 C -34.680825,1.8320187 -34.060826,1.6845902 -33.626829,1.8528419 C -32.853099,2.1528012 -32.655173,3.1225844 -32.986702,3.8178945 C -33.499307,4.8929763 -34.884436,5.1470423 -35.878041,4.6152983 C -37.287555,3.8609738 -37.602321,2.0042311 -36.838498,0.67894541 C -35.815752,-1.0955879 -33.437113,-1.4751974 -31.749466,-0.45086577 C -29.581401,0.86505897 -29.133053,3.8116093 -30.443813,5.8901741 C -32.076075,8.4785671 -35.63329,8.9993584 -38.129601,7.3781817 C -39.582838,6.434408 -40.569695,4.8812365 -40.865594,3.1795166"
           transform="matrix(0.305701,-0.606874,0.606874,0.305701,-21.89394,-12.92719)" />
        <path
           transform="matrix(-0.305701,-0.606874,-0.606874,0.305701,-31.11237,-12.92719)"
           d="M -34.333672,2.7202065 C -34.251883,2.7868588 -34.418594,2.877577 -34.465293,2.881719 C -34.742988,2.906349 -34.85058,2.5551543 -34.800097,2.340102 C -34.680825,1.8320187 -34.060826,1.6845902 -33.626829,1.8528419 C -32.853099,2.1528012 -32.655173,3.1225844 -32.986702,3.8178945 C -33.499307,4.8929763 -34.884436,5.1470423 -35.878041,4.6152983 C -37.287555,3.8609738 -37.602321,2.0042311 -36.838498,0.67894541 C -35.815752,-1.0955879 -33.437113,-1.4751974 -31.749466,-0.45086577 C -29.581401,0.86505897 -29.133053,3.8116093 -30.443813,5.8901741 C -32.076075,8.4785671 -35.63329,8.9993584 -38.129601,7.3781817 C -39.582838,6.434408 -40.569695,4.8812365 -40.865594,3.1795166"
           sodipodi:t0="0"
           sodipodi:argument="-30.732147"
           sodipodi:radius="6.5480518"
           sodipodi:revolution="2.3800001"
           sodipodi:expansion="1.53"
           sodipodi:cy="2.7202065"
           sodipodi:cx="-34.333672"
           id="path14604"
           style="fill:none;fill-opacity:0.75;fill-rule:evenodd;stroke:#7f7fff;stroke-width:1px;stroke-linecap:butt;stroke-linejoin:miter;stroke-opacity:1"
           sodipodi:type="spiral" />
        <path
           sodipodi:type="spiral"
           style="fill:none;fill-opacity:0.75;fill-rule:evenodd;stroke:#7f7fff;stroke-width:1px;stroke-linecap:butt;stroke-linejoin:miter;stroke-opacity:1"
           id="path14606"
           sodipodi:cx="-34.333672"
           sodipodi:cy="2.7202065"
           sodipodi:expansion="1.53"
           sodipodi:revolution="2.3800001"
           sodipodi:radius="6.5480518"
           sodipodi:argument="-30.732147"
           sodipodi:t0="0"
           d="M -34.333672,2.7202065 C -34.251883,2.7868588 -34.418594,2.877577 -34.465293,2.881719 C -34.742988,2.906349 -34.85058,2.5551543 -34.800097,2.340102 C -34.680825,1.8320187 -34.060826,1.6845902 -33.626829,1.8528419 C -32.853099,2.1528012 -32.655173,3.1225844 -32.986702,3.8178945 C -33.499307,4.8929763 -34.884436,5.1470423 -35.878041,4.6152983 C -37.287555,3.8609738 -37.602321,2.0042311 -36.838498,0.67894541 C -35.815752,-1.0955879 -33.437113,-1.4751974 -31.749466,-0.45086577 C -29.581401,0.86505897 -29.133053,3.8116093 -30.443813,5.8901741 C -32.076075,8.4785671 -35.63329,8.9993584 -38.129601,7.3781817 C -39.582838,6.434408 -40.569695,4.8812365 -40.865594,3.1795166"
           transform="matrix(0.305701,-0.606874,0.606874,0.305701,-7.51415,-12.92719)" />
        <path
           transform="matrix(-0.305701,-0.606874,-0.606874,0.305701,-16.83042,-12.92719)"
           d="M -34.333672,2.7202065 C -34.251883,2.7868588 -34.418594,2.877577 -34.465293,2.881719 C -34.742988,2.906349 -34.85058,2.5551543 -34.800097,2.340102 C -34.680825,1.8320187 -34.060826,1.6845902 -33.626829,1.8528419 C -32.853099,2.1528012 -32.655173,3.1225844 -32.986702,3.8178945 C -33.499307,4.8929763 -34.884436,5.1470423 -35.878041,4.6152983 C -37.287555,3.8609738 -37.602321,2.0042311 -36.838498,0.67894541 C -35.815752,-1.0955879 -33.437113,-1.4751974 -31.749466,-0.45086577 C -29.581401,0.86505897 -29.133053,3.8116093 -30.443813,5.8901741 C -32.076075,8.4785671 -35.63329,8.9993584 -38.129601,7.3781817 C -39.582838,6.434408 -40.569695,4.8812365 -40.865594,3.1795166"
           sodipodi:t0="0"
           sodipodi:argument="-30.732147"
           sodipodi:radius="6.5480518"
           sodipodi:revolution="2.3800001"
           sodipodi:expansion="1.53"
           sodipodi:cy="2.7202065"
           sodipodi:cx="-34.333672"
           id="path14608"
           style="fill:none;fill-opacity:0.75;fill-rule:evenodd;stroke:#7f7fff;stroke-width:1px;stroke-linecap:butt;stroke-linejoin:miter;stroke-opacity:1"
           sodipodi:type="spiral" />
        <path
           transform="matrix(0.305701,0.606874,0.606874,-0.305701,-21.89394,40.02268)"
           d="M -34.333672,2.7202065 C -34.251883,2.7868588 -34.418594,2.877577 -34.465293,2.881719 C -34.742988,2.906349 -34.85058,2.5551543 -34.800097,2.340102 C -34.680825,1.8320187 -34.060826,1.6845902 -33.626829,1.8528419 C -32.853099,2.1528012 -32.655173,3.1225844 -32.986702,3.8178945 C -33.499307,4.8929763 -34.884436,5.1470423 -35.878041,4.6152983 C -37.287555,3.8609738 -37.602321,2.0042311 -36.838498,0.67894541 C -35.815752,-1.0955879 -33.437113,-1.4751974 -31.749466,-0.45086577 C -29.581401,0.86505897 -29.133053,3.8116093 -30.443813,5.8901741 C -32.076075,8.4785671 -35.63329,8.9993584 -38.129601,7.3781817 C -39.582838,6.434408 -40.569695,4.8812365 -40.865594,3.1795166"
           sodipodi:t0="0"
           sodipodi:argument="-30.732147"
           sodipodi:radius="6.5480518"
           sodipodi:revolution="2.3800001"
           sodipodi:expansion="1.53"
           sodipodi:cy="2.7202065"
           sodipodi:cx="-34.333672"
           id="path14610"
           style="fill:#ffffff;fill-opacity:1;fill-rule:evenodd;stroke:#7f7fff;stroke-width:1px;stroke-linecap:butt;stroke-linejoin:miter;stroke-opacity:1"
           sodipodi:type="spiral" />
        <path
           sodipodi:type="spiral"
           style="fill:none;fill-opacity:0.75;fill-rule:evenodd;stroke:#7f7fff;stroke-width:1px;stroke-linecap:butt;stroke-linejoin:miter;stroke-opacity:1"
           id="path14612"
           sodipodi:cx="-34.333672"
           sodipodi:cy="2.7202065"
           sodipodi:expansion="1.53"
           sodipodi:revolution="2.3800001"
           sodipodi:radius="6.5480518"
           sodipodi:argument="-30.732147"
           sodipodi:t0="0"
           d="M -34.333672,2.7202065 C -34.251883,2.7868588 -34.418594,2.877577 -34.465293,2.881719 C -34.742988,2.906349 -34.85058,2.5551543 -34.800097,2.340102 C -34.680825,1.8320187 -34.060826,1.6845902 -33.626829,1.8528419 C -32.853099,2.1528012 -32.655173,3.1225844 -32.986702,3.8178945 C -33.499307,4.8929763 -34.884436,5.1470423 -35.878041,4.6152983 C -37.287555,3.8609738 -37.602321,2.0042311 -36.838498,0.67894541 C -35.815752,-1.0955879 -33.437113,-1.4751974 -31.749466,-0.45086577 C -29.581401,0.86505897 -29.133053,3.8116093 -30.443813,5.8901741 C -32.076075,8.4785671 -35.63329,8.9993584 -38.129601,7.3781817 C -39.582838,6.434408 -40.569695,4.8812365 -40.865594,3.1795166"
           transform="matrix(-0.305701,0.606874,-0.606874,-0.305701,-31.11237,40.02268)" />
        <path
           transform="matrix(0.305701,0.606874,0.606874,-0.305701,-7.514147,40.02268)"
           d="M -34.333672,2.7202065 C -34.251883,2.7868588 -34.418594,2.877577 -34.465293,2.881719 C -34.742988,2.906349 -34.85058,2.5551543 -34.800097,2.340102 C -34.680825,1.8320187 -34.060826,1.6845902 -33.626829,1.8528419 C -32.853099,2.1528012 -32.655173,3.1225844 -32.986702,3.8178945 C -33.499307,4.8929763 -34.884436,5.1470423 -35.878041,4.6152983 C -37.287555,3.8609738 -37.602321,2.0042311 -36.838498,0.67894541 C -35.815752,-1.0955879 -33.437113,-1.4751974 -31.749466,-0.45086577 C -29.581401,0.86505897 -29.133053,3.8116093 -30.443813,5.8901741 C -32.076075,8.4785671 -35.63329,8.9993584 -38.129601,7.3781817 C -39.582838,6.434408 -40.569695,4.8812365 -40.865594,3.1795166"
           sodipodi:t0="0"
           sodipodi:argument="-30.732147"
           sodipodi:radius="6.5480518"
           sodipodi:revolution="2.3800001"
           sodipodi:expansion="1.53"
           sodipodi:cy="2.7202065"
           sodipodi:cx="-34.333672"
           id="path14614"
           style="fill:none;fill-opacity:0.75;fill-rule:evenodd;stroke:#7f7fff;stroke-width:1px;stroke-linecap:butt;stroke-linejoin:miter;stroke-opacity:1"
           sodipodi:type="spiral" />
        <path
           sodipodi:type="spiral"
           style="fill:none;fill-opacity:0.75;fill-rule:evenodd;stroke:#7f7fff;stroke-width:1px;stroke-linecap:butt;stroke-linejoin:miter;stroke-opacity:1"
           id="path14616"
           sodipodi:cx="-34.333672"
           sodipodi:cy="2.7202065"
           sodipodi:expansion="1.53"
           sodipodi:revolution="2.3800001"
           sodipodi:radius="6.5480518"
           sodipodi:argument="-30.732147"
           sodipodi:t0="0"
           d="M -34.333672,2.7202065 C -34.251883,2.7868588 -34.418594,2.877577 -34.465293,2.881719 C -34.742988,2.906349 -34.85058,2.5551543 -34.800097,2.340102 C -34.680825,1.8320187 -34.060826,1.6845902 -33.626829,1.8528419 C -32.853099,2.1528012 -32.655173,3.1225844 -32.986702,3.8178945 C -33.499307,4.8929763 -34.884436,5.1470423 -35.878041,4.6152983 C -37.287555,3.8609738 -37.602321,2.0042311 -36.838498,0.67894541 C -35.815752,-1.0955879 -33.437113,-1.4751974 -31.749466,-0.45086577 C -29.581401,0.86505897 -29.133053,3.8116093 -30.443813,5.8901741 C -32.076075,8.4785671 -35.63329,8.9993584 -38.129601,7.3781817 C -39.582838,6.434408 -40.569695,4.8812365 -40.865594,3.1795166"
           transform="matrix(-0.305701,0.606874,-0.606874,-0.305701,-16.83042,40.02268)" />
        <path
           sodipodi:type="spiral"
           style="fill:#ffffff;fill-opacity:1;fill-rule:evenodd;stroke:#7f7fff;stroke-width:1px;stroke-linecap:butt;stroke-linejoin:miter;stroke-opacity:1"
           id="path14618"
           sodipodi:cx="-34.333672"
           sodipodi:cy="2.7202065"
           sodipodi:expansion="1.53"
           sodipodi:revolution="2.3800001"
           sodipodi:radius="6.5480518"
           sodipodi:argument="-30.732147"
           sodipodi:t0="0"
           d="M -34.333672,2.7202065 C -34.251883,2.7868588 -34.418594,2.877577 -34.465293,2.881719 C -34.742988,2.906349 -34.85058,2.5551543 -34.800097,2.340102 C -34.680825,1.8320187 -34.060826,1.6845902 -33.626829,1.8528419 C -32.853099,2.1528012 -32.655173,3.1225844 -32.986702,3.8178945 C -33.499307,4.8929763 -34.884436,5.1470423 -35.878041,4.6152983 C -37.287555,3.8609738 -37.602321,2.0042311 -36.838498,0.67894541 C -35.815752,-1.0955879 -33.437113,-1.4751974 -31.749466,-0.45086577 C -29.581401,0.86505897 -29.133053,3.8116093 -30.443813,5.8901741 C -32.076075,8.4785671 -35.63329,8.9993584 -38.129601,7.3781817 C -39.582838,6.434408 -40.569695,4.8812365 -40.865594,3.1795166"
           transform="matrix(0.305701,-0.606874,0.606874,0.305701,-21.89394,3.648634)" />
        <path
           transform="matrix(-0.305701,-0.606874,-0.606874,0.305701,-31.11237,3.648634)"
           d="M -34.333672,2.7202065 C -34.251883,2.7868588 -34.418594,2.877577 -34.465293,2.881719 C -34.742988,2.906349 -34.85058,2.5551543 -34.800097,2.340102 C -34.680825,1.8320187 -34.060826,1.6845902 -33.626829,1.8528419 C -32.853099,2.1528012 -32.655173,3.1225844 -32.986702,3.8178945 C -33.499307,4.8929763 -34.884436,5.1470423 -35.878041,4.6152983 C -37.287555,3.8609738 -37.602321,2.0042311 -36.838498,0.67894541 C -35.815752,-1.0955879 -33.437113,-1.4751974 -31.749466,-0.45086577 C -29.581401,0.86505897 -29.133053,3.8116093 -30.443813,5.8901741 C -32.076075,8.4785671 -35.63329,8.9993584 -38.129601,7.3781817 C -39.582838,6.434408 -40.569695,4.8812365 -40.865594,3.1795166"
           sodipodi:t0="0"
           sodipodi:argument="-30.732147"
           sodipodi:radius="6.5480518"
           sodipodi:revolution="2.3800001"
           sodipodi:expansion="1.53"
           sodipodi:cy="2.7202065"
           sodipodi:cx="-34.333672"
           id="path14620"
           style="fill:none;fill-opacity:0.75;fill-rule:evenodd;stroke:#7f7fff;stroke-width:1px;stroke-linecap:butt;stroke-linejoin:miter;stroke-opacity:1"
           sodipodi:type="spiral" />
        <path
           sodipodi:type="spiral"
           style="fill:none;fill-opacity:0.75;fill-rule:evenodd;stroke:#7f7fff;stroke-width:1px;stroke-linecap:butt;stroke-linejoin:miter;stroke-opacity:1"
           id="path14622"
           sodipodi:cx="-34.333672"
           sodipodi:cy="2.7202065"
           sodipodi:expansion="1.53"
           sodipodi:revolution="2.3800001"
           sodipodi:radius="6.5480518"
           sodipodi:argument="-30.732147"
           sodipodi:t0="0"
           d="M -34.333672,2.7202065 C -34.251883,2.7868588 -34.418594,2.877577 -34.465293,2.881719 C -34.742988,2.906349 -34.85058,2.5551543 -34.800097,2.340102 C -34.680825,1.8320187 -34.060826,1.6845902 -33.626829,1.8528419 C -32.853099,2.1528012 -32.655173,3.1225844 -32.986702,3.8178945 C -33.499307,4.8929763 -34.884436,5.1470423 -35.878041,4.6152983 C -37.287555,3.8609738 -37.602321,2.0042311 -36.838498,0.67894541 C -35.815752,-1.0955879 -33.437113,-1.4751974 -31.749466,-0.45086577 C -29.581401,0.86505897 -29.133053,3.8116093 -30.443813,5.8901741 C -32.076075,8.4785671 -35.63329,8.9993584 -38.129601,7.3781817 C -39.582838,6.434408 -40.569695,4.8812365 -40.865594,3.1795166"
           transform="matrix(0.305701,-0.606874,0.606874,0.305701,-7.514147,3.648634)" />
        <path
           transform="matrix(-0.305701,-0.606874,-0.606874,0.305701,-16.83042,3.648634)"
           d="M -34.333672,2.7202065 C -34.251883,2.7868588 -34.418594,2.877577 -34.465293,2.881719 C -34.742988,2.906349 -34.85058,2.5551543 -34.800097,2.340102 C -34.680825,1.8320187 -34.060826,1.6845902 -33.626829,1.8528419 C -32.853099,2.1528012 -32.655173,3.1225844 -32.986702,3.8178945 C -33.499307,4.8929763 -34.884436,5.1470423 -35.878041,4.6152983 C -37.287555,3.8609738 -37.602321,2.0042311 -36.838498,0.67894541 C -35.815752,-1.0955879 -33.437113,-1.4751974 -31.749466,-0.45086577 C -29.581401,0.86505897 -29.133053,3.8116093 -30.443813,5.8901741 C -32.076075,8.4785671 -35.63329,8.9993584 -38.129601,7.3781817 C -39.582838,6.434408 -40.569695,4.8812365 -40.865594,3.1795166"
           sodipodi:t0="0"
           sodipodi:argument="-30.732147"
           sodipodi:radius="6.5480518"
           sodipodi:revolution="2.3800001"
           sodipodi:expansion="1.53"
           sodipodi:cy="2.7202065"
           sodipodi:cx="-34.333672"
           id="path14624"
           style="fill:none;fill-opacity:0.75;fill-rule:evenodd;stroke:#7f7fff;stroke-width:1px;stroke-linecap:butt;stroke-linejoin:miter;stroke-opacity:1"
           sodipodi:type="spiral" />
      </g>
      <g
         id="g14585">
        <g
           id="g14551">
          <path
             transform="matrix(0.305701,-0.606874,0.606874,0.305701,12.50836,-17.25016)"
             d="M -34.333672,2.7202065 C -34.251883,2.7868588 -34.418594,2.877577 -34.465293,2.881719 C -34.742988,2.906349 -34.85058,2.5551543 -34.800097,2.340102 C -34.680825,1.8320187 -34.060826,1.6845902 -33.626829,1.8528419 C -32.853099,2.1528012 -32.655173,3.1225844 -32.986702,3.8178945 C -33.499307,4.8929763 -34.884436,5.1470423 -35.878041,4.6152983 C -37.287555,3.8609738 -37.602321,2.0042311 -36.838498,0.67894541 C -35.815752,-1.0955879 -33.437113,-1.4751974 -31.749466,-0.45086577 C -29.581401,0.86505897 -29.133053,3.8116093 -30.443813,5.8901741 C -32.076075,8.4785671 -35.63329,8.9993584 -38.129601,7.3781817 C -39.582838,6.434408 -40.569695,4.8812365 -40.865594,3.1795166"
             sodipodi:t0="0"
             sodipodi:argument="-30.732147"
             sodipodi:radius="6.5480518"
             sodipodi:revolution="2.3800001"
             sodipodi:expansion="1.53"
             sodipodi:cy="2.7202065"
             sodipodi:cx="-34.333672"
             id="path14543"
             style="fill:none;fill-opacity:0.75;fill-rule:evenodd;stroke:#cc0000;stroke-width:1px;stroke-linecap:butt;stroke-linejoin:miter;stroke-opacity:1"
             sodipodi:type="spiral" />
          <path
             sodipodi:type="spiral"
             style="fill:none;fill-opacity:0.75;fill-rule:evenodd;stroke:#000000;stroke-width:1px;stroke-linecap:butt;stroke-linejoin:miter;stroke-opacity:1"
             id="path14545"
             sodipodi:cx="-34.333672"
             sodipodi:cy="2.7202065"
             sodipodi:expansion="1.53"
             sodipodi:revolution="2.3800001"
             sodipodi:radius="6.5480518"
             sodipodi:argument="-30.732147"
             sodipodi:t0="0"
             d="M -34.333672,2.7202065 C -34.251883,2.7868588 -34.418594,2.877577 -34.465293,2.881719 C -34.742988,2.906349 -34.85058,2.5551543 -34.800097,2.340102 C -34.680825,1.8320187 -34.060826,1.6845902 -33.626829,1.8528419 C -32.853099,2.1528012 -32.655173,3.1225844 -32.986702,3.8178945 C -33.499307,4.8929763 -34.884436,5.1470423 -35.878041,4.6152983 C -37.287555,3.8609738 -37.602321,2.0042311 -36.838498,0.67894541 C -35.815752,-1.0955879 -33.437113,-1.4751974 -31.749466,-0.45086577 C -29.581401,0.86505897 -29.133053,3.8116093 -30.443813,5.8901741 C -32.076075,8.4785671 -35.63329,8.9993584 -38.129601,7.3781817 C -39.582838,6.434408 -40.569695,4.8812365 -40.865594,3.1795166"
             transform="matrix(-0.305701,-0.606874,-0.606874,0.305701,3.289927,-17.25016)" />
          <path
             transform="matrix(0.305701,-0.606874,0.606874,0.305701,26.88815,-17.25016)"
             d="M -34.333672,2.7202065 C -34.251883,2.7868588 -34.418594,2.877577 -34.465293,2.881719 C -34.742988,2.906349 -34.85058,2.5551543 -34.800097,2.340102 C -34.680825,1.8320187 -34.060826,1.6845902 -33.626829,1.8528419 C -32.853099,2.1528012 -32.655173,3.1225844 -32.986702,3.8178945 C -33.499307,4.8929763 -34.884436,5.1470423 -35.878041,4.6152983 C -37.287555,3.8609738 -37.602321,2.0042311 -36.838498,0.67894541 C -35.815752,-1.0955879 -33.437113,-1.4751974 -31.749466,-0.45086577 C -29.581401,0.86505897 -29.133053,3.8116093 -30.443813,5.8901741 C -32.076075,8.4785671 -35.63329,8.9993584 -38.129601,7.3781817 C -39.582838,6.434408 -40.569695,4.8812365 -40.865594,3.1795166"
             sodipodi:t0="0"
             sodipodi:argument="-30.732147"
             sodipodi:radius="6.5480518"
             sodipodi:revolution="2.3800001"
             sodipodi:expansion="1.53"
             sodipodi:cy="2.7202065"
             sodipodi:cx="-34.333672"
             id="path14547"
             style="fill:none;fill-opacity:0.75;fill-rule:evenodd;stroke:#000000;stroke-width:1px;stroke-linecap:butt;stroke-linejoin:miter;stroke-opacity:1"
             sodipodi:type="spiral" />
          <path
             sodipodi:type="spiral"
             style="fill:none;fill-opacity:0.75;fill-rule:evenodd;stroke:#000000;stroke-width:1px;stroke-linecap:butt;stroke-linejoin:miter;stroke-opacity:1"
             id="path14549"
             sodipodi:cx="-34.333672"
             sodipodi:cy="2.7202065"
             sodipodi:expansion="1.53"
             sodipodi:revolution="2.3800001"
             sodipodi:radius="6.5480518"
             sodipodi:argument="-30.732147"
             sodipodi:t0="0"
             d="M -34.333672,2.7202065 C -34.251883,2.7868588 -34.418594,2.877577 -34.465293,2.881719 C -34.742988,2.906349 -34.85058,2.5551543 -34.800097,2.340102 C -34.680825,1.8320187 -34.060826,1.6845902 -33.626829,1.8528419 C -32.853099,2.1528012 -32.655173,3.1225844 -32.986702,3.8178945 C -33.499307,4.8929763 -34.884436,5.1470423 -35.878041,4.6152983 C -37.287555,3.8609738 -37.602321,2.0042311 -36.838498,0.67894541 C -35.815752,-1.0955879 -33.437113,-1.4751974 -31.749466,-0.45086577 C -29.581401,0.86505897 -29.133053,3.8116093 -30.443813,5.8901741 C -32.076075,8.4785671 -35.63329,8.9993584 -38.129601,7.3781817 C -39.582838,6.434408 -40.569695,4.8812365 -40.865594,3.1795166"
             transform="matrix(-0.305701,-0.606874,-0.606874,0.305701,17.57188,-17.25016)" />
        </g>
        <path
           transform="matrix(0.305701,0.606874,0.606874,-0.305701,12.50836,35.6997)"
           d="M -34.333672,2.7202065 C -34.251883,2.7868588 -34.418594,2.877577 -34.465293,2.881719 C -34.742988,2.906349 -34.85058,2.5551543 -34.800097,2.340102 C -34.680825,1.8320187 -34.060826,1.6845902 -33.626829,1.8528419 C -32.853099,2.1528012 -32.655173,3.1225844 -32.986702,3.8178945 C -33.499307,4.8929763 -34.884436,5.1470423 -35.878041,4.6152983 C -37.287555,3.8609738 -37.602321,2.0042311 -36.838498,0.67894541 C -35.815752,-1.0955879 -33.437113,-1.4751974 -31.749466,-0.45086577 C -29.581401,0.86505897 -29.133053,3.8116093 -30.443813,5.8901741 C -32.076075,8.4785671 -35.63329,8.9993584 -38.129601,7.3781817 C -39.582838,6.434408 -40.569695,4.8812365 -40.865594,3.1795166"
           sodipodi:t0="0"
           sodipodi:argument="-30.732147"
           sodipodi:radius="6.5480518"
           sodipodi:revolution="2.3800001"
           sodipodi:expansion="1.53"
           sodipodi:cy="2.7202065"
           sodipodi:cx="-34.333672"
           id="path14559"
           style="fill:#ffffff;fill-opacity:1;fill-rule:evenodd;stroke:#000000;stroke-width:1px;stroke-linecap:butt;stroke-linejoin:miter;stroke-opacity:1"
           sodipodi:type="spiral" />
        <path
           sodipodi:type="spiral"
           style="fill:none;fill-opacity:0.75;fill-rule:evenodd;stroke:#000000;stroke-width:1px;stroke-linecap:butt;stroke-linejoin:miter;stroke-opacity:1"
           id="path14561"
           sodipodi:cx="-34.333672"
           sodipodi:cy="2.7202065"
           sodipodi:expansion="1.53"
           sodipodi:revolution="2.3800001"
           sodipodi:radius="6.5480518"
           sodipodi:argument="-30.732147"
           sodipodi:t0="0"
           d="M -34.333672,2.7202065 C -34.251883,2.7868588 -34.418594,2.877577 -34.465293,2.881719 C -34.742988,2.906349 -34.85058,2.5551543 -34.800097,2.340102 C -34.680825,1.8320187 -34.060826,1.6845902 -33.626829,1.8528419 C -32.853099,2.1528012 -32.655173,3.1225844 -32.986702,3.8178945 C -33.499307,4.8929763 -34.884436,5.1470423 -35.878041,4.6152983 C -37.287555,3.8609738 -37.602321,2.0042311 -36.838498,0.67894541 C -35.815752,-1.0955879 -33.437113,-1.4751974 -31.749466,-0.45086577 C -29.581401,0.86505897 -29.133053,3.8116093 -30.443813,5.8901741 C -32.076075,8.4785671 -35.63329,8.9993584 -38.129601,7.3781817 C -39.582838,6.434408 -40.569695,4.8812365 -40.865594,3.1795166"
           transform="matrix(-0.305701,0.606874,-0.606874,-0.305701,3.289927,35.6997)" />
        <path
           transform="matrix(0.305701,0.606874,0.606874,-0.305701,26.88815,35.6997)"
           d="M -34.333672,2.7202065 C -34.251883,2.7868588 -34.418594,2.877577 -34.465293,2.881719 C -34.742988,2.906349 -34.85058,2.5551543 -34.800097,2.340102 C -34.680825,1.8320187 -34.060826,1.6845902 -33.626829,1.8528419 C -32.853099,2.1528012 -32.655173,3.1225844 -32.986702,3.8178945 C -33.499307,4.8929763 -34.884436,5.1470423 -35.878041,4.6152983 C -37.287555,3.8609738 -37.602321,2.0042311 -36.838498,0.67894541 C -35.815752,-1.0955879 -33.437113,-1.4751974 -31.749466,-0.45086577 C -29.581401,0.86505897 -29.133053,3.8116093 -30.443813,5.8901741 C -32.076075,8.4785671 -35.63329,8.9993584 -38.129601,7.3781817 C -39.582838,6.434408 -40.569695,4.8812365 -40.865594,3.1795166"
           sodipodi:t0="0"
           sodipodi:argument="-30.732147"
           sodipodi:radius="6.5480518"
           sodipodi:revolution="2.3800001"
           sodipodi:expansion="1.53"
           sodipodi:cy="2.7202065"
           sodipodi:cx="-34.333672"
           id="path14563"
           style="fill:none;fill-opacity:0.75;fill-rule:evenodd;stroke:#000000;stroke-width:1px;stroke-linecap:butt;stroke-linejoin:miter;stroke-opacity:1"
           sodipodi:type="spiral" />
        <path
           sodipodi:type="spiral"
           style="fill:none;fill-opacity:0.75;fill-rule:evenodd;stroke:#000000;stroke-width:1px;stroke-linecap:butt;stroke-linejoin:miter;stroke-opacity:1"
           id="path14565"
           sodipodi:cx="-34.333672"
           sodipodi:cy="2.7202065"
           sodipodi:expansion="1.53"
           sodipodi:revolution="2.3800001"
           sodipodi:radius="6.5480518"
           sodipodi:argument="-30.732147"
           sodipodi:t0="0"
           d="M -34.333672,2.7202065 C -34.251883,2.7868588 -34.418594,2.877577 -34.465293,2.881719 C -34.742988,2.906349 -34.85058,2.5551543 -34.800097,2.340102 C -34.680825,1.8320187 -34.060826,1.6845902 -33.626829,1.8528419 C -32.853099,2.1528012 -32.655173,3.1225844 -32.986702,3.8178945 C -33.499307,4.8929763 -34.884436,5.1470423 -35.878041,4.6152983 C -37.287555,3.8609738 -37.602321,2.0042311 -36.838498,0.67894541 C -35.815752,-1.0955879 -33.437113,-1.4751974 -31.749466,-0.45086577 C -29.581401,0.86505897 -29.133053,3.8116093 -30.443813,5.8901741 C -32.076075,8.4785671 -35.63329,8.9993584 -38.129601,7.3781817 C -39.582838,6.434408 -40.569695,4.8812365 -40.865594,3.1795166"
           transform="matrix(-0.305701,0.606874,-0.606874,-0.305701,17.57188,35.6997)" />
        <path
           sodipodi:type="spiral"
           style="fill:#ffffff;fill-opacity:1;fill-rule:evenodd;stroke:#000000;stroke-width:1px;stroke-linecap:butt;stroke-linejoin:miter;stroke-opacity:1"
           id="path14569"
           sodipodi:cx="-34.333672"
           sodipodi:cy="2.7202065"
           sodipodi:expansion="1.53"
           sodipodi:revolution="2.3800001"
           sodipodi:radius="6.5480518"
           sodipodi:argument="-30.732147"
           sodipodi:t0="0"
           d="M -34.333672,2.7202065 C -34.251883,2.7868588 -34.418594,2.877577 -34.465293,2.881719 C -34.742988,2.906349 -34.85058,2.5551543 -34.800097,2.340102 C -34.680825,1.8320187 -34.060826,1.6845902 -33.626829,1.8528419 C -32.853099,2.1528012 -32.655173,3.1225844 -32.986702,3.8178945 C -33.499307,4.8929763 -34.884436,5.1470423 -35.878041,4.6152983 C -37.287555,3.8609738 -37.602321,2.0042311 -36.838498,0.67894541 C -35.815752,-1.0955879 -33.437113,-1.4751974 -31.749466,-0.45086577 C -29.581401,0.86505897 -29.133053,3.8116093 -30.443813,5.8901741 C -32.076075,8.4785671 -35.63329,8.9993584 -38.129601,7.3781817 C -39.582838,6.434408 -40.569695,4.8812365 -40.865594,3.1795166"
           transform="matrix(0.305701,-0.606874,0.606874,0.305701,12.50836,-0.67434)" />
        <path
           transform="matrix(-0.305701,-0.606874,-0.606874,0.305701,3.289927,-0.67434)"
           d="M -34.333672,2.7202065 C -34.251883,2.7868588 -34.418594,2.877577 -34.465293,2.881719 C -34.742988,2.906349 -34.85058,2.5551543 -34.800097,2.340102 C -34.680825,1.8320187 -34.060826,1.6845902 -33.626829,1.8528419 C -32.853099,2.1528012 -32.655173,3.1225844 -32.986702,3.8178945 C -33.499307,4.8929763 -34.884436,5.1470423 -35.878041,4.6152983 C -37.287555,3.8609738 -37.602321,2.0042311 -36.838498,0.67894541 C -35.815752,-1.0955879 -33.437113,-1.4751974 -31.749466,-0.45086577 C -29.581401,0.86505897 -29.133053,3.8116093 -30.443813,5.8901741 C -32.076075,8.4785671 -35.63329,8.9993584 -38.129601,7.3781817 C -39.582838,6.434408 -40.569695,4.8812365 -40.865594,3.1795166"
           sodipodi:t0="0"
           sodipodi:argument="-30.732147"
           sodipodi:radius="6.5480518"
           sodipodi:revolution="2.3800001"
           sodipodi:expansion="1.53"
           sodipodi:cy="2.7202065"
           sodipodi:cx="-34.333672"
           id="path14571"
           style="fill:none;fill-opacity:0.75;fill-rule:evenodd;stroke:#000000;stroke-width:1px;stroke-linecap:butt;stroke-linejoin:miter;stroke-opacity:1"
           sodipodi:type="spiral" />
        <path
           sodipodi:type="spiral"
           style="fill:none;fill-opacity:0.75;fill-rule:evenodd;stroke:#000000;stroke-width:1px;stroke-linecap:butt;stroke-linejoin:miter;stroke-opacity:1"
           id="path14573"
           sodipodi:cx="-34.333672"
           sodipodi:cy="2.7202065"
           sodipodi:expansion="1.53"
           sodipodi:revolution="2.3800001"
           sodipodi:radius="6.5480518"
           sodipodi:argument="-30.732147"
           sodipodi:t0="0"
           d="M -34.333672,2.7202065 C -34.251883,2.7868588 -34.418594,2.877577 -34.465293,2.881719 C -34.742988,2.906349 -34.85058,2.5551543 -34.800097,2.340102 C -34.680825,1.8320187 -34.060826,1.6845902 -33.626829,1.8528419 C -32.853099,2.1528012 -32.655173,3.1225844 -32.986702,3.8178945 C -33.499307,4.8929763 -34.884436,5.1470423 -35.878041,4.6152983 C -37.287555,3.8609738 -37.602321,2.0042311 -36.838498,0.67894541 C -35.815752,-1.0955879 -33.437113,-1.4751974 -31.749466,-0.45086577 C -29.581401,0.86505897 -29.133053,3.8116093 -30.443813,5.8901741 C -32.076075,8.4785671 -35.63329,8.9993584 -38.129601,7.3781817 C -39.582838,6.434408 -40.569695,4.8812365 -40.865594,3.1795166"
           transform="matrix(0.305701,-0.606874,0.606874,0.305701,26.88815,-0.67434)" />
        <path
           transform="matrix(-0.305701,-0.606874,-0.606874,0.305701,17.57188,-0.67434)"
           d="M -34.333672,2.7202065 C -34.251883,2.7868588 -34.418594,2.877577 -34.465293,2.881719 C -34.742988,2.906349 -34.85058,2.5551543 -34.800097,2.340102 C -34.680825,1.8320187 -34.060826,1.6845902 -33.626829,1.8528419 C -32.853099,2.1528012 -32.655173,3.1225844 -32.986702,3.8178945 C -33.499307,4.8929763 -34.884436,5.1470423 -35.878041,4.6152983 C -37.287555,3.8609738 -37.602321,2.0042311 -36.838498,0.67894541 C -35.815752,-1.0955879 -33.437113,-1.4751974 -31.749466,-0.45086577 C -29.581401,0.86505897 -29.133053,3.8116093 -30.443813,5.8901741 C -32.076075,8.4785671 -35.63329,8.9993584 -38.129601,7.3781817 C -39.582838,6.434408 -40.569695,4.8812365 -40.865594,3.1795166"
           sodipodi:t0="0"
           sodipodi:argument="-30.732147"
           sodipodi:radius="6.5480518"
           sodipodi:revolution="2.3800001"
           sodipodi:expansion="1.53"
           sodipodi:cy="2.7202065"
           sodipodi:cx="-34.333672"
           id="path14575"
           style="fill:none;fill-opacity:0.75;fill-rule:evenodd;stroke:#000000;stroke-width:1px;stroke-linecap:butt;stroke-linejoin:miter;stroke-opacity:1"
           sodipodi:type="spiral" />
      </g>
    </g>
  </g>
</svg>
