<?xml version="1.0" encoding="UTF-8" standalone="no"?>
<svg
   xmlns:dc="http://purl.org/dc/elements/1.1/"
   xmlns:cc="http://web.resource.org/cc/"
   xmlns:rdf="http://www.w3.org/1999/02/22-rdf-syntax-ns#"
   xmlns:svg="http://www.w3.org/2000/svg"
   xmlns="http://www.w3.org/2000/svg"
   xmlns:xlink="http://www.w3.org/1999/xlink"
   xmlns:sodipodi="http://inkscape.sourceforge.net/DTD/sodipodi-0.dtd"
   xmlns:inkscape="http://www.inkscape.org/namespaces/inkscape"
   width="24.000000pt"
   height="24.000000pt"
   id="svg4046"
   sodipodi:version="0.32"
   inkscape:version="0.43"
   sodipodi:docbase="I:\ArtWorks\K3d_Tests\Dev_Notes\Icons"
   sodipodi:docname="Annotation.svg"
   preserveAspectRatio="xMidYMid meet"
   zoomAndPan="magnify"
   version="1.0"
   contentScriptType="text/ecmascript"
   contentStyleType="text/css"
   inkscape:export-filename="I:\ArtWorks\K3d_Tests\Dev_Notes\Icons\Delete.png"
   inkscape:export-xdpi="90"
   inkscape:export-ydpi="90">
  <defs
     id="defs3">
    <radialGradient
       r="13.188590"
       fy="-40.098114"
       fx="100.86923"
       cy="-33.376244"
       cx="105.96836"
       gradientTransform="translate(-34.06886,-55.01197)"
       gradientUnits="userSpaceOnUse"
       id="radialGradient7073"
       inkscape:collect="always">
      <stop
         id="stop12427radialGradient7073"
         offset="0.0000000"
         style="stop-color:#eae8e3;stop-opacity:1.0000000;" />
      <stop
         id="stop12428radialGradient7073"
         offset="1.0000000"
         style="stop-color:#807d74;stop-opacity:1.0000000;" />
    </radialGradient>
    <linearGradient
       id="linearGradient12426">
      <stop
         id="stop12427"
         offset="0.0000000"
         style="stop-color:#eae8e3;stop-opacity:1.0000000;" />
      <stop
         id="stop12428"
         offset="1.0000000"
         style="stop-color:#807d74;stop-opacity:1.0000000;" />
    </linearGradient>
    <radialGradient
       inkscape:collect="always"
       xlink:href="#radialGradient7073"
       id="radialGradient2759"
       gradientUnits="userSpaceOnUse"
       gradientTransform="translate(-34.06886,-55.01197)"
       cx="105.96836"
       cy="-33.376244"
       fx="100.86923"
       fy="-40.098114"
       r="13.188590" />
  </defs>
  <sodipodi:namedview
     id="base"
     pagecolor="#ffffff"
     bordercolor="#666666"
     borderopacity="1.0"
     inkscape:pageopacity="0.0"
     inkscape:pageshadow="2"
     inkscape:zoom="13.893067"
     inkscape:cx="14.212775"
     inkscape:cy="12.035718"
     inkscape:current-layer="layer1"
     inkscape:window-width="1680"
     inkscape:window-height="1035"
     inkscape:window-x="-4"
     inkscape:window-y="-4"
     showguides="true"
     inkscape:guide-bbox="true" />
  <metadata
     id="metadata4">
    <rdf:RDF>
      <cc:Work
         rdf:about="">
        <dc:format>image/svg+xml</dc:format>
        <dc:type
           rdf:resource="http://purl.org/dc/dcmitype/StillImage" />
      </cc:Work>
    </rdf:RDF>
  </metadata>
  <g
     inkscape:label="Layer 1"
     inkscape:groupmode="layer"
     id="layer1">
    <g
       id="g2748"
       transform="matrix(0.988351,0,0,0.989887,2.177859e-4,0.303621)">
      <path
         id="path2476"
         d="M 19.3125,16.46875 L 12.84375,22.5 L 13.5,23.25 L 20,17.1875 L 19.3125,16.46875 z "
         style="fill:#000000;fill-opacity:1;fill-rule:evenodd;stroke:#ffff5a;stroke-width:1px;stroke-linecap:butt;stroke-linejoin:miter;stroke-opacity:1" />
      <path
         style="font-size:10px;font-style:normal;font-variant:normal;font-weight:normal;font-stretch:normal;text-align:start;line-height:80.00000119%;writing-mode:lr-tb;text-anchor:start;fill:#ffde11;fill-opacity:1;stroke:#ffff5a;stroke-width:1px;stroke-linecap:butt;stroke-linejoin:miter;stroke-opacity:1;font-family:Bitstream Vera Sans"
         d="M 13.135046,1.2963748 L 11.797155,4.9243045 L 14.477819,4.9243045 L 13.135046,1.2963748 M 12.578405,0.32469511 L 13.696569,0.32469511 L 16.47489,7.6147342 L 15.449499,7.6147342 L 14.785437,5.744617 L 11.499304,5.744617 L 10.835241,7.6147342 L 9.7952023,7.6147342 L 12.578405,0.32469511 M 18.520788,4.1332889 L 18.520788,6.8041873 L 20.102819,6.8041873 C 20.633414,6.8041881 21.025667,6.6951387 21.279577,6.4770389 C 21.536734,6.2556861 21.665314,5.9187723 21.665319,5.4662967 C 21.665314,5.0105701 21.536734,4.675284 21.279577,4.4604373 C 21.025667,4.2423417 20.633414,4.1332923 20.102819,4.1332889 L 18.520788,4.1332889 M 18.520788,1.135242 L 18.520788,3.3325076 L 19.980749,3.3325076 C 20.462516,3.3325119 20.820589,3.2429938 21.054968,3.0639529 C 21.292593,2.881666 21.411408,2.6049736 21.411413,2.2338748 C 21.411408,1.866042 21.292593,1.5909772 21.054968,1.4086795 C 20.820589,1.2263942 20.462516,1.1352485 19.980749,1.135242 L 18.520788,1.135242 M 17.53446,0.32469511 L 20.053991,0.32469511 C 20.80594,0.3247024 21.385367,0.48095224 21.792273,0.79344511 C 22.199168,1.1059516 22.402618,1.5502871 22.402624,2.1264529 C 22.402618,2.5724215 22.298452,2.9272389 22.090124,3.190906 C 21.881785,3.4545821 21.575796,3.6189699 21.172155,3.6840701 C 21.657176,3.7882406 22.033153,4.0063393 22.300085,4.338367 C 22.570261,4.667146 22.705352,5.0789294 22.705359,5.5737185 C 22.705352,6.2247616 22.483998,6.7276908 22.041296,7.0825076 C 21.598583,7.4373255 20.9687,7.6147342 20.151648,7.6147342 L 17.53446,7.6147342 L 17.53446,0.32469511 M 29.848913,0.88621855 L 29.848913,1.9262576 C 29.516876,1.6170188 29.162058,1.3858993 28.78446,1.2328982 C 28.410106,1.07991 28.011343,1.0034127 27.588171,1.003406 C 26.754834,1.0034127 26.116814,1.2589463 25.674109,1.7700076 C 25.231398,2.2778254 25.010044,3.0135018 25.010046,3.9770389 C 25.010044,4.937328 25.231398,5.6730043 25.674109,6.1840701 C 26.116814,6.6918835 26.754834,6.9457895 27.588171,6.9457889 C 28.011343,6.9457895 28.410106,6.8692922 28.78446,6.7162967 C 29.162058,6.5633029 29.516876,6.3321834 29.848913,6.0229373 L 29.848913,7.0532107 C 29.503855,7.2875861 29.137644,7.4633671 28.75028,7.5805545 C 28.366161,7.6977419 27.95926,7.7563356 27.529577,7.7563357 C 26.426059,7.7563356 25.556919,7.4194219 24.922155,6.7455935 C 24.287389,6.0685118 23.970006,5.1456611 23.970007,3.9770389 C 23.970006,2.8051687 24.287389,1.882318 24.922155,1.2084842 C 25.556919,0.53140792 26.426059,0.19286659 27.529577,0.19285917 C 27.965771,0.19286659 28.375926,0.25146029 28.760046,0.36864042 C 29.14741,0.48257985 29.510365,0.65510572 29.848913,0.88621855 M 10.957312,14.784656 L 12.56864,14.784656 L 12.56864,9.2231327 L 10.81571,9.5746952 L 10.81571,8.6762577 L 12.558874,8.3246952 L 13.545202,8.3246952 L 13.545202,14.784656 L 15.15653,14.784656 L 15.15653,15.614734 L 10.957312,15.614734 L 10.957312,14.784656 M 18.00321,14.784656 L 21.445593,14.784656 L 21.445593,15.614734 L 16.816687,15.614734 L 16.816687,14.784656 C 17.191034,14.397288 17.700474,13.878082 18.345007,13.227039 C 18.99279,12.572745 19.399691,12.151196 19.56571,11.962391 C 19.881461,11.607577 20.101188,11.308098 20.22489,11.063953 C 20.351839,10.816562 20.415315,10.574049 20.415319,10.336414 C 20.415315,9.9490499 20.278596,9.633295 20.005163,9.3891484 C 19.734977,9.1450142 19.381787,9.022944 18.945593,9.0229374 C 18.636346,9.022944 18.309197,9.0766549 17.964148,9.1840702 C 17.622349,9.2914984 17.256139,9.4542587 16.865515,9.6723515 L 16.865515,8.6762577 C 17.262649,8.5167596 17.633742,8.396317 17.978796,8.3149296 C 18.323846,8.2335568 18.639601,8.1928667 18.926062,8.1928593 C 19.681266,8.1928667 20.283479,8.3816686 20.732702,8.7592655 C 21.181916,9.1368762 21.406525,9.641433 21.40653,10.272937 C 21.406525,10.572422 21.349559,10.857252 21.235632,11.12743 C 21.12495,11.394361 20.9215,11.710116 20.62528,12.074695 C 20.543896,12.1691 20.285107,12.442537 19.848913,12.895008 C 19.412712,13.344229 18.797478,13.974111 18.00321,14.784656 M 26.509069,11.68407 C 26.98107,11.784986 27.348908,11.994946 27.612585,12.313953 C 27.879507,12.632966 28.01297,13.026846 28.012976,13.495594 C 28.01297,14.214996 27.765575,14.771636 27.270788,15.165516 C 26.775992,15.559396 26.072868,15.756336 25.161413,15.756336 C 24.855421,15.756336 24.539666,15.725411 24.214148,15.663562 C 23.891881,15.604969 23.558222,15.515451 23.213171,15.395008 L 23.213171,14.442859 C 23.486607,14.602366 23.786086,14.722808 24.111609,14.804187 C 24.437127,14.885568 24.777296,14.926258 25.132116,14.926258 C 25.750603,14.926258 26.22098,14.804188 26.543249,14.560047 C 26.868766,14.315907 27.031526,13.96109 27.03153,13.495594 C 27.031526,13.065909 26.880159,12.730623 26.577429,12.489734 C 26.277946,12.245597 25.859652,12.123527 25.322546,12.123523 L 24.472937,12.123523 L 24.472937,11.312976 L 25.361609,11.312976 C 25.846631,11.312981 26.217725,11.216952 26.47489,11.024891 C 26.732047,10.829583 26.860628,10.549635 26.860632,10.185047 C 26.860628,9.8107036 26.727164,9.5242456 26.460241,9.3256718 C 26.196566,9.1238554 25.817334,9.022944 25.322546,9.0229374 C 25.052361,9.022944 24.762648,9.0522409 24.453405,9.110828 C 24.144159,9.1694282 23.80399,9.260574 23.432898,9.3842655 L 23.432898,8.5053593 C 23.807245,8.4011998 24.15718,8.3230749 24.482702,8.2709843 C 24.811476,8.2189084 25.12072,8.1928667 25.410437,8.1928593 C 26.159131,8.1928667 26.751578,8.363765 27.18778,8.7055546 C 27.623973,9.0441028 27.842072,9.5030868 27.842077,10.082508 C 27.842072,10.486159 27.726512,10.827955 27.495398,11.107898 C 27.264273,11.384595 26.935497,11.576652 26.509069,11.68407"
         id="path2742" />
      <path
         style="fill:#ffde11;fill-opacity:1;fill-rule:evenodd;stroke:#000000;stroke-width:1px;stroke-linecap:butt;stroke-linejoin:miter;stroke-opacity:1"
         d="M 13.172037,22.874144 L 19.650088,16.827963"
         id="path2744"
         sodipodi:nodetypes="cc" />
      <path
         id="text2413"
         d="M 13.135046,1.2963748 L 11.797155,4.9243045 L 14.477819,4.9243045 L 13.135046,1.2963748 M 12.578405,0.32469511 L 13.696569,0.32469511 L 16.47489,7.6147342 L 15.449499,7.6147342 L 14.785437,5.744617 L 11.499304,5.744617 L 10.835241,7.6147342 L 9.7952023,7.6147342 L 12.578405,0.32469511 M 18.520788,4.1332889 L 18.520788,6.8041873 L 20.102819,6.8041873 C 20.633414,6.8041881 21.025667,6.6951387 21.279577,6.4770389 C 21.536734,6.2556861 21.665314,5.9187723 21.665319,5.4662967 C 21.665314,5.0105701 21.536734,4.675284 21.279577,4.4604373 C 21.025667,4.2423417 20.633414,4.1332923 20.102819,4.1332889 L 18.520788,4.1332889 M 18.520788,1.135242 L 18.520788,3.3325076 L 19.980749,3.3325076 C 20.462516,3.3325119 20.820589,3.2429938 21.054968,3.0639529 C 21.292593,2.881666 21.411408,2.6049736 21.411413,2.2338748 C 21.411408,1.866042 21.292593,1.5909772 21.054968,1.4086795 C 20.820589,1.2263942 20.462516,1.1352485 19.980749,1.135242 L 18.520788,1.135242 M 17.53446,0.32469511 L 20.053991,0.32469511 C 20.80594,0.3247024 21.385367,0.48095224 21.792273,0.79344511 C 22.199168,1.1059516 22.402618,1.5502871 22.402624,2.1264529 C 22.402618,2.5724215 22.298452,2.9272389 22.090124,3.190906 C 21.881785,3.4545821 21.575796,3.6189699 21.172155,3.6840701 C 21.657176,3.7882406 22.033153,4.0063393 22.300085,4.338367 C 22.570261,4.667146 22.705352,5.0789294 22.705359,5.5737185 C 22.705352,6.2247616 22.483998,6.7276908 22.041296,7.0825076 C 21.598583,7.4373255 20.9687,7.6147342 20.151648,7.6147342 L 17.53446,7.6147342 L 17.53446,0.32469511 M 29.848913,0.88621855 L 29.848913,1.9262576 C 29.516876,1.6170188 29.162058,1.3858993 28.78446,1.2328982 C 28.410106,1.07991 28.011343,1.0034127 27.588171,1.003406 C 26.754834,1.0034127 26.116814,1.2589463 25.674109,1.7700076 C 25.231398,2.2778254 25.010044,3.0135018 25.010046,3.9770389 C 25.010044,4.937328 25.231398,5.6730043 25.674109,6.1840701 C 26.116814,6.6918835 26.754834,6.9457895 27.588171,6.9457889 C 28.011343,6.9457895 28.410106,6.8692922 28.78446,6.7162967 C 29.162058,6.5633029 29.516876,6.3321834 29.848913,6.0229373 L 29.848913,7.0532107 C 29.503855,7.2875861 29.137644,7.4633671 28.75028,7.5805545 C 28.366161,7.6977419 27.95926,7.7563356 27.529577,7.7563357 C 26.426059,7.7563356 25.556919,7.4194219 24.922155,6.7455935 C 24.287389,6.0685118 23.970006,5.1456611 23.970007,3.9770389 C 23.970006,2.8051687 24.287389,1.882318 24.922155,1.2084842 C 25.556919,0.53140792 26.426059,0.19286659 27.529577,0.19285917 C 27.965771,0.19286659 28.375926,0.25146029 28.760046,0.36864042 C 29.14741,0.48257985 29.510365,0.65510572 29.848913,0.88621855 M 10.957312,14.784656 L 12.56864,14.784656 L 12.56864,9.2231327 L 10.81571,9.5746952 L 10.81571,8.6762577 L 12.558874,8.3246952 L 13.545202,8.3246952 L 13.545202,14.784656 L 15.15653,14.784656 L 15.15653,15.614734 L 10.957312,15.614734 L 10.957312,14.784656 M 18.00321,14.784656 L 21.445593,14.784656 L 21.445593,15.614734 L 16.816687,15.614734 L 16.816687,14.784656 C 17.191034,14.397288 17.700474,13.878082 18.345007,13.227039 C 18.99279,12.572745 19.399691,12.151196 19.56571,11.962391 C 19.881461,11.607577 20.101188,11.308098 20.22489,11.063953 C 20.351839,10.816562 20.415315,10.574049 20.415319,10.336414 C 20.415315,9.9490499 20.278596,9.633295 20.005163,9.3891484 C 19.734977,9.1450142 19.381787,9.022944 18.945593,9.0229374 C 18.636346,9.022944 18.309197,9.0766549 17.964148,9.1840702 C 17.622349,9.2914984 17.256139,9.4542587 16.865515,9.6723515 L 16.865515,8.6762577 C 17.262649,8.5167596 17.633742,8.396317 17.978796,8.3149296 C 18.323846,8.2335568 18.639601,8.1928667 18.926062,8.1928593 C 19.681266,8.1928667 20.283479,8.3816686 20.732702,8.7592655 C 21.181916,9.1368762 21.406525,9.641433 21.40653,10.272937 C 21.406525,10.572422 21.349559,10.857252 21.235632,11.12743 C 21.12495,11.394361 20.9215,11.710116 20.62528,12.074695 C 20.543896,12.1691 20.285107,12.442537 19.848913,12.895008 C 19.412712,13.344229 18.797478,13.974111 18.00321,14.784656 M 26.509069,11.68407 C 26.98107,11.784986 27.348908,11.994946 27.612585,12.313953 C 27.879507,12.632966 28.01297,13.026846 28.012976,13.495594 C 28.01297,14.214996 27.765575,14.771636 27.270788,15.165516 C 26.775992,15.559396 26.072868,15.756336 25.161413,15.756336 C 24.855421,15.756336 24.539666,15.725411 24.214148,15.663562 C 23.891881,15.604969 23.558222,15.515451 23.213171,15.395008 L 23.213171,14.442859 C 23.486607,14.602366 23.786086,14.722808 24.111609,14.804187 C 24.437127,14.885568 24.777296,14.926258 25.132116,14.926258 C 25.750603,14.926258 26.22098,14.804188 26.543249,14.560047 C 26.868766,14.315907 27.031526,13.96109 27.03153,13.495594 C 27.031526,13.065909 26.880159,12.730623 26.577429,12.489734 C 26.277946,12.245597 25.859652,12.123527 25.322546,12.123523 L 24.472937,12.123523 L 24.472937,11.312976 L 25.361609,11.312976 C 25.846631,11.312981 26.217725,11.216952 26.47489,11.024891 C 26.732047,10.829583 26.860628,10.549635 26.860632,10.185047 C 26.860628,9.8107036 26.727164,9.5242456 26.460241,9.3256718 C 26.196566,9.1238554 25.817334,9.022944 25.322546,9.0229374 C 25.052361,9.022944 24.762648,9.0522409 24.453405,9.110828 C 24.144159,9.1694282 23.80399,9.260574 23.432898,9.3842655 L 23.432898,8.5053593 C 23.807245,8.4011998 24.15718,8.3230749 24.482702,8.2709843 C 24.811476,8.2189084 25.12072,8.1928667 25.410437,8.1928593 C 26.159131,8.1928667 26.751578,8.363765 27.18778,8.7055546 C 27.623973,9.0441028 27.842072,9.5030868 27.842077,10.082508 C 27.842072,10.486159 27.726512,10.827955 27.495398,11.107898 C 27.264273,11.384595 26.935497,11.576652 26.509069,11.68407"
         style="font-size:10px;font-style:normal;font-variant:normal;font-weight:normal;font-stretch:normal;text-align:start;line-height:80.00000119%;writing-mode:lr-tb;text-anchor:start;fill:#000000;fill-opacity:1;stroke:none;stroke-width:1px;stroke-linecap:butt;stroke-linejoin:miter;stroke-opacity:1;font-family:Bitstream Vera Sans" />
      <g
         transform="matrix(0.421505,0,0,0.421505,-0.144802,17.49964)"
         inkscape:label="Layer 1"
         id="g2470">
        <g
           id="g7025"
           transform="translate(-234.83,43.37044)">
          <path
             id="path1793"
             style="fill:url(#radialGradient2759);fill-opacity:1;fill-rule:evenodd;stroke:#000000;stroke-width:1.25;stroke-linecap:square;stroke-linejoin:round;stroke-miterlimit:4;stroke-dashoffset:0;stroke-opacity:1"
             d="M 92.550185,-83.258379 C 92.550185,-75.498929 86.252665,-69.201398 78.493215,-69.201398 C 70.733765,-69.201398 64.436235,-75.498929 64.436235,-83.258379 C 64.436235,-91.017829 70.733765,-97.315347 78.493215,-97.315347 C 86.252665,-97.315347 92.550185,-91.017829 92.550185,-83.258379 z "
             sodipodi:nodetypes="ccccc"
             transform="translate(171.3623,54.86245)" />
          <path
             style="fill:#ffffff;fill-opacity:1;fill-rule:evenodd;stroke:#000000;stroke-width:0;stroke-linecap:butt;stroke-linejoin:miter;stroke-miterlimit:4;stroke-opacity:1"
             d="M 247.00737,-40.326302 C 242.18192,-39.389657 237.60019,-32.563079 238.72468,-25.009377 C 240.04698,-29.116604 243.48877,-31.51391 246.45428,-34.201953 C 248.4463,-35.931284 254.15467,-38.937616 254.7241,-39.465307 C 252.33198,-40.624095 249.58746,-40.504038 247.00737,-40.326302 z "
             id="path1794"
             sodipodi:nodetypes="ccccc" />
          <path
             style="fill:#ffffff;fill-opacity:1;fill-rule:evenodd;stroke:#000000;stroke-width:0;stroke-linecap:butt;stroke-linejoin:miter;stroke-miterlimit:4;stroke-opacity:1"
             d="M 89.511568,-88.561165 C 89.986305,-79.93989 81.690213,-71.55302 75.877586,-71.488794 C 84.15689,-70.422273 92.371122,-76.592133 89.511568,-88.561165 z "
             id="path1795"
             sodipodi:nodetypes="ccc"
             transform="translate(171.3623,54.86245)" />
        </g>
      </g>
    </g>
  </g>
</svg>
