<?xml version="1.0" encoding="UTF-8" standalone="no"?>
<svg
   xmlns:dc="http://purl.org/dc/elements/1.1/"
   xmlns:cc="http://creativecommons.org/ns#"
   xmlns:rdf="http://www.w3.org/1999/02/22-rdf-syntax-ns#"
   xmlns:svg="http://www.w3.org/2000/svg"
   xmlns="http://www.w3.org/2000/svg"
   xmlns:xlink="http://www.w3.org/1999/xlink"
   xmlns:sodipodi="http://sodipodi.sourceforge.net/DTD/sodipodi-0.dtd"
   xmlns:inkscape="http://www.inkscape.org/namespaces/inkscape"
   width="30px"
   height="30px"
   id="svg4046"
   sodipodi:version="0.32"
   inkscape:version="0.46"
   sodipodi:docbase="/home/daniel/projects/k3d_artwork/Icon_parts"
   sodipodi:docname="Convert_Selection_2.svg"
   preserveAspectRatio="xMidYMid meet"
   zoomAndPan="magnify"
   version="1.0"
   contentScriptType="text/ecmascript"
   contentStyleType="text/css"
   inkscape:export-filename="/home/daniel/projects/k3d_artwork/Icon_parts/K3D_icon_template_1.svg.png"
   inkscape:export-xdpi="90"
   inkscape:export-ydpi="90"
   inkscape:output_extension="org.inkscape.output.svg.inkscape">
  <defs
     id="defs3">
    <inkscape:perspective
       sodipodi:type="inkscape:persp3d"
       inkscape:vp_x="0 : 15 : 1"
       inkscape:vp_y="0 : 1000 : 0"
       inkscape:vp_z="30 : 15 : 1"
       inkscape:persp3d-origin="15 : 10 : 1"
       id="perspective22" />
    <linearGradient
       id="linearGradient3204">
      <stop
         id="stop3206"
         offset="0"
         style="stop-color:#5c5c5c;stop-opacity:1;" />
      <stop
         id="stop3208"
         offset="1"
         style="stop-color:#bab5ab;stop-opacity:0;" />
    </linearGradient>
    <marker
       inkscape:stockid="Arrow2Lend"
       orient="auto"
       refY="0.0"
       refX="0.0"
       id="Arrow2Lend"
       style="overflow:visible;">
      <path
         id="path3133"
         style="font-size:12.0;fill-rule:evenodd;stroke-width:0.62500000;stroke-linejoin:round;"
         d="M 8.7185878,4.0337352 L -2.2072895,0.016013256 L 8.7185884,-4.0017078 C 6.9730900,-1.6296469 6.9831476,1.6157441 8.7185878,4.0337352 z "
         transform="scale(1.1) rotate(180) translate(-5,0)" />
    </marker>
    <linearGradient
       id="linearGradient12426">
      <stop
         id="stop12427"
         offset="0.0000000"
         style="stop-color:#eae8e3;stop-opacity:1.0000000;" />
      <stop
         id="stop12428"
         offset="1.0000000"
         style="stop-color:#807d74;stop-opacity:1.0000000;" />
    </linearGradient>
    <linearGradient
       inkscape:collect="always"
       xlink:href="#linearGradient3204"
       id="linearGradient3202"
       x1="2.8360133"
       y1="3.1524081"
       x2="26.753057"
       y2="26.596785"
       gradientUnits="userSpaceOnUse" />
    <linearGradient
       inkscape:collect="always"
       xlink:href="#linearGradient3204"
       id="linearGradient3216"
       gradientUnits="userSpaceOnUse"
       x1="2.8360133"
       y1="3.1524081"
       x2="26.753057"
       y2="26.596785" />
  </defs>
  <sodipodi:namedview
     id="base"
     pagecolor="#ffffff"
     bordercolor="#666666"
     borderopacity="1.0"
     inkscape:pageopacity="0.0"
     inkscape:pageshadow="2"
     inkscape:zoom="21.15646"
     inkscape:cx="14.92606"
     inkscape:cy="14.603366"
     inkscape:current-layer="layer1"
     inkscape:window-width="1680"
     inkscape:window-height="1015"
     inkscape:window-x="0"
     inkscape:window-y="6"
     showguides="true"
     inkscape:guide-bbox="true"
     showgrid="true"
     inkscape:snap-global="false">
    <inkscape:grid
       type="xygrid"
       id="grid3185"
       visible="true"
       enabled="true"
       empspacing="10"
       dotted="false"
       color="#0082ff"
       opacity="0.1254902"
       empcolor="#2b00ff"
       empopacity="0.25098039" />
    <inkscape:grid
       type="axonomgrid"
       id="grid3187"
       units="px"
       visible="true"
       enabled="true"
       color="#ff005c"
       opacity="0.1254902"
       empcolor="#d700ff"
       empopacity="0.1254902"
       spacingy="3.855px"
       gridanglex="30"
       gridanglez="30"
       empspacing="10"
       originx="1.6px"
       originy="-0.4px" />
  </sodipodi:namedview>
  <metadata
     id="metadata4">
    <rdf:RDF>
      <cc:Work
         rdf:about="">
        <dc:format>image/svg+xml</dc:format>
        <dc:type
           rdf:resource="http://purl.org/dc/dcmitype/StillImage" />
      </cc:Work>
    </rdf:RDF>
  </metadata>
  <g
     inkscape:label="Layer 1"
     inkscape:groupmode="layer"
     id="layer1">
    <g
       id="g3221">
      <g
         id="g2424"
         transform="matrix(0.5457276,0,0,0.5457276,10.89375,8.5145115)">
        <g
           id="g6123"
           transform="translate(115.9812,-472.5443)">
          <path
             style="fill:#bab5ab;stroke:#000000;stroke-linecap:square;stroke-linejoin:bevel;stroke-dashoffset:0"
             d="M -114.00505,478.41079 L -101.25573,485.54737 L -101.25573,499.25315 L -112.99512,491.29901 L -114.00505,478.41079 z"
             id="path6300"
             sodipodi:nodetypes="ccccc" />
          <path
             style="fill:#df421e;fill-opacity:1;stroke:#000000;stroke-width:1.21249998;stroke-linecap:square;stroke-linejoin:bevel;stroke-dashoffset:0"
             d="M -100.97892,485.62118 L -88.830368,479.44134 L -89.84523,491.46362 L -100.95673,499.73035 L -100.97892,485.62118 z"
             id="path6301"
             sodipodi:nodetypes="ccccc" />
          <path
             style="fill:#df421e;fill-opacity:1;stroke:#000000;stroke-linecap:square;stroke-linejoin:bevel;stroke-dashoffset:0"
             d="M -102.48359,475.52909 L -88.558914,479.71493 L -100.94113,485.36659 L -114.11586,478.54771 L -102.48359,475.52909 z"
             id="path6302"
             sodipodi:nodetypes="ccccc" />
          <path
             sodipodi:type="arc"
             style="fill:#000000;fill-opacity:1;fill-rule:nonzero;stroke:#807d74;stroke-width:0;stroke-linecap:square;stroke-linejoin:bevel;stroke-miterlimit:4;stroke-dashoffset:0;stroke-opacity:1"
             id="path6303"
             sodipodi:cx="-96.605515"
             sodipodi:cy="-87.276924"
             sodipodi:rx="3.4174511"
             sodipodi:ry="3.4174511"
             d="M -93.188063,-87.276924 A 3.4174511,3.4174511 0 1 1 -100.02297,-87.276924 A 3.4174511,3.4174511 0 1 1 -93.188063,-87.276924 z"
             transform="matrix(0.496913,0,0,0.496913,-41.32945,523.1405)" />
          <path
             sodipodi:type="arc"
             style="fill:#000000;fill-opacity:1;fill-rule:nonzero;stroke:#807d74;stroke-width:0;stroke-linecap:square;stroke-linejoin:bevel;stroke-miterlimit:4;stroke-dashoffset:0;stroke-opacity:1"
             id="path6304"
             sodipodi:cx="-96.605515"
             sodipodi:cy="-87.276924"
             sodipodi:rx="3.4174511"
             sodipodi:ry="3.4174511"
             d="M -93.188063,-87.276924 A 3.4174511,3.4174511 0 1 1 -100.02297,-87.276924 A 3.4174511,3.4174511 0 1 1 -93.188063,-87.276924 z"
             transform="matrix(0.496913,0,0,0.496913,-54.56047,518.7757)" />
          <path
             sodipodi:type="arc"
             style="fill:#000000;fill-opacity:1;fill-rule:nonzero;stroke:#807d74;stroke-width:0;stroke-linecap:square;stroke-linejoin:bevel;stroke-miterlimit:4;stroke-dashoffset:0;stroke-opacity:1"
             id="path6305"
             sodipodi:cx="-96.605515"
             sodipodi:cy="-87.276924"
             sodipodi:rx="3.4174511"
             sodipodi:ry="3.4174511"
             d="M -93.188063,-87.276924 A 3.4174511,3.4174511 0 1 1 -100.02297,-87.276924 A 3.4174511,3.4174511 0 1 1 -93.188063,-87.276924 z"
             transform="matrix(0.496913,0,0,0.496913,-65.47261,521.7765)" />
          <path
             sodipodi:type="arc"
             style="fill:#000000;fill-opacity:1;fill-rule:nonzero;stroke:#807d74;stroke-width:0;stroke-linecap:square;stroke-linejoin:bevel;stroke-miterlimit:4;stroke-dashoffset:0;stroke-opacity:1"
             id="path6306"
             sodipodi:cx="-96.605515"
             sodipodi:cy="-87.276924"
             sodipodi:rx="3.4174511"
             sodipodi:ry="3.4174511"
             d="M -93.188063,-87.276924 A 3.4174511,3.4174511 0 1 1 -100.02297,-87.276924 A 3.4174511,3.4174511 0 1 1 -93.188063,-87.276924 z"
             transform="matrix(0.496913,0,0,0.496913,-53.19645,528.733)" />
          <path
             sodipodi:type="arc"
             style="fill:#000000;fill-opacity:1;fill-rule:nonzero;stroke:#807d74;stroke-width:0;stroke-linecap:square;stroke-linejoin:bevel;stroke-miterlimit:4;stroke-dashoffset:0;stroke-opacity:1"
             id="path6307"
             sodipodi:cx="-96.605515"
             sodipodi:cy="-87.276924"
             sodipodi:rx="3.4174511"
             sodipodi:ry="3.4174511"
             d="M -93.188063,-87.276924 A 3.4174511,3.4174511 0 1 1 -100.02297,-87.276924 A 3.4174511,3.4174511 0 1 1 -93.188063,-87.276924 z"
             transform="matrix(0.496913,0,0,0.496913,-42.01151,534.5983)" />
          <path
             sodipodi:type="arc"
             style="fill:#000000;fill-opacity:1;fill-rule:nonzero;stroke:#807d74;stroke-width:0;stroke-linecap:square;stroke-linejoin:bevel;stroke-miterlimit:4;stroke-dashoffset:0;stroke-opacity:1"
             id="path6308"
             sodipodi:cx="-96.605515"
             sodipodi:cy="-87.276924"
             sodipodi:rx="3.4174511"
             sodipodi:ry="3.4174511"
             d="M -93.188063,-87.276924 A 3.4174511,3.4174511 0 1 1 -100.02297,-87.276924 A 3.4174511,3.4174511 0 1 1 -93.188063,-87.276924 z"
             transform="matrix(0.496913,0,0,0.496913,-52.78724,542.1004)" />
          <path
             sodipodi:type="arc"
             style="fill:#000000;fill-opacity:1;fill-rule:nonzero;stroke:#807d74;stroke-width:0;stroke-linecap:square;stroke-linejoin:bevel;stroke-miterlimit:4;stroke-dashoffset:0;stroke-opacity:1"
             id="path6309"
             sodipodi:cx="-96.605515"
             sodipodi:cy="-87.276924"
             sodipodi:rx="3.4174511"
             sodipodi:ry="3.4174511"
             d="M -93.188063,-87.276924 A 3.4174511,3.4174511 0 1 1 -100.02297,-87.276924 A 3.4174511,3.4174511 0 1 1 -93.188063,-87.276924 z"
             transform="matrix(0.496913,0,0,0.496913,-64.79061,534.5983)" />
        </g>
        <path
           sodipodi:type="arc"
           style="fill:#df421e;fill-opacity:1;fill-rule:nonzero;stroke:#000000;stroke-width:0.7856797;stroke-linecap:square;stroke-linejoin:bevel;stroke-miterlimit:4;stroke-dasharray:none;stroke-dashoffset:0;stroke-opacity:1"
           id="path6109"
           sodipodi:cx="-96.605515"
           sodipodi:cy="-87.276924"
           sodipodi:rx="2.4120836"
           sodipodi:ry="2.4120836"
           d="M -94.193431,-87.276924 A 2.4120836,2.4120836 0 1 1 -99.017598,-87.276924 A 2.4120836,2.4120836 0 1 1 -94.193431,-87.276924 z"
           transform="matrix(1.145505,0,0,1.145505,125.6336,112.91729)" />
        <use
           x="0"
           y="0"
           xlink:href="#path6109"
           id="use3334"
           transform="translate(11.804449,-5.3263977)"
           width="30"
           height="30" />
        <use
           x="0"
           y="0"
           xlink:href="#path6109"
           id="use3336"
           transform="translate(-12.812146,-6.9818997)"
           width="30"
           height="30" />
        <use
           x="0"
           y="0"
           xlink:href="#path6109"
           id="use3338"
           transform="translate(-1.2236319,-9.8610336)"
           width="30"
           height="30" />
        <use
           x="0"
           y="0"
           xlink:href="#path6109"
           id="use3340"
           transform="translate(11.228622,5.4703544)"
           width="30"
           height="30" />
        <use
           x="0"
           y="0"
           xlink:href="#path6109"
           id="use3342"
           transform="translate(0,13.603908)"
           width="30"
           height="30" />
      </g>
      <path
         id="text2401"
         d="M 10.718651,2.4613069 L 10.718651,2.4613069 C 10.472958,2.1022596 10.113896,1.9227292 9.6414529,1.9227071 C 8.8477135,1.9227292 8.3091137,2.7731485 8.0256544,4.4739678 L 8.0256544,4.5023147 L 7.8839185,5.5228186 C 7.7894151,6.1653751 7.6382314,7.5543941 7.430361,9.6898763 C 6.9767959,14.679014 6.2492124,19.49806 5.2476163,24.147016 C 5.1909141,24.354895 5.1531205,24.515531 5.1342272,24.628921 C 4.6239676,26.632127 3.6696049,27.662078 2.271146,27.71878 C 1.3640245,27.718772 0.70258882,27.293563 0.28683269,26.44315 C 0.13564213,26.121876 0.060053993,25.791161 0.060053993,25.450993 C 0.060053993,24.789551 0.37187458,24.402142 0.99551595,24.288753 C 1.0711041,24.269852 1.1466994,24.260405 1.2222947,24.260405 C 1.7325396,24.260405 2.0821613,24.496631 2.271146,24.969089 C 2.3278338,25.101372 2.3561806,25.243108 2.3561883,25.394299 C 2.3561806,26.131329 1.9593188,26.518738 1.1656,26.556539 C 1.4112724,26.915601 1.7703407,27.095131 2.2427992,27.095139 C 3.0554173,27.095131 3.594017,26.197471 3.8585963,24.402142 C 3.8774907,24.232057 3.9058376,24.033627 3.9436387,23.806848 C 4.057021,23.050917 4.2271048,21.557963 4.4538907,19.32797 C 4.9074413,14.338846 5.6350181,9.5198065 6.6366353,4.8708297 L 6.6366353,4.8424829 L 6.664983,4.8141352 L 6.664983,4.7574406 C 6.7027698,4.6062715 6.7311176,4.4834357 6.7500244,4.3889255 C 7.2602696,2.3857323 8.2146257,1.3557818 9.6131063,1.2990661 C 10.520206,1.2990872 11.181641,1.7242978 11.597419,2.5746959 C 11.748587,2.8959852 11.824182,3.2267058 11.824197,3.5668531 C 11.824182,4.2283097 11.512362,4.6157258 10.888735,4.7290939 C 10.813125,4.7480083 10.737538,4.7574618 10.661957,4.7574406 C 10.151691,4.7574618 9.8020762,4.5212291 9.6131063,4.0487572 L 9.5847576,4.0204104 C 9.5469502,3.9070425 9.528049,3.7747523 9.5280632,3.6235476 C 9.528049,2.8865376 9.9249115,2.4991224 10.718651,2.4613069"
         style="font-size:40px;font-style:normal;font-variant:normal;font-weight:bold;font-stretch:normal;line-height:125%;fill:#000000;fill-opacity:1;stroke:none;stroke-width:1px;stroke-linecap:butt;stroke-linejoin:miter;stroke-opacity:1;font-family:Arial Black;-inkscape-font-specification:'Arial Black, Bold'" />
      <path
         id="path2492"
         d="M 10.806951,25.483721 C 9.8631785,24.292927 9.0650885,22.899447 8.4126983,21.30328 C 7.7602931,19.707112 7.4340943,18.053938 7.4340943,16.343755 C 7.4340943,14.836268 7.6779498,13.392118 8.1656684,12.011297 C 8.7357298,10.408806 9.6161555,8.812639 10.806951,7.2227917 L 12.032578,7.2227917 C 11.26616,8.5402771 10.759439,9.480876 10.512416,10.04459 C 10.126042,10.918693 9.8220055,11.830788 9.6003199,12.780879 C 9.3279538,13.965344 9.1917779,15.156136 9.1917779,16.353256 C 9.1917779,19.399913 10.138711,22.443399 12.032578,25.483721 L 10.806951,25.483721"
         style="font-size:16px;font-style:normal;font-variant:normal;font-weight:normal;font-stretch:normal;fill:#000000;fill-opacity:1;stroke:none;stroke-width:1px;stroke-linecap:butt;stroke-linejoin:miter;stroke-opacity:1;font-family:Arial;-inkscape-font-specification:Arial" />
      <path
         id="text2481"
         d="M 26.550634,25.483721 L 25.325007,25.483721 C 27.218875,22.443399 28.165801,19.399913 28.165808,16.353256 C 28.165801,15.16247 28.029625,13.98118 27.757266,12.809382 C 27.541899,11.859291 27.241043,10.947196 26.854664,10.073093 C 26.607649,9.5030448 26.097761,8.5529452 25.325007,7.2227917 L 26.550634,7.2227917 C 27.74143,8.812639 28.621849,10.408806 29.191918,12.011297 C 29.679636,13.392118 29.923492,14.836268 29.923492,16.343755 C 29.923492,18.053938 29.594119,19.707112 28.935387,21.30328 C 28.282982,22.899447 27.48806,24.292927 26.550634,25.483721"
         style="font-size:16px;font-style:normal;font-variant:normal;font-weight:normal;font-stretch:normal;fill:#000000;fill-opacity:1;stroke:none;stroke-width:1px;stroke-linecap:butt;stroke-linejoin:miter;stroke-opacity:1;font-family:Arial;-inkscape-font-specification:Arial" />
    </g>
    <g
       id="g2498"
       transform="matrix(0.7426737,0,0,0.7426737,5.5386982,-40.20906)" />
  </g>
</svg>
