<?xml version="1.0" encoding="UTF-8" standalone="no"?>
<svg
   xmlns:dc="http://purl.org/dc/elements/1.1/"
   xmlns:cc="http://creativecommons.org/ns#"
   xmlns:rdf="http://www.w3.org/1999/02/22-rdf-syntax-ns#"
   xmlns:svg="http://www.w3.org/2000/svg"
   xmlns="http://www.w3.org/2000/svg"
   xmlns:xlink="http://www.w3.org/1999/xlink"
   xmlns:sodipodi="http://sodipodi.sourceforge.net/DTD/sodipodi-0.dtd"
   xmlns:inkscape="http://www.inkscape.org/namespaces/inkscape"
   width="30px"
   height="30px"
   id="svg4046"
   sodipodi:version="0.32"
   inkscape:version="0.46"
   sodipodi:docbase="/home/daniel/projects/k3d_artwork/Icon_parts"
   sodipodi:docname="LuxRenderEngine.svg"
   preserveAspectRatio="xMidYMid meet"
   zoomAndPan="magnify"
   version="1.0"
   contentScriptType="text/ecmascript"
   contentStyleType="text/css"
   inkscape:export-filename="/home/daniel/projects/k3d_artwork/Icon_parts/K3D_icon_template_1.svg.png"
   inkscape:export-xdpi="90"
   inkscape:export-ydpi="90"
   inkscape:output_extension="org.inkscape.output.svg.inkscape">
  <defs
     id="defs3">
    <inkscape:perspective
       sodipodi:type="inkscape:persp3d"
       inkscape:vp_x="0 : 15 : 1"
       inkscape:vp_y="0 : 1000 : 0"
       inkscape:vp_z="30 : 15 : 1"
       inkscape:persp3d-origin="15 : 10 : 1"
       id="perspective22" />
    <linearGradient
       id="linearGradient3204">
      <stop
         id="stop3206"
         offset="0"
         style="stop-color:#5c5c5c;stop-opacity:1;" />
      <stop
         id="stop3208"
         offset="1"
         style="stop-color:#bab5ab;stop-opacity:0;" />
    </linearGradient>
    <marker
       inkscape:stockid="Arrow2Lend"
       orient="auto"
       refY="0.0"
       refX="0.0"
       id="Arrow2Lend"
       style="overflow:visible;">
      <path
         id="path3133"
         style="font-size:12.0;fill-rule:evenodd;stroke-width:0.62500000;stroke-linejoin:round;"
         d="M 8.7185878,4.0337352 L -2.2072895,0.016013256 L 8.7185884,-4.0017078 C 6.9730900,-1.6296469 6.9831476,1.6157441 8.7185878,4.0337352 z "
         transform="scale(1.1) rotate(180) translate(-5,0)" />
    </marker>
    <linearGradient
       id="linearGradient12426">
      <stop
         id="stop12427"
         offset="0.0000000"
         style="stop-color:#eae8e3;stop-opacity:1.0000000;" />
      <stop
         id="stop12428"
         offset="1.0000000"
         style="stop-color:#807d74;stop-opacity:1.0000000;" />
    </linearGradient>
    <linearGradient
       inkscape:collect="always"
       xlink:href="#linearGradient3204"
       id="linearGradient3202"
       x1="2.8360133"
       y1="3.1524081"
       x2="26.753057"
       y2="26.596785"
       gradientUnits="userSpaceOnUse" />
    <linearGradient
       inkscape:collect="always"
       xlink:href="#linearGradient3204"
       id="linearGradient3216"
       gradientUnits="userSpaceOnUse"
       x1="2.8360133"
       y1="3.1524081"
       x2="26.753057"
       y2="26.596785" />
  </defs>
  <sodipodi:namedview
     id="base"
     pagecolor="#ffffff"
     bordercolor="#666666"
     borderopacity="1.0"
     inkscape:pageopacity="0.0"
     inkscape:pageshadow="2"
     inkscape:zoom="21.15646"
     inkscape:cx="5.9997338"
     inkscape:cy="14.726144"
     inkscape:current-layer="layer1"
     inkscape:window-width="1680"
     inkscape:window-height="1015"
     inkscape:window-x="0"
     inkscape:window-y="6"
     showguides="true"
     inkscape:guide-bbox="true"
     showgrid="true"
     inkscape:snap-global="false">
    <inkscape:grid
       type="xygrid"
       id="grid3185"
       visible="true"
       enabled="true"
       empspacing="10"
       dotted="false"
       color="#0082ff"
       opacity="0.1254902"
       empcolor="#2b00ff"
       empopacity="0.25098039" />
    <inkscape:grid
       type="axonomgrid"
       id="grid3187"
       units="px"
       visible="true"
       enabled="true"
       color="#ff005c"
       opacity="0.1254902"
       empcolor="#d700ff"
       empopacity="0.1254902"
       spacingy="3.855px"
       gridanglex="30"
       gridanglez="30"
       empspacing="10"
       originx="1.6px"
       originy="-0.4px" />
  </sodipodi:namedview>
  <metadata
     id="metadata4">
    <rdf:RDF>
      <cc:Work
         rdf:about="">
        <dc:format>image/svg+xml</dc:format>
        <dc:type
           rdf:resource="http://purl.org/dc/dcmitype/StillImage" />
      </cc:Work>
    </rdf:RDF>
  </metadata>
  <g
     inkscape:label="Layer 1"
     inkscape:groupmode="layer"
     id="layer1">
    <g
       id="g5105">
      <g
         transform="matrix(-1.0610681,-0.2917835,-0.2917835,1.0610681,35.151788,2.0587024)"
         id="g5021">
        <path
           style="opacity:1;fill:#c0c0c0;fill-opacity:1;fill-rule:evenodd;stroke:#000000;stroke-width:0.75;stroke-miterlimit:4;stroke-dasharray:none"
           d="M 13.195505,28.199776 C 12.932326,28.025588 12.445099,27.354356 12.242698,26.887134 C 12.169078,26.717192 12.106375,26.57873 12.103354,26.579444 C 12.100335,26.580158 11.832454,26.603772 11.508064,26.631918 C 11.183674,26.660066 10.889208,26.690936 10.853696,26.70052 C 10.816963,26.710434 10.783741,26.782421 10.776631,26.867509 C 10.757832,27.092456 10.537689,27.601196 10.287826,27.997111 C 9.9742549,28.493967 9.9769349,28.492362 9.559188,28.433865 C 9.3667777,28.40692 9.1779007,28.368796 9.1394613,28.349145 C 9.0167162,28.286391 8.7666228,27.28042 8.7642549,26.83993 C 8.7631945,26.642444 8.7452456,26.464837 8.7243715,26.445248 C 8.6946418,26.417352 7.8332311,26.124345 7.5807993,26.056265 C 7.5522965,26.048578 7.4445059,26.154269 7.3412643,26.291133 C 7.2380212,26.427996 7.0595219,26.624505 6.9445986,26.727818 C 6.7299448,26.920786 6.1613147,27.317808 6.0607021,27.344962 C 5.9759794,27.367828 5.3557702,27.014035 5.333059,26.929884 C 5.302243,26.815702 5.3689293,26.161821 5.4408367,25.87308 C 5.4765584,25.72964 5.5592899,25.484451 5.6246821,25.328217 L 5.7435774,25.044157 L 5.2720705,24.63362 C 5.0127406,24.407824 4.780086,24.22861 4.755059,24.235364 C 4.730031,24.242119 4.5759646,24.323402 4.4126884,24.415995 C 4.1785926,24.548748 3.9886249,24.618654 3.5142488,24.746609 C 3.1833823,24.835854 2.8963086,24.897971 2.8763063,24.884644 C 2.8563031,24.871317 2.7296222,24.716669 2.5947915,24.540981 L 2.3496457,24.221549 L 2.683261,23.64976 C 2.9272847,23.23153 3.0798524,23.020798 3.2513659,22.865077 C 3.4654578,22.670701 3.4828924,22.641162 3.4518198,22.525489 C 3.4236873,22.420756 3.1752018,21.894073 2.9995925,21.566957 C 2.9633886,21.499519 2.9063679,21.492817 2.6305219,21.523585 C 2.1913462,21.57257 1.6729817,21.547979 1.2818653,21.459604 L 0.95927001,21.386711 L 0.84275711,21.000693 L 0.72624421,20.614677 L 0.83707351,20.498602 C 1.1413396,20.179936 1.6647183,19.830794 2.2382,19.563921 L 2.4274239,19.475865 L 2.3937523,18.987294 C 2.3438918,18.263827 2.3383964,18.249972 2.0738811,18.180896 C 1.6600533,18.072829 1.2254252,17.88111 0.89493611,17.66085 C 0.71355481,17.539968 0.55807514,17.41484 0.54942522,17.38279 C 0.54077557,17.35074 0.55355158,17.163576 0.57781668,16.966871 C 0.61836572,16.638166 0.63218611,16.604284 0.74860001,16.548182 C 0.97512231,16.43902 2.0562017,16.208899 2.2873812,16.220635 C 2.4058416,16.226649 2.5336403,16.223237 2.5713772,16.213052 C 2.6144592,16.201425 2.7128844,15.975628 2.8358943,15.606222 L 3.0317997,15.01791 L 2.7531105,14.801937 C 2.5998329,14.68315 2.3879324,14.489579 2.2822214,14.371778 C 2.0714241,14.136872 1.7599091,13.690401 1.7303263,13.580789 C 1.7200168,13.542589 1.808884,13.363417 1.9278085,13.182628 L 2.1440358,12.853922 L 2.3271896,12.858569 C 2.7470819,12.869224 3.2775361,12.959983 3.6502048,13.084932 C 3.8687619,13.15821 4.0712153,13.211787 4.1001014,13.203991 C 4.1982428,13.177504 4.8746111,12.372929 4.8848612,12.270478 C 4.8914604,12.204533 4.859293,12.117747 4.7920295,12.020016 C 4.6394021,11.79825 4.4204369,11.23351 4.3678214,10.925921 C 4.283737,10.434362 4.2790325,10.452478 4.5476186,10.233466 C 4.9376108,9.9154573 4.9250176,9.917928 5.2882758,10.088148 C 5.7074448,10.284567 6.2387451,10.647299 6.4167579,10.85859 C 6.5306703,10.993799 6.5772673,11.020581 6.6586126,10.997602 C 6.7673519,10.966884 7.7398623,10.505613 7.7492441,10.480305 C 7.7523672,10.471878 7.7403714,10.264437 7.722584,10.019326 C 7.6884598,9.5490349 7.7361082,9.0485118 7.8504936,8.6757467 L 7.9192631,8.4516323 L 8.2989338,8.3491645 L 8.6786007,8.2466978 L 8.9939012,8.6051677 C 9.3336251,8.991403 9.6094904,9.4250792 9.6806309,9.6847433 C 9.7050399,9.7738388 9.7455149,9.8655113 9.7705769,9.8884597 C 9.7956389,9.9114103 10.099145,9.9094687 10.445034,9.8841482 L 11.073927,9.8381105 L 11.131578,9.6312552 C 11.243286,9.2304398 11.471298,8.7399192 11.703164,8.4015935 C 11.832092,8.213465 11.954357,8.0550119 11.974855,8.0494797 C 11.995355,8.0439471 12.182241,8.0637672 12.390162,8.0935255 C 12.746276,8.1444898 12.772231,8.1556804 12.837687,8.2864854 C 12.972815,8.5565136 13.145475,9.2980199 13.142415,9.5951821 C 13.137001,10.120888 13.088394,10.065212 13.738633,10.278127 C 14.057402,10.382504 14.332015,10.469593 14.34889,10.471657 C 14.365763,10.473721 14.449635,10.380328 14.535273,10.264116 C 14.620915,10.147904 14.791659,9.9568535 14.91471,9.8395585 C 15.143378,9.6215871 15.7305,9.1996169 15.849981,9.1673707 C 15.886482,9.1575195 16.070436,9.2372676 16.258768,9.3445886 L 16.601198,9.5397155 L 16.57242,9.9198772 C 16.532961,10.441234 16.443458,10.848355 16.295427,11.179862 C 16.15037,11.504717 16.109792,11.431366 16.730261,11.965921 L 17.135829,12.315335 L 17.38878,12.161094 C 17.655666,11.998355 18.639409,11.666254 18.915329,11.645748 C 19.044072,11.636181 19.075008,11.659637 19.278489,11.921089 C 19.430151,12.11596 19.501531,12.241506 19.502843,12.315699 C 19.506965,12.548397 18.674195,13.771214 18.474985,13.824978 C 18.395981,13.8463 18.443858,14.00006 18.680191,14.484051 C 18.964271,15.06584 18.972986,15.075363 19.171951,15.021665 C 19.510665,14.930251 20.698027,15.00045 20.914069,15.124662 C 20.954064,15.147655 21.032689,15.310623 21.10713,15.52483 L 21.232715,15.886207 L 20.98612,16.106942 C 20.520843,16.523431 20.049862,16.818638 19.700035,16.913052 L 19.522151,16.96106 L 19.517723,17.190348 C 19.512062,17.483554 19.554196,18.051005 19.591964,18.190172 C 19.616808,18.281715 19.666158,18.307286 19.927365,18.363956 C 20.221188,18.427701 21.04338,18.832499 21.288329,19.034012 C 21.389585,19.117315 21.390159,19.122314 21.341654,19.499257 C 21.314685,19.708829 21.275687,19.899173 21.254992,19.922245 C 21.181898,20.003734 20.099886,20.268358 19.788244,20.280963 C 19.217917,20.304028 19.293955,20.237359 19.075021,20.906306 L 18.879965,21.502292 L 19.158066,21.715129 C 19.489996,21.969166 19.712794,22.211297 20.003891,22.634355 L 20.219967,22.948377 L 20.007626,23.311331 L 19.795286,23.674284 L 19.415228,23.653385 C 18.937725,23.627127 18.540117,23.546536 18.146512,23.396227 C 17.977583,23.331717 17.824871,23.287589 17.807157,23.298165 C 17.750722,23.331853 17.017438,24.160356 17.0039,24.205725 C 16.996758,24.229676 17.067009,24.383246 17.160023,24.546988 C 17.341754,24.866903 17.554636,25.532498 17.58781,25.884485 L 17.606267,26.080329 L 17.310453,26.320907 C 17.114348,26.480393 16.983509,26.56012 16.922274,26.557441 C 16.871471,26.555218 16.615261,26.432451 16.352921,26.284623 C 15.946324,26.055506 15.731061,25.894255 15.362861,25.542966 C 15.303048,25.485902 15.27178,25.496286 14.730106,25.753122 C 14.416696,25.901725 14.1519,26.050177 14.14167,26.083015 C 14.13144,26.115855 14.145619,26.227381 14.173181,26.33085 C 14.237665,26.57294 14.203151,27.225979 14.101375,27.689559 L 14.021685,28.052533 L 13.649236,28.153052 C 13.345116,28.235129 13.261872,28.243701 13.195506,28.199776 L 13.195505,28.199776 z M 10.581309,24.315112 C 10.728039,24.160759 10.881979,23.997686 10.923398,23.952729 C 10.995623,23.874332 10.99248,23.847855 10.846575,23.30579 L 10.694446,22.740594 L 10.256614,22.3611 C 9.9620039,22.105745 9.5995569,21.851647 9.1486141,21.584323 C 8.5837256,21.249451 8.3722246,21.151873 7.8022693,20.963185 L 7.1260921,20.739328 L 6.530545,20.901082 L 5.9349963,21.062838 L 5.7859757,21.512829 C 5.7040147,21.760323 5.6444282,21.990508 5.6535612,22.024348 C 5.6806214,22.124614 6.2802116,22.778358 6.6198387,23.077898 C 7.2322911,23.618061 8.2920278,24.175905 9.151937,24.410794 C 9.5289242,24.51377 10.185628,24.628989 10.270632,24.607071 C 10.294774,24.600845 10.434578,24.469464 10.581309,24.315112 L 10.581309,24.315112 z M 14.976637,23.217247 C 15.716962,22.642636 16.224372,22.043158 16.688122,21.195216 C 17.031573,20.567237 17.250796,19.964266 17.38399,19.281245 L 17.475021,18.814432 L 17.108319,18.506599 L 16.741613,18.198766 L 16.130333,18.332526 L 15.519047,18.466283 L 15.044698,19.006729 C 14.398331,19.743157 13.927389,20.544167 13.640373,21.395303 L 13.436444,22.000052 L 13.589436,22.564865 L 13.742429,23.129677 L 14.085437,23.240184 C 14.424832,23.349524 14.685602,23.416459 14.724152,23.404128 C 14.735106,23.400625 14.848725,23.316528 14.976637,23.217247 L 14.976637,23.217247 z M 11.562999,19.022449 C 11.794081,18.856909 11.897441,18.683093 11.943774,18.382123 C 12.009706,17.953821 11.713719,17.461386 11.316655,17.338781 C 10.802709,17.180085 10.223635,17.410167 10.046555,17.843427 C 9.8809879,18.248514 9.9387069,18.616043 10.214923,18.915517 C 10.571131,19.301723 11.11314,19.344715 11.563001,19.022448 L 11.562999,19.022449 z M 6.7396358,17.668611 C 7.2793272,17.075568 7.2384128,17.131911 7.6729297,16.383394 C 7.9741049,15.864574 8.1150551,15.563647 8.2702251,15.108172 L 8.4733217,14.512013 L 8.3419161,14.028183 C 8.2696417,13.762075 8.1888586,13.507018 8.1623972,13.461388 C 8.1322539,13.409412 7.9454262,13.324108 7.6621891,13.232997 C 7.2186251,13.09031 7.2076099,13.08926 7.0784386,13.17728 C 6.7885692,13.3748 6.0947354,14.027604 5.8670275,14.317053 C 5.5412748,14.731129 5.0735327,15.527139 4.8817613,15.993787 C 4.7269191,16.370576 4.4424802,17.535503 4.4700364,17.68002 C 4.4778456,17.720974 4.6573571,17.897143 4.8689515,18.07151 L 5.253668,18.388541 L 5.8043107,18.23993 L 6.3549534,18.09132 L 6.7396358,17.668611 z M 16.133632,15.013775 L 16.316111,14.52611 L 16.109048,14.267295 C 15.266965,13.21474 13.943554,12.384499 12.598106,12.064706 C 12.341491,12.003712 12.008187,11.943972 11.857432,11.931953 L 11.583339,11.910097 L 11.248274,12.275964 L 10.913227,12.641827 L 11.068145,13.22036 L 11.223066,13.79889 L 11.688033,14.19888 C 12.340471,14.760145 13.3215,15.308157 14.189312,15.59612 L 14.81501,15.803743 L 15.383083,15.652592 L 15.951154,15.50144 L 16.133632,15.013775 z"
           id="path2456"
           inkscape:transform-center-x="0.020881718"
           inkscape:transform-center-y="0.0050650409" />
        <path
           style="opacity:1;fill:#c0c0c0;fill-opacity:1;fill-rule:evenodd;stroke:#000000;stroke-width:0.75;stroke-miterlimit:4;stroke-dasharray:none"
           d="M 23.228478,16.33377 C 22.746979,16.281837 22.761966,16.297492 22.592436,15.669338 L 22.447711,15.133094 L 22.555519,14.770915 C 22.614813,14.571716 22.659494,14.395689 22.65481,14.379744 C 22.634668,14.311187 21.466433,13.718168 21.409403,13.74755 C 21.375727,13.764901 21.311152,13.823602 21.265902,13.877997 C 20.991673,14.207646 20.902124,14.258551 20.319532,14.415968 C 19.682672,14.588048 19.727383,14.599128 19.420334,14.193159 C 19.198145,13.899395 19.19983,13.878473 19.486426,13.370717 C 19.706766,12.980351 19.837144,12.851886 20.219298,12.648614 L 20.484193,12.507712 L 20.300017,11.825288 L 20.115841,11.142868 L 19.847005,11.16007 C 19.699145,11.169532 19.484551,11.162851 19.370131,11.145223 C 19.132148,11.108557 18.436324,10.715946 18.356678,10.573391 C 18.321755,10.510883 18.325714,10.369057 18.369259,10.123015 C 18.441766,9.7132903 18.449197,9.7067659 19.016475,9.5547553 C 19.427639,9.444578 19.649439,9.4427034 20.012121,9.5463393 C 20.181307,9.5946818 20.331859,9.6309645 20.346682,9.6269638 C 20.361502,9.6229642 20.530124,9.352695 20.721383,9.0263684 C 21.052697,8.4610872 21.06531,8.4295622 20.988269,8.3593135 C 20.61954,8.0230971 20.521746,7.906806 20.440476,7.7079162 C 20.32077,7.4149498 20.204785,6.8068911 20.253798,6.7292367 C 20.275242,6.6952656 20.418704,6.5714384 20.572609,6.4540668 L 20.852437,6.2406645 L 21.161587,6.3744911 C 21.46737,6.5068566 21.776207,6.703417 21.918946,6.856518 C 21.959466,6.8999783 22.061218,7.0575172 22.145062,7.2066018 L 22.297505,7.4776644 L 22.993913,7.2897136 L 23.690325,7.1017618 L 23.68032,6.7968882 C 23.674818,6.6292062 23.696445,6.3962834 23.728385,6.2792802 C 23.793298,6.0414924 24.078508,5.5747627 24.250902,5.4242199 C 24.358117,5.3305947 24.379462,5.3274346 24.687827,5.3595256 C 24.866133,5.3780828 25.044373,5.4103961 25.083908,5.4313329 C 25.184656,5.4846942 25.432476,6.2774488 25.421019,6.5097333 C 25.416388,6.6034993 25.373715,6.8212774 25.326175,6.9936862 C 25.278639,7.1660945 25.257856,7.3241529 25.279994,7.3449281 C 25.302136,7.3657033 25.424817,7.4351879 25.552628,7.4993386 C 25.680439,7.5634879 25.900662,7.6837403 26.04202,7.7665632 C 26.463498,8.0135088 26.432047,8.0144299 26.687906,7.747635 C 26.971053,7.4523826 27.229838,7.3202526 27.746412,7.2071804 C 28.200339,7.1078201 28.152809,7.0902602 28.465012,7.4726844 C 28.587478,7.6226994 28.649449,7.7336337 28.650717,7.8051147 C 28.653204,7.9454896 28.259877,8.6274554 28.085408,8.7852827 C 28.010512,8.8530309 27.837848,8.9629695 27.701705,9.0295885 C 27.565566,9.0962076 27.446177,9.1740882 27.436399,9.2026559 C 27.426622,9.2312242 27.492106,9.526869 27.581918,9.8596465 C 27.67173,10.192423 27.763973,10.481201 27.786905,10.501374 C 27.809837,10.521548 27.975406,10.531239 28.154843,10.522908 C 28.371449,10.51285 28.554645,10.534982 28.699946,10.588756 C 28.980622,10.692626 29.55141,11.068973 29.578066,11.167738 C 29.589323,11.209448 29.570994,11.395364 29.53734,11.580883 C 29.476689,11.915193 29.474569,11.918881 29.298724,11.995822 C 29.046203,12.106314 28.357036,12.24743 28.196397,12.221538 C 28.121748,12.209507 27.949513,12.163581 27.813655,12.119482 L 27.566645,12.0393 L 27.20405,12.626668 C 27.004624,12.949719 26.845301,13.228273 26.849997,13.245674 C 26.854694,13.263078 26.959084,13.37249 27.081978,13.488814 C 27.415783,13.804778 27.478175,13.919867 27.594528,14.43432 C 27.713431,14.960047 27.712191,14.96353 27.309176,15.234391 C 27.005868,15.438239 26.981968,15.437647 26.538009,15.215266 C 26.141991,15.016895 25.950593,14.83869 25.765401,14.495899 L 25.606112,14.201059 L 24.908285,14.389393 L 24.210454,14.577728 L 24.220457,14.882601 C 24.233416,15.277473 24.157106,15.546179 23.933701,15.892349 C 23.626014,16.369117 23.615748,16.375542 23.228479,16.333771 L 23.228478,16.33377 z M 24.681692,11.500704 C 24.776415,11.399732 24.865889,11.24198 24.907376,11.102815 C 24.966914,10.903077 24.965809,10.834061 24.899102,10.586896 C 24.834122,10.346126 24.79601,10.275972 24.655081,10.137722 C 24.129499,9.6221418 23.182604,9.879053 22.987477,10.590175 C 22.936165,10.777179 22.938587,10.858838 23.002479,11.095574 C 23.066032,11.331058 23.105587,11.404322 23.240764,11.536912 C 23.52701,11.817694 23.872652,11.889925 24.274917,11.753029 C 24.462253,11.689276 24.564011,11.626156 24.681692,11.500705 L 24.681692,11.500704 z"
           id="path2458"
           inkscape:transform-center-x="-12.264192"
           inkscape:transform-center-y="-7.0672116" />
      </g>
      <path
         inkscape:export-ydpi="90"
         inkscape:export-xdpi="90"
         inkscape:export-filename="C:\Users\Lars\Desktop\text3426.png"
         style="fill:#000000;stroke:none;stroke-width:0.10000000000000001;stroke-miterlimit:4"
         id="path2391"
         d="M 15.40202,0.44197797 C 16.012272,-0.16827803 17.059602,-0.16827803 17.669855,0.44197797 C 18.284767,1.0568834 18.293631,2.0981837 17.675939,2.7158968 C 17.05822,3.3335898 16.016927,3.3247258 15.40202,2.7098178 C 14.791765,2.0995644 14.791765,1.0522295 15.40202,0.44197797 z M 10.860267,5.6022248 C 11.298498,5.1640178 12.072875,5.1533678 12.51567,5.5961678 C 12.967144,6.0476228 12.967144,6.8061718 12.51567,7.2576268 C 12.072875,7.7004268 11.29847,7.6897788 10.860267,7.2515718 C 10.430925,6.8222078 10.430902,6.0315848 10.860267,5.6022248 z M 6.1790599,10.623024 C 6.5114534,10.290625 7.1564431,10.290625 7.4888414,10.623024 C 7.8353229,10.969506 7.8479848,11.585774 7.4948956,11.938858 C 7.1418129,12.29192 6.5255413,12.279262 6.1790599,11.932776 C 5.8466631,11.600404 5.8466824,10.955396 6.1790599,10.623024 z M 19.47687,4.5168318 C 20.521981,3.4717038 22.251896,3.4717038 23.297031,4.5168318 C 23.806295,5.0260988 24.061536,5.6947048 24.073189,6.3844648 C 24.069358,6.7754078 24.282778,7.1160558 24.527977,7.3122108 C 24.74023,7.4820108 25.101278,7.6531788 25.570926,7.5426358 C 26.77251,7.3134478 27.998259,7.6657338 28.924187,8.5916618 C 30.399764,10.067243 30.399764,12.488575 28.924187,13.964136 C 28.000793,14.887544 26.723772,15.230172 25.522424,15.00105 C 25.054053,14.890793 24.725262,15.085751 24.527977,15.243585 C 24.273764,15.446971 24.063259,15.810517 24.067134,16.201668 C 24.05548,16.891336 23.808538,17.52748 23.297031,18.03899 C 22.251921,19.084097 20.521981,19.084097 19.47687,18.03899 C 18.431741,16.993863 18.431741,15.263939 19.47687,14.218809 C 19.986135,13.709547 20.654748,13.454301 21.344505,13.442652 C 21.73551,13.446528 22.076121,13.23302 22.272253,12.987885 C 22.442056,12.775613 22.613225,12.414584 22.502673,11.944913 C 22.410745,11.462859 22.422248,11.047685 22.514812,10.56238 C 22.625043,10.094035 22.430086,9.7652208 22.272253,9.5679368 C 22.068847,9.3136588 21.705236,9.1032328 21.314178,9.1070868 C 20.624521,9.0954278 19.988358,8.8484748 19.47687,8.3369868 C 18.431741,7.2918578 18.431741,5.5619368 19.47687,4.5168318 z M 15.40202,10.14398 C 16.012272,9.5337268 17.059602,9.5337268 17.669855,10.14398 C 18.284767,10.758885 18.293631,11.800181 17.675939,12.417896 C 17.05822,13.035591 16.016927,13.026725 15.40202,12.41182 C 14.791765,11.801567 14.791765,10.754231 15.40202,10.14398 z M 10.860267,15.304227 C 11.29847,14.866021 12.072875,14.855369 12.51567,15.298169 C 12.967144,15.749623 12.967144,16.508173 12.51567,16.959629 C 12.072875,17.402432 11.29847,17.391786 10.860267,16.953575 C 10.430902,16.524209 10.430902,15.733592 10.860267,15.304227 z M 15.40202,19.845985 C 16.012272,19.235726 17.059602,19.235726 17.669855,19.845985 C 18.284767,20.460891 18.293631,21.502183 17.675939,22.119878 C 17.05822,22.737594 16.016927,22.728728 15.40202,22.113815 C 14.791765,21.503566 14.791765,20.456233 15.40202,19.845985 z" />
    </g>
  </g>
</svg>
