<?xml version="1.0"?>
<svg xmlns:sodipodi="http://sodipodi.sourceforge.net/DTD/sodipodi-0.dtd" xmlns:inkscape="http://www.inkscape.org/namespaces/inkscape" width="24.000000pt" height="24.000000pt" id="svg10039" sodipodi:version="0.32" inkscape:version="0.40pre3" sodipodi:docbase="/lethe/arsgratia/k3d-icons/scalable_fix" sodipodi:docname="Orientation.svg" preserveAspectRatio="xMidYMid meet" zoomAndPan="magnify" version="1.0" contentScriptType="text/ecmascript" contentStyleType="text/css">
  <defs id="defs3"></defs>
  <sodipodi:namedview id="base" pagecolor="#ffffff" bordercolor="#666666" borderopacity="1.0" inkscape:pageopacity="0.0" inkscape:pageshadow="2" inkscape:zoom="13.893067" inkscape:cx="15.599584" inkscape:cy="11.563652" inkscape:current-layer="layer1" inkscape:window-width="640" inkscape:window-height="530" inkscape:window-x="0" inkscape:window-y="47"></sodipodi:namedview>
  <metadata id="metadata4">
    <rdf:RDF xmlns:rdf="http://www.w3.org/1999/02/22-rdf-syntax-ns#" id="RDF5">
      <cc:Work xmlns:cc="http://web.resource.org/cc/" rdf:about="" id="Work6">
        <dc:format xmlns:dc="http://purl.org/dc/elements/1.1/" id="format7">image/svg+xml</dc:format>
        <dc:type xmlns:dc="http://purl.org/dc/elements/1.1/" id="type9" rdf:resource="http://purl.org/dc/dcmitype/StillImage"></dc:type>
      </cc:Work>
    </rdf:RDF>
  </metadata>
  <g inkscape:label="Layer 1" inkscape:groupmode="layer" id="layer1">
    <g id="g10086" transform="translate(218.9312,-143.8172)">
      <path sodipodi:type="arc" style="fill:#bab5ab;stroke:#000000;stroke-linecap:square;stroke-linejoin:bevel;stroke-dashoffset:0.0000000" id="path2784" sodipodi:cx="14.213105" sodipodi:cy="5.0481038" sodipodi:rx="9.2335644" sodipodi:ry="2.5899436" d="M 23.446670 5.0481038 A 9.2335644 2.5899436 0 1 1  4.9795408,5.0481038 A 9.2335644 2.5899436 0 1 1  23.446670 5.0481038 z" transform="matrix(0.776756,0.000000,0.000000,1.000000,-215.4424,143.2086)"></path>
      <path style="fill:#bab5ab;stroke:#000000;stroke-width:0.88133764;stroke-linecap:square;stroke-linejoin:bevel;stroke-dashoffset:0.0000000" d="M -145.42693,95.018750 C -143.20255,97.798200 -133.42183,97.924540 -131.09932,95.018750 L -131.09932,116.24365 C -133.51996,119.14944 -143.10442,119.52846 -145.42693,116.24365 L -145.42693,95.018750 z " id="path2785" sodipodi:nodetypes="ccccc" transform="translate(-66.17139,53.34929)"></path>
      <path style="fill:none;fill-opacity:0.75000000;fill-rule:evenodd;stroke:#000000;stroke-width:0.88133764" d="M -138.51906,118.44744 L -138.32823,97.230380" id="path2786" sodipodi:nodetypes="cc" transform="translate(-66.17139,53.34929)"></path>
      <g id="g2805" transform="translate(-203.9057,81.90236)">
        <path style="fill:#990000;fill-opacity:1.0000000;fill-rule:evenodd;stroke:none;stroke-width:0.25000000pt;stroke-linecap:butt;stroke-linejoin:miter;stroke-opacity:1.0000000" d="M 6.6244555,72.215952 L 15.003284,75.946795 L 10.008800,80.210112 L 6.6244555,72.215952 z " id="path2806" sodipodi:nodetypes="cccc"></path>
        <path style="fill:#990000;fill-opacity:1.0000000;fill-rule:nonzero;stroke:none;stroke-width:2.5000000;stroke-linecap:square;stroke-linejoin:miter;stroke-miterlimit:4.0000000;stroke-dashoffset:0.0000000;stroke-opacity:1.0000000" d="M 9.3933505,76.091049 L 9.3298935,77.741447 C 9.3211175,77.691191 12.813904,78.139009 12.813904,79.341894 C 12.813904,81.672951 7.5030405,84.345682 0.023018468,84.345682 C -7.4570185,84.345682 -13.021719,81.609487 -13.021719,79.278437 C -13.021719,78.162850 -9.7317495,77.722899 -9.8093875,77.787741 L -9.7459305,76.148787 C -11.986982,76.454376 -14.552714,77.837165 -14.552714,79.636808 C -14.552714,83.040890 -10.658775,86.864371 -0.016024532,86.864371 C 10.690070,86.864371 14.280668,83.040890 14.280668,79.636808 C 14.280668,77.801156 12.881392,76.652844 9.3933505,76.091049 z " id="path2807" sodipodi:nodetypes="cccccccczcc"></path>
        <path style="fill:#990000;fill-opacity:1.0000000;fill-rule:evenodd;stroke:none;stroke-width:0.25000000pt;stroke-linecap:butt;stroke-linejoin:miter;stroke-opacity:1.0000000" d="M -6.6244555,72.011916 L -15.003285,75.742759 L -10.008801,80.006076 L -6.6244555,72.011916 z " id="path2808" sodipodi:nodetypes="cccc"></path>
      </g>
    </g>
  </g>
</svg>
