<?xml version="1.0" encoding="UTF-8" standalone="no"?>
<!DOCTYPE svg PUBLIC "-//W3C//DTD SVG 20010904//EN"
"http://www.w3.org/TR/2001/REC-SVG-20010904/DTD/svg10.dtd">
<!-- Created with Inkscape (http://www.inkscape.org/) -->
<svg
   id="svg1"
   sodipodi:version="0.32"
   inkscape:version="0.37"
   width="24pt"
   height="24pt"
   sodipodi:docname="preview_region.svg"
   xmlns="http://www.w3.org/2000/svg"
   xmlns:inkscape="http://www.inkscape.org/namespaces/inkscape"
   xmlns:sodipodi="http://sodipodi.sourceforge.net/DTD/sodipodi-0.dtd"
   xmlns:xlink="http://www.w3.org/1999/xlink"
   sodipodi:docbase="/home/tshead/k3d/share/ngui/scalable">
  <defs
     id="defs3">
    <linearGradient
       id="linearGradient684">
      <stop
         style="stop-color:#6f6f6f;stop-opacity:1;"
         offset="0.00000000"
         id="stop685" />
      <stop
         style="stop-color:#000000;stop-opacity:1;"
         offset="1.00000000"
         id="stop686" />
    </linearGradient>
    <linearGradient
       id="linearGradient582">
      <stop
         style="stop-color:#6f6f6f;stop-opacity:1;"
         offset="0.00000000"
         id="stop583" />
      <stop
         style="stop-color:#000000;stop-opacity:1;"
         offset="1.00000000"
         id="stop584" />
    </linearGradient>
    <linearGradient
       xlink:href="#linearGradient684"
       id="linearGradient585"
       x1="0.40365708"
       y1="0.31204280"
       x2="1.39828610"
       y2="0.64273655"
       spreadMethod="reflect"
       gradientUnits="objectBoundingBox" />
    <radialGradient
       xlink:href="#linearGradient582"
       id="radialGradient586"
       cx="0.50000000"
       cy="0.50000000"
       r="0.50000000"
       fx="0.50000000"
       fy="0.50000000" />
  </defs>
  <sodipodi:namedview
     id="base"
     pagecolor="#ffffff"
     bordercolor="#666666"
     borderopacity="1.0"
     inkscape:pageopacity="0.0"
     inkscape:pageshadow="2"
     inkscape:zoom="20"
     inkscape:cx="12"
     inkscape:cy="10.0000000"
     inkscape:window-width="1278"
     inkscape:window-height="960"
     gridspacingy="1pt"
     gridspacingx="1pt"
     snaptogrid="false"
     vertgrid="true"
     horizgrid="true"
     showgrid="true"
     inkscape:window-x="0"
     inkscape:window-y="34" />
  <rect
     style="font-size:12;fill:url(#linearGradient585);stroke:#000000;stroke-width:0.927475;"
     id="rect579"
     width="17.72411225"
     height="11.35680484"
     x="7.60411651"
     y="11.99758413"
     transform="matrix(0.997990,6.337085e-2,-8.061015e-2,0.996746,0.000000,0.000000)" />
  <rect
     style="font-size:12;fill:#ffffff;fill-opacity:0.947917;fill-rule:evenodd;stroke:#000000;stroke-width:0.927475;"
     id="rect630"
     width="17.72411225"
     height="2.27136097"
     x="7.60411580"
     y="-14.26894700"
     transform="matrix(0.997990,6.337085e-2,8.061015e-2,-0.996746,0.000000,0.000000)" />
  <path
     style="font-size:12;fill-rule:evenodd;stroke:#ffffff;stroke-width:0;"
     d="M 8.3548628 14.82607 L 6.5484668 13.346009 L 6.6217047 12.440422 L 7.7763699 12.513741 L 10.78703 14.980509 L 8.3548628 14.82607 z M 13.268332 15.138068 L 10.257672 12.6713 L 12.689839 12.825739 L 15.700499 15.292507 L 13.268332 15.138068 z M 18.304637 15.457866 L 15.293977 12.991098 L 17.726144 13.145537 L 20.736804 15.612305 L 18.304637 15.457866 z M 23.218106 15.769863 L 20.207446 13.303096 L 22.639613 13.457534 L 24.214068 14.752198 L 24.127098 15.827583 L 23.218106 15.769863 z "
     id="path631" />
  <path
     style="font-size:12;font-weight:bold;fill:#ffffff;stroke-width:1pt;font-family:Courier;"
     d="M 18.912019 18.39536 L 18.892143 18.641123 L 18.331771 18.605541 L 18.624144 18.402287 C 19.034195 18.115763 19.186046 17.996851 19.205314 17.758612 C 19.227623 17.482755 18.990959 17.243389 18.673981 17.223261 C 18.586246 17.21769 18.336177 17.214414 18.099191 17.436308 L 18.081546 17.654486 L 18.33626 17.67066 C 18.334444 17.657941 18.333642 17.632683 18.334859 17.617637 C 18.347839 17.457139 18.559908 17.437836 18.647643 17.443407 C 18.851414 17.456346 18.960343 17.586775 18.948377 17.734735 C 18.940468 17.832538 18.906082 17.905975 18.778697 18.003754 C 18.529993 18.194656 18.105588 18.48279 17.952529 18.581459 L 17.935899 18.787098 L 19.113246 18.861857 L 19.149752 18.410456 L 18.912019 18.39536 z M 15.887765 18.294069 C 15.728446 18.364614 15.4826 18.449829 15.247697 18.434913 C 14.879776 18.411551 14.832124 18.191748 14.813954 18.099851 L 15.923377 18.170297 C 15.928032 18.147907 15.939574 18.07554 15.944239 18.017861 C 15.964115 17.772098 15.760822 17.471834 15.313657 17.44344 C 14.877812 17.415764 14.585826 17.684579 14.559663 18.008084 C 14.534109 18.324064 14.760448 18.620751 15.235915 18.650942 C 15.456668 18.66496 15.720094 18.608588 15.985355 18.494357 L 15.887765 18.294069 z M 14.847565 17.89529 C 14.881343 17.829377 14.984897 17.639341 15.299045 17.659289 C 15.37829 17.664321 15.632599 17.685511 15.688123 17.948665 L 14.847565 17.89529 z M 12.800464 17.319145 L 12.783833 17.524784 L 13.013076 17.53934 L 12.954464 18.26409 L 12.71956 18.249174 L 12.702929 18.454812 L 13.399149 18.499021 L 13.41578 18.293383 L 13.200688 18.279725 L 13.247537 17.700427 C 13.375521 17.630413 13.518873 17.546251 13.677362 17.556315 C 13.81604 17.565121 13.880701 17.680136 13.869749 17.815556 L 13.828984 18.319621 L 13.59125 18.304525 L 13.574619 18.510163 L 14.28782 18.555451 L 14.304451 18.349812 L 14.075208 18.335256 L 14.116784 17.82116 C 14.13808 17.557842 13.97216 17.358257 13.689144 17.340286 C 13.505183 17.328605 13.365473 17.402915 13.267413 17.454664 L 13.275931 17.349337 L 12.800464 17.319145 z M 12.491571 18.078416 C 12.332252 18.148961 12.086406 18.234177 11.851502 18.219261 C 11.483581 18.195898 11.43593 17.976095 11.417759 17.884198 L 12.527183 17.954644 C 12.531838 17.932254 12.54338 17.859888 12.548045 17.802209 C 12.567921 17.556446 12.364628 17.256181 11.917463 17.227787 C 11.481618 17.200112 11.189632 17.468926 11.163469 17.792431 C 11.137915 18.108412 11.364254 18.405098 11.839721 18.435289 C 12.060474 18.449307 12.3239 18.392935 12.589161 18.278704 L 12.491571 18.078416 z M 11.451371 17.679638 C 11.485149 17.613724 11.588703 17.423688 11.902851 17.443636 C 11.982095 17.448668 12.236404 17.469858 12.291929 17.733012 L 11.451371 17.679638 z M 10.626909 17.145839 L 10.590283 17.28215 C 10.454665 17.16515 10.341063 17.127688 10.199554 17.118703 C 9.7523889 17.090308 9.4838462 17.385818 9.4601171 17.679229 C 9.4327374 18.01778 9.7001186 18.299428 10.110492 18.325486 C 10.444451 18.346692 10.730952 18.180876 10.871271 18.099042 L 10.749214 17.919887 C 10.57675 18.012283 10.357177 18.124373 10.139255 18.110536 C 9.8109558 18.089689 9.7069036 17.863784 9.7206948 17.693255 C 9.7294158 17.58542 9.8198519 17.311369 10.221735 17.336888 C 10.544373 17.357375 10.555049 17.506772 10.567946 17.663872 L 10.80791 17.651382 C 10.804084 17.593164 10.800867 17.527422 10.808777 17.429619 C 10.816078 17.339339 10.832073 17.24709 10.846039 17.179919 L 10.626909 17.145839 z M 8.823091 17.008613 L 8.7749414 17.146713 C 8.718753 17.102815 8.6061734 17.017525 8.408062 17.004946 C 8.1957999 16.991467 7.8789969 17.074698 7.8591213 17.320461 C 7.8497919 17.435819 7.9205183 17.546178 8.0236026 17.608178 C 8.1131445 17.661757 8.2049173 17.687749 8.4555849 17.71879 C 8.6753234 17.745347 8.7966147 17.75809 8.7885022 17.858401 C 8.7799841 17.963728 8.6279482 18.01457 8.4213464 18.001451 C 8.1496508 17.984199 8.0769055 17.863629 8.0567256 17.726232 L 7.8341477 17.734785 C 7.8440394 17.788347 7.8545396 17.834385 7.8466299 17.932189 C 7.8381118 18.037516 7.8152493 18.109163 7.7990611 18.168631 L 8.0187997 18.195188 L 8.0633079 18.066939 C 8.1352604 18.126963 8.2256043 18.205799 8.4491871 18.219996 C 8.780316 18.241022 9.0257749 18.090245 9.0428112 17.879591 C 9.0486927 17.806865 9.020216 17.70171 8.9264334 17.630217 C 8.8300235 17.556037 8.7002417 17.542755 8.4524044 17.511894 C 8.2975567 17.491979 8.102884 17.472055 8.1132274 17.344158 C 8.1229624 17.223785 8.3113756 17.215583 8.4217519 17.222592 C 8.4698647 17.225647 8.7160888 17.241282 8.7564854 17.374922 L 8.774462 17.434038 C 8.7764809 17.444249 8.7835517 17.462343 8.7859763 17.467538 L 9.0089598 17.45397 C 8.9988653 17.402916 8.9887707 17.351861 8.9952607 17.271612 C 9.0015479 17.193871 9.0219859 17.117028 9.041207 17.055232 L 8.823091 17.008613 z "
     id="path685" />
  <path
     style="font-size:12;font-weight:bold;fill:#ffffff;stroke-width:1pt;font-family:Courier;"
     d="M 20.559249 22.79509 C 20.699328 22.856918 20.828289 22.91552 21.006589 22.926842 C 21.337718 22.947868 21.62786 22.772201 21.652604 22.466251 C 21.665381 22.308261 21.590017 22.149715 21.438018 22.059402 C 21.501711 22.010512 21.610695 21.92921 21.625703 21.743633 C 21.646796 21.482824 21.399401 21.305792 21.139026 21.289259 C 20.932424 21.27614 20.769667 21.354028 20.582848 21.448034 L 20.692773 21.636501 C 20.911534 21.534442 20.991194 21.499169 21.118551 21.507256 C 21.237418 21.514804 21.385582 21.582188 21.373008 21.73767 C 21.353943 21.973402 21.087705 21.959017 20.945994 21.952539 L 20.929161 22.160685 C 21.014471 22.161061 21.065414 22.164296 21.076735 22.165015 C 21.288997 22.178493 21.414105 22.284743 21.400516 22.452765 C 21.384697 22.648372 21.196468 22.724643 21.032319 22.71422 C 20.856849 22.703078 20.681803 22.616343 20.561738 22.553264 L 20.449287 22.747777 L 20.559249 22.79509 z M 18.403753 22.363302 C 18.244434 22.433846 17.998588 22.519062 17.763685 22.504146 C 17.395764 22.480784 17.348112 22.260981 17.329942 22.169083 L 18.439365 22.23953 C 18.444021 22.217139 18.455563 22.144773 18.460227 22.087094 C 18.480103 21.841331 18.276811 21.541067 17.829645 21.512673 C 17.3938 21.484997 17.101814 21.753812 17.075651 22.077316 C 17.050097 22.393297 17.276436 22.689984 17.751903 22.720175 C 17.972656 22.734192 18.236082 22.67782 18.501343 22.563589 L 18.403753 22.363302 z M 17.363553 21.964523 C 17.397331 21.89861 17.500885 21.708574 17.815033 21.728522 C 17.894278 21.733554 18.148587 21.754743 18.204111 22.017897 L 17.363553 21.964523 z M 15.355586 20.939664 L 15.361191 21.151756 L 15.617528 21.147868 L 15.521395 22.336558 L 15.294982 22.322181 L 15.278351 22.527819 L 15.750988 22.557831 L 15.788914 22.088875 L 15.88738 22.032111 C 15.945587 22.08622 16.145468 22.287962 16.226105 22.381306 L 16.121389 22.374656 L 16.104758 22.580295 L 16.781167 22.623245 L 16.797798 22.417607 L 16.540253 22.401253 C 16.319768 22.137707 16.175466 21.987387 16.093004 21.916614 L 16.567734 21.674527 L 16.754525 21.686388 L 16.771155 21.480749 L 16.072105 21.436361 L 16.055475 21.641999 L 16.182832 21.650086 L 16.182426 21.655102 L 15.810007 21.828065 L 15.882411 20.932786 L 15.355586 20.939664 z M 14.867977 21.727917 C 14.888867 21.469616 14.743358 21.299054 14.381097 21.276051 C 14.151854 21.261494 13.953927 21.316984 13.776217 21.368716 L 13.856218 21.575449 C 13.964179 21.541974 14.162714 21.478961 14.360825 21.49154 C 14.641011 21.509332 14.627229 21.644572 14.620131 21.732345 C 14.519056 21.715844 14.426472 21.699883 14.299115 21.691796 C 13.801006 21.660167 13.638406 21.911991 13.626034 22.064965 C 13.610215 22.260573 13.789677 22.46858 14.089674 22.487629 C 14.316087 22.502006 14.470962 22.416055 14.569225 22.361799 L 14.55949 22.482173 L 15.049108 22.513262 L 15.065739 22.307624 L 14.822345 22.292169 L 14.867977 21.727917 z M 14.592346 22.075911 C 14.356981 22.277743 14.160889 22.275374 14.104286 22.27178 C 13.982589 22.264052 13.873042 22.176435 13.880546 22.083647 C 13.88298 22.053554 13.911733 21.873892 14.310786 21.899231 C 14.421162 21.90624 14.50485 21.926678 14.602892 21.945507 L 14.592346 22.075911 z M 12.331526 20.871154 L 12.303132 21.222244 L 12.116341 21.210383 L 12.09971 21.416021 L 12.286501 21.427882 L 12.252429 21.84919 C 12.24026 21.999657 12.231124 22.147796 12.33844 22.262999 C 12.417057 22.346132 12.575537 22.391484 12.700064 22.399391 C 12.929307 22.413948 13.186474 22.329451 13.33851 22.278609 L 13.261137 22.074564 L 13.167935 22.101414 C 12.998918 22.151178 12.861845 22.192887 12.694865 22.182284 C 12.471282 22.168087 12.484659 22.037862 12.498653 21.864825 L 12.532725 21.443517 L 13.178002 21.484491 L 13.194633 21.278853 L 12.549356 21.237879 L 12.57775 20.886789 L 12.331526 20.871154 z "
     id="path684" />
  <g
     id="g711"
     transform="matrix(0.788171,0.000000,0.000000,0.698392,3.179172,4.536872)">
    <rect
       style="font-size:12;fill:#ffffff;fill-opacity:0.947917;fill-rule:evenodd;stroke:#000000;stroke-width:1.25;stroke-dasharray:none;"
       id="rect627"
       width="22.50000000"
       height="3.25000000"
       x="2.50000000"
       y="1.50000033"
       transform="matrix(0.963275,-0.268517,0.268517,0.963275,0.461449,6.219155)" />
    <path
       style="font-size:12;fill-rule:evenodd;stroke:#ffffff;stroke-width:0;"
       d="M 4.9375 1.5000003 L 2.5 3.4500003 L 2.5 4.7500003 L 3.96875 4.7500003 L 8.03125 1.5000003 L 4.9375 1.5000003 z M 11.1875 1.5000003 L 7.125 4.7500003 L 10.21875 4.7500003 L 14.28125 1.5000003 L 11.1875 1.5000003 z M 17.59375 1.5000003 L 13.53125 4.7500003 L 16.625 4.7500003 L 20.6875 1.5000003 L 17.59375 1.5000003 z M 23.84375 1.5000003 L 19.78125 4.7500003 L 22.875 4.7500003 L 25 3.0437503 L 25 1.5000003 L 23.84375 1.5000003 z "
       id="path640"
       transform="matrix(0.963275,-0.268517,0.268517,0.963275,0.461449,6.219155)" />
  </g>
  <rect
     style="font-size:12;fill:none;fill-opacity:0.75;fill-rule:evenodd;stroke:#000000;stroke-width:1.25;stroke-dasharray:2.5,1.25;stroke-dashoffset:5.375;stroke-linejoin:miter;stroke-linecap:butt;"
     id="rect590"
     width="26.1875000"
     height="26"
     x="2.18750000"
     y="2.12500000" />
</svg>
