<?xml version="1.0"?>
<svg xmlns:sodipodi="http://sodipodi.sourceforge.net/DTD/sodipodi-0.dtd" xmlns:inkscape="http://www.inkscape.org/namespaces/inkscape" width="24.000000pt" height="24.000000pt" id="svg3286" sodipodi:version="0.32" inkscape:version="0.40pre3" sodipodi:docbase="/lethe/arsgratia/k3d-icons/scalable" sodipodi:docname="object_history.svg" preserveAspectRatio="xMidYMid meet" zoomAndPan="magnify" version="1.0" contentScriptType="text/ecmascript" contentStyleType="text/css"><defs id="defs3"><linearGradient xmlns:xlink="http://www.w3.org/1999/xlink" id="linearGradient14316" xlink:type="simple" xlink:show="other" xlink:actuate="onLoad"><stop style="stop-color:#c5d2c8;stop-opacity:1.0000000;" offset="0.0000000" id="stop5215"/><stop style="stop-color:#5d7555;stop-opacity:1.0000000;" offset="1.0000000" id="stop5216"/></linearGradient></defs><sodipodi:namedview id="base" pagecolor="#ffffff" bordercolor="#666666" borderopacity="1.0" inkscape:pageopacity="0.0" inkscape:pageshadow="2" inkscape:zoom="19.647764" inkscape:cx="12.842122" inkscape:cy="11.830166" inkscape:current-layer="layer1" inkscape:window-width="711" inkscape:window-height="638" inkscape:window-x="0" inkscape:window-y="47"/><metadata id="metadata4"><rdf:RDF xmlns:rdf="http://www.w3.org/1999/02/22-rdf-syntax-ns#" id="RDF5"><cc:Work xmlns:cc="http://web.resource.org/cc/" rdf:about="" id="Work6"><dc:format xmlns:dc="http://purl.org/dc/elements/1.1/" id="format7"/><dc:type xmlns:dc="http://purl.org/dc/elements/1.1/" id="type9" rdf:resource="http://purl.org/dc/dcmitype/StillImage"/></cc:Work></rdf:RDF></metadata><g inkscape:label="Layer 1" inkscape:groupmode="layer" id="layer1"><path style="fill:#565248;fill-opacity:1.0000000;fill-rule:evenodd;stroke:#000000;stroke-width:1.0000000;stroke-linecap:butt;stroke-linejoin:round;stroke-miterlimit:4.0000000;stroke-opacity:1.0000000" d="M 16.644729,4.2809854 L 8.1068590,4.2656484 L 4.0860590,7.7371504 L 12.638559,7.9081614 L 16.644729,4.2809854 z " id="path3896" sodipodi:nodetypes="ccccc"/><path style="fill:#565248;fill-opacity:1.0000000;fill-rule:evenodd;stroke:#000000;stroke-width:1.0000000;stroke-linecap:butt;stroke-linejoin:round;stroke-miterlimit:4.0000000;stroke-opacity:1.0000000" d="M 4.0309290,7.8404044 L 4.0309290,14.235064 L 12.706179,14.235064 L 12.706179,7.8404044 L 4.0309290,7.8404044 z " id="path3897"/><path style="fill:#565248;fill-opacity:1.0000000;fill-rule:evenodd;stroke:#000000;stroke-width:1.0000000;stroke-linecap:butt;stroke-linejoin:round;stroke-miterlimit:4.0000000;stroke-opacity:1.0000000" d="M 16.418769,10.259386 L 16.629819,4.2193444 L 12.726939,7.7046934 L 12.629099,14.162734 L 16.418769,10.259386 z " id="path3898" sodipodi:nodetypes="ccccc"/><path style="fill:#807d74;fill-opacity:1.0000000;fill-rule:evenodd;stroke:#000000;stroke-width:1.0000000;stroke-linecap:butt;stroke-linejoin:round;stroke-miterlimit:4.0000000;stroke-opacity:1.0000000" d="M 21.432729,9.5853854 C 20.677449,8.9783004 14.987969,8.9940214 12.894859,9.5700484 C 10.801749,10.146076 8.1187790,12.434465 8.8740590,13.041550 C 9.6293390,13.648636 15.333449,13.788589 17.426559,13.212561 C 19.519669,12.636534 22.188009,10.192471 21.432729,9.5853854 z " id="path5277" sodipodi:nodetypes="czzzz"/><path style="fill:#807d74;fill-opacity:1.0000000;fill-rule:evenodd;stroke:#000000;stroke-width:1.0000000;stroke-linecap:butt;stroke-linejoin:round;stroke-miterlimit:4.0000000;stroke-opacity:1.0000000" d="M 8.8189290,13.144804 C 7.3730590,14.210581 7.3730590,18.473687 8.8189290,19.539464 C 10.264809,20.605241 16.048309,20.605241 17.494179,19.539464 C 18.940059,18.473687 18.940059,14.210581 17.494179,13.144804 C 16.048309,12.079027 10.264809,12.079027 8.8189290,13.144804 z " id="path5278" sodipodi:nodetypes="czzzz"/><path style="fill:#807d74;fill-opacity:1.0000000;fill-rule:evenodd;stroke:#000000;stroke-width:1.0000000;stroke-linecap:butt;stroke-linejoin:round;stroke-miterlimit:4.0000000;stroke-opacity:1.0000000" d="M 21.206769,15.563786 C 21.873559,13.906554 22.033129,9.9495264 21.417819,9.5237444 C 20.802519,9.0979624 18.181729,11.351861 17.514939,13.009093 C 16.848149,14.666325 16.801799,19.041352 17.417099,19.467134 C 18.032409,19.892916 20.539979,17.221018 21.206769,15.563786 z " id="path5279" sodipodi:nodetypes="czzzz"/><path style="fill:#bab5ab;fill-opacity:1.0000000;fill-rule:evenodd;stroke:#000000;stroke-width:1.0000000;stroke-linecap:butt;stroke-linejoin:round;stroke-miterlimit:4.0000000;stroke-opacity:1.0000000" d="M 24.173259,17.394222 C 23.129429,14.863474 20.580169,14.180573 17.332859,15.237515 C 14.112679,16.285627 13.848999,22.159300 14.604279,22.766385 C 15.359559,23.373471 18.905799,19.071324 20.998909,18.495296 C 23.092019,17.919269 25.203669,19.892419 24.173259,17.394222 z " id="path5299" sodipodi:nodetypes="czzzz"/><path style="fill:#bab5ab;fill-opacity:1.0000000;fill-rule:evenodd;stroke:#000000;stroke-width:1.0000000;stroke-linecap:butt;stroke-linejoin:round;stroke-miterlimit:4.0000000;stroke-opacity:1.0000000" d="M 16.305789,19.064984 C 14.859919,20.130761 13.446169,23.275506 15.565329,25.110748 C 17.732769,26.987815 20.629549,26.603956 22.028359,25.014565 C 23.474239,23.371689 21.991259,21.523970 21.355079,19.581737 C 20.736879,17.694388 17.751669,17.999207 16.305789,19.064984 z " id="path5300" sodipodi:nodetypes="czzzz"/><path style="fill:#bab5ab;fill-opacity:1.0000000;fill-rule:evenodd;stroke:#000000;stroke-width:1.0000000;stroke-linecap:butt;stroke-linejoin:round;stroke-miterlimit:4.0000000;stroke-opacity:1.0000000" d="M 24.760619,21.207915 C 25.427409,19.550683 25.042879,18.518161 24.427569,18.092379 C 23.812269,17.666597 20.155179,17.194798 21.183469,19.446026 C 22.247979,21.776540 22.874909,24.227904 21.855099,25.519334 C 20.918959,26.704808 24.093829,22.865147 24.760619,21.207915 z " id="path5301" sodipodi:nodetypes="czzzz"/></g></svg>
