<?xml version="1.0"?>
<svg xmlns:sodipodi="http://sodipodi.sourceforge.net/DTD/sodipodi-0.dtd" xmlns:inkscape="http://www.inkscape.org/namespaces/inkscape" width="24.000000pt" height="24.000000pt" id="svg9691" sodipodi:version="0.32" inkscape:version="0.40pre3" sodipodi:docbase="/lethe/arsgratia/k3d-icons/scalable_unfixed" sodipodi:docname="NurbsCircle.svg" preserveAspectRatio="xMidYMid meet" zoomAndPan="magnify" version="1.0" contentScriptType="text/ecmascript" contentStyleType="text/css">
  <defs id="defs3"></defs>
  <sodipodi:namedview id="base" pagecolor="#ffffff" bordercolor="#666666" borderopacity="1.0" inkscape:pageopacity="0.0" inkscape:pageshadow="2" inkscape:zoom="9.8238822" inkscape:cx="13.465905" inkscape:cy="8.4905213" inkscape:current-layer="layer1" inkscape:window-width="640" inkscape:window-height="530" inkscape:window-x="0" inkscape:window-y="47"></sodipodi:namedview>
  <metadata id="metadata4">
    <rdf:RDF xmlns:rdf="http://www.w3.org/1999/02/22-rdf-syntax-ns#" id="RDF5">
      <cc:Work xmlns:cc="http://web.resource.org/cc/" rdf:about="" id="Work6">
        <dc:format xmlns:dc="http://purl.org/dc/elements/1.1/" id="format7">image/svg+xml</dc:format>
        <dc:type xmlns:dc="http://purl.org/dc/elements/1.1/" id="type9" rdf:resource="http://purl.org/dc/dcmitype/StillImage"></dc:type>
      </cc:Work>
    </rdf:RDF>
  </metadata>
  <g inkscape:label="Layer 1" inkscape:groupmode="layer" id="layer1">
    <g id="g9685" transform="translate(9.537389e-2,2.173806e-2)">
      <path sodipodi:type="arc" style="fill:#000000;fill-opacity:1.0000000;fill-rule:nonzero;stroke:#807d74;stroke-width:0.0000000;stroke-linecap:square;stroke-linejoin:bevel;stroke-miterlimit:4.0000000;stroke-dashoffset:0.0000000;stroke-opacity:1.0000000" id="path9656" sodipodi:cx="-96.605515" sodipodi:cy="-87.276924" sodipodi:rx="3.4174511" sodipodi:ry="3.4174511" d="M -93.188063 -87.276924 A 3.4174511 3.4174511 0 1 1  -100.02297,-87.276924 A 3.4174511 3.4174511 0 1 1  -93.188063 -87.276924 z" transform="matrix(0.496913,0.000000,0.000000,0.496913,63.35763,71.52187)"></path>
      <path sodipodi:type="arc" style="fill:none;fill-opacity:1.0000000;fill-rule:nonzero;stroke:#000000;stroke-width:1.2500000;stroke-linecap:square;stroke-linejoin:bevel;stroke-miterlimit:4.0000000;stroke-dashoffset:0.0000000;stroke-opacity:1.0000000" id="path9667" sodipodi:cx="14.564043" sodipodi:cy="14.616126" sodipodi:rx="13.020834" sodipodi:ry="13.020834" d="M 27.584877 14.616126 A 13.020834 13.020834 0 1 1  1.5432091,14.616126 A 13.020834 13.020834 0 1 1  27.584877 14.616126 z" transform="translate(0.578704,0.385802)"></path>
      <path sodipodi:type="arc" style="fill:#000000;fill-opacity:1.0000000;fill-rule:nonzero;stroke:#807d74;stroke-width:0.0000000;stroke-linecap:square;stroke-linejoin:bevel;stroke-miterlimit:4.0000000;stroke-dashoffset:0.0000000;stroke-opacity:1.0000000" id="path9682" sodipodi:cx="-96.605515" sodipodi:cy="-87.276924" sodipodi:rx="3.4174511" sodipodi:ry="3.4174511" d="M -93.188063 -87.276924 A 3.4174511 3.4174511 0 1 1  -100.02297,-87.276924 A 3.4174511 3.4174511 0 1 1  -93.188063 -87.276924 z" transform="matrix(0.496913,0.000000,0.000000,0.496913,63.34018,45.39835)"></path>
      <path sodipodi:type="arc" style="fill:#000000;fill-opacity:1.0000000;fill-rule:nonzero;stroke:#807d74;stroke-width:0.0000000;stroke-linecap:square;stroke-linejoin:bevel;stroke-miterlimit:4.0000000;stroke-dashoffset:0.0000000;stroke-opacity:1.0000000" id="path9683" sodipodi:cx="-96.605515" sodipodi:cy="-87.276924" sodipodi:rx="3.4174511" sodipodi:ry="3.4174511" d="M -93.188063 -87.276924 A 3.4174511 3.4174511 0 1 1  -100.02297,-87.276924 A 3.4174511 3.4174511 0 1 1  -93.188063 -87.276924 z" transform="matrix(5.118164e-19,0.496913,-0.496913,5.118164e-19,-41.38450,62.96696)"></path>
      <path sodipodi:type="arc" style="fill:#000000;fill-opacity:1.0000000;fill-rule:nonzero;stroke:#807d74;stroke-width:0.0000000;stroke-linecap:square;stroke-linejoin:bevel;stroke-miterlimit:4.0000000;stroke-dashoffset:0.0000000;stroke-opacity:1.0000000" id="path9684" sodipodi:cx="-96.605515" sodipodi:cy="-87.276924" sodipodi:rx="3.4174511" sodipodi:ry="3.4174511" d="M -93.188063 -87.276924 A 3.4174511 3.4174511 0 1 1  -100.02297,-87.276924 A 3.4174511 3.4174511 0 1 1  -93.188063 -87.276924 z" transform="matrix(5.118164e-19,0.496913,-0.496913,5.118164e-19,-15.26098,62.94951)"></path>
    </g>
  </g>
</svg>
