<?xml version="1.0" encoding="UTF-8" standalone="no"?>
<svg
   xmlns:dc="http://purl.org/dc/elements/1.1/"
   xmlns:cc="http://creativecommons.org/ns#"
   xmlns:rdf="http://www.w3.org/1999/02/22-rdf-syntax-ns#"
   xmlns:svg="http://www.w3.org/2000/svg"
   xmlns="http://www.w3.org/2000/svg"
   xmlns:xlink="http://www.w3.org/1999/xlink"
   xmlns:sodipodi="http://sodipodi.sourceforge.net/DTD/sodipodi-0.dtd"
   xmlns:inkscape="http://www.inkscape.org/namespaces/inkscape"
   width="30px"
   height="30px"
   id="svg4046"
   sodipodi:version="0.32"
   inkscape:version="0.46"
   sodipodi:docbase="/home/daniel/projects/k3d_artwork/Icon_parts"
   sodipodi:docname="PixieRenderManEngine.svg"
   preserveAspectRatio="xMidYMid meet"
   zoomAndPan="magnify"
   version="1.0"
   contentScriptType="text/ecmascript"
   contentStyleType="text/css"
   inkscape:export-filename="/home/daniel/projects/k3d_artwork/Icon_parts/K3D_icon_template_1.svg.png"
   inkscape:export-xdpi="90"
   inkscape:export-ydpi="90"
   inkscape:output_extension="org.inkscape.output.svg.inkscape">
  <defs
     id="defs3">
    <inkscape:perspective
       sodipodi:type="inkscape:persp3d"
       inkscape:vp_x="0 : 15 : 1"
       inkscape:vp_y="0 : 1000 : 0"
       inkscape:vp_z="30 : 15 : 1"
       inkscape:persp3d-origin="15 : 10 : 1"
       id="perspective22" />
    <linearGradient
       id="linearGradient3204">
      <stop
         id="stop3206"
         offset="0"
         style="stop-color:#5c5c5c;stop-opacity:1;" />
      <stop
         id="stop3208"
         offset="1"
         style="stop-color:#bab5ab;stop-opacity:0;" />
    </linearGradient>
    <marker
       inkscape:stockid="Arrow2Lend"
       orient="auto"
       refY="0.0"
       refX="0.0"
       id="Arrow2Lend"
       style="overflow:visible;">
      <path
         id="path3133"
         style="font-size:12.0;fill-rule:evenodd;stroke-width:0.62500000;stroke-linejoin:round;"
         d="M 8.7185878,4.0337352 L -2.2072895,0.016013256 L 8.7185884,-4.0017078 C 6.9730900,-1.6296469 6.9831476,1.6157441 8.7185878,4.0337352 z "
         transform="scale(1.1) rotate(180) translate(-5,0)" />
    </marker>
    <linearGradient
       id="linearGradient12426">
      <stop
         id="stop12427"
         offset="0.0000000"
         style="stop-color:#eae8e3;stop-opacity:1.0000000;" />
      <stop
         id="stop12428"
         offset="1.0000000"
         style="stop-color:#807d74;stop-opacity:1.0000000;" />
    </linearGradient>
    <linearGradient
       inkscape:collect="always"
       xlink:href="#linearGradient3204"
       id="linearGradient3202"
       x1="2.8360133"
       y1="3.1524081"
       x2="26.753057"
       y2="26.596785"
       gradientUnits="userSpaceOnUse" />
    <linearGradient
       inkscape:collect="always"
       xlink:href="#linearGradient3204"
       id="linearGradient3216"
       gradientUnits="userSpaceOnUse"
       x1="2.8360133"
       y1="3.1524081"
       x2="26.753057"
       y2="26.596785" />
    <inkscape:perspective
       sodipodi:type="inkscape:persp3d"
       inkscape:vp_x="0 : 526.18109 : 1"
       inkscape:vp_y="0 : 1000 : 0"
       inkscape:vp_z="744.09448 : 526.18109 : 1"
       inkscape:persp3d-origin="372.04724 : 350.78739 : 1"
       id="perspective2390" />
    <inkscape:perspective
       id="perspective10"
       inkscape:persp3d-origin="372.04724 : 350.78739 : 1"
       inkscape:vp_z="744.09448 : 526.18109 : 1"
       inkscape:vp_y="0 : 1000 : 0"
       inkscape:vp_x="0 : 526.18109 : 1"
       sodipodi:type="inkscape:persp3d" />
  </defs>
  <sodipodi:namedview
     id="base"
     pagecolor="#ffffff"
     bordercolor="#666666"
     borderopacity="1.0"
     inkscape:pageopacity="0.0"
     inkscape:pageshadow="2"
     inkscape:zoom="21.15646"
     inkscape:cx="22.079987"
     inkscape:cy="14.73996"
     inkscape:current-layer="g2402"
     inkscape:window-width="1680"
     inkscape:window-height="1015"
     inkscape:window-x="0"
     inkscape:window-y="6"
     showguides="true"
     inkscape:guide-bbox="true"
     showgrid="true"
     inkscape:snap-global="false">
    <inkscape:grid
       type="xygrid"
       id="grid3185"
       visible="true"
       enabled="true"
       empspacing="10"
       dotted="false"
       color="#0082ff"
       opacity="0.1254902"
       empcolor="#2b00ff"
       empopacity="0.25098039" />
    <inkscape:grid
       type="axonomgrid"
       id="grid3187"
       units="px"
       visible="true"
       enabled="true"
       color="#ff005c"
       opacity="0.1254902"
       empcolor="#d700ff"
       empopacity="0.1254902"
       spacingy="3.855px"
       gridanglex="30"
       gridanglez="30"
       empspacing="10"
       originx="1.6px"
       originy="-0.4px" />
  </sodipodi:namedview>
  <metadata
     id="metadata4">
    <rdf:RDF>
      <cc:Work
         rdf:about="">
        <dc:format>image/svg+xml</dc:format>
        <dc:type
           rdf:resource="http://purl.org/dc/dcmitype/StillImage" />
      </cc:Work>
    </rdf:RDF>
  </metadata>
  <g
     inkscape:label="Layer 1"
     inkscape:groupmode="layer"
     id="layer1">
    <g
       transform="translate(-1097.8633,-59.70519)"
       id="g2402">
      <path
         style="fill:#000000"
         d="M 6.75 21.40625 C 6.7235 21.435602 5.5095 23.149227 4.0625 25.1875 C 1.4564 28.858317 0.84155 29.59375 0.40625 29.59375 C 0.28255 29.59375 0.13795 29.647226 0.09375 29.71875 C 0.04165 29.802849 0.56939995 29.850403 1.5625 29.84375 C 2.7199 29.836011 3.0110999 29.814385 2.75 29.71875 C 2.3077 29.556766 2.2133 29.338299 2.4375 28.90625 C 2.5358 28.716617 3.6477502 27.128945 4.90625 25.375 C 6.16475 23.621054 7.2153999 22.090215 7.25 22 C 7.3102 21.84337 6.8497999 21.295199 6.75 21.40625 L 6.75 21.40625 "
         id="path13173"
         transform="translate(1097.8633,59.70519)" />
      <path
         style="fill:#000000"
         d="M 15.1875 9.96875 C 14.2722 9.96875 13.6875 10.014559 13.6875 10.09375 C 13.6875 10.165267 13.8212 10.21875 14 10.21875 C 14.7113 10.21875 14.5456 10.558832 11.25 15.15625 L 9.15625 18.0625 L 9.34375 18.4375 C 9.45295 18.648486 9.6012498 18.780604 9.65625 18.71875 C 9.71115 18.656897 10.97775 16.88188 12.46875 14.78125 C 13.95965 12.680604 15.32555 10.799577 15.53125 10.59375 C 15.73715 10.387924 16.049649 10.21875 16.21875 10.21875 C 16.38775 10.21875 16.580801 10.165267 16.625 10.09375 C 16.6767 10.009925 16.1565 9.9687498 15.1875 9.96875 L 15.1875 9.96875 "
         id="path13171"
         transform="translate(1097.8633,59.70519)" />
      <path
         style="fill:#000000"
         d="M 29.898315,13.216645 L 29.906692,12.240974 C 27.976385,11.619521 25.952906,10.83054 23.84375,9.875 C 20.19425,8.22152 15.53095,6.405983 15.15625,6.5 C 14.97545,6.54535 14.8487,6.6301468 14.875,6.65625 C 14.9013,6.682354 16.02065,7.1476521 17.34375,7.71875 C 18.66685,8.289849 21.265499,9.4699873 23.125,10.34375 C 25.979841,11.68527 28.041548,12.580493 29.898315,13.216645 z"
         id="path13169"
         transform="translate(1097.8633,59.70519)"
         sodipodi:nodetypes="ccsssssc" />
      <path
         style="fill:#000000"
         d="M 29.591278,6.7586627 L 29.842875,6.062439 C 27.479828,5.3964269 25.54852,5.0849932 23.78125,5.125 C 23.174012,5.1387464 22.580975,5.2200065 22,5.3125 L 20.90625,5.46875 L 23.0625,5.5625 C 24.4451,5.616172 25.68075,5.728712 26.53125,5.90625 C 27.339421,6.0749524 28.418694,6.3798702 29.591278,6.7586627 z"
         id="path13165"
         transform="translate(1097.8633,59.70519)"
         sodipodi:nodetypes="ccscccsc" />
      <path
         style="fill:#000000"
         d="M 8.1875 3.25 C 7.5600391 3.2980341 7.285625 3.5251045 6.8125 4.0625 C 6.5398 4.372481 5.9464001 5.3686788 5.5 6.28125 C 4.0054 9.336468 3.4116999 13.150902 4.0625 15.5 C 4.9502 18.703038 7.1770998 21.859712 9.8125 23.625 C 11.6947 24.885823 12.113 25.237919 13 26.3125 C 14.0081 27.533845 15.616849 29.110912 16.40625 29.625 C 17.39035 30.265958 17.55135 29.95448 16.78125 28.9375 C 16.10005 28.038063 15.5002 26.790744 15.5 26.28125 C 15.4999 25.724715 15.21565 25.37384 14.59375 25.1875 C 13.88755 24.975946 13.0982 24.255613 12.6875 23.4375 C 12.0882 22.243723 11.22535 21.162939 10.46875 20.65625 C 9.80865 20.214108 9.7134498 20.067699 9.28125 19.0625 C 9.01965 18.454594 8.5549998 17.563136 8.25 17.0625 C 7.6418 16.064522 7.6347496 15.994686 8.03125 14.53125 C 8.32045 13.464247 8.215 12.77498 7.625 11.53125 C 7.3754 11.00532 7.1875001 10.428178 7.1875 10.21875 C 7.1875 9.271328 8.1820503 7.9728609 9.28125 7.5 C 9.64335 7.344192 10.59985 7.0734791 11.40625 6.90625 C 12.21275 6.739018 13.05375 6.5238628 13.28125 6.40625 C 14.17665 5.943244 14.0972 5.1607801 13.0625 4.25 C 12.3552 3.627429 12.0283 3.5113401 9.8125 3.3125 C 9.055675 3.2445804 8.5639766 3.2211795 8.1875 3.25 L 8.1875 3.25 "
         id="path13161"
         transform="translate(1097.8633,59.70519)" />
      <path
         style="fill:#000000"
         d="M 20.5 2.21875 C 20.236 2.2187623 20.0833 2.2452561 19.8125 2.34375 C 19.4908 2.460772 18.60115 2.625903 17.84375 2.6875 C 16.95225 2.759994 16.13 2.9075559 15.5 3.125 C 14.8904 3.335424 14.2213 3.4687499 13.75 3.46875 L 13 3.46875 L 13.65625 4.09375 C 14.35825 4.756149 14.60815 5.412106 14.34375 5.90625 C 14.21445 6.147849 14.2343 6.155929 14.625 6.0625 C 15.3542 5.888173 15.7905 5.6685311 16.8125 5 C 17.7456 4.389589 17.89325 4.3569971 19.15625 4.1875 C 19.89685 4.088149 20.74515 3.9166931 21.03125 3.8125 C 21.31725 3.708306 22.072649 3.550814 22.71875 3.46875 C 23.94835 3.312602 24.6089 3.382826 25.5625 3.78125 C 26.1743 4.036834 28.17435 4.05993 28.09375 3.8125 C 28.06475 3.723101 27.865549 3.5651551 27.65625 3.46875 C 27.44695 3.372345 26.9198 3.0966951 26.5 2.84375 L 25.75 2.375 L 24.4375 2.46875 C 23.492 2.533867 22.7531 2.4982129 21.75 2.34375 C 21.1107 2.245298 20.764 2.2187377 20.5 2.21875 L 20.5 2.21875 "
         id="path13159"
         transform="translate(1097.8633,59.70519)" />
      <path
         style="fill:#000000"
         d="M 12.03125 2.1875 C 11.986225 2.1817226 12 2.2634175 12 2.40625 C 12 2.73271 11.5858 2.9375 10.9375 2.9375 C 10.3664 2.9375 10.63095 3.185165 11.28125 3.25 C 12.11935 3.333529 12.68355 3.3177411 13.03125 3.21875 L 13.375 3.125 L 13.03125 2.9375 C 12.85245 2.843747 12.54035 2.6209381 12.34375 2.4375 C 12.16615 2.271868 12.076275 2.1932774 12.03125 2.1875 L 12.03125 2.1875 "
         id="path13157"
         transform="translate(1097.8633,59.70519)" />
      <path
         style="fill:#000000"
         d="M 29.894971,0.96021206 L 29.950596,0.33156715 C 29.250986,0.28822712 28.520735,0.28184382 27.8125,0.3125 C 26.482187,0.370083 25.2416,0.55785949 24.46875,0.84375 C 24.32485,0.897033 25.288501,0.90510102 26.625,0.875 C 27.974521,0.84461086 28.971694,0.86367636 29.894971,0.96021206 z"
         id="path13155"
         transform="translate(1097.8633,59.70519)"
         sodipodi:nodetypes="ccsssc" />
      <path
         style="fill:#000000"
         d="M 13.71875 0.03125 C 13.623388 0.022961125 13.5486 0.0179615 13.46875 0.0625 C 13.34255 0.132869 12.905 0.26601999 12.5 0.34375 C 11.6119 0.514178 11.5036 0.70143804 11.875 1.46875 C 12.1396 2.015287 12.89925 2.6588169 13.59375 2.9375 C 14.02235 3.109503 14.28305 3.083111 14.78125 2.875 C 15.02245 2.774196 15.5429 2.6444219 15.9375 2.5625 C 16.9375 2.354897 17.01005 2.191704 16.53125 1.46875 C 16.13075 0.864327 15.61705 0.52218901 14.84375 0.375 C 14.60555 0.329673 14.2581 0.223344 14.0625 0.125 C 13.9387 0.062756 13.814112 0.039538875 13.71875 0.03125 L 13.71875 0.03125 "
         id="path12601"
         transform="translate(1097.8633,59.70519)" />
      <path
         inkscape:transform-center-y="-9.0657991"
         inkscape:transform-center-x="-15.732487"
         id="path2458"
         d="M 1118.4609,87.182217 C 1119.1357,87.291754 1119.1094,87.307453 1119.5753,86.515905 L 1119.973,85.840174 L 1119.9618,85.306847 C 1119.9557,85.013517 1119.9608,84.757196 1119.9731,84.737246 C 1120.0262,84.651469 1121.8384,84.28156 1121.9049,84.342899 C 1121.9443,84.379122 1122.0102,84.483191 1122.0514,84.574167 C 1122.3012,85.125508 1122.4042,85.228315 1123.1382,85.660644 C 1123.9406,86.133244 1123.8756,86.131591 1124.4455,85.693941 C 1124.8579,85.377253 1124.8634,85.348145 1124.6634,84.549748 C 1124.5096,83.935934 1124.3802,83.712275 1123.936,83.292554 L 1123.6283,83.001618 L 1124.1344,82.141684 L 1124.6405,81.281754 L 1125,81.405794 C 1125.1977,81.474018 1125.4924,81.545245 1125.6547,81.564079 C 1125.9922,81.603248 1127.0863,81.329297 1127.2481,81.165072 C 1127.3191,81.093062 1127.3668,80.898537 1127.3996,80.54734 C 1127.4543,79.96251 1127.4465,79.950848 1126.7315,79.53161 C 1126.2129,79.227745 1125.9117,79.142174 1125.3794,79.147484 C 1125.1308,79.14996 1124.9124,79.142994 1124.8936,79.132001 C 1124.875,79.121009 1124.7467,78.690021 1124.6085,78.174259 C 1124.3692,77.280824 1124.3637,77.233194 1124.495,77.166412 C 1125.1227,76.84679 1125.2993,76.725107 1125.4844,76.48481 C 1125.757,76.130849 1126.1424,75.346612 1126.1048,75.222568 C 1126.0883,75.168303 1125.9394,74.946059 1125.7739,74.728694 L 1125.4729,74.333486 L 1125.002,74.399927 C 1124.5362,74.46564 1124.0423,74.617588 1123.7906,74.772553 C 1123.7193,74.816541 1123.5217,74.992887 1123.3519,75.164428 L 1123.0429,75.476323 L 1122.1653,74.959831 L 1121.2878,74.443337 L 1121.4155,74.032106 C 1121.4858,73.805929 1121.5435,73.480794 1121.5438,73.309583 C 1121.5445,72.961624 1121.331,72.219587 1121.1527,71.950152 C 1121.0416,71.782585 1121.0139,71.770294 1120.5822,71.698554 C 1120.3326,71.657073 1120.0778,71.634341 1120.0161,71.648039 C 1119.8591,71.682963 1119.225,72.66925 1119.1536,72.989708 C 1119.1248,73.119071 1119.1015,73.431468 1119.1016,73.683934 C 1119.1017,73.936398 1119.0709,74.159315 1119.0329,74.179308 C 1118.9951,74.199297 1118.802,74.247955 1118.6041,74.287435 C 1118.4062,74.326911 1118.0614,74.408161 1117.8379,74.467984 C 1117.1719,74.646351 1117.2144,74.659378 1116.9658,74.200466 C 1116.691,73.692606 1116.3882,73.415896 1115.7275,73.068637 C 1115.1467,72.763488 1115.218,72.757379 1114.6499,73.161052 C 1114.4271,73.319404 1114.3012,73.447204 1114.2727,73.544025 C 1114.2169,73.734163 1114.4969,74.809633 1114.6753,75.08976 C 1114.7519,75.210008 1114.9457,75.424278 1115.1062,75.565914 C 1115.2666,75.707548 1115.3998,75.858241 1115.4025,75.900786 C 1115.4051,75.943331 1115.2053,76.321232 1114.9585,76.740572 C 1114.7117,77.159909 1114.478,77.518448 1114.4393,77.537322 C 1114.4005,77.556198 1114.1716,77.507417 1113.9304,77.428914 C 1113.6393,77.334149 1113.3817,77.295703 1113.1638,77.31451 C 1112.7429,77.350835 1111.8251,77.649449 1111.7518,77.773904 C 1111.7209,77.826463 1111.6763,78.086381 1111.6527,78.351494 C 1111.6101,78.829237 1111.6116,78.83505 1111.8221,79.005596 C 1112.1244,79.250508 1113.0097,79.700541 1113.238,79.725427 C 1113.3442,79.73699 1113.5959,79.738947 1113.7972,79.729773 L 1114.1634,79.713091 L 1114.4371,80.648297 C 1114.5876,81.162657 1114.7003,81.601442 1114.6874,81.62337 C 1114.6744,81.6453 1114.4915,81.755153 1114.2806,81.867486 C 1113.708,82.172612 1113.58,82.305911 1113.2291,82.962599 C 1112.8704,83.63368 1112.8708,83.638885 1113.3179,84.158411 C 1113.6545,84.549404 1113.6873,84.557545 1114.3747,84.421027 C 1114.988,84.299245 1115.3152,84.128325 1115.6956,83.731058 L 1116.0229,83.389363 L 1116.9023,83.906906 L 1117.7816,84.424453 L 1117.6538,84.835682 C 1117.4883,85.368306 1117.4917,85.762615 1117.6661,86.317417 C 1117.9066,87.081532 1117.9181,87.09412 1118.4609,87.182217 L 1118.4609,87.182217 z M 1118.2919,80.059824 C 1118.2007,79.886933 1118.138,79.63872 1118.1335,79.433769 C 1118.1273,79.139615 1118.1547,79.046088 1118.338,78.734631 C 1118.5165,78.431232 1118.5947,78.350008 1118.8383,78.214581 C 1119.7466,77.709532 1120.9393,78.413645 1120.9387,79.454613 C 1120.9386,79.728357 1120.9047,79.838599 1120.7291,80.136915 C 1120.5545,80.433653 1120.4733,80.51857 1120.2396,80.648446 C 1119.7449,80.923487 1119.2475,80.892429 1118.7511,80.555529 C 1118.52,80.398631 1118.405,80.274629 1118.2919,80.059825 L 1118.2919,80.059824 z"
         style="opacity:1;fill:#c0c0c0;fill-opacity:1;fill-rule:evenodd;stroke:#000000;stroke-width:1.05874622;stroke-miterlimit:4;stroke-dasharray:none" />
    </g>
  </g>
</svg>
