<?xml version="1.0"?>
<svg xmlns:sodipodi="http://sodipodi.sourceforge.net/DTD/sodipodi-0.dtd" xmlns:inkscape="http://www.inkscape.org/namespaces/inkscape" width="24.000000pt" height="24.000000pt" id="svg5517" sodipodi:version="0.32" inkscape:version="0.40pre3" sodipodi:docbase="/lethe/arsgratia/k3d-icons/scalable_unfixed" sodipodi:docname="PythonScript.svg" preserveAspectRatio="xMidYMid meet" zoomAndPan="magnify" version="1.0" contentScriptType="text/ecmascript" contentStyleType="text/css">
  <defs id="defs3"></defs>
  <sodipodi:namedview id="base" pagecolor="#ffffff" bordercolor="#666666" borderopacity="1.0" inkscape:pageopacity="0.0" inkscape:pageshadow="2" inkscape:zoom="9.8238822" inkscape:cx="13.313989" inkscape:cy="7.5080386" inkscape:current-layer="layer1" inkscape:window-width="640" inkscape:window-height="530" inkscape:window-x="5" inkscape:window-y="47"></sodipodi:namedview>
  <metadata id="metadata4">
    <rdf:RDF xmlns:rdf="http://www.w3.org/1999/02/22-rdf-syntax-ns#" id="RDF5">
      <cc:Work xmlns:cc="http://web.resource.org/cc/" rdf:about="" id="Work6">
        <dc:format xmlns:dc="http://purl.org/dc/elements/1.1/" id="format7">image/svg+xml</dc:format>
        <dc:type xmlns:dc="http://purl.org/dc/elements/1.1/" id="type9" rdf:resource="http://purl.org/dc/dcmitype/StillImage"></dc:type>
      </cc:Work>
    </rdf:RDF>
  </metadata>
  <g inkscape:label="Layer 1" inkscape:groupmode="layer" id="layer1">
    <g id="g5507" transform="translate(0.106844,-0.457092)">
      <path style="fill:#bab5ab;fill-opacity:1.0000000;fill-rule:nonzero;stroke:#000000;stroke-width:1.0000000;stroke-linecap:square;stroke-linejoin:bevel;stroke-miterlimit:4.0000000;stroke-dashoffset:0.0000000;stroke-opacity:1.0000000" d="M 14.910163,5.8740210 C 13.192967,3.4876051 12.620168,7.1683734 10.080713,5.6868495 C 7.9508229,4.4442662 10.785326,1.8012423 8.3318242,2.0477659 C 5.4065297,2.3416945 8.3236745,4.6661279 5.7709085,6.1245983 C 3.6298555,7.3478460 2.7643653,3.5805870 1.7511091,5.8286435 C 0.54301115,8.5089882 3.9967013,7.1457489 3.9833916,10.085743 C 3.9722273,12.551573 0.27223387,11.427336 1.7124799,13.428870 C 3.4296771,15.815287 3.9878023,12.112941 6.5272564,13.594465 C 8.6571458,14.837045 5.8226437,17.480070 8.2761434,17.233546 C 11.201439,16.939618 8.2989688,14.636764 10.851733,13.178294 C 12.992787,11.955047 13.858277,15.722304 14.871532,13.474250 C 16.079631,10.793905 12.625940,12.157144 12.639251,9.2171494 C 12.650416,6.7513194 16.350408,7.8755537 14.910163,5.8740210 z M 10.638388,8.0847247 C 11.538425,9.4082282 11.195508,11.208814 9.8720032,12.108853 C 8.5485003,13.008888 6.7479158,12.665974 5.8478780,11.342468 C 4.9478395,10.018964 5.2907558,8.2183796 6.6142610,7.3183421 C 7.9377650,6.4183027 9.7383515,6.7612201 10.638388,8.0847247 z " id="path5417"></path>
      <rect style="fill:#bab5ab;fill-opacity:1.0000000;fill-rule:nonzero;stroke:none;stroke-width:0.75000000;stroke-linecap:square;stroke-linejoin:bevel;stroke-miterlimit:4.0000000;stroke-dashoffset:0.0000000;stroke-opacity:1.0000000" id="rect5421" width="10.866167" height="2.7280354" x="16.845619" y="4.0154629" transform="translate(0.000000,-3.086420)"></rect>
      <rect style="fill:#bab5ab;fill-opacity:1.0000000;fill-rule:nonzero;stroke:none;stroke-width:0.75000000;stroke-linecap:square;stroke-linejoin:bevel;stroke-miterlimit:4.0000000;stroke-dashoffset:0.0000000;stroke-opacity:1.0000000" id="rect5422" width="10.396791" height="2.7280354" x="16.845619" y="7.9029131" transform="translate(0.000000,-3.086420)"></rect>
      <rect style="fill:#bab5ab;fill-opacity:1.0000000;fill-rule:nonzero;stroke:none;stroke-width:0.75000000;stroke-linecap:square;stroke-linejoin:bevel;stroke-miterlimit:4.0000000;stroke-dashoffset:0.0000000;stroke-opacity:1.0000000" id="rect5423" width="8.5065546" height="2.7280354" x="16.845619" y="11.926766" transform="translate(0.000000,-3.086420)"></rect>
      <rect style="fill:#bab5ab;fill-opacity:1.0000000;fill-rule:nonzero;stroke:none;stroke-width:0.75000000;stroke-linecap:square;stroke-linejoin:bevel;stroke-miterlimit:4.0000000;stroke-dashoffset:0.0000000;stroke-opacity:1.0000000" id="rect5424" width="10.823378" height="2.7280354" x="16.845619" y="15.950617" transform="translate(0.000000,-3.086420)"></rect>
      <rect style="fill:#bab5ab;fill-opacity:1.0000000;fill-rule:nonzero;stroke:none;stroke-width:0.75000000;stroke-linecap:square;stroke-linejoin:bevel;stroke-miterlimit:4.0000000;stroke-dashoffset:0.0000000;stroke-opacity:1.0000000" id="rect5425" width="12.344360" height="2.7280354" x="16.845619" y="19.974472" transform="translate(0.000000,-3.086420)"></rect>
      <text xml:space="preserve" style="font-size:12.000000;font-style:normal;font-variant:normal;font-weight:bold;font-stretch:normal;fill:#000000;fill-opacity:1.0000000;stroke:none;stroke-width:3.0000000pt;stroke-linecap:butt;stroke-linejoin:miter;stroke-opacity:1.0000000;font-family:Verdana;text-anchor:start;writing-mode:lr" x="1.3465641" y="20.574051" id="text5447" sodipodi:linespacing="100%" transform="translate(5.768290,6.968165)">
        <tspan sodipodi:role="line" id="tspan5448" x="1.3465641" y="20.574051">Py</tspan>
      </text>
    </g>
  </g>
</svg>
