<?xml version="1.0" encoding="UTF-8" standalone="no"?>
<!DOCTYPE svg PUBLIC "-//W3C//DTD SVG 20010904//EN"
"http://www.w3.org/TR/2001/REC-SVG-20010904/DTD/svg10.dtd">
<!-- Created with Inkscape (http://www.inkscape.org/) -->
<svg
   id="svg1"
   sodipodi:version="0.32"
   inkscape:version="0.37"
   width="24pt"
   height="24pt"
   sodipodi:docbase="/home/tshead/k3d/share/ngui"
   sodipodi:docname="render_preview.svg"
   xmlns="http://www.w3.org/2000/svg"
   xmlns:inkscape="http://www.inkscape.org/namespaces/inkscape"
   xmlns:sodipodi="http://sodipodi.sourceforge.net/DTD/sodipodi-0.dtd"
   xmlns:xml="http://www.w3.org/XML/1998/namespace"
   xmlns:xlink="http://www.w3.org/1999/xlink">
  <defs
     id="defs3">
    <linearGradient
       id="linearGradient684">
      <stop
         style="stop-color:#6f6f6f;stop-opacity:1;"
         offset="0.00000000"
         id="stop685" />
      <stop
         style="stop-color:#000000;stop-opacity:1;"
         offset="1.00000000"
         id="stop686" />
    </linearGradient>
    <linearGradient
       id="linearGradient582">
      <stop
         style="stop-color:#6f6f6f;stop-opacity:1;"
         offset="0.00000000"
         id="stop583" />
      <stop
         style="stop-color:#000000;stop-opacity:1;"
         offset="1.00000000"
         id="stop584" />
    </linearGradient>
    <linearGradient
       xlink:href="#linearGradient684"
       id="linearGradient585"
       x1="0.40365708"
       y1="0.31204280"
       x2="1.39828610"
       y2="0.64273655"
       spreadMethod="reflect"
       gradientUnits="objectBoundingBox" />
    <radialGradient
       xlink:href="#linearGradient582"
       id="radialGradient586"
       cx="0.50000000"
       cy="0.50000000"
       r="0.50000000"
       fx="0.50000000"
       fy="0.50000000" />
  </defs>
  <sodipodi:namedview
     id="base"
     pagecolor="#ffffff"
     bordercolor="#666666"
     borderopacity="1.0"
     inkscape:pageopacity="0.0"
     inkscape:pageshadow="2"
     inkscape:zoom="20"
     inkscape:cx="12.0000000"
     inkscape:cy="10"
     inkscape:window-width="1278"
     inkscape:window-height="960"
     gridspacingy="1pt"
     gridspacingx="1pt"
     snaptogrid="false"
     vertgrid="true"
     horizgrid="true"
     showgrid="true"
     inkscape:window-x="0"
     inkscape:window-y="34" />
  <rect
     style="font-size:12;fill:url(#linearGradient585);stroke:#000000;stroke-width:1.25;fill-rule:nonzero;"
     id="rect579"
     width="22.50000000"
     height="16.25000000"
     x="2.50000000"
     y="11.25000000"
     transform="matrix(0.997442,7.147793e-2,-7.147793e-2,0.997442,2.678270,-8.314500e-2)" />
  <rect
     style="font-size:12;fill:#ffffff;fill-opacity:0.947917;fill-rule:evenodd;stroke:#000000;stroke-width:1.25;"
     id="rect630"
     width="22.50000000"
     height="3.25000000"
     x="2.50000000"
     y="1.50000033"
     transform="matrix(0.997442,7.147793e-2,7.147793e-2,-0.997442,1.534622,15.87593)" />
  <path
     style="font-size:12;fill-rule:evenodd;stroke:#ffffff;stroke-width:0;"
     d="M 4.9375 1.5000003 L 2.5 3.4500003 L 2.5 4.7500003 L 3.96875 4.7500003 L 8.03125 1.5000003 L 4.9375 1.5000003 z M 11.1875 1.5000003 L 7.125 4.7500003 L 10.21875 4.7500003 L 14.28125 1.5000003 L 11.1875 1.5000003 z M 17.59375 1.5000003 L 13.53125 4.7500003 L 16.625 4.7500003 L 20.6875 1.5000003 L 17.59375 1.5000003 z M 23.84375 1.5000003 L 19.78125 4.7500003 L 22.875 4.7500003 L 25 3.0437503 L 25 1.5000003 L 23.84375 1.5000003 z "
     id="path631"
     transform="matrix(0.997442,7.147793e-2,7.147793e-2,-0.997442,1.534622,15.87593)" />
  <path
     transform="matrix(0.299233,2.144338e-2,-2.144338e-2,0.299233,2.678270,-8.314500e-2)"
     style="font-size:12;font-weight:bold;fill:#ffffff;stroke-width:1pt;font-family:Courier;"
     d="M 62.21005 62.134067 L 62.21005 63.310067 L 59.83405 63.310067 L 60.99805 62.254067 C 62.63005 60.766067 63.23005 60.154067 63.23005 59.014067 C 63.23005 57.694067 62.15005 56.626067 60.80605 56.626067 C 60.43405 56.626067 59.37805 56.686067 58.45405 57.814067 L 58.45405 58.858067 L 59.53405 58.858067 C 59.52205 58.798067 59.51005 58.678067 59.51005 58.606067 C 59.51005 57.838067 60.39805 57.682067 60.77005 57.682067 C 61.63405 57.682067 62.13805 58.270067 62.13805 58.978067 C 62.13805 59.446067 62.01805 59.806067 61.51405 60.310067 C 60.53005 61.294067 58.83805 62.794067 58.22605 63.310067 L 58.22605 64.294067 L 63.21805 64.294067 L 63.21805 62.134067 L 62.21005 62.134067 z M 49.41805 62.566067 C 48.77005 62.950067 47.76205 63.430067 46.76605 63.430067 C 45.20605 63.430067 44.93005 62.398067 44.82205 61.966067 L 49.52605 61.966067 C 49.53805 61.858067 49.56205 61.510067 49.56205 61.234067 C 49.56205 60.058067 48.60205 58.690067 46.70605 58.690067 C 44.85805 58.690067 43.71805 60.058067 43.71805 61.606067 C 43.71805 63.118067 44.77405 64.462067 46.79005 64.462067 C 47.72605 64.462067 48.81805 64.114067 49.89805 63.490067 L 49.41805 62.566067 z M 44.89405 60.982067 C 45.01405 60.658067 45.38605 59.722067 46.71805 59.722067 C 47.05405 59.722067 48.13405 59.746067 48.45805 60.982067 L 44.89405 60.982067 z M 36.06205 58.858067 L 36.06205 59.842067 L 37.03405 59.842067 L 37.03405 63.310067 L 36.03805 63.310067 L 36.03805 64.294067 L 38.99005 64.294067 L 38.99005 63.310067 L 38.07805 63.310067 L 38.07805 60.538067 C 38.59405 60.166067 39.17005 59.722067 39.84205 59.722067 C 40.43005 59.722067 40.74205 60.250067 40.74205 60.898067 L 40.74205 63.310067 L 39.73405 63.310067 L 39.73405 64.294067 L 42.75805 64.294067 L 42.75805 63.310067 L 41.78605 63.310067 L 41.78605 60.850067 C 41.78605 59.590067 41.01805 58.690067 39.81805 58.690067 C 39.03805 58.690067 38.47405 59.086067 38.07805 59.362067 L 38.07805 58.858067 L 36.06205 58.858067 z M 35.01805 62.566067 C 34.37005 62.950067 33.36205 63.430067 32.36605 63.430067 C 30.80605 63.430067 30.53005 62.398067 30.42205 61.966067 L 35.12605 61.966067 C 35.13805 61.858067 35.16205 61.510067 35.16205 61.234067 C 35.16205 60.058067 34.20205 58.690067 32.30605 58.690067 C 30.45805 58.690067 29.31805 60.058067 29.31805 61.606067 C 29.31805 63.118067 30.37405 64.462067 32.39005 64.462067 C 33.32605 64.462067 34.41805 64.114067 35.49805 63.490067 L 35.01805 62.566067 z M 30.49405 60.982067 C 30.61405 60.658067 30.98605 59.722067 32.31805 59.722067 C 32.65405 59.722067 33.73405 59.746067 34.05805 60.982067 L 30.49405 60.982067 z M 26.83405 58.690067 L 26.72605 59.350067 C 26.11405 58.834067 25.62205 58.690067 25.02205 58.690067 C 23.12605 58.690067 22.09405 60.178067 22.09405 61.582067 C 22.09405 63.202067 23.31805 64.462067 25.05805 64.462067 C 26.47405 64.462067 27.62605 63.586067 28.19005 63.154067 L 27.61405 62.338067 C 26.91805 62.830067 26.03005 63.430067 25.10605 63.430067 C 23.71405 63.430067 23.19805 62.386067 23.19805 61.570067 C 23.19805 61.054067 23.48605 59.722067 25.19005 59.722067 C 26.55805 59.722067 26.65405 60.430067 26.76205 61.174067 L 27.77005 61.042067 C 27.73405 60.766067 27.69805 60.454067 27.69805 59.986067 C 27.69805 59.554067 27.73405 59.110067 27.77005 58.786067 L 26.83405 58.690067 z M 19.17805 58.582067 L 19.02205 59.254067 C 18.77005 59.062067 18.26605 58.690067 17.42605 58.690067 C 16.52605 58.690067 15.21805 59.182067 15.21805 60.358067 C 15.21805 60.910067 15.55405 61.414067 16.01005 61.678067 C 16.40605 61.906067 16.80205 62.002067 17.87005 62.074067 C 18.80605 62.134067 19.32205 62.158067 19.32205 62.638067 C 19.32205 63.142067 18.69805 63.430067 17.82205 63.430067 C 16.67005 63.430067 16.32205 62.878067 16.19005 62.230067 L 15.25405 62.338067 C 15.31405 62.590067 15.37405 62.806067 15.37405 63.274067 C 15.37405 63.778067 15.30205 64.126067 15.25405 64.414067 L 16.19005 64.474067 L 16.33405 63.850067 C 16.65805 64.114067 17.06605 64.462067 18.01405 64.462067 C 19.41805 64.462067 20.40205 63.670067 20.40205 62.662067 C 20.40205 62.314067 20.24605 61.822067 19.82605 61.510067 C 19.39405 61.186067 18.84205 61.162067 17.78605 61.090067 C 17.12605 61.042067 16.29805 61.006067 16.29805 60.394067 C 16.29805 59.818067 17.09005 59.722067 17.55805 59.722067 C 17.76205 59.722067 18.80605 59.722067 19.02205 60.346067 L 19.11805 60.622067 C 19.13005 60.670067 19.16605 60.754067 19.17805 60.778067 L 20.11405 60.646067 C 20.05405 60.406067 19.99405 60.166067 19.99405 59.782067 C 19.99405 59.410067 20.05405 59.038067 20.11405 58.738067 L 19.17805 58.582067 z "
     id="path685" />
  <path
     transform="matrix(0.299233,2.144338e-2,-2.144338e-2,0.299233,2.678270,-8.314500e-2)"
     style="font-size:12;font-weight:bold;fill:#ffffff;stroke-width:1pt;font-family:Courier;"
     d="M 70.659672 82.581701 C 71.271672 82.833701 71.835672 83.073701 72.591672 83.073701 C 73.995672 83.073701 75.159672 82.149701 75.159672 80.685701 C 75.159672 79.929701 74.787672 79.197701 74.115672 78.813701 C 74.367672 78.561701 74.799672 78.141701 74.799672 77.253701 C 74.799672 76.005701 73.695672 75.237701 72.591672 75.237701 C 71.715672 75.237701 71.055672 75.657701 70.299672 76.161701 L 70.827672 77.025701 C 71.715672 76.473701 72.039672 76.281701 72.579672 76.281701 C 73.083672 76.281701 73.731672 76.557701 73.731672 77.301701 C 73.731672 78.429701 72.603672 78.441701 72.003672 78.453701 L 72.003672 79.449701 C 72.363672 79.425701 72.579672 79.425701 72.627672 79.425701 C 73.527672 79.425701 74.091672 79.893701 74.091672 80.697701 C 74.091672 81.633701 73.323672 82.053701 72.627672 82.053701 C 71.883672 82.053701 71.115672 81.693701 70.587672 81.429701 L 70.179672 82.389701 L 70.659672 82.581701 z M 61.419672 81.177701 C 60.771672 81.561701 59.763672 82.041701 58.767672 82.041701 C 57.207672 82.041701 56.931672 81.009701 56.823672 80.577701 L 61.527672 80.577701 C 61.539672 80.469701 61.563672 80.121701 61.563672 79.845701 C 61.563672 78.669701 60.603672 77.301701 58.707672 77.301701 C 56.859672 77.301701 55.719672 78.669701 55.719672 80.217701 C 55.719672 81.729701 56.775672 83.073701 58.791672 83.073701 C 59.727672 83.073701 60.819672 82.725701 61.899672 82.101701 L 61.419672 81.177701 z M 56.895672 79.593701 C 57.015672 79.269701 57.387672 78.333701 58.719672 78.333701 C 59.055672 78.333701 60.135672 78.357701 60.459672 79.593701 L 56.895672 79.593701 z M 48.075672 75.321701 L 48.171672 76.329701 L 49.251672 76.233701 L 49.251672 81.921701 L 48.291672 81.921701 L 48.291672 82.905701 L 50.295672 82.905701 L 50.295672 80.661701 L 50.691672 80.361701 C 50.955672 80.601701 51.867672 81.501701 52.239672 81.921701 L 51.795672 81.921701 L 51.795672 82.905701 L 54.663672 82.905701 L 54.663672 81.921701 L 53.571672 81.921701 C 52.551672 80.733701 51.891672 80.061701 51.519672 79.749701 L 53.439672 78.453701 L 54.231672 78.453701 L 54.231672 77.469701 L 51.267672 77.469701 L 51.267672 78.453701 L 51.807672 78.453701 L 51.807672 78.477701 L 50.295672 79.413701 L 50.295672 75.129701 L 48.075672 75.321701 z M 46.287672 79.221701 C 46.287672 77.985701 45.615672 77.217701 44.079672 77.217701 C 43.107672 77.217701 42.291672 77.541701 41.559672 77.841701 L 41.967672 78.801701 C 42.411672 78.609701 43.227672 78.249701 44.067672 78.249701 C 45.255672 78.249701 45.243672 78.897701 45.243672 79.317701 C 44.811672 79.269701 44.415672 79.221701 43.875672 79.221701 C 41.763672 79.221701 41.163672 80.469701 41.163672 81.201701 C 41.163672 82.137701 41.991672 83.073701 43.263672 83.073701 C 44.223672 83.073701 44.847672 82.617701 45.243672 82.329701 L 45.243672 82.905701 L 47.319672 82.905701 L 47.319672 81.921701 L 46.287672 81.921701 L 46.287672 79.221701 z M 45.243672 80.961701 C 44.319672 81.993701 43.491672 82.041701 43.251672 82.041701 C 42.735672 82.041701 42.243672 81.657701 42.243672 81.213701 C 42.243672 81.069701 42.303672 80.205701 43.995672 80.205701 C 44.463672 80.205701 44.823672 80.277701 45.243672 80.337701 L 45.243672 80.961701 z M 35.295672 75.909701 L 35.295672 77.589701 L 34.503672 77.589701 L 34.503672 78.573701 L 35.295672 78.573701 L 35.295672 80.589701 C 35.295672 81.309701 35.307672 82.017701 35.799672 82.533701 C 36.159672 82.905701 36.843672 83.073701 37.371672 83.073701 C 38.343672 83.073701 39.399672 82.593701 40.023672 82.305701 L 39.627672 81.357701 L 39.243672 81.513701 C 38.547672 81.801701 37.983672 82.041701 37.275672 82.041701 C 36.327672 82.041701 36.339672 81.417701 36.339672 80.589701 L 36.339672 78.573701 L 39.075672 78.573701 L 39.075672 77.589701 L 36.339672 77.589701 L 36.339672 75.909701 L 35.295672 75.909701 z "
     id="path684" />
  <g
     id="g711">
    <rect
       style="font-size:12;fill:#ffffff;fill-opacity:0.947917;fill-rule:evenodd;stroke:#000000;stroke-width:1.25;stroke-dasharray:none;"
       id="rect627"
       width="22.50000000"
       height="3.25000000"
       x="2.50000000"
       y="1.50000033"
       transform="matrix(0.963275,-0.268517,0.268517,0.963275,0.461449,6.219155)" />
    <path
       style="font-size:12;fill-rule:evenodd;stroke:#ffffff;stroke-width:0;"
       d="M 4.9375 1.5000003 L 2.5 3.4500003 L 2.5 4.7500003 L 3.96875 4.7500003 L 8.03125 1.5000003 L 4.9375 1.5000003 z M 11.1875 1.5000003 L 7.125 4.7500003 L 10.21875 4.7500003 L 14.28125 1.5000003 L 11.1875 1.5000003 z M 17.59375 1.5000003 L 13.53125 4.7500003 L 16.625 4.7500003 L 20.6875 1.5000003 L 17.59375 1.5000003 z M 23.84375 1.5000003 L 19.78125 4.7500003 L 22.875 4.7500003 L 25 3.0437503 L 25 1.5000003 L 23.84375 1.5000003 z "
       id="path640"
       transform="matrix(0.963275,-0.268517,0.268517,0.963275,0.461449,6.219155)" />
  </g>
</svg>
