<?xml version="1.0" encoding="UTF-8" standalone="no"?>
<svg
   xmlns:dc="http://purl.org/dc/elements/1.1/"
   xmlns:cc="http://web.resource.org/cc/"
   xmlns:rdf="http://www.w3.org/1999/02/22-rdf-syntax-ns#"
   xmlns:svg="http://www.w3.org/2000/svg"
   xmlns="http://www.w3.org/2000/svg"
   xmlns:sodipodi="http://inkscape.sourceforge.net/DTD/sodipodi-0.dtd"
   xmlns:inkscape="http://www.inkscape.org/namespaces/inkscape"
   width="24.000000pt"
   height="24.000000pt"
   id="svg4628"
   sodipodi:version="0.32"
   inkscape:version="0.43"
   sodipodi:docbase="I:\ArtWorks\K3d_Tests\Dev_Notes\Icons"
   sodipodi:docname="RenderManArray3D.svg"
   preserveAspectRatio="xMidYMid meet"
   zoomAndPan="magnify"
   version="1.0"
   contentScriptType="text/ecmascript"
   contentStyleType="text/css">
  <defs
     id="defs3" />
  <sodipodi:namedview
     id="base"
     pagecolor="#ffffff"
     bordercolor="#666666"
     borderopacity="1.0"
     inkscape:pageopacity="0.0"
     inkscape:pageshadow="2"
     inkscape:zoom="14.77841"
     inkscape:cx="13.244016"
     inkscape:cy="13.819842"
     inkscape:current-layer="layer1"
     inkscape:window-width="1680"
     inkscape:window-height="1035"
     inkscape:window-x="-4"
     inkscape:window-y="-4" />
  <metadata
     id="metadata4">
    <rdf:RDF>
      <cc:Work
         rdf:about="">
        <dc:format>image/svg+xml</dc:format>
        <dc:type
           rdf:resource="http://purl.org/dc/dcmitype/StillImage" />
      </cc:Work>
    </rdf:RDF>
  </metadata>
  <g
     inkscape:label="Layer 1"
     inkscape:groupmode="layer"
     id="layer1">
    <g
       id="g13465"
       transform="matrix(0.832971,0,0,0.832971,1.965041,34.19278)">
      <g
         style="fill:#888888;fill-opacity:1"
         id="g12290">
        <path
           transform="matrix(0.416472,0,0,0.536169,1.553428,-40.88739)"
           d="M 23.44667 5.0481038 A 9.2335644 2.5899436 0 1 1  4.9795408,5.0481038 A 9.2335644 2.5899436 0 1 1  23.44667 5.0481038 z"
           sodipodi:ry="2.5899436"
           sodipodi:rx="9.2335644"
           sodipodi:cy="5.0481038"
           sodipodi:cx="14.213105"
           id="path12236"
           style="fill:#888888;fill-opacity:1;stroke:#000000;stroke-width:2.11619759;stroke-linecap:square;stroke-linejoin:bevel;stroke-dashoffset:0"
           sodipodi:type="arc" />
        <path
           sodipodi:nodetypes="ccccc"
           id="path12238"
           d="M 3.6145259,-38.12107 C 4.8071695,-36.630815 10.051288,-36.563076 11.296546,-38.12107 L 11.296546,-32.238622 C 9.9986741,-30.680628 4.8597838,-30.477409 3.6145259,-32.238622 L 3.6145259,-38.12107 z "
           style="fill:#888888;fill-opacity:1;stroke:#000000;stroke-width:1;stroke-linecap:square;stroke-linejoin:bevel;stroke-dashoffset:0" />
        <path
           transform="matrix(0.416472,0,0,0.536169,11.46782,-40.88739)"
           d="M 23.44667 5.0481038 A 9.2335644 2.5899436 0 1 1  4.9795408,5.0481038 A 9.2335644 2.5899436 0 1 1  23.44667 5.0481038 z"
           sodipodi:ry="2.5899436"
           sodipodi:rx="9.2335644"
           sodipodi:cy="5.0481038"
           sodipodi:cx="14.213105"
           id="path12240"
           style="fill:#888888;fill-opacity:1;stroke:#000000;stroke-width:2.11619759;stroke-linecap:square;stroke-linejoin:bevel;stroke-dashoffset:0"
           sodipodi:type="arc" />
        <path
           sodipodi:nodetypes="ccccc"
           id="path12242"
           d="M 13.528951,-38.121071 C 14.721594,-36.630816 19.965713,-36.563077 21.210971,-38.121071 L 21.210971,-32.238623 C 19.913099,-30.680628 14.774209,-30.477409 13.528951,-32.238623 L 13.528951,-38.121071 z "
           style="fill:#888888;fill-opacity:1;stroke:#000000;stroke-width:1;stroke-linecap:square;stroke-linejoin:bevel;stroke-dashoffset:0" />
        <path
           transform="matrix(0.416472,0,0,0.536169,21.45811,-40.88739)"
           d="M 23.44667 5.0481038 A 9.2335644 2.5899436 0 1 1  4.9795408,5.0481038 A 9.2335644 2.5899436 0 1 1  23.44667 5.0481038 z"
           sodipodi:ry="2.5899436"
           sodipodi:rx="9.2335644"
           sodipodi:cy="5.0481038"
           sodipodi:cx="14.213105"
           id="path12244"
           style="fill:#888888;fill-opacity:1;stroke:#000000;stroke-width:2.11619759;stroke-linecap:square;stroke-linejoin:bevel;stroke-dashoffset:0"
           sodipodi:type="arc" />
        <path
           sodipodi:nodetypes="ccccc"
           id="path12246"
           d="M 23.519239,-38.121071 C 24.711882,-36.630816 29.956001,-36.563077 31.201259,-38.121071 L 31.201259,-32.238623 C 29.903387,-30.680628 24.764497,-30.477409 23.519239,-32.238623 L 23.519239,-38.121071 z "
           style="fill:#888888;fill-opacity:1;stroke:#000000;stroke-width:1;stroke-linecap:square;stroke-linejoin:bevel;stroke-dashoffset:0" />
        <path
           transform="matrix(0.416472,0,0,0.536169,11.46783,-30.82849)"
           d="M 23.44667 5.0481038 A 9.2335644 2.5899436 0 1 1  4.9795408,5.0481038 A 9.2335644 2.5899436 0 1 1  23.44667 5.0481038 z"
           sodipodi:ry="2.5899436"
           sodipodi:rx="9.2335644"
           sodipodi:cy="5.0481038"
           sodipodi:cx="14.213105"
           id="path12248"
           style="fill:#888888;fill-opacity:1;stroke:#000000;stroke-width:2.11619759;stroke-linecap:square;stroke-linejoin:bevel;stroke-dashoffset:0"
           sodipodi:type="arc" />
        <path
           sodipodi:nodetypes="ccccc"
           id="path12250"
           d="M 13.528951,-28.062174 C 14.721594,-26.571919 19.965713,-26.50418 21.210971,-28.062174 L 21.210971,-22.179725 C 19.913099,-20.621731 14.774209,-20.418512 13.528951,-22.179725 L 13.528951,-28.062174 z "
           style="fill:#888888;fill-opacity:1;stroke:#000000;stroke-width:1;stroke-linecap:square;stroke-linejoin:bevel;stroke-dashoffset:0" />
        <path
           transform="matrix(0.416472,0,0,0.536169,21.4581,-30.82849)"
           d="M 23.44667 5.0481038 A 9.2335644 2.5899436 0 1 1  4.9795408,5.0481038 A 9.2335644 2.5899436 0 1 1  23.44667 5.0481038 z"
           sodipodi:ry="2.5899436"
           sodipodi:rx="9.2335644"
           sodipodi:cy="5.0481038"
           sodipodi:cx="14.213105"
           id="path12252"
           style="fill:#888888;fill-opacity:1;stroke:#000000;stroke-width:2.11619759;stroke-linecap:square;stroke-linejoin:bevel;stroke-dashoffset:0"
           sodipodi:type="arc" />
        <path
           sodipodi:nodetypes="ccccc"
           id="path12254"
           d="M 23.519239,-28.062174 C 24.711882,-26.571919 29.956001,-26.50418 31.201259,-28.062174 L 31.201259,-22.179726 C 29.903387,-20.621731 24.764497,-20.418512 23.519239,-22.179726 L 23.519239,-28.062174 z "
           style="fill:#888888;fill-opacity:1;stroke:#000000;stroke-width:1;stroke-linecap:square;stroke-linejoin:bevel;stroke-dashoffset:0" />
        <path
           transform="matrix(0.416472,0,0,0.536169,11.45508,-20.88397)"
           d="M 23.44667 5.0481038 A 9.2335644 2.5899436 0 1 1  4.9795408,5.0481038 A 9.2335644 2.5899436 0 1 1  23.44667 5.0481038 z"
           sodipodi:ry="2.5899436"
           sodipodi:rx="9.2335644"
           sodipodi:cy="5.0481038"
           sodipodi:cx="14.213105"
           id="path12256"
           style="fill:#888888;fill-opacity:1;stroke:#000000;stroke-width:2.11619759;stroke-linecap:square;stroke-linejoin:bevel;stroke-dashoffset:0"
           sodipodi:type="arc" />
        <path
           sodipodi:nodetypes="ccccc"
           id="path12258"
           d="M 13.516211,-18.117662 C 14.708854,-16.627407 19.952973,-16.559668 21.198231,-18.117662 L 21.198231,-12.235213 C 19.900359,-10.677219 14.761469,-10.474 13.516211,-12.235213 L 13.516211,-18.117662 z "
           style="fill:#888888;fill-opacity:1;stroke:#000000;stroke-width:1;stroke-linecap:square;stroke-linejoin:bevel;stroke-dashoffset:0" />
        <path
           transform="matrix(0.416472,0,0,0.536169,21.44536,-20.88397)"
           d="M 23.44667 5.0481038 A 9.2335644 2.5899436 0 1 1  4.9795408,5.0481038 A 9.2335644 2.5899436 0 1 1  23.44667 5.0481038 z"
           sodipodi:ry="2.5899436"
           sodipodi:rx="9.2335644"
           sodipodi:cy="5.0481038"
           sodipodi:cx="14.213105"
           id="path12260"
           style="fill:#888888;fill-opacity:1;stroke:#000000;stroke-width:2.11619759;stroke-linecap:square;stroke-linejoin:bevel;stroke-dashoffset:0"
           sodipodi:type="arc" />
        <path
           sodipodi:nodetypes="ccccc"
           id="path12262"
           d="M 23.506499,-18.117662 C 24.699142,-16.627407 29.943261,-16.559668 31.188519,-18.117662 L 31.188519,-12.235214 C 29.890647,-10.677219 24.751757,-10.474 23.506499,-12.235214 L 23.506499,-18.117662 z "
           style="fill:#888888;fill-opacity:1;stroke:#000000;stroke-width:1;stroke-linecap:square;stroke-linejoin:bevel;stroke-dashoffset:0" />
        <path
           transform="matrix(0.416472,0,0,0.536169,1.553402,-30.86662)"
           d="M 23.44667 5.0481038 A 9.2335644 2.5899436 0 1 1  4.9795408,5.0481038 A 9.2335644 2.5899436 0 1 1  23.44667 5.0481038 z"
           sodipodi:ry="2.5899436"
           sodipodi:rx="9.2335644"
           sodipodi:cy="5.0481038"
           sodipodi:cx="14.213105"
           id="path12264"
           style="fill:#888888;fill-opacity:1;stroke:#000000;stroke-width:2.11619759;stroke-linecap:square;stroke-linejoin:bevel;stroke-dashoffset:0"
           sodipodi:type="arc" />
        <path
           sodipodi:nodetypes="ccccc"
           id="path12266"
           d="M 3.6145259,-28.100306 C 4.8071689,-26.610051 10.051288,-26.542312 11.296546,-28.100306 L 11.296546,-22.217858 C 9.9986739,-20.659864 4.8597839,-20.456645 3.6145259,-22.217858 L 3.6145259,-28.100306 z "
           style="fill:#888888;fill-opacity:1;stroke:#000000;stroke-width:1;stroke-linecap:square;stroke-linejoin:bevel;stroke-dashoffset:0" />
        <path
           transform="matrix(0.416472,0,0,0.536169,1.553402,-20.88398)"
           d="M 23.44667 5.0481038 A 9.2335644 2.5899436 0 1 1  4.9795408,5.0481038 A 9.2335644 2.5899436 0 1 1  23.44667 5.0481038 z"
           sodipodi:ry="2.5899436"
           sodipodi:rx="9.2335644"
           sodipodi:cy="5.0481038"
           sodipodi:cx="14.213105"
           id="path12268"
           style="fill:#888888;fill-opacity:1;stroke:#000000;stroke-width:2.11619759;stroke-linecap:square;stroke-linejoin:bevel;stroke-dashoffset:0"
           sodipodi:type="arc" />
        <path
           sodipodi:nodetypes="ccccc"
           id="path12270"
           d="M 3.6145259,-18.117666 C 4.8071689,-16.627411 10.051288,-16.559672 11.296546,-18.117666 L 11.296546,-12.235218 C 9.9986744,-10.677224 4.8597839,-10.474005 3.6145259,-12.235218 L 3.6145259,-18.117666 z "
           style="fill:#888888;fill-opacity:1;stroke:#000000;stroke-width:1;stroke-linecap:square;stroke-linejoin:bevel;stroke-dashoffset:0" />
      </g>
      <g
         transform="translate(-1.687866,-35.56061)"
         id="g3059">
        <path
           transform="matrix(0.416472,0,0,0.536169,-0.789493,-0.43225)"
           d="M 23.44667 5.0481038 A 9.2335644 2.5899436 0 1 1  4.9795408,5.0481038 A 9.2335644 2.5899436 0 1 1  23.44667 5.0481038 z"
           sodipodi:ry="2.5899436"
           sodipodi:rx="9.2335644"
           sodipodi:cy="5.0481038"
           sodipodi:cx="14.213105"
           id="path3020"
           style="fill:#990000;stroke:#000000;stroke-width:2.11619759;stroke-linecap:square;stroke-linejoin:bevel;stroke-dashoffset:0"
           sodipodi:type="arc" />
        <path
           sodipodi:nodetypes="ccccc"
           id="path3021"
           d="M 1.2716049,2.3340697 C 2.4642485,3.8243246 7.7083674,3.8920642 8.9536253,2.3340697 L 8.9536253,8.2165179 C 7.6557531,9.7745117 2.5168628,9.9777307 1.2716049,8.2165179 L 1.2716049,2.3340697 z "
           style="fill:#990000;stroke:#000000;stroke-width:1;stroke-linecap:square;stroke-linejoin:bevel;stroke-dashoffset:0" />
        <path
           transform="matrix(0.416472,0,0,0.536169,9.124901,-0.432248)"
           d="M 23.44667 5.0481038 A 9.2335644 2.5899436 0 1 1  4.9795408,5.0481038 A 9.2335644 2.5899436 0 1 1  23.44667 5.0481038 z"
           sodipodi:ry="2.5899436"
           sodipodi:rx="9.2335644"
           sodipodi:cy="5.0481038"
           sodipodi:cx="14.213105"
           id="path3024"
           style="fill:#bab5ab;stroke:#000000;stroke-width:2.11619759;stroke-linecap:square;stroke-linejoin:bevel;stroke-dashoffset:0"
           sodipodi:type="arc" />
        <path
           sodipodi:nodetypes="ccccc"
           id="path3025"
           d="M 11.18603,2.3340688 C 12.378673,3.8243237 17.622792,3.8920633 18.86805,2.3340688 L 18.86805,8.2165174 C 17.570178,9.7745117 12.431288,9.9777307 11.18603,8.2165174 L 11.18603,2.3340688 z "
           style="fill:#bab5ab;stroke:#000000;stroke-width:1;stroke-linecap:square;stroke-linejoin:bevel;stroke-dashoffset:0" />
        <path
           transform="matrix(0.416472,0,0,0.536169,19.11519,-0.432248)"
           d="M 23.44667 5.0481038 A 9.2335644 2.5899436 0 1 1  4.9795408,5.0481038 A 9.2335644 2.5899436 0 1 1  23.44667 5.0481038 z"
           sodipodi:ry="2.5899436"
           sodipodi:rx="9.2335644"
           sodipodi:cy="5.0481038"
           sodipodi:cx="14.213105"
           id="path3038"
           style="fill:#bab5ab;stroke:#000000;stroke-width:2.11619759;stroke-linecap:square;stroke-linejoin:bevel;stroke-dashoffset:0"
           sodipodi:type="arc" />
        <path
           sodipodi:nodetypes="ccccc"
           id="path3039"
           d="M 21.176318,2.3340687 C 22.368961,3.8243237 27.61308,3.8920633 28.858338,2.3340687 L 28.858338,8.2165173 C 27.560466,9.7745117 22.421576,9.9777307 21.176318,8.2165173 L 21.176318,2.3340687 z "
           style="fill:#bab5ab;stroke:#000000;stroke-width:1;stroke-linecap:square;stroke-linejoin:bevel;stroke-dashoffset:0" />
        <path
           transform="matrix(0.416472,0,0,0.536169,9.124906,9.626654)"
           d="M 23.44667 5.0481038 A 9.2335644 2.5899436 0 1 1  4.9795408,5.0481038 A 9.2335644 2.5899436 0 1 1  23.44667 5.0481038 z"
           sodipodi:ry="2.5899436"
           sodipodi:rx="9.2335644"
           sodipodi:cy="5.0481038"
           sodipodi:cx="14.213105"
           id="path3042"
           style="fill:#bab5ab;stroke:#000000;stroke-width:2.11619759;stroke-linecap:square;stroke-linejoin:bevel;stroke-dashoffset:0"
           sodipodi:type="arc" />
        <path
           sodipodi:nodetypes="ccccc"
           id="path3044"
           d="M 11.18603,12.392966 C 12.378673,13.883221 17.622792,13.95096 18.86805,12.392966 L 18.86805,18.275415 C 17.570178,19.833409 12.431288,20.036628 11.18603,18.275415 L 11.18603,12.392966 z "
           style="fill:#bab5ab;stroke:#000000;stroke-width:1;stroke-linecap:square;stroke-linejoin:bevel;stroke-dashoffset:0" />
        <path
           transform="matrix(0.416472,0,0,0.536169,19.11518,9.626654)"
           d="M 23.44667 5.0481038 A 9.2335644 2.5899436 0 1 1  4.9795408,5.0481038 A 9.2335644 2.5899436 0 1 1  23.44667 5.0481038 z"
           sodipodi:ry="2.5899436"
           sodipodi:rx="9.2335644"
           sodipodi:cy="5.0481038"
           sodipodi:cx="14.213105"
           id="path3045"
           style="fill:#bab5ab;stroke:#000000;stroke-width:2.11619759;stroke-linecap:square;stroke-linejoin:bevel;stroke-dashoffset:0"
           sodipodi:type="arc" />
        <path
           sodipodi:nodetypes="ccccc"
           id="path3046"
           d="M 21.176318,12.392966 C 22.368961,13.883221 27.61308,13.95096 28.858338,12.392966 L 28.858338,18.275414 C 27.560466,19.833409 22.421576,20.036628 21.176318,18.275414 L 21.176318,12.392966 z "
           style="fill:#bab5ab;stroke:#000000;stroke-width:1;stroke-linecap:square;stroke-linejoin:bevel;stroke-dashoffset:0" />
        <path
           transform="matrix(0.416472,0,0,0.536169,9.112161,19.57117)"
           d="M 23.44667 5.0481038 A 9.2335644 2.5899436 0 1 1  4.9795408,5.0481038 A 9.2335644 2.5899436 0 1 1  23.44667 5.0481038 z"
           sodipodi:ry="2.5899436"
           sodipodi:rx="9.2335644"
           sodipodi:cy="5.0481038"
           sodipodi:cx="14.213105"
           id="path3050"
           style="fill:#bab5ab;stroke:#000000;stroke-width:2.11619759;stroke-linecap:square;stroke-linejoin:bevel;stroke-dashoffset:0"
           sodipodi:type="arc" />
        <path
           sodipodi:nodetypes="ccccc"
           id="path3051"
           d="M 11.17329,22.337478 C 12.365933,23.827733 17.610052,23.895472 18.85531,22.337478 L 18.85531,28.219927 C 17.557438,29.777921 12.418548,29.98114 11.17329,28.219927 L 11.17329,22.337478 z "
           style="fill:#bab5ab;stroke:#000000;stroke-width:1;stroke-linecap:square;stroke-linejoin:bevel;stroke-dashoffset:0" />
        <path
           transform="matrix(0.416472,0,0,0.536169,19.10244,19.57117)"
           d="M 23.44667 5.0481038 A 9.2335644 2.5899436 0 1 1  4.9795408,5.0481038 A 9.2335644 2.5899436 0 1 1  23.44667 5.0481038 z"
           sodipodi:ry="2.5899436"
           sodipodi:rx="9.2335644"
           sodipodi:cy="5.0481038"
           sodipodi:cx="14.213105"
           id="path3052"
           style="fill:#bab5ab;stroke:#000000;stroke-width:2.11619759;stroke-linecap:square;stroke-linejoin:bevel;stroke-dashoffset:0"
           sodipodi:type="arc" />
        <path
           sodipodi:nodetypes="ccccc"
           id="path3053"
           d="M 21.163578,22.337478 C 22.356221,23.827733 27.60034,23.895472 28.845598,22.337478 L 28.845598,28.219926 C 27.547726,29.777921 22.408836,29.98114 21.163578,28.219926 L 21.163578,22.337478 z "
           style="fill:#bab5ab;stroke:#000000;stroke-width:1;stroke-linecap:square;stroke-linejoin:bevel;stroke-dashoffset:0" />
        <path
           transform="matrix(0.416472,0,0,0.536169,-0.789519,9.588521)"
           d="M 23.44667 5.0481038 A 9.2335644 2.5899436 0 1 1  4.9795408,5.0481038 A 9.2335644 2.5899436 0 1 1  23.44667 5.0481038 z"
           sodipodi:ry="2.5899436"
           sodipodi:rx="9.2335644"
           sodipodi:cy="5.0481038"
           sodipodi:cx="14.213105"
           id="path3055"
           style="fill:#bab5ab;stroke:#000000;stroke-width:2.11619759;stroke-linecap:square;stroke-linejoin:bevel;stroke-dashoffset:0"
           sodipodi:type="arc" />
        <path
           sodipodi:nodetypes="ccccc"
           id="path3056"
           d="M 1.2716049,12.354834 C 2.4642479,13.845089 7.7083669,13.912828 8.9536249,12.354834 L 8.9536249,18.237282 C 7.6557529,19.795276 2.5168629,19.998495 1.2716049,18.237282 L 1.2716049,12.354834 z "
           style="fill:#bab5ab;stroke:#000000;stroke-width:1;stroke-linecap:square;stroke-linejoin:bevel;stroke-dashoffset:0" />
        <path
           transform="matrix(0.416472,0,0,0.536169,-0.789519,19.57116)"
           d="M 23.44667 5.0481038 A 9.2335644 2.5899436 0 1 1  4.9795408,5.0481038 A 9.2335644 2.5899436 0 1 1  23.44667 5.0481038 z"
           sodipodi:ry="2.5899436"
           sodipodi:rx="9.2335644"
           sodipodi:cy="5.0481038"
           sodipodi:cx="14.213105"
           id="path3057"
           style="fill:#bab5ab;stroke:#000000;stroke-width:2.11619759;stroke-linecap:square;stroke-linejoin:bevel;stroke-dashoffset:0"
           sodipodi:type="arc" />
        <path
           sodipodi:nodetypes="ccccc"
           id="path3058"
           d="M 1.2716049,22.337474 C 2.4642479,23.827729 7.7083674,23.895468 8.9536254,22.337474 L 8.9536254,28.219922 C 7.6557534,29.777916 2.5168629,29.981135 1.2716049,28.219922 L 1.2716049,22.337474 z "
           style="fill:#bab5ab;stroke:#000000;stroke-width:1;stroke-linecap:square;stroke-linejoin:bevel;stroke-dashoffset:0" />
      </g>
    </g>
  </g>
</svg>
