<?xml version="1.0"?>
<svg xmlns:sodipodi="http://sodipodi.sourceforge.net/DTD/sodipodi-0.dtd" xmlns:inkscape="http://www.inkscape.org/namespaces/inkscape" width="24.000000pt" height="24.000000pt" id="svg3542" sodipodi:version="0.32" inkscape:version="0.40pre3" sodipodi:docbase="/lethe/arsgratia/k3d-icons/share" sodipodi:docname="SpereizePoints.svg" preserveAspectRatio="xMidYMid meet" zoomAndPan="magnify" version="1.0" contentScriptType="text/ecmascript" contentStyleType="text/css"><defs id="defs3"/><sodipodi:namedview id="base" pagecolor="#ffffff" bordercolor="#666666" borderopacity="1.0" inkscape:pageopacity="0.0" inkscape:pageshadow="2" inkscape:zoom="13.893067" inkscape:cx="14.647278" inkscape:cy="13.353608" inkscape:current-layer="layer1" inkscape:window-width="640" inkscape:window-height="530" inkscape:window-x="4" inkscape:window-y="47"/><metadata id="metadata4"><rdf:RDF xmlns:rdf="http://www.w3.org/1999/02/22-rdf-syntax-ns#" id="RDF5"><cc:Work xmlns:cc="http://web.resource.org/cc/" rdf:about="" id="Work6"><dc:format xmlns:dc="http://purl.org/dc/elements/1.1/" id="format7"/><dc:type xmlns:dc="http://purl.org/dc/elements/1.1/" id="type9" rdf:resource="http://purl.org/dc/dcmitype/StillImage"/></cc:Work></rdf:RDF></metadata><g inkscape:label="Layer 1" inkscape:groupmode="layer" id="layer1"><g id="g5313" transform="translate(-0.123691,1.434514e-2)"><path sodipodi:type="arc" style="fill:none;fill-opacity:1.0000000;fill-rule:nonzero;stroke:#990000;stroke-width:2.5000000;stroke-linecap:square;stroke-linejoin:miter;stroke-miterlimit:4.0000000;stroke-dashoffset:0.0000000;stroke-opacity:1.0000000" id="path5276" sodipodi:cx="186.63194" sodipodi:cy="104.65278" sodipodi:rx="13.310184" sodipodi:ry="13.310184" d="M 199.94213 104.65278 A 13.310184 13.310184 0 1 1  173.32176,104.65278 A 13.310184 13.310184 0 1 1  199.94213 104.65278 z" transform="translate(-171.3928,-89.60263)"/><path style="fill:#bab5ab;fill-opacity:1.0000000;fill-rule:nonzero;stroke:#000000;stroke-width:0.88133764;stroke-linecap:square;stroke-linejoin:bevel;stroke-miterlimit:4.0000000;stroke-dashoffset:0.0000000;stroke-opacity:1.0000000" d="M 180.45957,95.135812 C 182.68395,97.915262 190.44776,98.524390 192.77028,95.618600 L 196.52090,100.43696 L 196.71379,107.76250 L 191.80470,113.17650 C 188.13019,114.24973 184.32796,114.62929 180.84804,113.17704 L 176.32208,108.34093 L 176.22563,100.91921 L 180.45957,95.135812 z " id="path4598" sodipodi:nodetypes="ccccccccc" transform="translate(-170.9105,-88.73457)"/><path sodipodi:type="arc" style="fill:#bab5ab;fill-opacity:1.0000000;fill-rule:nonzero;stroke:#000000;stroke-width:1.0000000;stroke-linecap:square;stroke-linejoin:bevel;stroke-miterlimit:4.0000000;stroke-dashoffset:0.0000000;stroke-opacity:1.0000000" id="path4599" sodipodi:cx="14.213105" sodipodi:cy="5.0481038" sodipodi:rx="7.1285100" sodipodi:ry="1.8183388" d="M 21.341615 5.0481038 A 7.1285100 1.8183388 0 1 1  7.0845952,5.0481038 A 7.1285100 1.8183388 0 1 1  21.341615 5.0481038 z" transform="matrix(0.776756,0.000000,0.000000,1.000000,4.648550,1.916099)"/><path style="fill:none;fill-opacity:0.75000000;fill-rule:evenodd;stroke:#000000;stroke-width:0.88133764;stroke-linecap:butt;stroke-linejoin:miter;stroke-miterlimit:4.0000000;stroke-opacity:1.0000000" d="M 186.40748,113.88585 L 186.59831,96.575035" id="path4600" sodipodi:nodetypes="cc" transform="translate(-170.9105,-88.73457)"/><path sodipodi:type="arc" style="fill:#000000;fill-opacity:1.0000000;fill-rule:nonzero;stroke:#807d74;stroke-width:0.0000000;stroke-linecap:square;stroke-linejoin:bevel;stroke-miterlimit:4.0000000;stroke-dashoffset:0.0000000;stroke-opacity:1.0000000" id="path4601" sodipodi:cx="-96.605515" sodipodi:cy="-87.276924" sodipodi:rx="3.4174511" sodipodi:ry="3.4174511" d="M -93.188063 -87.276924 A 3.4174511 3.4174511 0 1 1  -100.02297,-87.276924 A 3.4174511 3.4174511 0 1 1  -93.188063 -87.276924 z" transform="matrix(0.496913,0.000000,0.000000,0.496913,58.39790,50.02608)"/><path sodipodi:type="arc" style="fill:#000000;fill-opacity:1.0000000;fill-rule:nonzero;stroke:#807d74;stroke-width:0.0000000;stroke-linecap:square;stroke-linejoin:bevel;stroke-miterlimit:4.0000000;stroke-dashoffset:0.0000000;stroke-opacity:1.0000000" id="path4602" sodipodi:cx="-96.605515" sodipodi:cy="-87.276924" sodipodi:rx="3.4174511" sodipodi:ry="3.4174511" d="M -93.188063 -87.276924 A 3.4174511 3.4174511 0 1 1  -100.02297,-87.276924 A 3.4174511 3.4174511 0 1 1  -93.188063 -87.276924 z" transform="matrix(0.496913,0.000000,0.000000,0.496913,69.59948,49.96464)"/><path sodipodi:type="arc" style="fill:#000000;fill-opacity:1.0000000;fill-rule:nonzero;stroke:#807d74;stroke-width:0.0000000;stroke-linecap:square;stroke-linejoin:bevel;stroke-miterlimit:4.0000000;stroke-dashoffset:0.0000000;stroke-opacity:1.0000000" id="path4603" sodipodi:cx="-96.605515" sodipodi:cy="-87.276924" sodipodi:rx="3.4174511" sodipodi:ry="3.4174511" d="M -93.188063 -87.276924 A 3.4174511 3.4174511 0 1 1  -100.02297,-87.276924 A 3.4174511 3.4174511 0 1 1  -93.188063 -87.276924 z" transform="matrix(0.496913,0.000000,0.000000,0.496913,54.01639,55.78746)"/><path sodipodi:type="arc" style="fill:#000000;fill-opacity:1.0000000;fill-rule:nonzero;stroke:#807d74;stroke-width:0.0000000;stroke-linecap:square;stroke-linejoin:bevel;stroke-miterlimit:4.0000000;stroke-dashoffset:0.0000000;stroke-opacity:1.0000000" id="path4604" sodipodi:cx="-96.605515" sodipodi:cy="-87.276924" sodipodi:rx="3.4174511" sodipodi:ry="3.4174511" d="M -93.188063 -87.276924 A 3.4174511 3.4174511 0 1 1  -100.02297,-87.276924 A 3.4174511 3.4174511 0 1 1  -93.188063 -87.276924 z" transform="matrix(0.496913,0.000000,0.000000,0.496913,72.98661,55.38838)"/><path sodipodi:type="arc" style="fill:#000000;fill-opacity:1.0000000;fill-rule:nonzero;stroke:#807d74;stroke-width:0.0000000;stroke-linecap:square;stroke-linejoin:bevel;stroke-miterlimit:4.0000000;stroke-dashoffset:0.0000000;stroke-opacity:1.0000000" id="path4605" sodipodi:cx="-96.605515" sodipodi:cy="-87.276924" sodipodi:rx="3.4174511" sodipodi:ry="3.4174511" d="M -93.188063 -87.276924 A 3.4174511 3.4174511 0 1 1  -100.02297,-87.276924 A 3.4174511 3.4174511 0 1 1  -93.188063 -87.276924 z" transform="matrix(0.496913,0.000000,0.000000,0.496913,54.25816,62.56803)"/><path sodipodi:type="arc" style="fill:#000000;fill-opacity:1.0000000;fill-rule:nonzero;stroke:#807d74;stroke-width:0.0000000;stroke-linecap:square;stroke-linejoin:bevel;stroke-miterlimit:4.0000000;stroke-dashoffset:0.0000000;stroke-opacity:1.0000000" id="path4606" sodipodi:cx="-96.605515" sodipodi:cy="-87.276924" sodipodi:rx="3.4174511" sodipodi:ry="3.4174511" d="M -93.188063 -87.276924 A 3.4174511 3.4174511 0 1 1  -100.02297,-87.276924 A 3.4174511 3.4174511 0 1 1  -93.188063 -87.276924 z" transform="matrix(0.496913,0.000000,0.000000,0.496913,72.62509,61.95175)"/><path sodipodi:type="arc" style="fill:#000000;fill-opacity:1.0000000;fill-rule:nonzero;stroke:#807d74;stroke-width:0.0000000;stroke-linecap:square;stroke-linejoin:bevel;stroke-miterlimit:4.0000000;stroke-dashoffset:0.0000000;stroke-opacity:1.0000000" id="path4607" sodipodi:cx="-96.605515" sodipodi:cy="-87.276924" sodipodi:rx="3.4174511" sodipodi:ry="3.4174511" d="M -93.188063 -87.276924 A 3.4174511 3.4174511 0 1 1  -100.02297,-87.276924 A 3.4174511 3.4174511 0 1 1  -93.188063 -87.276924 z" transform="matrix(0.496913,0.000000,0.000000,0.496913,58.49420,66.98196)"/><path sodipodi:type="arc" style="fill:#000000;fill-opacity:1.0000000;fill-rule:nonzero;stroke:#807d74;stroke-width:0.0000000;stroke-linecap:square;stroke-linejoin:bevel;stroke-miterlimit:4.0000000;stroke-dashoffset:0.0000000;stroke-opacity:1.0000000" id="path4608" sodipodi:cx="-96.605515" sodipodi:cy="-87.276924" sodipodi:rx="3.4174511" sodipodi:ry="3.4174511" d="M -93.188063 -87.276924 A 3.4174511 3.4174511 0 1 1  -100.02297,-87.276924 A 3.4174511 3.4174511 0 1 1  -93.188063 -87.276924 z" transform="matrix(0.496913,0.000000,0.000000,0.496913,68.22169,67.11351)"/><path sodipodi:type="arc" style="fill:#000000;fill-opacity:1.0000000;fill-rule:nonzero;stroke:#807d74;stroke-width:0.0000000;stroke-linecap:square;stroke-linejoin:bevel;stroke-miterlimit:4.0000000;stroke-dashoffset:0.0000000;stroke-opacity:1.0000000" id="path4609" sodipodi:cx="-96.605515" sodipodi:cy="-87.276924" sodipodi:rx="3.4174511" sodipodi:ry="3.4174511" d="M -93.188063 -87.276924 A 3.4174511 3.4174511 0 1 1  -100.02297,-87.276924 A 3.4174511 3.4174511 0 1 1  -93.188063 -87.276924 z" transform="matrix(0.496913,0.000000,0.000000,0.496913,63.79888,52.30376)"/><path sodipodi:type="arc" style="fill:#000000;fill-opacity:1.0000000;fill-rule:nonzero;stroke:#807d74;stroke-width:0.0000000;stroke-linecap:square;stroke-linejoin:bevel;stroke-miterlimit:4.0000000;stroke-dashoffset:0.0000000;stroke-opacity:1.0000000" id="path4610" sodipodi:cx="-96.605515" sodipodi:cy="-87.276924" sodipodi:rx="3.4174511" sodipodi:ry="3.4174511" d="M -93.188063 -87.276924 A 3.4174511 3.4174511 0 1 1  -100.02297,-87.276924 A 3.4174511 3.4174511 0 1 1  -93.188063 -87.276924 z" transform="matrix(0.496913,0.000000,0.000000,0.496913,63.65240,57.53603)"/><path sodipodi:type="arc" style="fill:#000000;fill-opacity:1.0000000;fill-rule:nonzero;stroke:#807d74;stroke-width:0.0000000;stroke-linecap:square;stroke-linejoin:bevel;stroke-miterlimit:4.0000000;stroke-dashoffset:0.0000000;stroke-opacity:1.0000000" id="path4611" sodipodi:cx="-96.605515" sodipodi:cy="-87.276924" sodipodi:rx="3.4174511" sodipodi:ry="3.4174511" d="M -93.188063 -87.276924 A 3.4174511 3.4174511 0 1 1  -100.02297,-87.276924 A 3.4174511 3.4174511 0 1 1  -93.188063 -87.276924 z" transform="matrix(0.496913,0.000000,0.000000,0.496913,63.74860,64.26883)"/><path sodipodi:type="arc" style="fill:#000000;fill-opacity:1.0000000;fill-rule:nonzero;stroke:#807d74;stroke-width:0.0000000;stroke-linecap:square;stroke-linejoin:bevel;stroke-miterlimit:4.0000000;stroke-dashoffset:0.0000000;stroke-opacity:1.0000000" id="path4612" sodipodi:cx="-96.605515" sodipodi:cy="-87.276924" sodipodi:rx="3.4174511" sodipodi:ry="3.4174511" d="M -93.188063 -87.276924 A 3.4174511 3.4174511 0 1 1  -100.02297,-87.276924 A 3.4174511 3.4174511 0 1 1  -93.188063 -87.276924 z" transform="matrix(0.496913,0.000000,0.000000,0.496913,63.36300,68.22449)"/><path sodipodi:type="arc" style="fill:#000000;fill-opacity:1.0000000;fill-rule:nonzero;stroke:#807d74;stroke-width:0.0000000;stroke-linecap:square;stroke-linejoin:bevel;stroke-miterlimit:4.0000000;stroke-dashoffset:0.0000000;stroke-opacity:1.0000000" id="path4613" sodipodi:cx="-96.605515" sodipodi:cy="-87.276924" sodipodi:rx="3.4174511" sodipodi:ry="3.4174511" d="M -93.188063 -87.276924 A 3.4174511 3.4174511 0 1 1  -100.02297,-87.276924 A 3.4174511 3.4174511 0 1 1  -93.188063 -87.276924 z" transform="matrix(0.496913,0.000000,0.000000,0.496913,63.98893,48.54754)"/></g></g></svg>
