<?xml version="1.0"?>
<svg xmlns:sodipodi="http://sodipodi.sourceforge.net/DTD/sodipodi-0.dtd" xmlns:inkscape="http://www.inkscape.org/namespaces/inkscape" width="24.000000pt" height="24.000000pt" id="svg5517" sodipodi:version="0.32" inkscape:version="0.40pre3" sodipodi:docbase="/lethe/arsgratia/k3d-icons/scalable_unfixed" sodipodi:docname="MeshSourceScript.svg" preserveAspectRatio="xMidYMid meet" zoomAndPan="magnify" version="1.0" contentScriptType="text/ecmascript" contentStyleType="text/css">
  <defs id="defs3"></defs>
  <sodipodi:namedview id="base" pagecolor="#ffffff" bordercolor="#666666" borderopacity="1.0" inkscape:pageopacity="0.0" inkscape:pageshadow="2" inkscape:zoom="9.8238822" inkscape:cx="13.313989" inkscape:cy="7.5080386" inkscape:current-layer="layer1" inkscape:window-width="640" inkscape:window-height="530" inkscape:window-x="5" inkscape:window-y="47"></sodipodi:namedview>
  <metadata id="metadata4">
    <rdf:RDF xmlns:rdf="http://www.w3.org/1999/02/22-rdf-syntax-ns#" id="RDF5">
      <cc:Work xmlns:cc="http://web.resource.org/cc/" rdf:about="" id="Work6">
        <dc:format xmlns:dc="http://purl.org/dc/elements/1.1/" id="format7">image/svg+xml</dc:format>
        <dc:type xmlns:dc="http://purl.org/dc/elements/1.1/" id="type9" rdf:resource="http://purl.org/dc/dcmitype/StillImage"></dc:type>
      </cc:Work>
    </rdf:RDF>
  </metadata>
  <g inkscape:label="Layer 1" inkscape:groupmode="layer" id="layer1">
    <g id="g5815">
      <path style="fill:#bab5ab;fill-opacity:1.0000000;fill-rule:nonzero;stroke:#000000;stroke-width:1.0000000;stroke-linecap:square;stroke-linejoin:bevel;stroke-miterlimit:4.0000000;stroke-dashoffset:0.0000000;stroke-opacity:1.0000000;" d="M 21.617086,4.7225386 C 19.787916,2.4208182 19.391496,6.1247386 16.784206,4.7661286 C 14.597426,3.6266486 17.302516,0.85131823 14.863586,1.2146882 C 11.955656,1.6479282 14.980446,3.8304486 12.500216,5.4091286 C 10.419996,6.7331986 9.3756457,3.0115482 8.4708657,5.3054186 C 7.3921057,8.0403786 10.776776,6.5138186 10.903836,9.4510882 C 11.010406,11.914648 7.2609557,10.968328 8.7951157,12.898818 C 10.624276,15.200538 11.005016,11.475768 13.612306,12.834368 C 15.799086,13.973858 13.093996,16.749188 15.532926,16.385808 C 18.440856,15.952568 15.431756,13.790898 17.911986,12.212228 C 19.992206,10.888158 21.036556,14.609808 21.941336,12.315938 C 23.020096,9.5809782 19.635426,11.107538 19.508366,8.1702582 C 19.401796,5.7067086 23.151246,6.6530286 21.617086,4.7225386 z M 17.455716,7.1346486 C 18.417916,8.4136782 18.161346,10.228578 16.882316,11.190778 C 15.603296,12.152968 13.788386,11.896408 12.826196,10.617378 C 11.863996,9.3383482 12.120566,7.5234486 13.399596,6.5612486 C 14.678616,5.5990486 16.493526,5.8556186 17.455716,7.1346486 z " id="path5577" transform="translate(-0.331407,8.949217e-2)"></path>
      <g id="g5611" transform="translate(139.5478,-139.5048)">
        <path sodipodi:type="arc" style="fill:#bab5ab;stroke:#000000;stroke-width:3.1034405;stroke-linecap:square;stroke-linejoin:bevel;stroke-dashoffset:0.0000000" id="path5579" sodipodi:cx="14.213105" sodipodi:cy="5.0481038" sodipodi:rx="9.2335644" sodipodi:ry="2.5899436" d="M 23.446670 5.0481038 A 9.2335644 2.5899436 0 1 1  4.9795408,5.0481038 A 9.2335644 2.5899436 0 1 1  23.446670 5.0481038 z" transform="matrix(0.349179,0.000000,0.000000,0.297348,-137.4337,157.8918)"></path>
        <path style="fill:#bab5ab;stroke:#000000;stroke-linecap:square;stroke-linejoin:bevel;stroke-dashoffset:0.0000000" d="M 12.403883,12.139277 C 13.403820,12.965741 17.800603,13.003308 18.844654,12.139277 L 18.844654,18.450462 C 17.756488,19.314494 13.447935,19.427195 12.403883,18.450462 L 12.403883,12.139277 z " id="path5580" sodipodi:nodetypes="ccccc" transform="translate(-148.1094,147.2867)"></path>
        <path style="fill:none;fill-opacity:0.75000000;fill-rule:evenodd;stroke:#000000" d="M 15.509216,19.105755 L 15.595001,12.796901" id="path5581" sodipodi:nodetypes="cc" transform="translate(-148.1094,147.2867)"></path>
        <path sodipodi:type="arc" style="stroke:#807d74;stroke-width:0.0000000;stroke-linecap:square;stroke-linejoin:bevel;stroke-dashoffset:0.0000000" id="path5582" sodipodi:cx="-96.605515" sodipodi:cy="-87.276924" sodipodi:rx="3.4174511" sodipodi:ry="3.4174511" d="M -93.188063 -87.276924 A 3.4174511 3.4174511 0 1 1  -100.02297,-87.276924 A 3.4174511 3.4174511 0 1 1  -93.188063 -87.276924 z" transform="matrix(0.223380,0.000000,0.000000,0.147756,-110.9527,179.3221)"></path>
      </g>
      <g id="g5647" transform="matrix(-1.000000,-3.140459e-16,-5.872988e-16,1.761677,46.15431,-3.509923)">
        <path style="fill:#990000;fill-opacity:1.0000000;fill-rule:evenodd;stroke:none;stroke-width:0.25000000pt;stroke-linecap:butt;stroke-linejoin:miter;stroke-opacity:1.0000000" d="M 18.195367,15.210356 L 26.433617,12.000747 L 26.385410,18.567209 L 18.195367,15.210356 z " id="path5648" sodipodi:nodetypes="cccc"></path>
        <path style="fill:none;fill-opacity:0.75000000;fill-rule:evenodd;stroke:#990000;stroke-width:2.5000000;stroke-linecap:butt;stroke-linejoin:miter;stroke-miterlimit:4.0000000;stroke-opacity:1.0000000" d="M 25.873269,15.091611 L 34.245208,15.091611" id="path5649" sodipodi:nodetypes="cc"></path>
      </g>
    </g>
  </g>
</svg>
