<?xml version="1.0"?>
<svg xmlns:sodipodi="http://sodipodi.sourceforge.net/DTD/sodipodi-0.dtd" xmlns:inkscape="http://www.inkscape.org/namespaces/inkscape" width="24.000000pt" height="24.000000pt" id="svg8827" sodipodi:version="0.32" inkscape:version="0.40pre3" sodipodi:docbase="/lethe/arsgratia/k3d-icons/scalable_unfixed" sodipodi:docname="ScalarMultiply.svg" preserveAspectRatio="xMidYMid meet" zoomAndPan="magnify" version="1.0" contentScriptType="text/ecmascript" contentStyleType="text/css">
  <defs id="defs3"></defs>
  <sodipodi:namedview id="base" pagecolor="#ffffff" bordercolor="#666666" borderopacity="1.0" inkscape:pageopacity="0.0" inkscape:pageshadow="2" inkscape:zoom="19.647764" inkscape:cx="12.115725" inkscape:cy="11.540756" inkscape:current-layer="layer1" inkscape:window-width="640" inkscape:window-height="530" inkscape:window-x="0" inkscape:window-y="47"></sodipodi:namedview>
  <metadata id="metadata4">
    <rdf:RDF xmlns:rdf="http://www.w3.org/1999/02/22-rdf-syntax-ns#" id="RDF5">
      <cc:Work xmlns:cc="http://web.resource.org/cc/" rdf:about="" id="Work6">
        <dc:format xmlns:dc="http://purl.org/dc/elements/1.1/" id="format7">image/svg+xml</dc:format>
        <dc:type xmlns:dc="http://purl.org/dc/elements/1.1/" id="type9" rdf:resource="http://purl.org/dc/dcmitype/StillImage"></dc:type>
      </cc:Work>
    </rdf:RDF>
  </metadata>
  <g inkscape:label="Layer 1" inkscape:groupmode="layer" id="layer1">
    <g id="g8923" transform="translate(-0.192783,0.111670)">
      <path style="font-size:180.00000;font-style:normal;font-variant:normal;font-weight:bold;font-stretch:normal;fill:#000000;fill-opacity:1.0000000;stroke:#000000;stroke-width:0.62629706;stroke-linecap:butt;stroke-linejoin:miter;stroke-miterlimit:4.0000000;stroke-opacity:1.0000000;display:block;font-family:Bitstream Vera Sans;text-anchor:start;writing-mode:lr" d="M 13.771847,12.145666 L 9.2085863,14.761626 L 13.733087,17.906136 L 12.443467,19.754826 L 8.3405668,16.812416 L 8.3405668,20.180326 L 6.2937268,20.180326 L 6.3619268,16.880616 L 2.1582668,19.335846 L 1.2716467,17.408066 L 5.6814568,14.748236 L 1.1910567,11.917896 L 2.3613268,10.178777 L 6.3278268,12.599906 L 6.2937268,9.0614966 L 8.3405668,9.0614966 L 8.4087668,12.634006 L 12.663587,10.439546 L 13.771847,12.145666 z " id="path8848" sodipodi:nodetypes="ccccccccccccccccccc"></path>
      <path style="font-size:180.00000;font-style:normal;font-variant:normal;font-weight:bold;font-stretch:normal;fill:#000000;fill-opacity:1.0000000;stroke:#000000;stroke-width:0.62629706;stroke-linecap:butt;stroke-linejoin:miter;stroke-miterlimit:4.0000000;stroke-opacity:1.0000000;display:block;font-family:Bitstream Vera Sans;text-anchor:start;writing-mode:lr" d="M 23.647757,11.812033 L 25.799660,13.983095 L 25.822070,16.033725 L 23.560042,18.226314 L 24.984638,19.696028 L 29.717618,15.108340 L 25.129930,10.375361 L 23.647757,11.812033 z " id="path8933" sodipodi:nodetypes="cccccccc"></path>
      <path id="path8934" style="fill:none;fill-opacity:0.75000000;fill-rule:evenodd;stroke:#000000;stroke-width:2.5000000;stroke-linecap:butt;stroke-linejoin:miter;stroke-miterlimit:4.0000000;stroke-opacity:1.0000000" d="M 0.92602820,4.4881574 C 3.0999729,4.4970433 5.2739177,4.5059293 7.4478624,4.5148152 C 14.845172,4.5148152 16.867063,14.880590 20.273260,14.880590 C 24.257411,14.898361 23.029214,14.916133 27.013365,14.933905 M 0.93751315,25.532670 C 3.1114579,25.523784 5.2854027,25.514898 7.4593474,25.506012 C 14.828058,25.506012 16.875897,14.947336 20.284745,14.947336 C 24.268896,14.929564 23.040699,14.911793 27.024850,14.894021" sodipodi:nodetypes="cccccccc"></path>
    </g>
  </g>
</svg>
