<?xml version="1.0"?>
<svg xmlns:sodipodi="http://sodipodi.sourceforge.net/DTD/sodipodi-0.dtd" xmlns:inkscape="http://www.inkscape.org/namespaces/inkscape" width="24.000000pt" height="24.000000pt" id="svg3286" sodipodi:version="0.32" inkscape:version="0.40pre3" sodipodi:docbase="/lethe/arsgratia/k3d-icons/scalable" sodipodi:docname="undo_tree.svg" preserveAspectRatio="xMidYMid meet" zoomAndPan="magnify" version="1.0" contentScriptType="text/ecmascript" contentStyleType="text/css"><defs id="defs3"/><sodipodi:namedview id="base" pagecolor="#ffffff" bordercolor="#666666" borderopacity="1.0" inkscape:pageopacity="0.0" inkscape:pageshadow="2" inkscape:zoom="9.8238822" inkscape:cx="11.055840" inkscape:cy="9.5331453" inkscape:current-layer="layer1" inkscape:window-width="640" inkscape:window-height="530" inkscape:window-x="0" inkscape:window-y="47"/><metadata id="metadata4"><rdf:RDF xmlns:rdf="http://www.w3.org/1999/02/22-rdf-syntax-ns#" id="RDF5"><cc:Work xmlns:cc="http://web.resource.org/cc/" rdf:about="" id="Work6"><dc:format xmlns:dc="http://purl.org/dc/elements/1.1/" id="format7"/><dc:type xmlns:dc="http://purl.org/dc/elements/1.1/" id="type9" rdf:resource="http://purl.org/dc/dcmitype/StillImage"/></cc:Work></rdf:RDF></metadata><g inkscape:label="Layer 1" inkscape:groupmode="layer" id="layer1"><g id="g3799" transform="translate(-1044.815,-211.4770)"><path style="fill:#d1940c;fill-opacity:1.0000000;fill-rule:evenodd;stroke:#000000;stroke-width:1.6162128;stroke-linecap:butt;stroke-linejoin:miter;stroke-miterlimit:4.0000000;stroke-opacity:1.0000000" d="M 1098.5799,218.06074 C 1096.4264,221.43775 1090.7456,227.81294 1090.5321,228.19177 C 1090.5182,228.12695 1095.6190,234.58756 1097.7214,237.69727 C 1097.6759,236.51512 1097.8069,232.51116 1097.7614,231.32901 C 1106.4002,231.28354 1106.7927,236.19535 1102.2627,242.24115 C 1107.4140,238.54995 1113.6954,223.57334 1098.3070,223.28131 C 1098.3980,222.59930 1098.4889,218.74275 1098.5799,218.06074 z " id="path3800" sodipodi:nodetypes="ccccccc" transform="matrix(0.773413,0.000000,0.000000,0.773413,210.5007,49.79457)"/><path style="fill:#eed680;fill-opacity:1.0000000;fill-rule:evenodd;stroke:none;stroke-width:0.0000000;stroke-linecap:butt;stroke-linejoin:miter;stroke-miterlimit:4.0000000;stroke-opacity:1.0000000" d="M 1097.5188,221.09880 C 1094.8362,223.41763 1093.9960,225.87294 1091.3134,228.19177 C 1105.0271,224.62276 1107.1023,229.65928 1106.8007,233.15541 C 1107.6613,232.64123 1109.1357,224.07902 1097.4125,223.88343 C 1097.5035,223.20142 1097.4278,221.78081 1097.5188,221.09880 z " id="path3801" sodipodi:nodetypes="ccccc" transform="matrix(0.773413,0.000000,0.000000,0.773413,210.5007,49.79457)"/></g></g></svg>
