ply
format ascii 1.0
comment Written by K-3D 0.7.12.0
element vertex 48
property float x
property float y
property float z
element face 92
property list uchar int vertex_indices
end_header
5 0 5
3.5355339059327378 -3.5355339059327373 5
3.0615158845559431e-16 -5 5
-3.5355339059327373 -3.5355339059327378 5
-5 -6.1230317691118863e-16 5
-3.5355339059327386 3.5355339059327373 5
-9.1845476536678294e-16 5 5
3.5355339059327369 3.5355339059327386 5
5 0 3
3.5355339059327378 -3.5355339059327373 3
3.0615158845559431e-16 -5 3
-3.5355339059327373 -3.5355339059327378 3
-5 -6.1230317691118863e-16 3
-3.5355339059327386 3.5355339059327373 3
-9.1845476536678294e-16 5 3
3.5355339059327369 3.5355339059327386 3
5 0 0.99999999999999978
3.5355339059327378 -3.5355339059327373 0.99999999999999978
3.0615158845559431e-16 -5 0.99999999999999978
-3.5355339059327373 -3.5355339059327378 0.99999999999999978
-5 -6.1230317691118863e-16 0.99999999999999978
-3.5355339059327386 3.5355339059327373 0.99999999999999978
-9.1845476536678294e-16 5 0.99999999999999978
3.5355339059327369 3.5355339059327386 0.99999999999999978
5 0 -0.99999999999999978
3.5355339059327378 -3.5355339059327373 -0.99999999999999978
3.0615158845559431e-16 -5 -0.99999999999999978
-3.5355339059327373 -3.5355339059327378 -0.99999999999999978
-5 -6.1230317691118863e-16 -0.99999999999999978
-3.5355339059327386 3.5355339059327373 -0.99999999999999978
-9.1845476536678294e-16 5 -0.99999999999999978
3.5355339059327369 3.5355339059327386 -0.99999999999999978
5 0 -3.0000000000000004
3.5355339059327378 -3.5355339059327373 -3.0000000000000004
3.0615158845559431e-16 -5 -3.0000000000000004
-3.5355339059327373 -3.5355339059327378 -3.0000000000000004
-5 -6.1230317691118863e-16 -3.0000000000000004
-3.5355339059327386 3.5355339059327373 -3.0000000000000004
-9.1845476536678294e-16 5 -3.0000000000000004
3.5355339059327369 3.5355339059327386 -3.0000000000000004
5 0 -5
3.5355339059327378 -3.5355339059327373 -5
3.0615158845559431e-16 -5 -5
-3.5355339059327373 -3.5355339059327378 -5
-5 -6.1230317691118863e-16 -5
-3.5355339059327386 3.5355339059327373 -5
-9.1845476536678294e-16 5 -5
3.5355339059327369 3.5355339059327386 -5
3 0 1 9
3 0 9 8
3 1 2 10
3 1 10 9
3 2 3 11
3 2 11 10
3 3 4 12
3 3 12 11
3 4 5 13
3 4 13 12
3 5 6 14
3 5 14 13
3 6 7 15
3 6 15 14
3 7 0 8
3 7 8 15
3 8 9 17
3 8 17 16
3 9 10 18
3 9 18 17
3 10 11 19
3 10 19 18
3 11 12 20
3 11 20 19
3 12 13 21
3 12 21 20
3 13 14 22
3 13 22 21
3 14 15 23
3 14 23 22
3 15 8 16
3 15 16 23
3 16 17 25
3 16 25 24
3 17 18 26
3 17 26 25
3 18 19 27
3 18 27 26
3 19 20 28
3 19 28 27
3 20 21 29
3 20 29 28
3 21 22 30
3 21 30 29
3 22 23 31
3 22 31 30
3 23 16 24
3 23 24 31
3 24 25 33
3 24 33 32
3 25 26 34
3 25 34 33
3 26 27 35
3 26 35 34
3 27 28 36
3 27 36 35
3 28 29 37
3 28 37 36
3 29 30 38
3 29 38 37
3 30 31 39
3 30 39 38
3 31 24 32
3 31 32 39
3 32 33 41
3 32 41 40
3 33 34 42
3 33 42 41
3 34 35 43
3 34 43 42
3 35 36 44
3 35 44 43
3 36 37 45
3 36 45 44
3 37 38 46
3 37 46 45
3 38 39 47
3 38 47 46
3 39 32 40
3 39 40 47
3 0 7 6
3 0 6 5
3 0 5 4
3 0 4 3
3 0 3 2
3 0 2 1
3 40 41 42
3 40 42 43
3 40 43 44
3 40 44 45
3 40 45 46
3 40 46 47
