# Alias OBJ Model File
# Exported from SketchUp, (c) 2000-2006 Google, Inc.
# File units = meters

mtllib test.mtl

g Mesh1 Model

usemtl FrontColor
v 2.3547 0 -2.97803
vt -92.7046 117.245
vn 0 -1 0
v 0.764696 0 -1.52803
vt -30.1061 60.1587
v 0.764696 0 -2.97803
vt -30.1061 117.245
f 1/1/1 2/2/1 3/3/1

v 2.3547 0 -1.52803
vt -92.7046 60.1587
f 2/2/1 1/1/1 4/4/1

usemtl BackColor
vn 0 1 0
f 3/3/2 2/2/2 1/1/2

usemtl Wood_Logs
vt -1.67108 0
vn -1 0 0
v 0.764696 3.83 -2.97803
vt -3.25681 4.18854
vt -3.25681 0
f 2/5/3 5/6/3 3/7/3

v 0.764696 3.83 -1.52803
vt -1.67108 4.18854
f 5/6/3 2/5/3 6/8/3

usemtl BackColor
vt -60.1587 150.787
vn 1 0 0
vt -60.1587 0
vt -117.245 150.787
f 6/9/4 2/10/4 5/11/4

usemtl Wood_Logs
vt 0.836282 0
vn 0 0 1
v 2.3547 3.83 -1.52803
vt 2.57513 4.18854
vt 0.836282 4.18854
f 2/12/5 7/13/5 6/14/5

vt 2.57513 0
f 7/13/5 2/12/5 4/15/5

usemtl BackColor
vt 92.7046 0
vn 0 0 -1
vt 30.1061 0
vt 92.7046 150.787
f 4/16/6 2/17/6 7/18/6

f 4/4/2 1/1/2 2/2/2

usemtl Wood_Logs
vt 3.25681 0
vt 1.67108 4.18854
vt 1.67108 0
f 1/19/4 7/20/4 4/21/4

v 2.3547 3.83 -2.97803
vt 3.25681 4.18854
f 7/20/4 1/19/4 8/22/4

usemtl BackColor
vt 60.1587 0
vt 60.1587 150.787
vt 117.245 0
f 4/23/3 7/24/3 1/25/3

vt 117.245 150.787
f 8/26/3 1/25/3 7/24/3

usemtl Wood_Logs
vt -2.57513 0
vt -0.836282 4.18854
vt -2.57513 4.18854
f 1/27/6 5/28/6 8/29/6

vt -0.836282 0
f 5/28/6 1/27/6 3/30/6

usemtl BackColor
vt -30.1061 0
vt -92.7046 0
vt -30.1061 150.787
f 3/31/5 1/32/5 5/33/5

vt -92.7046 150.787
f 8/34/5 5/33/5 1/32/5

usemtl Roofing_Shingles_Multi
vt 0.278761 3.25681
vt 0.858376 1.67108
vt 0.858376 3.25681
f 5/35/2 7/36/2 8/37/2

vt 0.278761 1.67108
f 7/36/2 5/35/2 6/38/2

usemtl BackColor
vt 30.1061 60.1587
vt 30.1061 117.245
vt 92.7046 60.1587
f 6/39/1 5/40/1 7/41/1

vt 92.7046 117.245
f 8/42/1 7/41/1 5/40/1

vt 30.1061 150.787
f 6/43/6 7/18/6 2/17/6

vt -117.245 0
f 3/44/4 5/11/4 2/10/4

g Mesh2 Model

l 3 2

l 1 3

l 4 1

l 2 4

l 2 6

l 6 7

l 5 6

l 8 5

l 7 8

l 4 7

l 1 8

l 3 5

