<?xml version="1.0" encoding="UTF-8" standalone="no"?>
<svg
   xmlns:dc="http://purl.org/dc/elements/1.1/"
   xmlns:cc="http://web.resource.org/cc/"
   xmlns:rdf="http://www.w3.org/1999/02/22-rdf-syntax-ns#"
   xmlns:svg="http://www.w3.org/2000/svg"
   xmlns="http://www.w3.org/2000/svg"
   xmlns:xlink="http://www.w3.org/1999/xlink"
   xmlns:sodipodi="http://inkscape.sourceforge.net/DTD/sodipodi-0.dtd"
   xmlns:inkscape="http://www.inkscape.org/namespaces/inkscape"
   width="24.000000pt"
   height="24.000000pt"
   id="svg4046"
   sodipodi:version="0.32"
   inkscape:version="0.43"
   sodipodi:docbase="I:\ArtWorks\K3d_Tests\Dev_Notes\Icons"
   sodipodi:docname="Annotation2D.svg"
   preserveAspectRatio="xMidYMid meet"
   zoomAndPan="magnify"
   version="1.0"
   contentScriptType="text/ecmascript"
   contentStyleType="text/css"
   inkscape:export-filename="I:\ArtWorks\K3d_Tests\Dev_Notes\Icons\Annotation.png"
   inkscape:export-xdpi="90"
   inkscape:export-ydpi="90">
  <defs
     id="defs3">
    <radialGradient
       r="13.188590"
       fy="-40.098114"
       fx="100.86923"
       cy="-33.376244"
       cx="105.96836"
       gradientTransform="translate(-34.06886,-55.01197)"
       gradientUnits="userSpaceOnUse"
       id="radialGradient7073"
       inkscape:collect="always">
      <stop
         id="stop12427radialGradient7073"
         offset="0.0000000"
         style="stop-color:#eae8e3;stop-opacity:1.0000000;" />
      <stop
         id="stop12428radialGradient7073"
         offset="1.0000000"
         style="stop-color:#807d74;stop-opacity:1.0000000;" />
    </radialGradient>
    <linearGradient
       id="linearGradient12426">
      <stop
         id="stop12427"
         offset="0.0000000"
         style="stop-color:#eae8e3;stop-opacity:1.0000000;" />
      <stop
         id="stop12428"
         offset="1.0000000"
         style="stop-color:#807d74;stop-opacity:1.0000000;" />
    </linearGradient>
    <radialGradient
       inkscape:collect="always"
       xlink:href="#radialGradient7073"
       id="radialGradient2759"
       gradientUnits="userSpaceOnUse"
       gradientTransform="translate(-34.06886,-55.01197)"
       cx="105.96836"
       cy="-33.376244"
       fx="100.86923"
       fy="-40.098114"
       r="13.188590" />
  </defs>
  <sodipodi:namedview
     id="base"
     pagecolor="#ffffff"
     bordercolor="#666666"
     borderopacity="1.0"
     inkscape:pageopacity="0.0"
     inkscape:pageshadow="2"
     inkscape:zoom="21.15646"
     inkscape:cx="24.999374"
     inkscape:cy="16.995514"
     inkscape:current-layer="layer1"
     inkscape:window-width="1680"
     inkscape:window-height="1035"
     inkscape:window-x="-4"
     inkscape:window-y="-4"
     showguides="true"
     inkscape:guide-bbox="true" />
  <metadata
     id="metadata4">
    <rdf:RDF>
      <cc:Work
         rdf:about="">
        <dc:format>image/svg+xml</dc:format>
        <dc:type
           rdf:resource="http://purl.org/dc/dcmitype/StillImage" />
      </cc:Work>
    </rdf:RDF>
  </metadata>
  <g
     inkscape:label="Layer 1"
     inkscape:groupmode="layer"
     id="layer1">
    <path
       id="path2742"
       d="M 10.97268,1.7743238 L 9.4941905,5.789743 L 12.456565,5.789743 L 10.97268,1.7743238 M 10.357542,0.69886158 L 11.593213,0.69886158 L 14.663508,8.7675304 L 13.530359,8.7675304 L 12.79651,6.6976709 L 9.1650376,6.6976709 L 8.4311887,8.7675304 L 7.2818525,8.7675304 L 10.357542,0.69886158 M 16.924409,4.9142411 L 16.924409,7.8704112 L 18.672696,7.8704112 C 19.259051,7.8704119 19.692526,7.7497154 19.973119,7.5083209 C 20.2573,7.2633259 20.399394,6.8904273 20.399398,6.3896239 C 20.399394,5.8852224 20.2573,5.5141254 19.973119,5.2763314 C 19.692526,5.0349416 19.259051,4.9142449 18.672696,4.9142411 L 16.924409,4.9142411 M 16.924409,1.5959808 L 16.924409,4.0279306 L 18.537797,4.0279306 C 19.070193,4.0279353 19.465896,3.928856 19.724905,3.7306922 C 19.987503,3.5289357 20.118804,3.2226906 20.11881,2.8119557 C 20.118804,2.4048356 19.987503,2.1003918 19.724905,1.8986234 C 19.465896,1.6968688 19.070193,1.595988 18.537797,1.5959808 L 16.924409,1.5959808 M 15.834428,0.69886158 L 18.618737,0.69886158 C 19.449707,0.69886964 20.090027,0.87180812 20.539695,1.2176775 C 20.98935,1.563562 21.214181,2.0553557 21.214187,2.6930603 C 21.214181,3.1866616 21.099068,3.5793761 20.868847,3.8712049 C 20.638613,4.1630435 20.300467,4.3449892 19.854408,4.4170425 C 20.3904,4.5323391 20.805889,4.7737324 21.100872,5.1412231 C 21.399441,5.5051182 21.548729,5.960883 21.548736,6.5085192 C 21.548729,7.2290985 21.304113,7.7857443 20.814887,8.1784581 C 20.32565,8.5711731 19.629572,8.7675304 18.726656,8.7675304 L 15.834428,8.7675304 L 15.834428,0.69886158 M 29.443006,1.3203598 L 29.443006,2.4714827 C 29.076076,2.1292149 28.683969,1.8734102 28.26669,1.7040674 C 27.852994,1.534739 27.412326,1.4500712 26.944683,1.4500638 C 26.023771,1.4500712 25.318701,1.7328977 24.829472,2.298544 C 24.340236,2.8606006 24.095621,3.6748526 24.095623,4.7413025 C 24.095621,5.8041575 24.340236,6.6184095 24.829472,7.1840608 C 25.318701,7.7461125 26.023771,8.0271374 26.944683,8.0271368 C 27.412326,8.0271374 27.852994,7.9424696 28.26669,7.7731332 C 28.683969,7.6037985 29.076076,7.3479937 29.443006,7.0057178 L 29.443006,8.1460321 C 29.061685,8.4054404 28.656989,8.5999962 28.228918,8.7297001 C 27.804431,8.8594039 27.354769,8.9242559 26.879931,8.924256 C 25.660445,8.9242559 24.699966,8.5513573 23.998496,7.8055591 C 23.297022,7.05616 22.946285,6.0347421 22.946286,4.7413025 C 22.946285,3.4442679 23.297022,2.42285 23.998496,1.6770458 C 24.699966,0.92765283 25.660445,0.5529528 26.879931,0.5529446 C 27.361965,0.5529528 27.815223,0.61780474 28.23971,0.74750057 C 28.667783,0.87360957 29.068881,1.0645625 29.443006,1.3203598 M 8.5660881,16.703253 L 10.346751,16.703253 L 10.346751,10.547718 L 8.4096057,10.93683 L 8.4096057,9.9424324 L 10.335958,9.5533205 L 11.42594,9.5533205 L 11.42594,16.703253 L 13.206601,16.703253 L 13.206601,17.621989 L 8.5660881,17.621989 L 8.5660881,16.703253 M 16.352439,16.703253 L 20.156582,16.703253 L 20.156582,17.621989 L 15.041224,17.621989 L 15.041224,16.703253 C 15.454911,16.27451 16.017889,15.69985 16.730156,14.979271 C 17.446014,14.255093 17.895676,13.78852 18.079142,13.579548 C 18.428076,13.186839 18.670893,12.855372 18.807595,12.585151 C 18.947885,12.311337 19.018032,12.042922 19.018037,11.779906 C 19.018032,11.351168 18.866945,11.001688 18.564777,10.731465 C 18.266197,10.461256 17.87589,10.326147 17.393857,10.32614 C 17.052111,10.326147 16.690582,10.385595 16.309272,10.504483 C 15.931553,10.623385 15.526858,10.80353 15.095183,11.044916 L 15.095183,9.9424324 C 15.534052,9.7658987 15.944143,9.6325919 16.32546,9.5425118 C 16.70677,9.4524477 17.055708,9.4074116 17.372273,9.4074035 C 18.206842,9.4074116 18.872342,9.616379 19.368774,10.034306 C 19.865195,10.452248 20.113408,11.010696 20.113414,11.709649 C 20.113408,12.041121 20.050456,12.356373 19.924556,12.655408 C 19.802242,12.950849 19.577412,13.300329 19.250062,13.703848 C 19.160126,13.808336 18.874141,14.110978 18.392107,14.611776 C 17.910065,15.108978 17.230177,15.806136 16.352439,16.703253 M 25.752178,13.271501 C 26.273781,13.383195 26.680275,13.615581 26.971663,13.96866 C 27.266635,14.321746 27.414124,14.757696 27.414131,15.276509 C 27.414124,16.072749 27.140731,16.688841 26.593946,17.124791 C 26.047152,17.560741 25.270137,17.778715 24.262896,17.778715 C 23.924748,17.778715 23.57581,17.744487 23.216084,17.676032 C 22.85995,17.611181 22.491227,17.512101 22.109915,17.378794 L 22.109915,16.324949 C 22.412085,16.501492 22.743037,16.634798 23.10277,16.724869 C 23.462496,16.814942 23.838413,16.859979 24.230521,16.859979 C 24.914005,16.859979 25.433814,16.72487 25.789949,16.454653 C 26.149676,16.184437 26.329541,15.791723 26.329544,15.276509 C 26.329541,14.80093 26.162266,14.429833 25.827722,14.163216 C 25.496766,13.893003 25.034514,13.757896 24.440963,13.757891 L 23.50207,13.757891 L 23.50207,12.860772 L 24.484131,12.860772 C 25.020124,12.860777 25.430217,12.754492 25.714407,12.541917 C 25.998589,12.325748 26.140682,12.015901 26.140686,11.612372 C 26.140682,11.198045 25.993193,10.880992 25.698218,10.661209 C 25.406834,10.437837 24.987749,10.326147 24.440963,10.32614 C 24.142385,10.326147 23.822226,10.358573 23.480484,10.423418 C 23.138739,10.488277 22.762822,10.589158 22.352733,10.726061 L 22.352733,9.7532808 C 22.766419,9.6379963 23.153129,9.551527 23.512861,9.4938728 C 23.876185,9.4362348 24.217928,9.4074116 24.538091,9.4074035 C 25.365465,9.4074116 26.020173,9.5965631 26.502214,9.9748584 C 26.984247,10.349566 27.225266,10.857573 27.225271,11.498881 C 27.225266,11.945644 27.097562,12.323947 26.84216,12.63379 C 26.586746,12.94004 26.223419,13.15261 25.752178,13.271501"
       style="font-size:10px;font-style:normal;font-variant:normal;font-weight:normal;font-stretch:normal;text-align:start;line-height:80.00000119%;writing-mode:lr-tb;text-anchor:start;fill:#ffde11;fill-opacity:1;stroke:#5ac0ff;stroke-width:1.10594833px;stroke-linecap:butt;stroke-linejoin:miter;stroke-opacity:1;font-family:Bitstream Vera Sans" />
    <path
       style="font-size:10px;font-style:normal;font-variant:normal;font-weight:normal;font-stretch:normal;text-align:start;line-height:80.00000119%;writing-mode:lr-tb;text-anchor:start;fill:#000000;fill-opacity:1;stroke:none;stroke-width:1px;stroke-linecap:butt;stroke-linejoin:miter;stroke-opacity:1;font-family:Bitstream Vera Sans"
       d="M 10.97268,1.7743238 L 9.4941905,5.789743 L 12.456565,5.789743 L 10.97268,1.7743238 M 10.357542,0.69886158 L 11.593213,0.69886158 L 14.663508,8.7675304 L 13.530359,8.7675304 L 12.79651,6.6976709 L 9.1650376,6.6976709 L 8.4311887,8.7675304 L 7.2818525,8.7675304 L 10.357542,0.69886158 M 16.924409,4.9142411 L 16.924409,7.8704112 L 18.672696,7.8704112 C 19.259051,7.8704119 19.692526,7.7497154 19.973119,7.5083209 C 20.2573,7.2633259 20.399394,6.8904273 20.399398,6.3896239 C 20.399394,5.8852224 20.2573,5.5141254 19.973119,5.2763314 C 19.692526,5.0349416 19.259051,4.9142449 18.672696,4.9142411 L 16.924409,4.9142411 M 16.924409,1.5959808 L 16.924409,4.0279306 L 18.537797,4.0279306 C 19.070193,4.0279353 19.465896,3.928856 19.724905,3.7306922 C 19.987503,3.5289357 20.118804,3.2226906 20.11881,2.8119557 C 20.118804,2.4048356 19.987503,2.1003918 19.724905,1.8986234 C 19.465896,1.6968688 19.070193,1.595988 18.537797,1.5959808 L 16.924409,1.5959808 M 15.834428,0.69886158 L 18.618737,0.69886158 C 19.449707,0.69886964 20.090027,0.87180812 20.539695,1.2176775 C 20.98935,1.563562 21.214181,2.0553557 21.214187,2.6930603 C 21.214181,3.1866616 21.099068,3.5793761 20.868847,3.8712049 C 20.638613,4.1630435 20.300467,4.3449892 19.854408,4.4170425 C 20.3904,4.5323391 20.805889,4.7737324 21.100872,5.1412231 C 21.399441,5.5051182 21.548729,5.960883 21.548736,6.5085192 C 21.548729,7.2290985 21.304113,7.7857443 20.814887,8.1784581 C 20.32565,8.5711731 19.629572,8.7675304 18.726656,8.7675304 L 15.834428,8.7675304 L 15.834428,0.69886158 M 29.443006,1.3203598 L 29.443006,2.4714827 C 29.076076,2.1292149 28.683969,1.8734102 28.26669,1.7040674 C 27.852994,1.534739 27.412326,1.4500712 26.944683,1.4500638 C 26.023771,1.4500712 25.318701,1.7328977 24.829472,2.298544 C 24.340236,2.8606006 24.095621,3.6748526 24.095623,4.7413025 C 24.095621,5.8041575 24.340236,6.6184095 24.829472,7.1840608 C 25.318701,7.7461125 26.023771,8.0271374 26.944683,8.0271368 C 27.412326,8.0271374 27.852994,7.9424696 28.26669,7.7731332 C 28.683969,7.6037985 29.076076,7.3479937 29.443006,7.0057178 L 29.443006,8.1460321 C 29.061685,8.4054404 28.656989,8.5999962 28.228918,8.7297001 C 27.804431,8.8594039 27.354769,8.9242559 26.879931,8.924256 C 25.660445,8.9242559 24.699966,8.5513573 23.998496,7.8055591 C 23.297022,7.05616 22.946285,6.0347421 22.946286,4.7413025 C 22.946285,3.4442679 23.297022,2.42285 23.998496,1.6770458 C 24.699966,0.92765283 25.660445,0.5529528 26.879931,0.5529446 C 27.361965,0.5529528 27.815223,0.61780474 28.23971,0.74750057 C 28.667783,0.87360957 29.068881,1.0645625 29.443006,1.3203598 M 8.5660881,16.703253 L 10.346751,16.703253 L 10.346751,10.547718 L 8.4096057,10.93683 L 8.4096057,9.9424324 L 10.335958,9.5533205 L 11.42594,9.5533205 L 11.42594,16.703253 L 13.206601,16.703253 L 13.206601,17.621989 L 8.5660881,17.621989 L 8.5660881,16.703253 M 16.352439,16.703253 L 20.156582,16.703253 L 20.156582,17.621989 L 15.041224,17.621989 L 15.041224,16.703253 C 15.454911,16.27451 16.017889,15.69985 16.730156,14.979271 C 17.446014,14.255093 17.895676,13.78852 18.079142,13.579548 C 18.428076,13.186839 18.670893,12.855372 18.807595,12.585151 C 18.947885,12.311337 19.018032,12.042922 19.018037,11.779906 C 19.018032,11.351168 18.866945,11.001688 18.564777,10.731465 C 18.266197,10.461256 17.87589,10.326147 17.393857,10.32614 C 17.052111,10.326147 16.690582,10.385595 16.309272,10.504483 C 15.931553,10.623385 15.526858,10.80353 15.095183,11.044916 L 15.095183,9.9424324 C 15.534052,9.7658987 15.944143,9.6325919 16.32546,9.5425118 C 16.70677,9.4524477 17.055708,9.4074116 17.372273,9.4074035 C 18.206842,9.4074116 18.872342,9.616379 19.368774,10.034306 C 19.865195,10.452248 20.113408,11.010696 20.113414,11.709649 C 20.113408,12.041121 20.050456,12.356373 19.924556,12.655408 C 19.802242,12.950849 19.577412,13.300329 19.250062,13.703848 C 19.160126,13.808336 18.874141,14.110978 18.392107,14.611776 C 17.910065,15.108978 17.230177,15.806136 16.352439,16.703253 M 25.752178,13.271501 C 26.273781,13.383195 26.680275,13.615581 26.971663,13.96866 C 27.266635,14.321746 27.414124,14.757696 27.414131,15.276509 C 27.414124,16.072749 27.140731,16.688841 26.593946,17.124791 C 26.047152,17.560741 25.270137,17.778715 24.262896,17.778715 C 23.924748,17.778715 23.57581,17.744487 23.216084,17.676032 C 22.85995,17.611181 22.491227,17.512101 22.109915,17.378794 L 22.109915,16.324949 C 22.412085,16.501492 22.743037,16.634798 23.10277,16.724869 C 23.462496,16.814942 23.838413,16.859979 24.230521,16.859979 C 24.914005,16.859979 25.433814,16.72487 25.789949,16.454653 C 26.149676,16.184437 26.329541,15.791723 26.329544,15.276509 C 26.329541,14.80093 26.162266,14.429833 25.827722,14.163216 C 25.496766,13.893003 25.034514,13.757896 24.440963,13.757891 L 23.50207,13.757891 L 23.50207,12.860772 L 24.484131,12.860772 C 25.020124,12.860777 25.430217,12.754492 25.714407,12.541917 C 25.998589,12.325748 26.140682,12.015901 26.140686,11.612372 C 26.140682,11.198045 25.993193,10.880992 25.698218,10.661209 C 25.406834,10.437837 24.987749,10.326147 24.440963,10.32614 C 24.142385,10.326147 23.822226,10.358573 23.480484,10.423418 C 23.138739,10.488277 22.762822,10.589158 22.352733,10.726061 L 22.352733,9.7532808 C 22.766419,9.6379963 23.153129,9.551527 23.512861,9.4938728 C 23.876185,9.4362348 24.217928,9.4074116 24.538091,9.4074035 C 25.365465,9.4074116 26.020173,9.5965631 26.502214,9.9748584 C 26.984247,10.349566 27.225266,10.857573 27.225271,11.498881 C 27.225266,11.945644 27.097562,12.323947 26.84216,12.63379 C 26.586746,12.94004 26.223419,13.15261 25.752178,13.271501"
       id="text2413" />
    <path
       style="fill:none;fill-opacity:0.75;fill-rule:evenodd;stroke:#000000;stroke-width:1px;stroke-linecap:butt;stroke-linejoin:round;stroke-opacity:1"
       d="M 4.5668105,29.442416 L 4.4228538,0.93899111 L 3.415157,5.8335187 L 5.4305507,5.8829416 L 4.3355427,0.99186105"
       id="path2771"
       sodipodi:nodetypes="ccccc" />
    <path
       sodipodi:nodetypes="ccccc"
       id="path2773"
       d="M 0.3807891,25.260706 L 28.884215,25.116749 L 23.989687,24.109053 L 23.940264,26.124446 L 28.831345,25.029438"
       style="fill:none;fill-opacity:0.75;fill-rule:evenodd;stroke:#000000;stroke-width:1px;stroke-linecap:butt;stroke-linejoin:round;stroke-opacity:1" />
  </g>
</svg>
