<?xml version="1.0" encoding="UTF-8" standalone="no"?>
<svg
   xmlns:dc="http://purl.org/dc/elements/1.1/"
   xmlns:cc="http://creativecommons.org/ns#"
   xmlns:rdf="http://www.w3.org/1999/02/22-rdf-syntax-ns#"
   xmlns:svg="http://www.w3.org/2000/svg"
   xmlns="http://www.w3.org/2000/svg"
   xmlns:xlink="http://www.w3.org/1999/xlink"
   xmlns:sodipodi="http://sodipodi.sourceforge.net/DTD/sodipodi-0.dtd"
   xmlns:inkscape="http://www.inkscape.org/namespaces/inkscape"
   width="30px"
   height="30px"
   id="svg4046"
   sodipodi:version="0.32"
   inkscape:version="0.46"
   sodipodi:docbase="/home/daniel/projects/k3d_artwork/Icon_parts"
   sodipodi:docname="FrozenTransformation.svg"
   preserveAspectRatio="xMidYMid meet"
   zoomAndPan="magnify"
   version="1.0"
   contentScriptType="text/ecmascript"
   contentStyleType="text/css"
   inkscape:export-filename="/home/daniel/projects/k3d_artwork/Icon_parts/K3D_icon_template_1.svg.png"
   inkscape:export-xdpi="90"
   inkscape:export-ydpi="90"
   inkscape:output_extension="org.inkscape.output.svg.inkscape">
  <sodipodi:namedview
     id="base"
     pagecolor="#ffffff"
     bordercolor="#666666"
     borderopacity="1.0"
     inkscape:pageopacity="0.0"
     inkscape:pageshadow="2"
     inkscape:zoom="21.15646"
     inkscape:cx="9.8410629"
     inkscape:cy="13.047247"
     inkscape:current-layer="g3358"
     inkscape:window-width="1680"
     inkscape:window-height="1015"
     inkscape:window-x="0"
     inkscape:window-y="6"
     showguides="true"
     inkscape:guide-bbox="true"
     showgrid="true"
     inkscape:snap-global="false">
    <inkscape:grid
       type="xygrid"
       id="grid3185"
       visible="true"
       enabled="true"
       empspacing="10"
       dotted="false"
       color="#0082ff"
       opacity="0.1254902"
       empcolor="#2b00ff"
       empopacity="0.25098039" />
    <inkscape:grid
       type="axonomgrid"
       id="grid3187"
       units="px"
       visible="true"
       enabled="true"
       color="#ff005c"
       opacity="0.1254902"
       empcolor="#d700ff"
       empopacity="0.1254902"
       spacingy="3.855px"
       gridanglex="30"
       gridanglez="30"
       empspacing="10"
       originx="1.6px"
       originy="-0.4px" />
  </sodipodi:namedview>
  <defs
     id="defs3">
    <inkscape:perspective
       sodipodi:type="inkscape:persp3d"
       inkscape:vp_x="-7.6572356 : 16.796142 : 1"
       inkscape:vp_y="6.1230318e-14 : 1000 : 0"
       inkscape:vp_z="39.453377 : 16.701608 : 1"
       inkscape:persp3d-origin="15 : 10 : 1"
       id="perspective22" />
    <linearGradient
       id="linearGradient3204">
      <stop
         id="stop3206"
         offset="0"
         style="stop-color:#5c5c5c;stop-opacity:1;" />
      <stop
         id="stop3208"
         offset="1"
         style="stop-color:#bab5ab;stop-opacity:0;" />
    </linearGradient>
    <marker
       inkscape:stockid="Arrow2Lend"
       orient="auto"
       refY="0.0"
       refX="0.0"
       id="Arrow2Lend"
       style="overflow:visible;">
      <path
         id="path3133"
         style="font-size:12.0;fill-rule:evenodd;stroke-width:0.62500000;stroke-linejoin:round;"
         d="M 8.7185878,4.0337352 L -2.2072895,0.016013256 L 8.7185884,-4.0017078 C 6.9730900,-1.6296469 6.9831476,1.6157441 8.7185878,4.0337352 z "
         transform="scale(1.1) rotate(180) translate(-5,0)" />
    </marker>
    <linearGradient
       id="linearGradient12426">
      <stop
         id="stop12427"
         offset="0.0000000"
         style="stop-color:#eae8e3;stop-opacity:1.0000000;" />
      <stop
         id="stop12428"
         offset="1.0000000"
         style="stop-color:#807d74;stop-opacity:1.0000000;" />
    </linearGradient>
    <linearGradient
       inkscape:collect="always"
       xlink:href="#linearGradient3204"
       id="linearGradient3202"
       x1="2.8360133"
       y1="3.1524081"
       x2="26.753057"
       y2="26.596785"
       gradientUnits="userSpaceOnUse" />
    <linearGradient
       inkscape:collect="always"
       xlink:href="#linearGradient3204"
       id="linearGradient3216"
       gradientUnits="userSpaceOnUse"
       x1="2.8360133"
       y1="3.1524081"
       x2="26.753057"
       y2="26.596785" />
  </defs>
  <metadata
     id="metadata4">
    <rdf:RDF>
      <cc:Work
         rdf:about="">
        <dc:format>image/svg+xml</dc:format>
        <dc:type
           rdf:resource="http://purl.org/dc/dcmitype/StillImage" />
      </cc:Work>
    </rdf:RDF>
  </metadata>
  <g
     inkscape:label="Layer 1"
     inkscape:groupmode="layer"
     id="layer1">
    <g
       id="g3358"
       transform="matrix(-1,0,0,1,29.959879,0)">
      <g
         id="g3371">
        <path
           id="path2483"
           style="opacity:0.6;fill:#afafde;fill-opacity:1;fill-rule:evenodd;stroke:none;stroke-width:1px;stroke-linecap:butt;stroke-linejoin:round;stroke-miterlimit:4;stroke-dasharray:none;stroke-opacity:1"
           d="M 1.0846018,20.460756 L 2.3366921,21.788497 L 3.8655919,22.808307 L 4.6947868,24.42437 L 5.9541234,25.754051 L 7.0911601,27.191122 L 8.6643848,28.168391 L 10.281795,29.020995 L 11.855646,29.946995 L 14.282657,28.896864 L 16.24292,27.157409 L 18.629974,26.085678 L 20.829003,24.686269 L 22.696231,22.841684 L 24.981358,21.510143 L 27.225288,20.075779 L 29.846058,19.496178 L 28.2827,19.582411 L 26.730062,19.779381 L 25.157988,19.65422 L 23.667931,19.152722 L 22.131121,18.793359 L 20.550202,18.794296 L 19.140352,18.125294 L 17.735305,17.446873 L 15.604605,17.895275 L 13.439409,17.646467 L 11.530271,18.625763 L 9.4649074,19.238912 L 7.3711407,19.736233 L 5.3822287,20.542039 L 3.2388271,20.2327 L 1.0846018,20.460756" />
        <path
           id="path2485"
           style="opacity:0.6;fill:#353564;fill-opacity:1;fill-rule:evenodd;stroke:none;stroke-width:1px;stroke-linecap:butt;stroke-linejoin:round;stroke-miterlimit:4;stroke-dasharray:none;stroke-opacity:1"
           d="M 1.0846018,7.5334515 L 1.0293361,9.1610532 L 1.0786555,10.788835 L 1.5135584,12.36794 L 1.648151,13.997104 L 1.0373028,15.542897 L 0.80893289,17.18329 L 0.72738375,18.839351 L 1.0846018,20.460756 L 3.2052276,20.21004 L 5.1965497,19.46028 L 7.2721671,19.042664 L 9.3392669,18.587099 L 11.412457,18.040551 L 13.557605,18.157485 L 15.685181,18.015974 L 17.735305,17.446873 L 17.39092,16.552736 L 17.176184,15.621311 L 17.218754,14.669044 L 17.170029,13.717053 L 17.496964,12.818928 L 17.575251,11.869589 L 17.481007,10.914496 L 17.735305,9.9872337 L 15.880099,8.9171172 L 13.787173,8.4034975 L 11.716785,7.7787951 L 9.5502415,7.8664101 L 7.431702,8.0870506 L 5.3084527,7.9140701 L 3.2307269,7.3673691 L 1.0846018,7.5334515" />
        <path
           id="path2487"
           style="opacity:0.6;fill:#e9e9ff;fill-opacity:1;fill-rule:evenodd;stroke:none;stroke-width:1px;stroke-linecap:butt;stroke-linejoin:round;stroke-miterlimit:4;stroke-dasharray:none;stroke-opacity:1"
           d="M 17.735305,9.9872337 L 19.26961,9.9221347 L 20.775497,9.6299513 L 22.231686,9.1483861 L 23.756866,8.9515208 L 25.298798,8.7599025 L 26.832972,9.0030605 L 28.359671,8.7964666 L 29.846058,8.4005553 L 29.872909,9.8134204 L 29.4373,11.162002 L 29.396282,12.556586 L 29.296311,13.948367 L 29.644064,15.323162 L 29.485269,16.730267 L 29.668108,18.112923 L 29.846058,19.496178 L 28.34342,19.112165 L 26.789425,19.119409 L 25.256525,18.96764 L 23.718983,18.869412 L 22.169952,18.694874 L 20.74876,18.072757 L 19.261679,17.67099 L 17.735305,17.446873 L 17.553876,16.523093 L 17.506705,15.583843 L 17.615876,14.65167 L 17.699893,13.717053 L 17.827611,12.782017 L 17.667378,11.851696 L 17.532573,10.913691 L 17.735305,9.9872337" />
        <path
           id="path2489"
           style="opacity:0.6;fill:#4d4d9f;fill-opacity:1;fill-rule:evenodd;stroke:none;stroke-width:1px;stroke-linecap:butt;stroke-linejoin:round;stroke-miterlimit:4;stroke-dasharray:none;stroke-opacity:1"
           d="M 1.0846018,7.5334515 L 2.3610712,6.4865996 L 3.6136254,5.4129635 L 5.1990741,4.8624285 L 6.6049009,3.9637425 L 8.008182,3.0972797 L 9.3810643,2.1862332 L 10.695332,1.1914219 L 11.855646,0.030648208 L 14.415817,0.15368401 L 16.831633,0.98414448 L 19.07607,2.151097 L 21.503931,2.8974259 L 23.808531,3.9321554 L 25.919101,5.3015074 L 27.943456,6.778593 L 29.846058,8.4005553 L 28.302523,8.7134986 L 26.727317,8.6415622 L 25.348896,9.3638176 L 23.89262,9.9245424 L 22.331573,10.04824 L 20.819245,10.44309 L 19.284118,10.171691 L 17.735305,9.9872337 L 15.619939,9.6579763 L 13.696084,8.7442977 L 11.678675,8.0349109 L 9.5335058,7.9730513 L 7.4161116,7.9708672 L 5.2990674,7.9334863 L 3.2071396,7.5820554 L 1.0846018,7.5334515" />
        <g
           id="g2570"
           transform="matrix(-0.364327,0,0,0.2252367,42.098911,11.033922)">
          <path
             id="text2296"
             d="M 48.639901,5.7715799 C 48.461002,5.9181604 48.33079,6.147122 48.24534,6.45815 C 48.162569,6.7609076 48.121765,7.1489488 48.121766,7.62653 C 48.121765,8.1025649 48.162569,8.4372018 48.24534,8.6331968 C 48.33079,8.8308176 48.461002,8.888551 48.639901,8.8009679 C 48.827264,8.7092411 48.972567,8.5078425 49.071539,8.194799 C 49.173896,7.8727118 49.225897,7.4407491 49.225898,6.9040789 C 49.225897,6.3656667 49.173896,6.0017633 49.071539,5.8153587 C 48.972567,5.6301339 48.827264,5.6180705 48.639901,5.7715799 M 48.639901,5.3771926 C 48.943147,5.1157181 49.188321,5.0775809 49.36483,5.2813398 C 49.549266,5.4897364 49.644083,5.9413972 49.644086,6.6304522 C 49.644083,7.3176917 49.549266,7.8934501 49.36483,8.3450073 C 49.188321,8.7780137 48.943147,9.0599141 48.639901,9.1953552 C 48.355432,9.3224091 48.149449,9.2604095 48.012264,9.0209709 C 47.880323,8.7869368 47.815866,8.390632 47.815866,7.8266848 C 47.815866,7.2612453 47.880323,6.780579 48.012264,6.3753868 C 48.149449,5.9548713 48.355432,5.6224828 48.639901,5.3771926 M 51.686122,3.2757141 C 51.370943,3.5339541 51.144071,3.8808621 50.996331,4.3178499 C 50.854077,4.7405491 50.784257,5.2601499 50.784258,5.8844199 C 50.784257,6.5066688 50.854077,6.9348889 50.996331,7.1734651 C 51.144071,7.4150293 51.370943,7.4639385 51.686122,7.309637 C 52.020607,7.1458841 52.283158,6.8417818 52.463594,6.3949054 C 52.651584,5.9315783 52.747634,5.3298222 52.747637,4.5997508 C 52.747634,3.8673107 52.651584,3.3912648 52.463594,3.1763035 C 52.283158,2.9632617 52.020607,3.0016639 51.686122,3.2757141 M 51.686122,2.7505492 C 52.229774,2.281783 52.678193,2.1305102 53.00607,2.3360601 C 53.353287,2.5475207 53.533656,3.1333917 53.533661,4.0854432 C 53.533656,5.034988 53.353287,5.8569274 53.00607,6.5252482 C 52.678193,7.1575077 52.229774,7.5919868 51.686122,7.8348019 C 51.186843,8.0577978 50.831605,8.0149622 50.597882,7.728773 C 50.375218,7.451268 50.26719,6.9520042 50.267191,6.2227453 C 50.26719,5.4915568 50.375218,4.8509047 50.597882,4.2839647 C 50.831605,3.6898868 51.186843,3.1810633 51.686122,2.7505492 M 57.754819,-1.6965632 C 57.058252,-1.1258369 56.567632,-0.48813011 56.252861,0.22821293 C 55.953227,0.91291373 55.807384,1.6966931 55.807386,2.5977097 C 55.807384,3.49581 55.953227,4.088708 56.252861,4.3842429 C 56.567632,4.6856124 57.058252,4.679617 57.754819,4.3385997 C 58.513802,3.9670269 59.12434,3.398945 59.551711,2.6338061 C 60.003899,1.8277536 60.237715,0.84027199 60.237723,-0.30112874 C 60.237715,-1.446229 60.003899,-2.1276903 59.551711,-2.3383273 C 59.12434,-2.5477055 58.513802,-2.3184151 57.754819,-1.6965632 M 57.754819,-2.4822638 C 58.999124,-3.5551734 60.068483,-4.1103238 60.87639,-4.0299857 C 61.757077,-3.9523816 62.225148,-3.1412719 62.225161,-1.6015402 C 62.225148,-0.065855906 61.757077,1.3578696 60.87639,2.591948 C 60.068483,3.7258597 58.999124,4.5685484 57.754819,5.1243003 C 56.659452,5.613531 55.9062,5.658597 55.421946,5.3178812 C 54.968715,4.992091 54.751612,4.3201963 54.751613,3.2885179 C 54.751612,2.2541102 54.968715,1.2980697 55.421946,0.38193672 C 55.9062,-0.5954259 56.659452,-1.5377623 57.754819,-2.4822638 M 75.773164,-16.459566 C 73.128913,-14.293035 71.378268,-12.418953 70.300118,-10.700703 C 69.304738,-9.1092884 68.830758,-7.5422205 68.830764,-5.9236888 C 68.830758,-4.3103923 69.304738,-3.3636739 70.300118,-3.0695173 C 71.378268,-2.767866 73.128913,-3.1880559 75.773164,-4.4825963 C 78.889551,-6.0082769 81.595809,-7.9098613 83.607255,-10.130555 C 85.850064,-12.59874 87.059162,-15.236486 87.059202,-17.850838 C 87.059162,-20.473635 85.850064,-21.528902 83.607255,-21.053797 C 81.595809,-20.649772 78.889551,-19.012907 75.773164,-16.459566 M 75.773164,-18.018814 C 81.025251,-22.547476 86.180562,-26.161035 90.54815,-28.030504 C 95.86033,-30.329506 98.953391,-29.656554 98.953476,-25.633446 C 98.953391,-21.620847 95.86033,-16.899668 90.54815,-12.236918 C 86.180562,-8.3991667 81.025251,-5.2691226 75.773164,-2.9233488 C 71.699265,-1.1037976 69.151165,-0.49164283 67.609924,-0.77322702 C 66.230688,-1.0371253 65.590529,-2.0409236 65.590532,-3.8035546 C 65.590529,-5.5708473 66.230688,-7.412491 67.609924,-9.4765209 C 69.151165,-11.780322 71.699265,-14.506029 75.773164,-18.018814"
             style="font-size:12px;font-style:normal;font-weight:normal;fill:#000000;fill-opacity:1;stroke:none;stroke-width:1px;stroke-linecap:butt;stroke-linejoin:miter;stroke-opacity:1;font-family:Bitstream Vera Sans" />
          <path
             style="font-size:12px;font-style:normal;font-weight:normal;fill:#000000;fill-opacity:1;stroke:none;stroke-width:1px;stroke-linecap:butt;stroke-linejoin:miter;stroke-opacity:1;font-family:Bitstream Vera Sans"
             d="M 48.639901,10.131877 C 48.461002,10.193545 48.33079,10.360703 48.24534,10.631173 C 48.162569,10.894644 48.121765,11.263318 48.121766,11.740899 C 48.121765,12.216934 48.162569,12.570938 48.24534,12.806219 C 48.33079,13.044398 48.461002,13.163936 48.639901,13.161265 C 48.827264,13.158468 48.972567,13.026036 49.071539,12.759969 C 49.173896,12.486465 49.225897,12.079184 49.225898,11.542514 C 49.225897,11.004101 49.173896,10.615516 49.071539,10.380529 C 48.972567,10.148328 48.827264,10.067298 48.639901,10.131877 M 48.639901,9.7374896 C 48.943147,9.6199483 49.188321,9.6981807 49.36483,9.9857179 C 49.549266,10.281655 49.644083,10.77832 49.644086,11.467376 C 49.644083,12.154615 49.549266,12.685369 49.36483,13.049385 C 49.188321,13.398614 48.943147,13.564144 48.639901,13.555652 C 48.355432,13.547686 48.149449,13.387918 48.012264,13.083366 C 47.880323,12.786707 47.815866,12.359809 47.815866,11.795862 C 47.815866,11.230422 47.880323,10.78035 48.012264,10.437782 C 48.149449,10.08238 48.355432,9.8477596 48.639901,9.7374896 M 51.686122,9.0818711 C 51.370943,9.1905147 51.144071,9.4297398 50.996331,9.7966043 C 50.854077,10.151784 50.784257,10.638246 50.784258,11.262516 C 50.784257,11.884765 50.854077,12.346124 50.996331,12.65222 C 51.144071,12.963907 51.370943,13.120499 51.686122,13.115794 C 52.020607,13.110802 52.283158,12.931316 52.463594,12.570082 C 52.651584,12.195983 52.747634,11.639816 52.747637,10.909746 C 52.747634,10.177304 52.651584,9.6556697 52.463594,9.3514804 C 52.283158,9.0527963 52.020607,8.9665814 51.686122,9.0818711 M 51.686122,8.5567062 C 52.229774,8.3459796 52.678193,8.4075444 53.00607,8.768718 C 53.353287,9.144982 53.533656,9.8164634 53.533661,10.768517 C 53.533656,11.71806 53.353287,12.454389 53.00607,12.957906 C 52.678193,13.434542 52.229774,13.656183 51.686122,13.640959 C 51.186843,13.626977 50.831605,13.415531 50.597882,13.018407 C 50.375218,12.635217 50.26719,12.084679 50.267191,11.35542 C 50.26719,10.624231 50.375218,10.034854 50.597882,9.573599 C 50.831605,9.0904558 51.186843,8.7502425 51.686122,8.5567062 M 57.754819,6.9900439 C 57.058252,7.2301511 56.567632,7.6349899 56.252861,8.2019299 C 55.953227,8.7444121 55.807384,9.4589682 55.807386,10.359986 C 55.807384,11.258085 55.953227,11.920207 56.252861,12.35796 C 56.567632,12.808732 57.058252,13.035605 57.754819,13.025207 C 58.513802,13.013878 59.12434,12.735582 59.551711,12.173291 C 60.003899,11.581866 60.237715,10.705362 60.237723,9.5639651 C 60.237715,8.4188611 60.003899,7.6264214 59.551711,7.2011575 C 59.12434,6.7889315 58.513802,6.7284361 57.754819,6.9900439 M 57.754819,6.2043433 C 58.999124,5.7220311 60.068483,5.6744418 60.87639,6.1382456 C 61.757077,6.6338593 62.225148,7.6671344 62.225161,9.2068722 C 62.225148,10.74255 61.757077,11.94411 60.87639,12.760179 C 60.068483,13.510626 58.999124,13.845753 57.754819,13.810907 C 56.659452,13.780232 55.9062,13.467775 55.421946,12.897212 C 54.968715,12.3563 54.751612,11.581359 54.751613,10.549682 C 54.751612,9.5152735 54.968715,8.6622787 55.421946,7.9612674 C 55.9062,7.2137516 56.659452,6.6289391 57.754819,6.2043433 M 75.773164,0.77927787 C 73.128913,1.6907404 71.378268,2.7338956 70.300118,3.940412 C 69.304738,5.0593783 68.830758,6.4014761 68.830764,8.0200107 C 68.830758,9.6333045 69.304738,10.804993 70.300118,11.571597 C 71.378268,12.384982 73.128913,12.795719 75.773164,12.756247 C 78.889551,12.709731 81.595809,12.092646 83.607255,10.826667 C 85.850064,9.4230099 87.059162,7.3591504 87.059202,4.7448168 C 87.059162,2.1220013 85.850064,0.49284756 83.607255,-0.096575737 C 81.595809,-0.64726449 78.889551,-0.29489914 75.773164,0.77927787 M 75.773164,-0.77996962 C 81.025251,-2.815779 86.180562,-3.9824174 90.54815,-3.7788523 C 95.86033,-3.5564784 98.953391,-1.4154345 98.953476,2.6077136 C 98.953391,6.6202723 95.86033,9.8733598 90.54815,12.014733 C 86.180562,13.779451 81.025251,14.462575 75.773164,14.315495 C 71.699265,14.201409 69.151165,13.604132 67.609924,12.591012 C 66.230688,11.672473 65.590529,10.364829 65.590532,8.6021993 C 65.590529,6.8349054 66.230688,5.2971069 67.609924,3.8877182 C 69.151165,2.315453 71.699265,0.79917763 75.773164,-0.77996962"
             id="path2564" />
          <path
             style="font-size:12px;font-style:normal;font-weight:normal;fill:#000000;fill-opacity:1;stroke:none;stroke-width:1px;stroke-linecap:butt;stroke-linejoin:miter;stroke-opacity:1;font-family:Bitstream Vera Sans"
             d="M 48.639901,14.613293 C 48.461002,14.58769 48.33079,14.691327 48.24534,14.920112 C 48.162569,15.143206 48.121765,15.491975 48.121766,15.969556 C 48.121765,16.445591 48.162569,16.8195 48.24534,17.095159 C 48.33079,17.375023 48.461002,17.558081 48.639901,17.642681 C 48.827264,17.731285 48.972567,17.669736 49.071539,17.451949 C 49.173896,17.228377 49.225897,16.846464 49.225898,16.309795 C 49.225897,15.771381 49.173896,15.357429 49.071539,15.072509 C 48.972567,14.792027 48.827264,14.640115 48.639901,14.613293 M 48.639901,14.218906 C 48.943147,14.249296 49.188321,14.44713 49.36483,14.820773 C 49.549266,15.206683 49.644083,15.749602 49.644086,16.438659 C 49.644083,17.125897 49.549266,17.610397 49.36483,17.88444 C 49.188321,18.147563 48.943147,18.193492 48.639901,18.037069 C 48.355432,17.890331 48.149449,17.63008 48.012264,17.258605 C 47.880323,16.897583 47.815866,16.439241 47.815866,15.875293 C 47.815866,15.309854 47.880323,14.891225 48.012264,14.613021 C 48.149449,14.324542 48.355432,14.190405 48.639901,14.218906 M 51.686122,15.04931 C 51.370943,15.004202 51.144071,15.132753 50.996331,15.427546 C 50.854077,15.713331 50.784257,16.165733 50.784258,16.790003 C 50.784257,17.412251 50.854077,17.907671 50.996331,18.283161 C 51.144071,18.66692 51.370943,18.934186 51.686122,19.083233 C 52.020607,19.241411 52.283158,19.190005 52.463594,18.916792 C 52.651584,18.634399 52.747634,18.125087 52.747637,17.395019 C 52.747634,16.662576 52.651584,16.094086 52.463594,15.69819 C 52.283158,15.311485 52.020607,15.097191 51.686122,15.04931 M 51.686122,14.524146 C 52.229774,14.578626 52.678193,14.858941 53.00607,15.380061 C 53.353287,15.925706 53.533656,16.685176 53.533661,17.637232 C 53.533656,18.586773 53.353287,19.235113 53.00607,19.569249 C 52.678193,19.885938 52.229774,19.88883 51.686122,19.608398 C 51.186843,19.350855 50.831605,18.966116 50.597882,18.454976 C 50.375218,17.963165 50.26719,17.359928 50.267191,16.630669 C 50.26719,15.899481 50.375218,15.362802 50.597882,15.010167 C 50.831605,14.64104 51.186843,14.474121 51.686122,14.524146 M 57.754819,15.917946 C 57.058252,15.81825 56.567632,15.983752 56.252861,16.397139 C 55.953227,16.793452 55.807384,17.436862 55.807386,18.33788 C 55.807384,19.235979 55.953227,19.969246 56.252861,20.553169 C 56.567632,21.157495 57.058252,21.623703 57.754819,21.953109 C 58.513802,22.31203 59.12434,22.33157 59.551711,21.977761 C 60.003899,21.606925 60.237715,20.844482 60.237723,19.703089 C 60.237715,18.557982 60.003899,17.65148 59.551711,17.005628 C 59.12434,16.38492 58.513802,16.026589 57.754819,15.917946 M 57.754819,15.132245 C 58.999124,15.256936 60.068483,15.731006 60.87639,16.588927 C 61.757077,17.514162 62.225148,18.775775 62.225161,20.315518 C 62.225148,21.851191 61.757077,22.824413 60.87639,23.210861 C 60.068483,23.56719 58.999124,23.380657 57.754819,22.738809 C 56.659452,22.173786 55.9062,21.493873 55.421946,20.687079 C 54.968715,19.92507 54.751612,19.044222 54.751613,18.012544 C 54.751612,16.978136 54.968715,16.231049 55.421946,15.751135 C 55.9062,15.239851 56.659452,15.022494 57.754819,15.132245 M 75.773164,18.496979 C 73.128913,18.11851 71.378268,18.307657 70.300118,18.988223 C 69.304738,19.621619 68.830758,20.732498 68.830764,22.351035 C 68.830758,23.964326 69.304738,25.367234 70.300118,26.619409 C 71.378268,27.958744 73.128913,29.223488 75.773164,30.473949 C 78.889551,31.947682 81.595809,32.65078 83.607255,32.366032 C 85.850064,32.056474 87.059162,30.582442 87.059202,27.968128 C 87.059162,25.345294 85.850064,23.126311 83.607255,21.44279 C 81.595809,19.910869 78.889551,18.943054 75.773164,18.496979 M 75.773164,16.937731 C 81.025251,17.464022 86.180562,18.812272 90.54815,21.146455 C 95.86033,23.960245 98.953391,27.610161 98.953476,31.633349 C 98.953391,35.645869 95.86033,37.390082 90.54815,36.94004 C 86.180562,36.57414 81.025251,34.742374 75.773164,32.033196 C 71.699265,29.931759 69.151165,28.091456 67.609924,26.32648 C 66.230688,24.735114 65.590529,23.115187 65.590532,21.352557 C 65.590529,19.585263 66.230688,18.359749 67.609924,17.623186 C 69.151165,16.802777 71.699265,16.529529 75.773164,16.937731"
             id="path2566" />
          <path
             id="path2568"
             d="M 48.639901,18.97359 C 48.461002,18.863075 48.33079,18.904908 48.24534,19.093135 C 48.162569,19.276942 48.121765,19.606344 48.121766,20.083926 C 48.121765,20.55996 48.162569,20.953236 48.24534,21.268182 C 48.33079,21.588603 48.461002,21.833465 48.639901,22.002978 C 48.827264,22.180513 48.972567,22.187929 49.071539,22.017119 C 49.173896,21.84213 49.225897,21.484898 49.225898,20.94823 C 49.225897,20.409816 49.173896,19.971181 49.071539,19.637679 C 48.972567,19.310221 48.827264,19.089342 48.639901,18.97359 M 48.639901,18.579203 C 48.943147,18.753526 49.188321,19.06773 49.36483,19.525151 C 49.549266,19.998602 49.644083,20.586525 49.644086,21.275584 C 49.644083,21.962819 49.549266,22.402315 49.36483,22.588819 C 49.188321,22.768163 48.943147,22.697722 48.639901,22.397365 C 48.355432,22.115608 48.149449,21.757589 48.012264,21.321 C 47.880323,20.897353 47.815866,20.408417 47.815866,19.84447 C 47.815866,19.279031 47.880323,18.890996 48.012264,18.675416 C 48.149449,18.452051 48.355432,18.415682 48.639901,18.579203 M 51.686122,20.855467 C 51.370943,20.660763 51.144071,20.681631 50.996331,20.9063 C 50.854077,21.124566 50.784257,21.543828 50.784258,22.1681 C 50.784257,22.790347 50.854077,23.318906 50.996331,23.761916 C 51.144071,24.215798 51.370943,24.590747 51.686122,24.88939 C 52.020607,25.206329 52.283158,25.279539 52.463594,25.091969 C 52.651584,24.898804 52.747634,24.435081 52.747637,23.705014 C 52.747634,22.97257 52.651584,22.35849 52.463594,21.873367 C 52.283158,21.401019 52.020607,21.062109 51.686122,20.855467 M 51.686122,20.330303 C 52.229774,20.642823 52.678193,21.135975 53.00607,21.812719 C 53.353287,22.523168 53.533656,23.368248 53.533661,24.320306 C 53.533656,25.269844 53.353287,25.832574 53.00607,26.001907 C 52.678193,26.162972 52.229774,25.953026 51.686122,25.414555 C 51.186843,24.920035 50.831605,24.366685 50.597882,23.74461 C 50.375218,23.147114 50.26719,22.492602 50.267191,21.763344 C 50.26719,21.032155 50.375218,20.546751 50.597882,20.299802 C 50.831605,20.041609 51.186843,20.043301 51.686122,20.330303 M 57.754819,24.604553 C 57.058252,24.174238 56.567632,24.106872 56.252861,24.370856 C 55.953227,24.62495 55.807384,25.199137 55.807386,26.100156 C 55.807384,26.998254 55.953227,27.800745 56.252861,28.526886 C 56.567632,29.280614 57.058252,29.979692 57.754819,30.639715 C 58.513802,31.358882 59.12434,31.668206 59.551711,31.517246 C 60.003899,31.361036 60.237715,30.709573 60.237723,29.568183 C 60.237715,28.423072 60.003899,27.405592 59.551711,26.545112 C 59.12434,25.721557 58.513802,25.07344 57.754819,24.604553 M 57.754819,23.818852 C 58.999124,24.53414 60.068483,25.515772 60.87639,26.757159 C 61.757077,28.100403 62.225148,29.584181 62.225161,31.12393 C 62.225148,32.659596 61.757077,33.410654 60.87639,33.379093 C 60.068483,33.351956 58.999124,32.657862 57.754819,31.425416 C 56.659452,30.340488 55.9062,29.303051 55.421946,28.26641 C 54.968715,27.289279 54.751612,26.305385 54.751613,25.273708 C 54.751612,24.239299 54.968715,23.595258 55.421946,23.330465 C 55.9062,23.049028 56.659452,23.189195 57.754819,23.818852 M 75.773164,35.735823 C 73.128913,34.102285 71.378268,33.460505 70.300118,33.629338 C 69.304738,33.790286 68.830758,34.676194 68.830764,36.294734 C 68.830758,37.908022 69.304738,39.5359 70.300118,41.260524 C 71.378268,43.111591 73.128913,45.207263 75.773164,47.712791 C 78.889551,50.66569 81.595809,52.653286 83.607255,53.323253 C 85.850064,54.078223 87.059162,53.178079 87.059202,50.563784 C 87.059162,47.94093 85.850064,45.148061 83.607255,42.400011 C 81.595809,39.913377 78.889551,37.661061 75.773164,35.735823 M 75.773164,34.176575 C 81.025251,37.195719 86.180562,40.990889 90.54815,45.398107 C 95.86033,50.733273 98.953391,55.851281 98.953476,59.874509 C 98.953391,63.886986 95.86033,64.16311 90.54815,61.191692 C 86.180562,58.752757 81.025251,54.474071 75.773164,49.272039 C 71.699265,45.236966 69.151165,42.187231 67.609924,39.690719 C 66.230688,37.444712 65.590529,35.520938 65.590532,33.758311 C 65.590529,31.991016 66.230688,31.069347 67.609924,30.987425 C 69.151165,30.898552 71.699265,31.834736 75.773164,34.176575"
             style="font-size:12px;font-style:normal;font-weight:normal;fill:#000000;fill-opacity:1;stroke:none;stroke-width:1px;stroke-linecap:butt;stroke-linejoin:miter;stroke-opacity:1;font-family:Bitstream Vera Sans" />
        </g>
        <path
           sodipodi:nodetypes="ccccccccccccccccccccccccccccccccc"
           id="path2491"
           style="opacity:0.4;fill:#d7d7ff;fill-opacity:1;fill-rule:evenodd;stroke:none;stroke-width:1px;stroke-linecap:butt;stroke-linejoin:round;stroke-miterlimit:4;stroke-dasharray:none;stroke-opacity:1"
           d="M 11.855646,0.030648208 L 12.826638,3.0918623 L 13.332964,7.1540176 L 12.747586,11.040757 L 12.803839,15.036089 L 12.872093,18.691621 L 11.481869,22.929072 L 12.259516,26.187138 L 11.855646,29.946995 L 14.473299,29.400396 L 17.014182,28.581465 L 19.300192,27.226575 L 21.751346,26.177244 L 23.921154,24.653162 L 25.654405,22.672538 L 27.602207,20.900927 L 29.846058,19.496178 L 29.336025,18.167658 L 29.122844,16.765317 L 28.853529,15.365223 L 29.002684,13.948367 L 29.416405,12.586123 L 29.370706,11.1668 L 29.844765,9.8218225 L 29.846058,8.4005553 L 27.68326,7.0995836 L 25.466652,5.8866407 L 23.541579,4.2734067 L 21.627589,2.6478349 L 19.065837,2.4008184 L 16.749139,1.3128699 L 14.287107,0.72653974 L 11.855646,0.030648208" />
        <path
           sodipodi:nodetypes="ccccccccccccccccccccccccccccccccc"
           id="path2493"
           style="opacity:0.6;fill:#8686bf;fill-opacity:1;fill-rule:evenodd;stroke:none;stroke-width:1px;stroke-linecap:butt;stroke-linejoin:round;stroke-miterlimit:4;stroke-dasharray:none;stroke-opacity:1"
           d="M 1.0846018,7.5334515 L 2.3759721,6.5196111 L 3.7636204,5.6332344 L 5.1958049,4.7877567 L 6.324676,3.5859722 L 7.7280987,2.7202161 L 9.014959,1.6984506 L 10.567713,1.0763322 L 11.855646,0.030648208 L 13.112233,3.6424999 L 13.292872,7.4500707 L 12.780655,11.203809 L 12.886887,14.988822 L 12.894935,18.814256 L 11.56371,22.415627 L 11.780874,25.763641 L 11.855646,29.946995 L 10.384825,28.882661 L 8.9277009,27.80078 L 7.9951116,26.426044 L 6.2293839,26.046855 L 5.0388238,24.153698 L 3.5748919,23.073054 L 2.2961393,21.79699 L 1.0846018,20.460756 L 0.63715587,18.85942 L 0.75524126,17.20437 L 0.20681809,15.642664 L 0.086969977,13.997104 L 0.22286195,12.347774 L 0.82704151,10.800244 L 0.75534133,9.1520052 L 1.0846018,7.5334515" />
      </g>
    </g>
  </g>
</svg>
