<?xml version="1.0"?>
<svg xmlns:sodipodi="http://sodipodi.sourceforge.net/DTD/sodipodi-0.dtd" xmlns:inkscape="http://www.inkscape.org/namespaces/inkscape" width="24.000000pt" height="24.000000pt" id="svg5517" sodipodi:version="0.32" inkscape:version="0.40pre3" sodipodi:docbase="/lethe/arsgratia/k3d-icons/scalable_unfixed" sodipodi:docname="K3DScript.svg" preserveAspectRatio="xMidYMid meet" zoomAndPan="magnify" version="1.0" contentScriptType="text/ecmascript" contentStyleType="text/css">
  <defs id="defs3"></defs>
  <sodipodi:namedview id="base" pagecolor="#ffffff" bordercolor="#666666" borderopacity="1.0" inkscape:pageopacity="0.0" inkscape:pageshadow="2" inkscape:zoom="9.8238822" inkscape:cx="13.313989" inkscape:cy="7.5080386" inkscape:current-layer="layer1" inkscape:window-width="640" inkscape:window-height="530" inkscape:window-x="5" inkscape:window-y="47"></sodipodi:namedview>
  <metadata id="metadata4">
    <rdf:RDF xmlns:rdf="http://www.w3.org/1999/02/22-rdf-syntax-ns#" id="RDF5">
      <cc:Work xmlns:cc="http://web.resource.org/cc/" rdf:about="" id="Work6">
        <dc:format xmlns:dc="http://purl.org/dc/elements/1.1/" id="format7">image/svg+xml</dc:format>
        <dc:type xmlns:dc="http://purl.org/dc/elements/1.1/" id="type9" rdf:resource="http://purl.org/dc/dcmitype/StillImage"></dc:type>
      </cc:Work>
    </rdf:RDF>
  </metadata>
  <g inkscape:label="Layer 1" inkscape:groupmode="layer" id="layer1">
    <g id="g5497" transform="translate(4.365936,-43.64048)">
      <path style="fill:#bab5ab;fill-opacity:1.0000000;fill-rule:nonzero;stroke:#000000;stroke-width:1.0000000;stroke-linecap:square;stroke-linejoin:bevel;stroke-miterlimit:4.0000000;stroke-dashoffset:0.0000000;stroke-opacity:1.0000000" d="M 10.651075,48.964327 C 8.9338791,46.577911 8.3610801,50.258680 5.8216251,48.777156 C 3.6917351,47.534572 6.5262381,44.891548 4.0727361,45.138072 C 1.1474421,45.432001 4.0645861,47.756434 1.5118201,49.214904 C -0.62923288,50.438152 -1.4947229,46.670893 -2.5079789,48.918950 C -3.7160769,51.599294 -0.26238688,50.236055 -0.27569688,53.176049 C -0.28686088,55.641879 -3.9868542,54.517642 -2.5466079,56.519176 C -0.82941088,58.905593 -0.27128588,55.203247 2.2681681,56.684771 C 4.3980581,57.927351 1.5635561,60.570376 4.0170551,60.323852 C 6.9423511,60.029924 4.0398811,57.727070 6.5926451,56.268600 C 8.7336991,55.045353 9.5991891,58.812610 10.612444,56.564556 C 11.820543,53.884211 8.3668521,55.247450 8.3801631,52.307456 C 8.3913281,49.841626 12.091320,50.965860 10.651075,48.964327 z M 6.3793001,51.175031 C 7.2793371,52.498534 6.9364201,54.299120 5.6129151,55.199159 C 4.2894121,56.099194 2.4888281,55.756280 1.5887901,54.432774 C 0.68875112,53.109270 1.0316681,51.308686 2.3551731,50.408648 C 3.6786771,49.508609 5.4792631,49.851526 6.3793001,51.175031 z " id="path5469"></path>
      <rect style="fill:#bab5ab;fill-opacity:1.0000000;fill-rule:nonzero;stroke:none;stroke-width:0.75000000;stroke-linecap:square;stroke-linejoin:bevel;stroke-miterlimit:4.0000000;stroke-dashoffset:0.0000000;stroke-opacity:1.0000000" id="rect5470" width="10.866167" height="2.7280354" x="12.586531" y="44.019348"></rect>
      <rect style="fill:#bab5ab;fill-opacity:1.0000000;fill-rule:nonzero;stroke:none;stroke-width:0.75000000;stroke-linecap:square;stroke-linejoin:bevel;stroke-miterlimit:4.0000000;stroke-dashoffset:0.0000000;stroke-opacity:1.0000000" id="rect5471" width="10.396791" height="2.7280354" x="12.586531" y="47.906799"></rect>
      <rect style="fill:#bab5ab;fill-opacity:1.0000000;fill-rule:nonzero;stroke:none;stroke-width:0.75000000;stroke-linecap:square;stroke-linejoin:bevel;stroke-miterlimit:4.0000000;stroke-dashoffset:0.0000000;stroke-opacity:1.0000000" id="rect5472" width="8.5065546" height="2.7280354" x="12.586531" y="51.930653"></rect>
      <rect style="fill:#bab5ab;fill-opacity:1.0000000;fill-rule:nonzero;stroke:none;stroke-width:0.75000000;stroke-linecap:square;stroke-linejoin:bevel;stroke-miterlimit:4.0000000;stroke-dashoffset:0.0000000;stroke-opacity:1.0000000" id="rect5473" width="10.823378" height="2.7280354" x="12.586531" y="55.954502"></rect>
      <rect style="fill:#bab5ab;fill-opacity:1.0000000;fill-rule:nonzero;stroke:none;stroke-width:0.75000000;stroke-linecap:square;stroke-linejoin:bevel;stroke-miterlimit:4.0000000;stroke-dashoffset:0.0000000;stroke-opacity:1.0000000" id="rect5474" width="12.344360" height="2.7280354" x="12.586531" y="59.978359"></rect>
      <text xml:space="preserve" style="font-size:12.000000;font-style:normal;font-variant:normal;font-weight:bold;font-stretch:normal;fill:#000000;fill-opacity:1.0000000;stroke:none;stroke-width:3.0000000pt;stroke-linecap:butt;stroke-linejoin:miter;stroke-opacity:1.0000000;font-family:Verdana;text-anchor:start;writing-mode:lr" x="1.3465641" y="20.574051" id="text5475" sodipodi:linespacing="100%" transform="translate(-4.901681,51.96810)">
        <tspan sodipodi:role="line" id="tspan5476" x="1.3465641" y="20.574051">K3D</tspan>
      </text>
    </g>
  </g>
</svg>
