<?xml version="1.0" encoding="UTF-8" standalone="no"?>
<svg
   xmlns:dc="http://purl.org/dc/elements/1.1/"
   xmlns:cc="http://creativecommons.org/ns#"
   xmlns:rdf="http://www.w3.org/1999/02/22-rdf-syntax-ns#"
   xmlns:svg="http://www.w3.org/2000/svg"
   xmlns="http://www.w3.org/2000/svg"
   xmlns:xlink="http://www.w3.org/1999/xlink"
   xmlns:sodipodi="http://sodipodi.sourceforge.net/DTD/sodipodi-0.dtd"
   xmlns:inkscape="http://www.inkscape.org/namespaces/inkscape"
   width="31.042704"
   height="29.891048"
   id="svg4770"
   sodipodi:version="0.32"
   inkscape:version="0.46"
   sodipodi:docbase="/lethe/arsgratia/k3d-icons/scalable_unfixed"
   sodipodi:docname="keep_selection.svg"
   preserveAspectRatio="xMidYMid meet"
   zoomAndPan="magnify"
   version="1.0"
   contentScriptType="text/ecmascript"
   contentStyleType="text/css"
   inkscape:output_extension="org.inkscape.output.svg.inkscape">
  <defs
     id="defs3">
    <inkscape:perspective
       sodipodi:type="inkscape:persp3d"
       inkscape:vp_x="0 : 15 : 1"
       inkscape:vp_y="0 : 1000 : 0"
       inkscape:vp_z="30 : 15 : 1"
       inkscape:persp3d-origin="15 : 10 : 1"
       id="perspective2475" />
    <linearGradient
       id="linearGradient12426">
      <stop
         style="stop-color:#eae8e3;stop-opacity:1.0000000;"
         offset="0.0000000"
         id="stop12427" />
      <stop
         style="stop-color:#807d74;stop-opacity:1.0000000;"
         offset="1.0000000"
         id="stop12428" />
    </linearGradient>
  </defs>
  <sodipodi:namedview
     id="base"
     pagecolor="#ffffff"
     bordercolor="#666666"
     borderopacity="1.0"
     inkscape:pageopacity="0.0"
     inkscape:pageshadow="2"
     inkscape:zoom="13.893067"
     inkscape:cx="28.142523"
     inkscape:cy="11.255855"
     inkscape:current-layer="layer1"
     inkscape:window-width="1059"
     inkscape:window-height="765"
     inkscape:window-x="109"
     inkscape:window-y="132"
     showgrid="false" />
  <metadata
     id="metadata4">
    <rdf:RDF>
      <cc:Work
         rdf:about="">
        <dc:format>image/svg+xml</dc:format>
        <dc:type
           rdf:resource="http://purl.org/dc/dcmitype/StillImage" />
      </cc:Work>
    </rdf:RDF>
  </metadata>
  <g
     inkscape:label="Layer 1"
     inkscape:groupmode="layer"
     id="layer1"
     transform="translate(1.0536998,0.1329504)">
    <g
       id="g6123"
       transform="translate(115.9812,-472.5443)">
      <path
         style="fill:#bab5ab;stroke:#000000;stroke-linecap:square;stroke-linejoin:bevel;stroke-dashoffset:0"
         d="M -114.00505,478.41079 L -101.25573,485.54737 L -101.25573,499.25315 L -112.99512,491.29901 L -114.00505,478.41079 z"
         id="path6300"
         sodipodi:nodetypes="ccccc" />
      <path
         style="fill:#df421e;fill-opacity:1;stroke:#000000;stroke-width:1.21249998;stroke-linecap:square;stroke-linejoin:bevel;stroke-dashoffset:0"
         d="M -100.97892,485.62118 L -88.830368,479.44134 L -89.84523,491.46362 L -100.95673,499.73035 L -100.97892,485.62118 z"
         id="path6301"
         sodipodi:nodetypes="ccccc" />
      <path
         style="fill:#df421e;fill-opacity:1;stroke:#000000;stroke-linecap:square;stroke-linejoin:bevel;stroke-dashoffset:0"
         d="M -102.48359,475.52909 L -88.558914,479.71493 L -100.94113,485.36659 L -114.11586,478.54771 L -102.48359,475.52909 z"
         id="path6302"
         sodipodi:nodetypes="ccccc" />
      <path
         sodipodi:type="arc"
         style="fill:#000000;fill-opacity:1;fill-rule:nonzero;stroke:#807d74;stroke-width:0;stroke-linecap:square;stroke-linejoin:bevel;stroke-miterlimit:4;stroke-dashoffset:0;stroke-opacity:1"
         id="path6303"
         sodipodi:cx="-96.605515"
         sodipodi:cy="-87.276924"
         sodipodi:rx="3.4174511"
         sodipodi:ry="3.4174511"
         d="M -93.188063,-87.276924 A 3.4174511,3.4174511 0 1 1 -100.02297,-87.276924 A 3.4174511,3.4174511 0 1 1 -93.188063,-87.276924 z"
         transform="matrix(0.496913,0,0,0.496913,-41.32945,523.1405)" />
      <path
         sodipodi:type="arc"
         style="fill:#000000;fill-opacity:1;fill-rule:nonzero;stroke:#807d74;stroke-width:0;stroke-linecap:square;stroke-linejoin:bevel;stroke-miterlimit:4;stroke-dashoffset:0;stroke-opacity:1"
         id="path6304"
         sodipodi:cx="-96.605515"
         sodipodi:cy="-87.276924"
         sodipodi:rx="3.4174511"
         sodipodi:ry="3.4174511"
         d="M -93.188063,-87.276924 A 3.4174511,3.4174511 0 1 1 -100.02297,-87.276924 A 3.4174511,3.4174511 0 1 1 -93.188063,-87.276924 z"
         transform="matrix(0.496913,0,0,0.496913,-54.56047,518.7757)" />
      <path
         sodipodi:type="arc"
         style="fill:#000000;fill-opacity:1;fill-rule:nonzero;stroke:#807d74;stroke-width:0;stroke-linecap:square;stroke-linejoin:bevel;stroke-miterlimit:4;stroke-dashoffset:0;stroke-opacity:1"
         id="path6305"
         sodipodi:cx="-96.605515"
         sodipodi:cy="-87.276924"
         sodipodi:rx="3.4174511"
         sodipodi:ry="3.4174511"
         d="M -93.188063,-87.276924 A 3.4174511,3.4174511 0 1 1 -100.02297,-87.276924 A 3.4174511,3.4174511 0 1 1 -93.188063,-87.276924 z"
         transform="matrix(0.496913,0,0,0.496913,-65.47261,521.7765)" />
      <path
         sodipodi:type="arc"
         style="fill:#000000;fill-opacity:1;fill-rule:nonzero;stroke:#807d74;stroke-width:0;stroke-linecap:square;stroke-linejoin:bevel;stroke-miterlimit:4;stroke-dashoffset:0;stroke-opacity:1"
         id="path6306"
         sodipodi:cx="-96.605515"
         sodipodi:cy="-87.276924"
         sodipodi:rx="3.4174511"
         sodipodi:ry="3.4174511"
         d="M -93.188063,-87.276924 A 3.4174511,3.4174511 0 1 1 -100.02297,-87.276924 A 3.4174511,3.4174511 0 1 1 -93.188063,-87.276924 z"
         transform="matrix(0.496913,0,0,0.496913,-53.19645,528.733)" />
      <path
         sodipodi:type="arc"
         style="fill:#000000;fill-opacity:1;fill-rule:nonzero;stroke:#807d74;stroke-width:0;stroke-linecap:square;stroke-linejoin:bevel;stroke-miterlimit:4;stroke-dashoffset:0;stroke-opacity:1"
         id="path6307"
         sodipodi:cx="-96.605515"
         sodipodi:cy="-87.276924"
         sodipodi:rx="3.4174511"
         sodipodi:ry="3.4174511"
         d="M -93.188063,-87.276924 A 3.4174511,3.4174511 0 1 1 -100.02297,-87.276924 A 3.4174511,3.4174511 0 1 1 -93.188063,-87.276924 z"
         transform="matrix(0.496913,0,0,0.496913,-42.01151,534.5983)" />
      <path
         sodipodi:type="arc"
         style="fill:#000000;fill-opacity:1;fill-rule:nonzero;stroke:#807d74;stroke-width:0;stroke-linecap:square;stroke-linejoin:bevel;stroke-miterlimit:4;stroke-dashoffset:0;stroke-opacity:1"
         id="path6308"
         sodipodi:cx="-96.605515"
         sodipodi:cy="-87.276924"
         sodipodi:rx="3.4174511"
         sodipodi:ry="3.4174511"
         d="M -93.188063,-87.276924 A 3.4174511,3.4174511 0 1 1 -100.02297,-87.276924 A 3.4174511,3.4174511 0 1 1 -93.188063,-87.276924 z"
         transform="matrix(0.496913,0,0,0.496913,-52.78724,542.1004)" />
      <path
         sodipodi:type="arc"
         style="fill:#000000;fill-opacity:1;fill-rule:nonzero;stroke:#807d74;stroke-width:0;stroke-linecap:square;stroke-linejoin:bevel;stroke-miterlimit:4;stroke-dashoffset:0;stroke-opacity:1"
         id="path6309"
         sodipodi:cx="-96.605515"
         sodipodi:cy="-87.276924"
         sodipodi:rx="3.4174511"
         sodipodi:ry="3.4174511"
         d="M -93.188063,-87.276924 A 3.4174511,3.4174511 0 1 1 -100.02297,-87.276924 A 3.4174511,3.4174511 0 1 1 -93.188063,-87.276924 z"
         transform="matrix(0.496913,0,0,0.496913,-64.79061,534.5983)" />
    </g>
    <path
       sodipodi:type="arc"
       style="fill:#df421e;fill-opacity:1;fill-rule:nonzero;stroke:#000000;stroke-width:0.7856797;stroke-linecap:square;stroke-linejoin:bevel;stroke-miterlimit:4;stroke-dasharray:none;stroke-dashoffset:0;stroke-opacity:1"
       id="path6109"
       sodipodi:cx="-96.605515"
       sodipodi:cy="-87.276924"
       sodipodi:rx="2.4120836"
       sodipodi:ry="2.4120836"
       d="M -94.193431,-87.276924 A 2.4120836,2.4120836 0 1 1 -99.017598,-87.276924 A 2.4120836,2.4120836 0 1 1 -94.193431,-87.276924 z"
       transform="matrix(1.145505,0,0,1.145505,125.6336,112.91729)" />
    <use
       x="0"
       y="0"
       xlink:href="#path6109"
       id="use3334"
       transform="translate(11.804449,-5.3263977)"
       width="30"
       height="30" />
    <use
       x="0"
       y="0"
       xlink:href="#path6109"
       id="use3336"
       transform="translate(-12.812146,-6.9818997)"
       width="30"
       height="30" />
    <use
       x="0"
       y="0"
       xlink:href="#path6109"
       id="use3338"
       transform="translate(-1.2236319,-9.8610336)"
       width="30"
       height="30" />
    <use
       x="0"
       y="0"
       xlink:href="#path6109"
       id="use3340"
       transform="translate(11.228622,5.4703544)"
       width="30"
       height="30" />
    <use
       x="0"
       y="0"
       xlink:href="#path6109"
       id="use3342"
       transform="translate(0,13.603908)"
       width="30"
       height="30" />
  </g>
</svg>
