<?xml version="1.0"?>
<svg xmlns:sodipodi="http://sodipodi.sourceforge.net/DTD/sodipodi-0.dtd" xmlns:inkscape="http://www.inkscape.org/namespaces/inkscape" width="24.000000pt" height="24.000000pt" id="svg4770" sodipodi:version="0.32" inkscape:version="0.40" sodipodi:docbase="/home/rene/thevaults/the6502s/the-Blur-the-Storm/projects/k3d/k3d-icons/scalable_fix" sodipodi:docname="KnifeTool.xvg.svg" preserveAspectRatio="xMidYMid meet" zoomAndPan="magnify" version="1.0" contentScriptType="text/ecmascript" contentStyleType="text/css">
  <defs id="defs3"></defs>
  <sodipodi:namedview id="base" pagecolor="#ffffff" bordercolor="#666666" borderopacity="1.0" inkscape:pageopacity="0.0" inkscape:pageshadow="2" inkscape:zoom="6.9465337" inkscape:cx="9.2225945" inkscape:cy="10.262379" inkscape:current-layer="layer1" inkscape:window-width="640" inkscape:window-height="541" inkscape:window-x="0" inkscape:window-y="47"></sodipodi:namedview>
  <metadata id="metadata4">
    <rdf:RDF xmlns:rdf="http://www.w3.org/1999/02/22-rdf-syntax-ns#" id="RDF5">
      <cc:Work xmlns:cc="http://web.resource.org/cc/" rdf:about="" id="Work6">
        <dc:format xmlns:dc="http://purl.org/dc/elements/1.1/" id="format7">image/svg+xml</dc:format>
        <dc:type xmlns:dc="http://purl.org/dc/elements/1.1/" id="type9" rdf:resource="http://purl.org/dc/dcmitype/StillImage"></dc:type>
      </cc:Work>
    </rdf:RDF>
  </metadata>
  <g inkscape:label="Layer 1" inkscape:groupmode="layer" id="layer1">
    <g id="g6074" transform="translate(53.11453,-5.733909)">
      <path style="fill:#bab5ab;fill-opacity:1.0000000;stroke:#000000;stroke-width:0.54311717;stroke-linecap:square;stroke-linejoin:bevel;stroke-miterlimit:4.0000000;stroke-dashoffset:0.0000000" d="M 4.0478513,11.872453 L 13.463047,17.142721 L 13.463047,27.264254 L 4.7936651,21.390226 L 4.0478513,11.872453 z " id="path6010" sodipodi:nodetypes="ccccc" transform="matrix(1.304804,0.000000,0.000000,1.304804,-56.92595,-2.678030)"></path>
      <path style="fill:#bab5ab;fill-opacity:1.0000000;stroke:#000000;stroke-width:0.54311717;stroke-linecap:square;stroke-linejoin:bevel;stroke-miterlimit:4.0000000;stroke-dashoffset:0.0000000" d="M 13.667468,17.197226 L 22.639015,12.633502 L 21.889553,21.511794 L 13.683859,27.616662 L 13.667468,17.197226 z " id="path6011" sodipodi:nodetypes="ccccc" transform="matrix(1.304804,0.000000,0.000000,1.304804,-56.92595,-2.678030)"></path>
      <path style="fill:#bab5ab;fill-opacity:1.0000000;stroke:#990000;stroke-width:1.9159966;stroke-linecap:square;stroke-linejoin:bevel;stroke-miterlimit:4.0000000;stroke-dashoffset:0.0000000;stroke-opacity:1.0000000" d="M 7.5964561,13.061173 L 13.463047,17.142721 L 13.463047,27.264254 L 6.6102401,22.741108 L 7.5964561,13.061173 z " id="path6012" sodipodi:nodetypes="ccccc" transform="matrix(1.304804,0.000000,0.000000,1.304804,-56.92595,-2.678030)"></path>
      <path style="fill:#bab5ab;fill-opacity:1.0000000;stroke:#000000;stroke-width:0.54311717;stroke-linecap:square;stroke-linejoin:bevel;stroke-miterlimit:4.0000000;stroke-dashoffset:0.0000000" d="M 12.556297,9.7443568 L 22.839487,12.835543 L 13.695386,17.009218 L 3.9660256,11.973567 L 12.556297,9.7443568 z " id="path6013" sodipodi:nodetypes="ccccc" transform="matrix(1.304804,0.000000,0.000000,1.304804,-56.92595,-2.678030)"></path>
      <path style="fill:#bab5ab;fill-opacity:1.0000000;stroke:#990000;stroke-width:1.9159966;stroke-linecap:square;stroke-linejoin:bevel;stroke-miterlimit:4.0000000;stroke-dashoffset:0.0000000;stroke-opacity:1.0000000" d="M 13.667468,17.197226 L 19.320947,14.231090 L 17.711246,24.706971 L 13.806749,27.432323 L 13.667468,17.197226 z " id="path6014" sodipodi:nodetypes="ccccc" transform="matrix(1.304804,0.000000,0.000000,1.304804,-56.92595,-2.678030)"></path>
      <path style="fill:#bab5ab;fill-opacity:1.0000000;stroke:#990000;stroke-width:1.9159966;stroke-linecap:square;stroke-linejoin:bevel;stroke-miterlimit:4.0000000;stroke-dashoffset:0.0000000;stroke-opacity:1.0000000" d="M 19.315324,14.291336 L 13.695386,17.009218 L 6.6151204,13.335073 L 19.315324,14.291336 z " id="path6015" sodipodi:nodetypes="cccc" transform="matrix(1.304804,0.000000,0.000000,1.304804,-56.92595,-2.678030)"></path>
      <path sodipodi:type="arc" style="fill:#000000;fill-opacity:1.0000000;fill-rule:nonzero;stroke:#807d74;stroke-width:0.0000000;stroke-linecap:square;stroke-linejoin:bevel;stroke-miterlimit:4.0000000;stroke-dashoffset:0.0000000;stroke-opacity:1.0000000" id="path6016" sodipodi:cx="-96.605515" sodipodi:cy="-87.276924" sodipodi:rx="3.4174511" sodipodi:ry="3.4174511" d="M -93.188063 -87.276924 A 3.4174511 3.4174511 0 1 1  -100.02297,-87.276924 A 3.4174511 3.4174511 0 1 1  -93.188063 -87.276924 z" transform="matrix(0.496913,0.000000,0.000000,0.496913,20.60863,57.62175)"></path>
      <path sodipodi:type="arc" style="fill:#000000;fill-opacity:1.0000000;fill-rule:nonzero;stroke:#807d74;stroke-width:0.0000000;stroke-linecap:square;stroke-linejoin:bevel;stroke-miterlimit:4.0000000;stroke-dashoffset:0.0000000;stroke-opacity:1.0000000" id="path6017" sodipodi:cx="-96.605515" sodipodi:cy="-87.276924" sodipodi:rx="3.4174511" sodipodi:ry="3.4174511" d="M -93.188063 -87.276924 A 3.4174511 3.4174511 0 1 1  -100.02297,-87.276924 A 3.4174511 3.4174511 0 1 1  -93.188063 -87.276924 z" transform="matrix(0.496913,0.000000,0.000000,0.496913,19.24743,68.68446)"></path>
      <path sodipodi:type="arc" style="fill:#000000;fill-opacity:1.0000000;fill-rule:nonzero;stroke:#807d74;stroke-width:0.0000000;stroke-linecap:square;stroke-linejoin:bevel;stroke-miterlimit:4.0000000;stroke-dashoffset:0.0000000;stroke-opacity:1.0000000" id="path6018" sodipodi:cx="-96.605515" sodipodi:cy="-87.276924" sodipodi:rx="3.4174511" sodipodi:ry="3.4174511" d="M -93.188063 -87.276924 A 3.4174511 3.4174511 0 1 1  -100.02297,-87.276924 A 3.4174511 3.4174511 0 1 1  -93.188063 -87.276924 z" transform="matrix(0.496913,0.000000,0.000000,0.496913,9.115040,75.89657)"></path>
      <path sodipodi:type="arc" style="fill:#000000;fill-opacity:1.0000000;fill-rule:nonzero;stroke:#807d74;stroke-width:0.0000000;stroke-linecap:square;stroke-linejoin:bevel;stroke-miterlimit:4.0000000;stroke-dashoffset:0.0000000;stroke-opacity:1.0000000" id="path6019" sodipodi:cx="-96.605515" sodipodi:cy="-87.276924" sodipodi:rx="3.4174511" sodipodi:ry="3.4174511" d="M -93.188063 -87.276924 A 3.4174511 3.4174511 0 1 1  -100.02297,-87.276924 A 3.4174511 3.4174511 0 1 1  -93.188063 -87.276924 z" transform="matrix(0.496913,0.000000,0.000000,0.496913,-2.653540,68.63848)"></path>
      <path sodipodi:type="arc" style="fill:#000000;fill-opacity:1.0000000;fill-rule:nonzero;stroke:#807d74;stroke-width:0.0000000;stroke-linecap:square;stroke-linejoin:bevel;stroke-miterlimit:4.0000000;stroke-dashoffset:0.0000000;stroke-opacity:1.0000000" id="path6020" sodipodi:cx="-96.605515" sodipodi:cy="-87.276924" sodipodi:rx="3.4174511" sodipodi:ry="3.4174511" d="M -93.188063 -87.276924 A 3.4174511 3.4174511 0 1 1  -100.02297,-87.276924 A 3.4174511 3.4174511 0 1 1  -93.188063 -87.276924 z" transform="matrix(0.496913,0.000000,0.000000,0.496913,8.877290,62.75376)"></path>
      <path sodipodi:type="arc" style="fill:#000000;fill-opacity:1.0000000;fill-rule:nonzero;stroke:#807d74;stroke-width:0.0000000;stroke-linecap:square;stroke-linejoin:bevel;stroke-miterlimit:4.0000000;stroke-dashoffset:0.0000000;stroke-opacity:1.0000000" id="path6021" sodipodi:cx="-96.605515" sodipodi:cy="-87.276924" sodipodi:rx="3.4174511" sodipodi:ry="3.4174511" d="M -93.188063 -87.276924 A 3.4174511 3.4174511 0 1 1  -100.02297,-87.276924 A 3.4174511 3.4174511 0 1 1  -93.188063 -87.276924 z" transform="matrix(0.496913,0.000000,0.000000,0.496913,-2.886500,56.29492)"></path>
      <path sodipodi:type="arc" style="fill:#000000;fill-opacity:1.0000000;fill-rule:nonzero;stroke:#807d74;stroke-width:0.0000000;stroke-linecap:square;stroke-linejoin:bevel;stroke-miterlimit:4.0000000;stroke-dashoffset:0.0000000;stroke-opacity:1.0000000" id="path6022" sodipodi:cx="-96.605515" sodipodi:cy="-87.276924" sodipodi:rx="3.4174511" sodipodi:ry="3.4174511" d="M -93.188063 -87.276924 A 3.4174511 3.4174511 0 1 1  -100.02297,-87.276924 A 3.4174511 3.4174511 0 1 1  -93.188063 -87.276924 z" transform="matrix(0.496913,0.000000,0.000000,0.496913,7.877150,53.37792)"></path>
    </g>
    <g id="g6023" transform="matrix(0.999605,-2.813072e-2,2.813072e-2,0.999605,-337.9461,-140.5698)">
      <path style="fill:#807d74;fill-opacity:1.0000000;fill-rule:evenodd;stroke:#000000;stroke-width:1.0000000;stroke-linecap:butt;stroke-linejoin:round;stroke-miterlimit:4.0000000;stroke-opacity:1.0000000" d="M 359.44827,167.83603 L 355.54257,169.37109 L 359.12518,178.57699 L 362.31010,177.19929 L 359.44827,167.83603 z " id="path6024" sodipodi:nodetypes="ccccc"></path>
      <path style="fill:#eae8e3;fill-opacity:1.0000000;fill-rule:evenodd;stroke:#000000;stroke-width:1.0000000;stroke-linecap:butt;stroke-linejoin:miter;stroke-miterlimit:4.0000000;stroke-opacity:1.0000000" d="M 355.56477,154.95697 L 358.92194,168.00809 L 357.26509,168.56202 C 356.06154,168.48071 352.45279,166.58567 351.58933,163.45663 C 350.45278,159.62468 355.56477,154.95697 355.56477,154.95697 z " id="path6025" sodipodi:nodetypes="ccccc"></path>
    </g>
  </g>
</svg>
