<?xml version="1.0"?>
<svg xmlns:sodipodi="http://sodipodi.sourceforge.net/DTD/sodipodi-0.dtd" xmlns:inkscape="http://www.inkscape.org/namespaces/inkscape" width="24.000000pt" height="24.000000pt" id="svg9242" sodipodi:version="0.32" inkscape:version="0.40pre3" sodipodi:docbase="/lethe/arsgratia/k3d-icons/scalable_unfixed" sodipodi:docname="LissajousCurve.svg" preserveAspectRatio="xMidYMid meet" zoomAndPan="magnify" version="1.0" contentScriptType="text/ecmascript" contentStyleType="text/css">
  <defs id="defs3"></defs>
  <sodipodi:namedview id="base" pagecolor="#ffffff" bordercolor="#666666" borderopacity="1.0" inkscape:pageopacity="0.0" inkscape:pageshadow="2" inkscape:zoom="13.893067" inkscape:cx="13.256231" inkscape:cy="11.082750" inkscape:current-layer="layer1" inkscape:window-width="640" inkscape:window-height="530" inkscape:window-x="0" inkscape:window-y="47"></sodipodi:namedview>
  <metadata id="metadata4">
    <rdf:RDF xmlns:rdf="http://www.w3.org/1999/02/22-rdf-syntax-ns#" id="RDF5">
      <cc:Work xmlns:cc="http://web.resource.org/cc/" rdf:about="" id="Work6">
        <dc:format xmlns:dc="http://purl.org/dc/elements/1.1/" id="format7">image/svg+xml</dc:format>
        <dc:type xmlns:dc="http://purl.org/dc/elements/1.1/" id="type9" rdf:resource="http://purl.org/dc/dcmitype/StillImage"></dc:type>
      </cc:Work>
    </rdf:RDF>
  </metadata>
  <g inkscape:label="Layer 1" inkscape:groupmode="layer" id="layer1">
    <g id="g9228" transform="translate(-8.340451e-2,-0.234652)">
      <path sodipodi:type="star" style="fill:none;fill-opacity:1.0000000;fill-rule:nonzero;stroke:#000000;stroke-width:1.2500000;stroke-linecap:square;stroke-linejoin:bevel;stroke-miterlimit:4.0000000;stroke-dashoffset:0.0000000;stroke-opacity:1.0000000" id="path9152" sodipodi:sides="6" sodipodi:cx="5.4687500" sodipodi:cy="5.6250000" sodipodi:r1="8.6221294" sodipodi:r2="14.370216" sodipodi:arg1="-1.5733796" sodipodi:arg2="-1.0497808" inkscape:flatsided="false" inkscape:rounded="0.58000000" inkscape:randomized="0.0000000" d="M 5.4464767,-2.9971007 C 10.166959,-3.0092949 8.5275306,-9.1881726 12.621686,-6.8384918 C 16.715841,-4.4888111 10.553770,-2.7873003 12.924572,1.2946604 C 15.295373,5.3766213 19.826724,0.86739544 19.838918,5.5878782 C 19.851113,10.308361 15.296526,5.8226062 12.946845,9.9167611 C 10.597164,14.010916 16.767943,15.680568 12.685983,18.051370 C 8.6040220,20.422172 10.211506,14.234906 5.4910233,14.247101 C 0.77054054,14.259295 2.4099694,20.438173 -1.6841858,18.088492 C -5.7783407,15.738811 0.38373019,14.037300 -1.9870716,9.9553396 C -4.3578734,5.8733787 -8.8892241,10.382605 -8.9014184,5.6621218 C -8.9136127,0.94163926 -4.3590256,5.4273938 -2.0093449,1.3332389 C 0.34033602,-2.7609162 -5.8304435,-4.4305680 -1.7484826,-6.8013700 C 2.3334780,-9.1721719 0.72599417,-2.9849065 5.4464767,-2.9971007 z " transform="translate(9.722718,9.336019)"></path>
      <path sodipodi:type="arc" style="fill:#000000;fill-opacity:1.0000000;fill-rule:nonzero;stroke:#807d74;stroke-width:0.0000000;stroke-linecap:square;stroke-linejoin:bevel;stroke-miterlimit:4.0000000;stroke-dashoffset:0.0000000;stroke-opacity:1.0000000" id="path9169" sodipodi:cx="-96.605515" sodipodi:cy="-87.276924" sodipodi:rx="3.4174511" sodipodi:ry="3.4174511" d="M -93.188063 -87.276924 A 3.4174511 3.4174511 0 1 1  -100.02297,-87.276924 A 3.4174511 3.4174511 0 1 1  -93.188063 -87.276924 z" transform="matrix(0.496913,0.000000,0.000000,0.496913,63.37799,49.62508)"></path>
      <path sodipodi:type="arc" style="fill:#000000;fill-opacity:1.0000000;fill-rule:nonzero;stroke:#807d74;stroke-width:0.0000000;stroke-linecap:square;stroke-linejoin:bevel;stroke-miterlimit:4.0000000;stroke-dashoffset:0.0000000;stroke-opacity:1.0000000" id="path9190" sodipodi:cx="-96.605515" sodipodi:cy="-87.276924" sodipodi:rx="3.4174511" sodipodi:ry="3.4174511" d="M -93.188063 -87.276924 A 3.4174511 3.4174511 0 1 1  -100.02297,-87.276924 A 3.4174511 3.4174511 0 1 1  -93.188063 -87.276924 z" transform="matrix(0.496913,0.000000,0.000000,0.496913,70.65405,46.13439)"></path>
      <path sodipodi:type="arc" style="fill:#000000;fill-opacity:1.0000000;fill-rule:nonzero;stroke:#807d74;stroke-width:0.0000000;stroke-linecap:square;stroke-linejoin:bevel;stroke-miterlimit:4.0000000;stroke-dashoffset:0.0000000;stroke-opacity:1.0000000" id="path9191" sodipodi:cx="-96.605515" sodipodi:cy="-87.276924" sodipodi:rx="3.4174511" sodipodi:ry="3.4174511" d="M -93.188063 -87.276924 A 3.4174511 3.4174511 0 1 1  -100.02297,-87.276924 A 3.4174511 3.4174511 0 1 1  -93.188063 -87.276924 z" transform="matrix(0.496913,0.000000,0.000000,0.496913,70.59880,53.53690)"></path>
      <path sodipodi:type="arc" style="fill:#000000;fill-opacity:1.0000000;fill-rule:nonzero;stroke:#807d74;stroke-width:0.0000000;stroke-linecap:square;stroke-linejoin:bevel;stroke-miterlimit:4.0000000;stroke-dashoffset:0.0000000;stroke-opacity:1.0000000" id="path9192" sodipodi:cx="-96.605515" sodipodi:cy="-87.276924" sodipodi:rx="3.4174511" sodipodi:ry="3.4174511" d="M -93.188063 -87.276924 A 3.4174511 3.4174511 0 1 1  -100.02297,-87.276924 A 3.4174511 3.4174511 0 1 1  -93.188063 -87.276924 z" transform="matrix(0.496913,0.000000,0.000000,0.496913,76.73075,58.23253)"></path>
      <path sodipodi:type="arc" style="fill:#000000;fill-opacity:1.0000000;fill-rule:nonzero;stroke:#807d74;stroke-width:0.0000000;stroke-linecap:square;stroke-linejoin:bevel;stroke-miterlimit:4.0000000;stroke-dashoffset:0.0000000;stroke-opacity:1.0000000" id="path9193" sodipodi:cx="-96.605515" sodipodi:cy="-87.276924" sodipodi:rx="3.4174511" sodipodi:ry="3.4174511" d="M -93.188063 -87.276924 A 3.4174511 3.4174511 0 1 1  -100.02297,-87.276924 A 3.4174511 3.4174511 0 1 1  -93.188063 -87.276924 z" transform="matrix(0.496913,0.000000,0.000000,0.496913,70.21212,70.10973)"></path>
      <path sodipodi:type="arc" style="fill:#000000;fill-opacity:1.0000000;fill-rule:nonzero;stroke:#807d74;stroke-width:0.0000000;stroke-linecap:square;stroke-linejoin:bevel;stroke-miterlimit:4.0000000;stroke-dashoffset:0.0000000;stroke-opacity:1.0000000" id="path9194" sodipodi:cx="-96.605515" sodipodi:cy="-87.276924" sodipodi:rx="3.4174511" sodipodi:ry="3.4174511" d="M -93.188063 -87.276924 A 3.4174511 3.4174511 0 1 1  -100.02297,-87.276924 A 3.4174511 3.4174511 0 1 1  -93.188063 -87.276924 z" transform="matrix(0.496913,0.000000,0.000000,0.496913,70.59881,62.65195)"></path>
      <path sodipodi:type="arc" style="fill:#000000;fill-opacity:1.0000000;fill-rule:nonzero;stroke:#807d74;stroke-width:0.0000000;stroke-linecap:square;stroke-linejoin:bevel;stroke-miterlimit:4.0000000;stroke-dashoffset:0.0000000;stroke-opacity:1.0000000" id="path9195" sodipodi:cx="-96.605515" sodipodi:cy="-87.276924" sodipodi:rx="3.4174511" sodipodi:ry="3.4174511" d="M -93.188063 -87.276924 A 3.4174511 3.4174511 0 1 1  -100.02297,-87.276924 A 3.4174511 3.4174511 0 1 1  -93.188063 -87.276924 z" transform="matrix(0.496913,0.000000,0.000000,0.496913,63.47249,67.23710)"></path>
      <path sodipodi:type="arc" style="fill:#000000;fill-opacity:1.0000000;fill-rule:nonzero;stroke:#807d74;stroke-width:0.0000000;stroke-linecap:square;stroke-linejoin:bevel;stroke-miterlimit:4.0000000;stroke-dashoffset:0.0000000;stroke-opacity:1.0000000" id="path9196" sodipodi:cx="-96.605515" sodipodi:cy="-87.276924" sodipodi:rx="3.4174511" sodipodi:ry="3.4174511" d="M -93.188063 -87.276924 A 3.4174511 3.4174511 0 1 1  -100.02297,-87.276924 A 3.4174511 3.4174511 0 1 1  -93.188063 -87.276924 z" transform="matrix(0.496913,0.000000,0.000000,0.496913,56.40144,70.71739)"></path>
      <path sodipodi:type="arc" style="fill:#000000;fill-opacity:1.0000000;fill-rule:nonzero;stroke:#807d74;stroke-width:0.0000000;stroke-linecap:square;stroke-linejoin:bevel;stroke-miterlimit:4.0000000;stroke-dashoffset:0.0000000;stroke-opacity:1.0000000" id="path9197" sodipodi:cx="-96.605515" sodipodi:cy="-87.276924" sodipodi:rx="3.4174511" sodipodi:ry="3.4174511" d="M -93.188063 -87.276924 A 3.4174511 3.4174511 0 1 1  -100.02297,-87.276924 A 3.4174511 3.4174511 0 1 1  -93.188063 -87.276924 z" transform="matrix(0.496913,0.000000,0.000000,0.496913,49.49609,58.56399)"></path>
      <path sodipodi:type="arc" style="fill:#000000;fill-opacity:1.0000000;fill-rule:nonzero;stroke:#807d74;stroke-width:0.0000000;stroke-linecap:square;stroke-linejoin:bevel;stroke-miterlimit:4.0000000;stroke-dashoffset:0.0000000;stroke-opacity:1.0000000" id="path9198" sodipodi:cx="-96.605515" sodipodi:cy="-87.276924" sodipodi:rx="3.4174511" sodipodi:ry="3.4174511" d="M -93.188063 -87.276924 A 3.4174511 3.4174511 0 1 1  -100.02297,-87.276924 A 3.4174511 3.4174511 0 1 1  -93.188063 -87.276924 z" transform="matrix(0.496913,0.000000,0.000000,0.496913,55.84900,53.81312)"></path>
      <path sodipodi:type="arc" style="fill:#000000;fill-opacity:1.0000000;fill-rule:nonzero;stroke:#807d74;stroke-width:0.0000000;stroke-linecap:square;stroke-linejoin:bevel;stroke-miterlimit:4.0000000;stroke-dashoffset:0.0000000;stroke-opacity:1.0000000" id="path9199" sodipodi:cx="-96.605515" sodipodi:cy="-87.276924" sodipodi:rx="3.4174511" sodipodi:ry="3.4174511" d="M -93.188063 -87.276924 A 3.4174511 3.4174511 0 1 1  -100.02297,-87.276924 A 3.4174511 3.4174511 0 1 1  -93.188063 -87.276924 z" transform="matrix(0.496913,0.000000,0.000000,0.496913,55.73852,46.07914)"></path>
      <path sodipodi:type="arc" style="fill:#000000;fill-opacity:1.0000000;fill-rule:nonzero;stroke:#807d74;stroke-width:0.0000000;stroke-linecap:square;stroke-linejoin:bevel;stroke-miterlimit:4.0000000;stroke-dashoffset:0.0000000;stroke-opacity:1.0000000" id="path9200" sodipodi:cx="-96.605515" sodipodi:cy="-87.276924" sodipodi:rx="3.4174511" sodipodi:ry="3.4174511" d="M -93.188063 -87.276924 A 3.4174511 3.4174511 0 1 1  -100.02297,-87.276924 A 3.4174511 3.4174511 0 1 1  -93.188063 -87.276924 z" transform="matrix(0.496913,0.000000,0.000000,0.496913,55.73851,62.92816)"></path>
    </g>
  </g>
</svg>
