<?xml version="1.0" encoding="UTF-8" standalone="no"?>
<svg
   xmlns:dc="http://purl.org/dc/elements/1.1/"
   xmlns:cc="http://creativecommons.org/ns#"
   xmlns:rdf="http://www.w3.org/1999/02/22-rdf-syntax-ns#"
   xmlns:svg="http://www.w3.org/2000/svg"
   xmlns="http://www.w3.org/2000/svg"
   xmlns:xlink="http://www.w3.org/1999/xlink"
   xmlns:sodipodi="http://sodipodi.sourceforge.net/DTD/sodipodi-0.dtd"
   xmlns:inkscape="http://www.inkscape.org/namespaces/inkscape"
   width="30px"
   height="30px"
   id="svg4046"
   sodipodi:version="0.32"
   inkscape:version="0.46"
   sodipodi:docbase="/home/daniel/projects/k3d_artwork/Icon_parts"
   sodipodi:docname="LuxRenderBilinearInterpolationTexture.svg"
   preserveAspectRatio="xMidYMid meet"
   zoomAndPan="magnify"
   version="1.0"
   contentScriptType="text/ecmascript"
   contentStyleType="text/css"
   inkscape:export-filename="/home/daniel/projects/k3d_artwork/Icon_parts/K3D_icon_template_1.svg.png"
   inkscape:export-xdpi="90"
   inkscape:export-ydpi="90"
   inkscape:output_extension="org.inkscape.output.svg.inkscape">
  <defs
     id="defs3">
    <linearGradient
       id="linearGradient3188">
      <stop
         style="stop-color:#f10000;stop-opacity:1;"
         offset="0"
         id="stop3190" />
      <stop
         style="stop-color:#00a5f1;stop-opacity:1;"
         offset="1"
         id="stop3192" />
    </linearGradient>
    <linearGradient
       inkscape:collect="always"
       xlink:href="#linearGradient3188"
       id="linearGradient3194"
       x1="1.6742768"
       y1="2.041636"
       x2="26.213188"
       y2="26.195015"
       gradientUnits="userSpaceOnUse"
       gradientTransform="matrix(1.1374439,0,0,1.1560907,-0.9139798,-1.1854534)" />
    <inkscape:perspective
       sodipodi:type="inkscape:persp3d"
       inkscape:vp_x="0 : 15 : 1"
       inkscape:vp_y="0 : 1000 : 0"
       inkscape:vp_z="30 : 15 : 1"
       inkscape:persp3d-origin="15 : 10 : 1"
       id="perspective22" />
    <linearGradient
       id="linearGradient3204">
      <stop
         id="stop3206"
         offset="0"
         style="stop-color:#5c5c5c;stop-opacity:1;" />
      <stop
         id="stop3208"
         offset="1"
         style="stop-color:#bab5ab;stop-opacity:0;" />
    </linearGradient>
    <marker
       inkscape:stockid="Arrow2Lend"
       orient="auto"
       refY="0.0"
       refX="0.0"
       id="Arrow2Lend"
       style="overflow:visible;">
      <path
         id="path3133"
         style="font-size:12.0;fill-rule:evenodd;stroke-width:0.62500000;stroke-linejoin:round;"
         d="M 8.7185878,4.0337352 L -2.2072895,0.016013256 L 8.7185884,-4.0017078 C 6.9730900,-1.6296469 6.9831476,1.6157441 8.7185878,4.0337352 z "
         transform="scale(1.1) rotate(180) translate(-5,0)" />
    </marker>
    <linearGradient
       id="linearGradient12426">
      <stop
         id="stop12427"
         offset="0.0000000"
         style="stop-color:#eae8e3;stop-opacity:1.0000000;" />
      <stop
         id="stop12428"
         offset="1.0000000"
         style="stop-color:#807d74;stop-opacity:1.0000000;" />
    </linearGradient>
    <linearGradient
       inkscape:collect="always"
       xlink:href="#linearGradient3204"
       id="linearGradient3202"
       x1="2.8360133"
       y1="3.1524081"
       x2="26.753057"
       y2="26.596785"
       gradientUnits="userSpaceOnUse" />
    <linearGradient
       inkscape:collect="always"
       xlink:href="#linearGradient3204"
       id="linearGradient3216"
       gradientUnits="userSpaceOnUse"
       x1="2.8360133"
       y1="3.1524081"
       x2="26.753057"
       y2="26.596785" />
  </defs>
  <sodipodi:namedview
     id="base"
     pagecolor="#ffffff"
     bordercolor="#666666"
     borderopacity="1.0"
     inkscape:pageopacity="0.0"
     inkscape:pageshadow="2"
     inkscape:zoom="21.15646"
     inkscape:cx="13.639111"
     inkscape:cy="13.493718"
     inkscape:current-layer="layer1"
     inkscape:window-width="1680"
     inkscape:window-height="1015"
     inkscape:window-x="0"
     inkscape:window-y="6"
     showguides="true"
     inkscape:guide-bbox="true"
     showgrid="true"
     inkscape:snap-global="false">
    <inkscape:grid
       type="xygrid"
       id="grid3185"
       visible="true"
       enabled="true"
       empspacing="10"
       dotted="false"
       color="#0082ff"
       opacity="0.1254902"
       empcolor="#2b00ff"
       empopacity="0.25098039" />
    <inkscape:grid
       type="axonomgrid"
       id="grid3187"
       units="px"
       visible="true"
       enabled="true"
       color="#ff005c"
       opacity="0.1254902"
       empcolor="#d700ff"
       empopacity="0.1254902"
       spacingy="3.855px"
       gridanglex="30"
       gridanglez="30"
       empspacing="10"
       originx="1.6px"
       originy="-0.4px" />
  </sodipodi:namedview>
  <metadata
     id="metadata4">
    <rdf:RDF>
      <cc:Work
         rdf:about="">
        <dc:format>image/svg+xml</dc:format>
        <dc:type
           rdf:resource="http://purl.org/dc/dcmitype/StillImage" />
      </cc:Work>
    </rdf:RDF>
  </metadata>
  <g
     inkscape:label="Layer 1"
     inkscape:groupmode="layer"
     id="layer1">
    <g
       id="g4510">
      <rect
         y="4.4408921e-15"
         x="0"
         height="30"
         width="30"
         id="rect2410"
         style="opacity:1;fill:url(#linearGradient3194);fill-opacity:1;fill-rule:evenodd;stroke:none;stroke-width:1.10451031;stroke-linecap:round;stroke-linejoin:round;stroke-miterlimit:4;stroke-dasharray:none;stroke-opacity:1" />
      <g
         transform="matrix(2.3037074e-2,0,0,2.3037074e-2,11.515167,0.4634771)"
         id="g3416">
        <path
           id="path3255"
           d="M 348.64288,1232.8098 C 284.84288,1201.5464 190.56788,1155.3651 139.14288,1130.1848 C 87.71788,1105.0045 3.34288,1063.6903 -48.35712,1038.3754 C -100.05712,1013.0605 -177.90712,974.94889 -221.35712,953.68299 L -300.35712,915.01759 L -319.07504,698.58269 C -329.3699,579.54359 -347.19996,373.47289 -358.69739,240.64789 C -370.19482,107.82289 -379.44913,-1.02474 -379.26251,-1.23573 C -379.26251,-1.23573 475.07125,261.86322 475.07125,261.86322 C 475.07125,261.86322 466.21368,1289.2906 466.21368,1289.2906 C 465.34978,1289.4896 412.44288,1264.0732 348.64288,1232.8098 z"
           style="fill:#c5c5c5"
           sodipodi:nodetypes="csscccscscc" />
        <path
           id="path3251"
           d="M 466.81248,1216.0066 C 467.26918,1175.3843 467.64288,1122.8872 467.64288,1099.3463 L 467.64288,1056.5448 L 358.64288,1007.6753 C 249.92581,958.93259 249.64195,958.81269 249.28346,961.47679 C 249.08578,962.94589 249.69122,1011.8479 250.62887,1070.1479 C 251.56653,1128.4479 252.17827,1178.207 251.98829,1180.7237 L 251.64288,1185.2996 L 154.14288,1137.518 C 100.51788,1111.2381 56.22398,1089.5769 55.71198,1089.3819 C 54.92014,1089.0803 44.95215,868.75329 45.68868,867.83209 C 45.82755,867.65839 91.19086,887.79589 146.49604,912.58209 C 201.80122,937.36829 247.51732,957.64789 248.08738,957.64789 C 248.76721,957.64789 248.95477,954.12109 248.63247,947.39789 C 247.88977,931.90499 244.77002,718.68739 245.2786,718.17879 C 245.52203,717.93539 296.30099,738.18149 358.12073,763.17009 C 419.94048,788.15859 470.77288,808.35159 471.08158,808.04319 C 471.61978,807.50559 474.99848,545.54529 474.47718,544.77159 C 474.09078,544.19809 242.80006,461.66279 241.55698,461.65489 C 240.82437,461.65019 240.57976,464.98269 240.80515,471.89789 C 240.9889,477.53539 241.80825,528.72289 242.62594,585.64789 C 243.44363,642.57289 244.33604,695.33539 244.60907,702.89789 C 244.94888,712.31019 244.7678,716.64789 244.03506,716.64789 C 243.44633,716.64789 196.6346,697.91799 140.00901,675.02599 C 83.38341,652.13389 36.74928,633.70819 36.37761,634.07979 C 36.00594,634.45149 37.8833,686.72419 40.54952,750.24129 C 43.21574,813.75839 45.15371,865.97039 44.85612,866.26799 C 44.55852,866.56559 2.37709,848.01099 -48.88039,825.03559 C -119.00045,793.60519 -142.27461,782.75269 -142.87872,781.20499 C -143.32032,780.07359 -146.91157,728.74789 -150.85929,667.14789 C -154.807,605.54789 -158.33399,554.87509 -158.69704,554.54159 C -159.06008,554.20809 -199.18212,537.86159 -247.85712,518.21589 C -296.53212,498.57029 -336.70373,482.16149 -337.12735,481.75199 C -338.037,480.87269 -358.26629,248.72373 -357.50004,247.95748 C -357.05523,247.51267 -175.13707,312.03461 -174.20332,312.96835 C -174.02237,313.1493 -170.49856,365.68873 -166.37263,429.72262 C -162.2467,493.75649 -158.53033,548.10419 -158.11403,550.49509 L -157.35712,554.84239 L -61.35712,593.63959 L 34.64288,632.43679 L 34.92864,627.79229 C 35.08581,625.23789 32.94504,569.63869 30.17136,504.23849 C 27.39769,438.83834 25.3627,385.09473 25.64918,384.80826 C 25.93565,384.52179 74.17747,401.45497 132.85322,422.43755 C 191.52898,443.42012 239.75633,460.36779 240.02511,460.09899 C 240.94571,459.17839 236.04932,188.20703 235.10241,187.67173 C 234.59277,187.38362 184.90185,172.07289 124.67814,153.64789 C 64.45443,135.22289 15.17203,119.89259 15.16168,119.58055 C 15.16168,119.58055 237.66089,187.61875 237.66089,187.61875 C 237.29289,188.21418 475.78208,261.67679 478.02498,261.65891 C 478.02498,261.65891 467.31248,1289.0475 467.31248,1289.0475 C 466.20698,1289.7271 466.12238,1277.3777 466.81248,1216.0066 z M -215.35712,956.73909 L -300.35712,915.00419 L -308.99728,815.07599 C -313.74936,760.11559 -317.86786,712.57509 -318.14948,709.43059 L -318.66153,703.71329 L -314.00933,706.03049 C -311.45061,707.30489 -271.89462,725.12399 -226.10712,745.62839 C -146.18961,781.41689 -142.85712,783.01499 -142.85712,785.55109 C -142.85712,788.90589 -130.14013,985.17139 -129.42212,992.89789 C -129.12824,996.06039 -129.21839,998.60879 -129.62245,998.56089 C -130.02652,998.51309 -168.60712,979.69329 -215.35712,956.73909 z M -74.35712,348.49107 C -128.25712,329.21912 -172.71725,313.1128 -173.1574,312.69925 C -173.59755,312.28569 -177.70835,254.67597 -182.2925,184.67764 C -187.46491,105.69667 -191.02634,57.16134 -191.67898,56.75799 C -191.67898,56.75799 -188.84891,56.68429 -188.84891,56.68429 C -189.12446,56.789451 -143.51962,71.1176 -88.10712,88.10272 C -32.69462,105.08784 12.94924,119.24646 13.32368,119.56632 C 13.69813,119.88619 16.28095,174.82289 19.06329,241.64789 C 21.84564,308.47289 24.40553,367.76039 24.75194,373.39789 C 25.09835,379.03539 24.99053,383.62158 24.51233,383.58943 C 24.03413,383.55728 -20.45712,367.76302 -74.35712,348.49107 z"
           style="fill:#777777"
           sodipodi:nodetypes="ccccsscccssssssssssssssssssssssssssscccccsssssscccccccccccssssccsscssssssc" />
      </g>
      <path
         d="M 11.790645,1.5387317 C 12.55026,0.7791117 13.853931,0.7791117 14.613547,1.5387317 C 15.378963,2.3041391 15.389996,3.6003043 14.62112,4.3692069 C 13.852211,5.1380836 12.556054,5.1270506 11.790645,4.3616405 C 11.031026,3.602023 11.031026,2.2983461 11.790645,1.5387317 z M 6.1372685,7.9619817 C 6.6827596,7.4165213 7.6466699,7.4032639 8.1978419,7.9544429 C 8.7598168,8.5163947 8.7598168,9.4606028 8.1978419,10.022554 C 7.6466699,10.573732 6.6827247,10.560478 6.1372685,10.015018 C 5.6028429,9.4805633 5.6028136,8.4964306 6.1372685,7.9619817 z M 0.31030557,14.211653 C 0.72405478,13.797898 1.5269095,13.797898 1.9406646,14.211653 C 2.3719496,14.642939 2.3877106,15.410043 1.9482004,15.849546 C 1.508699,16.289022 0.74159079,16.273267 0.31030557,15.841976 C -0.10344687,15.428254 -0.10342353,14.625376 0.31030557,14.211653 z M 16.862841,6.6109316 C 18.163749,5.3100019 20.317072,5.3100019 21.61801,6.6109316 C 22.25192,7.244846 22.569633,8.0770976 22.584138,8.9356807 C 22.579369,9.4223097 22.845026,9.8463325 23.150238,10.090498 C 23.414442,10.301858 23.863858,10.51492 24.448456,10.377321 C 25.944135,10.092038 27.469894,10.530548 28.622449,11.683103 C 30.459183,13.519841 30.459183,16.53381 28.622449,18.370524 C 27.473049,19.519942 25.883469,19.946431 24.388083,19.661229 C 23.805075,19.523986 23.39581,19.766662 23.150238,19.963127 C 22.833805,20.216292 22.571778,20.668819 22.576601,21.155707 C 22.562095,22.014175 22.254712,22.80602 21.61801,23.442725 C 20.317103,24.743628 18.163749,24.743628 16.862841,23.442725 C 15.56191,22.141796 15.56191,19.988462 16.862841,18.68753 C 17.496752,18.053623 18.329012,17.735904 19.187591,17.721403 C 19.674297,17.726228 20.098275,17.460463 20.342412,17.155329 C 20.553775,16.891103 20.766839,16.441709 20.629228,15.857083 C 20.5148,15.257043 20.529119,14.740253 20.644338,14.136167 C 20.781549,13.553191 20.538875,13.143898 20.342412,12.898328 C 20.089221,12.581813 19.636614,12.319884 19.149841,12.324682 C 18.291387,12.310169 17.499519,12.002773 16.862841,11.366095 C 15.56191,10.065164 15.56191,7.9118335 16.862841,6.6109316 z M 11.790645,13.61536 C 12.55026,12.855744 13.853931,12.855744 14.613547,13.61536 C 15.378963,14.380767 15.389996,15.676927 14.62112,16.445832 C 13.852211,17.214712 12.556054,17.203676 11.790645,16.438269 C 11.031026,15.678652 11.031026,14.374974 11.790645,13.61536 z M 6.1372685,20.038611 C 6.6827247,19.493151 7.6466699,19.479892 8.1978419,20.03107 C 8.7598168,20.59302 8.7598168,21.53723 8.1978419,22.099183 C 7.6466699,22.650365 6.6827247,22.637113 6.1372685,22.091648 C 5.6028136,21.557192 5.6028136,20.573066 6.1372685,20.038611 z M 11.790645,25.691994 C 12.55026,24.93237 13.853931,24.93237 14.613547,25.691994 C 15.378963,26.457402 15.389996,27.753556 14.62112,28.522436 C 13.852211,29.291342 12.556054,29.280306 11.790645,28.51489 C 11.031026,27.755278 11.031026,26.451604 11.790645,25.691994 z"
         id="path2391"
         style="fill:#000000;stroke:none;stroke-width:0.1;stroke-miterlimit:4"
         inkscape:export-filename="C:\Users\Lars\Desktop\text3426.png"
         inkscape:export-xdpi="90"
         inkscape:export-ydpi="90" />
    </g>
  </g>
</svg>
