<?xml version="1.0"?>
<svg xmlns:sodipodi="http://sodipodi.sourceforge.net/DTD/sodipodi-0.dtd" xmlns:inkscape="http://www.inkscape.org/namespaces/inkscape" width="24.000000pt" height="24.000000pt" id="svg5862" sodipodi:version="0.32" inkscape:version="0.40pre3" sodipodi:docbase="/lethe/arsgratia/k3d-icons/scalable_unfixed" sodipodi:docname="PolyTerrainHfBM.svg" preserveAspectRatio="xMidYMid meet" zoomAndPan="magnify" version="1.0" contentScriptType="text/ecmascript" contentStyleType="text/css">
  <defs id="defs3">
    <linearGradient id="linearGradient12426">
      <stop style="stop-color:#eae8e3;stop-opacity:1.0000000;" offset="0.0000000" id="stop12427"></stop>
      <stop style="stop-color:#807d74;stop-opacity:1.0000000;" offset="1.0000000" id="stop12428"></stop>
    </linearGradient>
    <radialGradient inkscape:collect="always" id="radialGradient4558" gradientUnits="userSpaceOnUse" gradientTransform="scale(1.090019,0.917415)" cx="-42.839897" cy="10.528402" fx="-42.906750" fy="10.288485" r="19.594189"><stop style="stop-color:#eae8e3;stop-opacity:1.0000000;" offset="0.0000000" id="stop12427radialGradient4558"/><stop style="stop-color:#807d74;stop-opacity:1.0000000;" offset="1.0000000" id="stop12428radialGradient4558"/></radialGradient>
  </defs>
  <sodipodi:namedview id="base" pagecolor="#ffffff" bordercolor="#666666" borderopacity="1.0" inkscape:pageopacity="0.0" inkscape:pageshadow="2" inkscape:zoom="6.9465337" inkscape:cx="5.1325582" inkscape:cy="5.0144884" inkscape:current-layer="layer1" inkscape:window-width="640" inkscape:window-height="530" inkscape:window-x="0" inkscape:window-y="47"></sodipodi:namedview>
  <metadata id="metadata4">
    <rdf:RDF xmlns:rdf="http://www.w3.org/1999/02/22-rdf-syntax-ns#" id="RDF5">
      <cc:Work xmlns:cc="http://web.resource.org/cc/" rdf:about="" id="Work6">
        <dc:format xmlns:dc="http://purl.org/dc/elements/1.1/" id="format7">image/svg+xml</dc:format>
        <dc:type xmlns:dc="http://purl.org/dc/elements/1.1/" id="type9" rdf:resource="http://purl.org/dc/dcmitype/StillImage"></dc:type>
      </cc:Work>
    </rdf:RDF>
  </metadata>
  <g inkscape:label="Layer 1" inkscape:groupmode="layer" id="layer1">
    <g id="g4559" transform="translate(-436.2860,205.0147)">
      <path id="path5881" style="fill:url(#radialGradient4558);fill-opacity:1.0000000;fill-rule:evenodd;stroke:#000000;stroke-width:1.0000000;stroke-linecap:butt;stroke-linejoin:miter;stroke-miterlimit:4.0000000;stroke-opacity:1.0000000" d="M -50.736799,6.7330226 L -45.963894,-0.25939054 L -40.263812,4.6195016 L -36.931880,6.4601566 L -33.425711,1.6923806 L -31.823745,10.063682 L -31.019871,22.658694 L -45.157516,16.475291 L -58.437944,21.755143 L -55.691133,1.1181638 L -50.736799,6.7330226 z " sodipodi:nodetypes="ccccccccccc" transform="translate(496.5024,-201.3290)"></path>
      <path id="path4539" style="fill:none;fill-opacity:0.0000000;fill-rule:evenodd;stroke:#000000;stroke-width:1.0000000;stroke-linecap:butt;stroke-linejoin:miter;stroke-miterlimit:4.0000000;stroke-opacity:1.0000000" d="M 445.74143,-194.59765 L 450.51433,-201.59006 L 456.21441,-196.71117 L 459.54634,-194.87052 L 463.05251,-199.63829 L 464.65448,-191.26699 L 465.45835,-178.67198 L 451.32071,-184.85538 L 438.04028,-179.57553 L 440.78709,-200.21251 L 445.74143,-194.59765 z M 446.83148,-195.86288 L 445.46696,-193.37687 L 444.95339,-187.81061 L 443.61223,-181.91306 M 454.41636,-198.07444 L 454.84134,-192.27960 L 456.80200,-188.37200 L 460.54051,-181.26268 M 450.09625,-184.42734 L 450.08323,-186.38462 L 450.64433,-190.30204 L 450.66092,-192.27480 L 451.29819,-200.59631 M 440.23130,-197.34690 L 446.36777,-192.61527 L 451.33108,-196.70100 L 460.22561,-190.89909 L 463.95546,-195.11860 M 439.05486,-186.03837 L 446.49193,-188.01419 L 452.66893,-188.22574 L 456.66322,-193.81069 L 464.39596,-191.14135 M 464.93795,-187.25635 L 456.02100,-189.78526 L 450.89217,-192.62236 L 446.37473,-189.91656 L 440.03870,-192.73029" sodipodi:nodetypes="ccccccccccccccccccccccccccccccccccccccc"></path>
    </g>
  </g>
</svg>
