<?xml version="1.0"?>
<svg xmlns:sodipodi="http://sodipodi.sourceforge.net/DTD/sodipodi-0.dtd" xmlns:inkscape="http://www.inkscape.org/namespaces/inkscape" width="24.000000pt" height="24.000000pt" id="svg6888" sodipodi:version="0.32" inkscape:version="0.40pre3" sodipodi:docbase="/lethe/arsgratia/k3d-icons/scalable_unfixed" sodipodi:docname="SphereEversion.svg" preserveAspectRatio="xMidYMid meet" zoomAndPan="magnify" version="1.0" contentScriptType="text/ecmascript" contentStyleType="text/css">
  <defs id="defs3">
    <linearGradient id="linearGradient12426">
      <stop style="stop-color:#eae8e3;stop-opacity:1.0000000;" offset="0.0000000" id="stop12427"></stop>
      <stop style="stop-color:#807d74;stop-opacity:1.0000000;" offset="1.0000000" id="stop12428"></stop>
    </linearGradient>
    <radialGradient inkscape:collect="always" id="radialGradient6887" gradientUnits="userSpaceOnUse" gradientTransform="translate(-34.06886,-55.01197)" cx="105.96836" cy="-33.376244" fx="100.86923" fy="-40.098114" r="13.188590"><stop style="stop-color:#eae8e3;stop-opacity:1.0000000;" offset="0.0000000" id="stop12427radialGradient6887"/><stop style="stop-color:#807d74;stop-opacity:1.0000000;" offset="1.0000000" id="stop12428radialGradient6887"/></radialGradient>
  </defs>
  <sodipodi:namedview id="base" pagecolor="#ffffff" bordercolor="#666666" borderopacity="1.0" inkscape:pageopacity="0.0" inkscape:pageshadow="2" inkscape:zoom="9.8238822" inkscape:cx="16.812139" inkscape:cy="11.187256" inkscape:current-layer="layer1" inkscape:window-width="640" inkscape:window-height="530" inkscape:window-x="-3" inkscape:window-y="47"></sodipodi:namedview>
  <metadata id="metadata4">
    <rdf:RDF xmlns:rdf="http://www.w3.org/1999/02/22-rdf-syntax-ns#" id="RDF5">
      <cc:Work xmlns:cc="http://web.resource.org/cc/" rdf:about="" id="Work6">
        <dc:format xmlns:dc="http://purl.org/dc/elements/1.1/" id="format7">image/svg+xml</dc:format>
        <dc:type xmlns:dc="http://purl.org/dc/elements/1.1/" id="type9" rdf:resource="http://purl.org/dc/dcmitype/StillImage"></dc:type>
      </cc:Work>
    </rdf:RDF>
  </metadata>
  <g inkscape:label="Layer 1" inkscape:groupmode="layer" id="layer1">
    <g id="g6875" transform="translate(-0.268168,-0.257488)">
      <path id="path6852" style="fill:url(#radialGradient6887);fill-opacity:1.0000000;fill-rule:evenodd;stroke:#000000;stroke-width:1.2500000;stroke-linecap:square;stroke-linejoin:round;stroke-miterlimit:4.0000000;stroke-dashoffset:0.0000000;stroke-opacity:1.0000000" d="M 92.550185,-83.258379 C 92.550185,-75.498929 86.252665,-69.201398 78.493215,-69.201398 C 70.733765,-69.201398 64.436235,-75.498929 64.436235,-83.258379 C 64.436235,-91.017829 70.733765,-97.315347 78.493215,-97.315347 C 86.252665,-97.315347 92.550185,-91.017829 92.550185,-83.258379 z " sodipodi:nodetypes="ccccc" transform="translate(-63.06114,98.50143)"></path>
      <path style="fill:#ffffff;fill-opacity:1.0000000;fill-rule:evenodd;stroke:#000000;stroke-width:0.0000000;stroke-linecap:butt;stroke-linejoin:miter;stroke-miterlimit:4.0000000;stroke-opacity:1.0000000" d="M 6.1560501,5.4589014 C 6.2516201,6.1067814 7.5442358,4.9827117 10.796441,3.9009486 C 13.961675,2.8481140 14.082814,2.9929905 17.763703,2.0807525 C 10.932995,1.2831968 8.6436655,3.7603775 6.1560501,5.4589014 z " id="path6872" sodipodi:nodetypes="czcc"></path>
      <path style="fill:#ffffff;fill-opacity:1.0000000;fill-rule:evenodd;stroke:#000000;stroke-width:0.0000000;stroke-linecap:butt;stroke-linejoin:miter;stroke-miterlimit:4.0000000;stroke-opacity:1.0000000" d="M 3.9417862,10.507213 C 4.0373562,11.155093 6.7767311,9.0665171 10.028936,7.9847540 C 13.194170,6.9319194 15.340772,6.4016416 19.021661,5.4894036 C 8.2364783,4.1131442 4.0181362,9.3873928 3.9417862,10.507213 z " id="path6854" sodipodi:nodetypes="czcc"></path>
      <path style="fill:none;fill-opacity:0.75000000;fill-rule:evenodd;stroke:#000000;stroke-width:1.0000000;stroke-linecap:butt;stroke-linejoin:miter;stroke-miterlimit:4.0000000;stroke-opacity:1.0000000" d="M 1.2538580,15.146605 C 10.609568,15.146605 19.965277,15.146605 29.320987,15.146605" id="path6863" sodipodi:nodetypes="cc"></path>
      <path style="fill:none;fill-opacity:0.75000000;fill-rule:evenodd;stroke:#000000;stroke-width:1.0000000;stroke-linecap:butt;stroke-linejoin:miter;stroke-miterlimit:4.0000000;stroke-opacity:1.0000000" d="M 1.3020834,15.146605 C 1.3503086,7.6234569 9.2043086,3.4760805 15.432098,3.4760805 C 21.178200,3.4760805 29.247975,8.9489790 29.369212,15.050154" id="path6864" sodipodi:nodetypes="czc"></path>
      <path style="fill:none;fill-opacity:0.75000000;fill-rule:evenodd;stroke:#000000;stroke-width:1.0000000;stroke-linecap:butt;stroke-linejoin:miter;stroke-miterlimit:4.0000000;stroke-opacity:1.0000000" d="M 1.2056331,15.146605 C 1.2056331,12.445557 9.1078584,8.8773151 15.335647,8.8773151 C 21.081749,8.8773151 29.272761,13.095042 29.272761,15.050154" id="path6865" sodipodi:nodetypes="czc"></path>
      <path style="fill:none;fill-opacity:0.75000000;fill-rule:evenodd;stroke:#000000;stroke-width:1.0000000;stroke-linecap:butt;stroke-linejoin:miter;stroke-miterlimit:4.0000000;stroke-opacity:1.0000000" d="M 1.5432100,15.387732 C 1.5914352,22.910880 9.4454354,27.058256 15.673224,27.058256 C 21.419326,27.058256 29.489101,21.585358 29.610338,15.484183" id="path6866" sodipodi:nodetypes="czc"></path>
      <path style="fill:none;fill-opacity:0.75000000;fill-rule:evenodd;stroke:#000000;stroke-width:1.0000000;stroke-linecap:butt;stroke-linejoin:miter;stroke-miterlimit:4.0000000;stroke-opacity:1.0000000" d="M 1.4467597,15.387732 C 1.4467597,18.088780 9.3489854,21.657021 15.576773,21.657021 C 21.322875,21.657021 29.513887,17.439295 29.513887,15.484183" id="path6867" sodipodi:nodetypes="czc"></path>
      <path style="fill:#ffffff;fill-opacity:1.0000000;fill-rule:evenodd;stroke:#000000;stroke-width:0.0000000;stroke-linecap:butt;stroke-linejoin:miter;stroke-miterlimit:4.0000000;stroke-opacity:1.0000000" d="M 3.5518839,14.235908 C 3.6474539,14.883788 6.3649438,13.732226 9.6390325,13.353109 C 12.900717,12.975428 14.179264,11.962899 17.860153,11.050660 C 7.0749709,9.6744004 3.6282339,13.116088 3.5518839,14.235908 z " id="path6871" sodipodi:nodetypes="czcc"></path>
      <path style="fill:#ffffff;fill-opacity:1.0000000;fill-rule:evenodd;stroke:#000000;stroke-width:0.0000000;stroke-linecap:butt;stroke-linejoin:miter;stroke-miterlimit:4.0000000;stroke-opacity:1.0000000" d="M 3.4554332,16.288071 C 3.5510032,15.640191 6.2684931,16.791753 9.5425818,17.170870 C 12.804266,17.548551 14.082813,18.561080 17.763702,19.473319 C 6.9785202,20.849578 3.5317832,17.407891 3.4554332,16.288071 z " id="path6873" sodipodi:nodetypes="czcc"></path>
      <path style="fill:#ffffff;fill-opacity:1.0000000;fill-rule:evenodd;stroke:#000000;stroke-width:0.0000000;stroke-linecap:butt;stroke-linejoin:miter;stroke-miterlimit:4.0000000;stroke-opacity:1.0000000" d="M 3.5518834,19.818877 C 3.6474534,19.170997 6.3868283,21.259573 9.6390332,22.341336 C 12.804267,23.394170 14.950869,23.924448 18.631758,24.836686 C 7.8465755,26.212946 3.6282334,20.938697 3.5518834,19.818877 z " id="path6874" sodipodi:nodetypes="czcc"></path>
    </g>
  </g>
</svg>
