<?xml version="1.0"?>
<svg xmlns:sodipodi="http://sodipodi.sourceforge.net/DTD/sodipodi-0.dtd" xmlns:inkscape="http://www.inkscape.org/namespaces/inkscape" width="24.000000pt" height="24.000000pt" id="svg8858" sodipodi:version="0.32" inkscape:version="0.40pre3" sodipodi:docbase="/lethe/arsgratia/k3d-icons/scalable_unfixed" sodipodi:docname="Torus.svg" preserveAspectRatio="xMidYMid meet" zoomAndPan="magnify" version="1.0" contentScriptType="text/ecmascript" contentStyleType="text/css">
  <defs id="defs3">
    <linearGradient id="linearGradient12426">
      <stop style="stop-color:#eae8e3;stop-opacity:1.0000000;" offset="0.0000000" id="stop12427"></stop>
      <stop style="stop-color:#807d74;stop-opacity:1.0000000;" offset="1.0000000" id="stop12428"></stop>
    </linearGradient>
    <radialGradient inkscape:collect="always" id="radialGradient1736" gradientUnits="userSpaceOnUse" gradientTransform="translate(-62.60346,-88.08295)" cx="3.2402291" cy="2.0400276" fx="3.0709176" fy="2.2093430" r="17.310577"><stop style="stop-color:#eae8e3;stop-opacity:1.0000000;" offset="0.0000000" id="stop12427radialGradient1736"/><stop style="stop-color:#807d74;stop-opacity:1.0000000;" offset="1.0000000" id="stop12428radialGradient1736"/></radialGradient>
  </defs>
  <sodipodi:namedview id="base" pagecolor="#ffffff" bordercolor="#666666" borderopacity="1.0" inkscape:pageopacity="0.0" inkscape:pageshadow="2" inkscape:zoom="13.893067" inkscape:cx="12.099312" inkscape:cy="12.015470" inkscape:current-layer="layer1" inkscape:window-width="640" inkscape:window-height="530" inkscape:window-x="4" inkscape:window-y="47"></sodipodi:namedview>
  <metadata id="metadata4">
    <rdf:RDF xmlns:rdf="http://www.w3.org/1999/02/22-rdf-syntax-ns#" id="RDF5">
      <cc:Work xmlns:cc="http://web.resource.org/cc/" rdf:about="" id="Work6">
        <dc:format xmlns:dc="http://purl.org/dc/elements/1.1/" id="format7">image/svg+xml</dc:format>
        <dc:type xmlns:dc="http://purl.org/dc/elements/1.1/" id="type9" rdf:resource="http://purl.org/dc/dcmitype/StillImage"></dc:type>
      </cc:Work>
    </rdf:RDF>
  </metadata>
  <g inkscape:label="Layer 1" inkscape:groupmode="layer" id="layer1">
    <g id="g1741" transform="translate(62.45212,88.32426)">
      <path id="path1071" style="fill:url(#radialGradient1736);fill-opacity:1.0000000;fill-rule:evenodd;stroke:#000000;stroke-width:1.2500000;stroke-linecap:square;stroke-linejoin:round;stroke-miterlimit:4.0000000;stroke-dashoffset:0.0000000;stroke-opacity:1.0000000" d="M -33.369667,-73.259760 C -33.369667,-65.500310 -39.667192,-59.202785 -47.426642,-59.202785 C -55.186092,-59.202785 -61.483617,-65.500310 -61.483617,-73.259760 C -61.483617,-81.019211 -55.186092,-87.316735 -47.426642,-87.316735 C -39.667192,-87.316735 -33.369667,-81.019211 -33.369667,-73.259760 z M -41.031749,-73.171352 C -41.031749,-69.755242 -43.804245,-66.982746 -47.220355,-66.982746 C -50.636465,-66.982746 -53.408960,-69.755242 -53.408960,-73.171352 C -53.408960,-76.587462 -50.636465,-79.359957 -47.220355,-79.359957 C -43.804245,-79.359957 -41.031749,-76.587462 -41.031749,-73.171352 z "></path>
      <path style="fill:#ffffff;fill-opacity:1.0000000;fill-rule:evenodd;stroke:#000000;stroke-width:0.0000000;stroke-linecap:butt;stroke-linejoin:miter;stroke-miterlimit:4.0000000;stroke-opacity:1.0000000" d="M -50.433999,-85.047467 C -53.219888,-84.634691 -55.906245,-82.377097 -57.264976,-79.972178 C -57.753340,-79.141744 -58.091560,-78.234156 -58.381601,-77.320544 C -58.810336,-76.290922 -59.192704,-75.211179 -59.269047,-74.091356 C -59.173483,-73.443481 -59.143522,-74.525201 -59.038905,-74.733501 C -58.457439,-76.994140 -56.669914,-78.722945 -54.725107,-79.893145 C -53.136510,-80.925056 -51.492804,-82.506307 -49.898392,-83.525741 C -48.041916,-84.532643 -42.372381,-84.080425 -41.681465,-83.738802 C -44.268337,-85.211511 -47.448505,-85.323800 -50.433999,-85.047467 z " id="path1072" sodipodi:nodetypes="ccccccccc"></path>
      <path style="fill:#ffffff;fill-opacity:1.0000000;fill-rule:evenodd;stroke:#000000;stroke-width:0.0000000;stroke-linecap:butt;stroke-linejoin:miter;stroke-miterlimit:4.0000000;stroke-opacity:1.0000000" d="M -39.705621,-75.469976 C -39.188074,-67.876383 -42.902037,-65.341809 -49.103856,-65.187271 C -41.845445,-63.579375 -38.087002,-68.516376 -39.705621,-75.469976 z " id="path1073" sodipodi:nodetypes="ccc"></path>
    </g>
  </g>
</svg>
