<?xml version="1.0" encoding="UTF-8" standalone="no"?>
<svg
   xmlns:dc="http://purl.org/dc/elements/1.1/"
   xmlns:cc="http://web.resource.org/cc/"
   xmlns:rdf="http://www.w3.org/1999/02/22-rdf-syntax-ns#"
   xmlns:svg="http://www.w3.org/2000/svg"
   xmlns="http://www.w3.org/2000/svg"
   xmlns:sodipodi="http://inkscape.sourceforge.net/DTD/sodipodi-0.dtd"
   xmlns:inkscape="http://www.inkscape.org/namespaces/inkscape"
   width="24.000000pt"
   height="24.000000pt"
   id="svg4046"
   sodipodi:version="0.32"
   inkscape:version="0.43"
   sodipodi:docbase="I:\ArtWorks\K3d_Tests\Dev_Notes\Icons"
   sodipodi:docname="TransformPoints.svg"
   preserveAspectRatio="xMidYMid meet"
   zoomAndPan="magnify"
   version="1.0"
   contentScriptType="text/ecmascript"
   contentStyleType="text/css"
   inkscape:export-filename="I:\ArtWorks\K3d_Tests\Dev_Notes\Icons\TweakPoints.png"
   inkscape:export-xdpi="90"
   inkscape:export-ydpi="90">
  <defs
     id="defs3" />
  <sodipodi:namedview
     id="base"
     pagecolor="#ffffff"
     bordercolor="#666666"
     borderopacity="1.0"
     inkscape:pageopacity="0.0"
     inkscape:pageshadow="2"
     inkscape:zoom="13.893067"
     inkscape:cx="14.212775"
     inkscape:cy="12.035718"
     inkscape:current-layer="layer1"
     inkscape:window-width="1680"
     inkscape:window-height="1035"
     inkscape:window-x="-4"
     inkscape:window-y="-4"
     showguides="true"
     inkscape:guide-bbox="true" />
  <metadata
     id="metadata4">
    <rdf:RDF>
      <cc:Work
         rdf:about="">
        <dc:format>image/svg+xml</dc:format>
        <dc:type
           rdf:resource="http://purl.org/dc/dcmitype/StillImage" />
      </cc:Work>
    </rdf:RDF>
  </metadata>
  <g
     inkscape:label="Layer 1"
     inkscape:groupmode="layer"
     id="layer1">
    <rect
       style="fill:#bab5ab;fill-opacity:1;fill-rule:evenodd;stroke:#000000;stroke-width:1.08162296;stroke-linecap:round;stroke-linejoin:round;stroke-miterlimit:4;stroke-dasharray:none;stroke-dashoffset:0;stroke-opacity:1"
       id="rect1335"
       width="9.231616"
       height="8.9818096"
       x="1.5386029"
       y="1.5379791" />
    <rect
       y="10.669485"
       x="1.5386029"
       height="8.9818096"
       width="9.231616"
       id="rect2210"
       style="fill:#bab5ab;fill-opacity:1;fill-rule:evenodd;stroke:#000000;stroke-width:1.08162296;stroke-linecap:round;stroke-linejoin:round;stroke-miterlimit:4;stroke-dasharray:none;stroke-dashoffset:0;stroke-opacity:1" />
    <rect
       style="fill:#bab5ab;fill-opacity:1;fill-rule:evenodd;stroke:#000000;stroke-width:1.08162296;stroke-linecap:round;stroke-linejoin:round;stroke-miterlimit:4;stroke-dasharray:none;stroke-dashoffset:0;stroke-opacity:1"
       id="rect2212"
       width="9.231616"
       height="8.9818096"
       x="1.5386029"
       y="19.800991" />
    <rect
       style="fill:#000000;fill-opacity:1;fill-rule:evenodd;stroke:none;stroke-width:1;stroke-linecap:round;stroke-linejoin:round;stroke-miterlimit:4;stroke-dasharray:none;stroke-dashoffset:0;stroke-opacity:1"
       id="rect2214"
       width="3.7250383"
       height="3.4430268"
       x="1.0673857e-007"
       y="-0.033837546" />
    <rect
       y="-0.033837546"
       x="8.9077005"
       height="3.4430268"
       width="3.7250383"
       id="rect2216"
       style="fill:#000000;fill-opacity:1;fill-rule:evenodd;stroke:none;stroke-width:1;stroke-linecap:round;stroke-linejoin:round;stroke-miterlimit:4;stroke-dasharray:none;stroke-dashoffset:0;stroke-opacity:1" />
    <rect
       y="8.798275"
       x="1.0673857e-007"
       height="3.4430268"
       width="3.7250383"
       id="rect2218"
       style="fill:#000000;fill-opacity:1;fill-rule:evenodd;stroke:none;stroke-width:1;stroke-linecap:round;stroke-linejoin:round;stroke-miterlimit:4;stroke-dasharray:none;stroke-dashoffset:0;stroke-opacity:1" />
    <rect
       style="fill:#000000;fill-opacity:1;fill-rule:evenodd;stroke:none;stroke-width:1;stroke-linecap:round;stroke-linejoin:round;stroke-miterlimit:4;stroke-dasharray:none;stroke-dashoffset:0;stroke-opacity:1"
       id="rect2220"
       width="3.7250383"
       height="3.4430268"
       x="8.9077005"
       y="8.798275" />
    <rect
       y="17.48069"
       x="1.0673857e-007"
       height="3.4430268"
       width="3.7250383"
       id="rect2222"
       style="fill:#000000;fill-opacity:1;fill-rule:evenodd;stroke:none;stroke-width:1;stroke-linecap:round;stroke-linejoin:round;stroke-miterlimit:4;stroke-dasharray:none;stroke-dashoffset:0;stroke-opacity:1" />
    <rect
       style="fill:#000000;fill-opacity:1;fill-rule:evenodd;stroke:none;stroke-width:1;stroke-linecap:round;stroke-linejoin:round;stroke-miterlimit:4;stroke-dasharray:none;stroke-dashoffset:0;stroke-opacity:1"
       id="rect2224"
       width="3.7250383"
       height="3.4430268"
       x="8.9077005"
       y="17.48069" />
    <rect
       style="fill:#000000;fill-opacity:1;fill-rule:evenodd;stroke:none;stroke-width:1;stroke-linecap:round;stroke-linejoin:round;stroke-miterlimit:4;stroke-dasharray:none;stroke-dashoffset:0;stroke-opacity:1"
       id="rect2226"
       width="3.7250383"
       height="3.4430268"
       x="1.0673857e-007"
       y="26.312803" />
    <rect
       y="26.312803"
       x="8.9077005"
       height="3.4430268"
       width="3.7250383"
       id="rect2228"
       style="fill:#000000;fill-opacity:1;fill-rule:evenodd;stroke:none;stroke-width:1;stroke-linecap:round;stroke-linejoin:round;stroke-miterlimit:4;stroke-dasharray:none;stroke-dashoffset:0;stroke-opacity:1" />
    <g
       id="g2242"
       transform="matrix(-0.978719,-9.898716e-17,-5.748005e-16,0.55528,47.16517,18.53834)">
      <path
         style="fill:#990000;fill-opacity:1;fill-rule:evenodd;stroke:none;stroke-width:0.25pt;stroke-linecap:butt;stroke-linejoin:miter;stroke-opacity:1"
         d="M 18.195367,15.210356 L 26.433617,12.000747 L 26.38541,18.567209 L 18.195367,15.210356 z "
         id="path2244"
         sodipodi:nodetypes="cccc" />
      <path
         style="fill:none;fill-opacity:0.75;fill-rule:evenodd;stroke:#990000;stroke-width:2.5;stroke-linecap:butt;stroke-linejoin:miter;stroke-miterlimit:4;stroke-opacity:1"
         d="M 25.873269,15.091611 L 34.245208,15.091611"
         id="path2246"
         sodipodi:nodetypes="cc" />
    </g>
    <g
       id="g2570"
       transform="matrix(0.582692,0,0,0.582692,35.50827,2.182651)">
      <path
         id="text2296"
         d="M -35.413746,-2.8012796 C -36.023125,-2.8012716 -36.482108,-2.5004907 -36.790699,-1.8989359 C -37.095389,-1.3012731 -37.247733,-0.40088337 -37.247731,0.80223603 C -37.247733,2.0014579 -37.095389,2.9018476 -36.790699,3.5034079 C -36.482108,4.1010652 -36.023125,4.399893 -35.413746,4.3998923 C -34.800469,4.399893 -34.341486,4.1010652 -34.036793,3.5034079 C -33.728205,2.9018476 -33.573908,2.0014579 -33.573903,0.80223603 C -33.573908,-0.40088337 -33.728205,-1.3012731 -34.036793,-1.8989359 C -34.341486,-2.5004907 -34.800469,-2.8012716 -35.413746,-2.8012796 M -35.413746,-3.7387796 C -34.433282,-3.7387707 -33.685236,-3.3500992 -33.169606,-2.572764 C -32.650081,-1.7993195 -32.390316,-0.67432067 -32.390309,0.80223603 C -32.390316,2.2748952 -32.650081,3.399894 -33.169606,4.177236 C -33.685236,4.9506737 -34.433282,5.3373921 -35.413746,5.3373923 C -36.394218,5.3373921 -37.144217,4.9506737 -37.663746,4.177236 C -38.179372,3.399894 -38.437185,2.2748952 -38.437184,0.80223603 C -38.437185,-0.67432067 -38.179372,-1.7993195 -37.663746,-2.572764 C -37.144217,-3.3500992 -36.394218,-3.7387707 -35.413746,-3.7387796 M -27.773121,-2.8012796 C -28.3825,-2.8012716 -28.841483,-2.5004907 -29.150074,-1.8989359 C -29.454764,-1.3012731 -29.607108,-0.40088337 -29.607106,0.80223603 C -29.607108,2.0014579 -29.454764,2.9018476 -29.150074,3.5034079 C -28.841483,4.1010652 -28.3825,4.399893 -27.773121,4.3998923 C -27.159844,4.399893 -26.700861,4.1010652 -26.396168,3.5034079 C -26.08758,2.9018476 -25.933283,2.0014579 -25.933278,0.80223603 C -25.933283,-0.40088337 -26.08758,-1.3012731 -26.396168,-1.8989359 C -26.700861,-2.5004907 -27.159844,-2.8012716 -27.773121,-2.8012796 M -27.773121,-3.7387796 C -26.792657,-3.7387707 -26.044611,-3.3500992 -25.528981,-2.572764 C -25.009456,-1.7993195 -24.749691,-0.67432067 -24.749684,0.80223603 C -24.749691,2.2748952 -25.009456,3.399894 -25.528981,4.177236 C -26.044611,4.9506737 -26.792657,5.3373921 -27.773121,5.3373923 C -28.753593,5.3373921 -29.503592,4.9506737 -30.023121,4.177236 C -30.538747,3.399894 -30.79656,2.2748952 -30.796559,0.80223603 C -30.79656,-0.67432067 -30.538747,-1.7993195 -30.023121,-2.572764 C -29.503592,-3.3500992 -28.753593,-3.7387707 -27.773121,-3.7387796 M -20.132496,-2.8012796 C -20.741875,-2.8012716 -21.200858,-2.5004907 -21.509449,-1.8989359 C -21.814139,-1.3012731 -21.966483,-0.40088337 -21.966481,0.80223603 C -21.966483,2.0014579 -21.814139,2.9018476 -21.509449,3.5034079 C -21.200858,4.1010652 -20.741875,4.399893 -20.132496,4.3998923 C -19.519219,4.399893 -19.060236,4.1010652 -18.755543,3.5034079 C -18.446955,2.9018476 -18.292658,2.0014579 -18.292653,0.80223603 C -18.292658,-0.40088337 -18.446955,-1.3012731 -18.755543,-1.8989359 C -19.060236,-2.5004907 -19.519219,-2.8012716 -20.132496,-2.8012796 M -20.132496,-3.7387796 C -19.152032,-3.7387707 -18.403986,-3.3500992 -17.888356,-2.572764 C -17.368831,-1.7993195 -17.109066,-0.67432067 -17.109059,0.80223603 C -17.109066,2.2748952 -17.368831,3.399894 -17.888356,4.177236 C -18.403986,4.9506737 -19.152032,5.3373921 -20.132496,5.3373923 C -21.112968,5.3373921 -21.862967,4.9506737 -22.382496,4.177236 C -22.898122,3.399894 -23.155935,2.2748952 -23.155934,0.80223603 C -23.155935,-0.67432067 -22.898122,-1.7993195 -22.382496,-2.572764 C -21.862967,-3.3500992 -21.112968,-3.7387707 -20.132496,-3.7387796 M -12.491871,-2.8012796 C -13.10125,-2.8012716 -13.560233,-2.5004907 -13.868824,-1.8989359 C -14.173514,-1.3012731 -14.325858,-0.40088337 -14.325856,0.80223603 C -14.325858,2.0014579 -14.173514,2.9018476 -13.868824,3.5034079 C -13.560233,4.1010652 -13.10125,4.399893 -12.491871,4.3998923 C -11.878595,4.399893 -11.419611,4.1010652 -11.114918,3.5034079 C -10.80633,2.9018476 -10.652033,2.0014579 -10.652028,0.80223603 C -10.652033,-0.40088337 -10.80633,-1.3012731 -11.114918,-1.8989359 C -11.419611,-2.5004907 -11.878595,-2.8012716 -12.491871,-2.8012796 M -12.491871,-3.7387796 C -11.511407,-3.7387707 -10.763361,-3.3500992 -10.247731,-2.572764 C -9.7282061,-1.7993195 -9.4684407,-0.67432067 -9.4684339,0.80223603 C -9.4684407,2.2748952 -9.7282061,3.399894 -10.247731,4.177236 C -10.763361,4.9506737 -11.511407,5.3373921 -12.491871,5.3373923 C -13.472343,5.3373921 -14.222342,4.9506737 -14.741871,4.177236 C -15.257497,3.399894 -15.51531,2.2748952 -15.515309,0.80223603 C -15.51531,-0.67432067 -15.257497,-1.7993195 -14.741871,-2.572764 C -14.222342,-3.3500992 -13.472343,-3.7387707 -12.491871,-3.7387796"
         style="font-size:12px;font-style:normal;font-weight:normal;fill:#000000;fill-opacity:1;stroke:none;stroke-width:1px;stroke-linecap:butt;stroke-linejoin:miter;stroke-opacity:1;font-family:Bitstream Vera Sans" />
      <path
         style="font-size:12px;font-style:normal;font-weight:normal;fill:#000000;fill-opacity:1;stroke:none;stroke-width:1px;stroke-linecap:butt;stroke-linejoin:miter;stroke-opacity:1;font-family:Bitstream Vera Sans"
         d="M -35.413746,7.5636024 C -36.023125,7.5636104 -36.482108,7.8643913 -36.790699,8.4659461 C -37.095389,9.0636089 -37.247733,9.9639986 -37.247731,11.167118 C -37.247733,12.36634 -37.095389,13.26673 -36.790699,13.86829 C -36.482108,14.465947 -36.023125,14.764775 -35.413746,14.764774 C -34.800469,14.764775 -34.341486,14.465947 -34.036793,13.86829 C -33.728205,13.26673 -33.573908,12.36634 -33.573903,11.167118 C -33.573908,9.9639986 -33.728205,9.0636089 -34.036793,8.4659461 C -34.341486,7.8643913 -34.800469,7.5636104 -35.413746,7.5636024 M -35.413746,6.6261024 C -34.433282,6.6261113 -33.685236,7.0147828 -33.169606,7.792118 C -32.650081,8.5655625 -32.390316,9.6905613 -32.390309,11.167118 C -32.390316,12.639777 -32.650081,13.764776 -33.169606,14.542118 C -33.685236,15.315556 -34.433282,15.702274 -35.413746,15.702274 C -36.394218,15.702274 -37.144217,15.315556 -37.663746,14.542118 C -38.179372,13.764776 -38.437185,12.639777 -38.437184,11.167118 C -38.437185,9.6905613 -38.179372,8.5655625 -37.663746,7.792118 C -37.144217,7.0147828 -36.394218,6.6261113 -35.413746,6.6261024 M -27.773121,7.5636024 C -28.3825,7.5636104 -28.841483,7.8643913 -29.150074,8.4659461 C -29.454764,9.0636089 -29.607108,9.9639986 -29.607106,11.167118 C -29.607108,12.36634 -29.454764,13.26673 -29.150074,13.86829 C -28.841483,14.465947 -28.3825,14.764775 -27.773121,14.764774 C -27.159844,14.764775 -26.700861,14.465947 -26.396168,13.86829 C -26.08758,13.26673 -25.933283,12.36634 -25.933278,11.167118 C -25.933283,9.9639986 -26.08758,9.0636089 -26.396168,8.4659461 C -26.700861,7.8643913 -27.159844,7.5636104 -27.773121,7.5636024 M -27.773121,6.6261024 C -26.792657,6.6261113 -26.044611,7.0147828 -25.528981,7.792118 C -25.009456,8.5655625 -24.749691,9.6905613 -24.749684,11.167118 C -24.749691,12.639777 -25.009456,13.764776 -25.528981,14.542118 C -26.044611,15.315556 -26.792657,15.702274 -27.773121,15.702274 C -28.753593,15.702274 -29.503592,15.315556 -30.023121,14.542118 C -30.538747,13.764776 -30.79656,12.639777 -30.796559,11.167118 C -30.79656,9.6905613 -30.538747,8.5655625 -30.023121,7.792118 C -29.503592,7.0147828 -28.753593,6.6261113 -27.773121,6.6261024 M -20.132496,7.5636024 C -20.741875,7.5636104 -21.200858,7.8643913 -21.509449,8.4659461 C -21.814139,9.0636089 -21.966483,9.9639986 -21.966481,11.167118 C -21.966483,12.36634 -21.814139,13.26673 -21.509449,13.86829 C -21.200858,14.465947 -20.741875,14.764775 -20.132496,14.764774 C -19.519219,14.764775 -19.060236,14.465947 -18.755543,13.86829 C -18.446955,13.26673 -18.292658,12.36634 -18.292653,11.167118 C -18.292658,9.9639986 -18.446955,9.0636089 -18.755543,8.4659461 C -19.060236,7.8643913 -19.519219,7.5636104 -20.132496,7.5636024 M -20.132496,6.6261024 C -19.152032,6.6261113 -18.403986,7.0147828 -17.888356,7.792118 C -17.368831,8.5655625 -17.109066,9.6905613 -17.109059,11.167118 C -17.109066,12.639777 -17.368831,13.764776 -17.888356,14.542118 C -18.403986,15.315556 -19.152032,15.702274 -20.132496,15.702274 C -21.112968,15.702274 -21.862967,15.315556 -22.382496,14.542118 C -22.898122,13.764776 -23.155935,12.639777 -23.155934,11.167118 C -23.155935,9.6905613 -22.898122,8.5655625 -22.382496,7.792118 C -21.862967,7.0147828 -21.112968,6.6261113 -20.132496,6.6261024 M -12.491871,7.5636024 C -13.10125,7.5636104 -13.560233,7.8643913 -13.868824,8.4659461 C -14.173514,9.0636089 -14.325858,9.9639986 -14.325856,11.167118 C -14.325858,12.36634 -14.173514,13.26673 -13.868824,13.86829 C -13.560233,14.465947 -13.10125,14.764775 -12.491871,14.764774 C -11.878595,14.764775 -11.419611,14.465947 -11.114918,13.86829 C -10.80633,13.26673 -10.652033,12.36634 -10.652028,11.167118 C -10.652033,9.9639986 -10.80633,9.0636089 -11.114918,8.4659461 C -11.419611,7.8643913 -11.878595,7.5636104 -12.491871,7.5636024 M -12.491871,6.6261024 C -11.511407,6.6261113 -10.763361,7.0147828 -10.247731,7.792118 C -9.7282061,8.5655625 -9.4684407,9.6905613 -9.4684339,11.167118 C -9.4684407,12.639777 -9.7282061,13.764776 -10.247731,14.542118 C -10.763361,15.315556 -11.511407,15.702274 -12.491871,15.702274 C -13.472343,15.702274 -14.222342,15.315556 -14.741871,14.542118 C -15.257497,13.764776 -15.51531,12.639777 -15.515309,11.167118 C -15.51531,9.6905613 -15.257497,8.5655625 -14.741871,7.792118 C -14.222342,7.0147828 -13.472343,6.6261113 -12.491871,6.6261024"
         id="path2564" />
      <path
         style="font-size:12px;font-style:normal;font-weight:normal;fill:#000000;fill-opacity:1;stroke:none;stroke-width:1px;stroke-linecap:butt;stroke-linejoin:miter;stroke-opacity:1;font-family:Bitstream Vera Sans"
         d="M -35.413746,18.216398 C -36.023125,18.216406 -36.482108,18.517187 -36.790699,19.118741 C -37.095389,19.716404 -37.247733,20.616794 -37.247731,21.819913 C -37.247733,23.019135 -37.095389,23.919525 -36.790699,24.521085 C -36.482108,25.118743 -36.023125,25.41757 -35.413746,25.41757 C -34.800469,25.41757 -34.341486,25.118743 -34.036793,24.521085 C -33.728205,23.919525 -33.573908,23.019135 -33.573903,21.819913 C -33.573908,20.616794 -33.728205,19.716404 -34.036793,19.118741 C -34.341486,18.517187 -34.800469,18.216406 -35.413746,18.216398 M -35.413746,17.278898 C -34.433282,17.278907 -33.685236,17.667578 -33.169606,18.444913 C -32.650081,19.218358 -32.390316,20.343357 -32.390309,21.819913 C -32.390316,23.292573 -32.650081,24.417571 -33.169606,25.194913 C -33.685236,25.968351 -34.433282,26.355069 -35.413746,26.35507 C -36.394218,26.355069 -37.144217,25.968351 -37.663746,25.194913 C -38.179372,24.417571 -38.437185,23.292573 -38.437184,21.819913 C -38.437185,20.343357 -38.179372,19.218358 -37.663746,18.444913 C -37.144217,17.667578 -36.394218,17.278907 -35.413746,17.278898 M -27.773121,18.216398 C -28.3825,18.216406 -28.841483,18.517187 -29.150074,19.118741 C -29.454764,19.716404 -29.607108,20.616794 -29.607106,21.819913 C -29.607108,23.019135 -29.454764,23.919525 -29.150074,24.521085 C -28.841483,25.118743 -28.3825,25.41757 -27.773121,25.41757 C -27.159844,25.41757 -26.700861,25.118743 -26.396168,24.521085 C -26.08758,23.919525 -25.933283,23.019135 -25.933278,21.819913 C -25.933283,20.616794 -26.08758,19.716404 -26.396168,19.118741 C -26.700861,18.517187 -27.159844,18.216406 -27.773121,18.216398 M -27.773121,17.278898 C -26.792657,17.278907 -26.044611,17.667578 -25.528981,18.444913 C -25.009456,19.218358 -24.749691,20.343357 -24.749684,21.819913 C -24.749691,23.292573 -25.009456,24.417571 -25.528981,25.194913 C -26.044611,25.968351 -26.792657,26.355069 -27.773121,26.35507 C -28.753593,26.355069 -29.503592,25.968351 -30.023121,25.194913 C -30.538747,24.417571 -30.79656,23.292573 -30.796559,21.819913 C -30.79656,20.343357 -30.538747,19.218358 -30.023121,18.444913 C -29.503592,17.667578 -28.753593,17.278907 -27.773121,17.278898 M -20.132496,18.216398 C -20.741875,18.216406 -21.200858,18.517187 -21.509449,19.118741 C -21.814139,19.716404 -21.966483,20.616794 -21.966481,21.819913 C -21.966483,23.019135 -21.814139,23.919525 -21.509449,24.521085 C -21.200858,25.118743 -20.741875,25.41757 -20.132496,25.41757 C -19.519219,25.41757 -19.060236,25.118743 -18.755543,24.521085 C -18.446955,23.919525 -18.292658,23.019135 -18.292653,21.819913 C -18.292658,20.616794 -18.446955,19.716404 -18.755543,19.118741 C -19.060236,18.517187 -19.519219,18.216406 -20.132496,18.216398 M -20.132496,17.278898 C -19.152032,17.278907 -18.403986,17.667578 -17.888356,18.444913 C -17.368831,19.218358 -17.109066,20.343357 -17.109059,21.819913 C -17.109066,23.292573 -17.368831,24.417571 -17.888356,25.194913 C -18.403986,25.968351 -19.152032,26.355069 -20.132496,26.35507 C -21.112968,26.355069 -21.862967,25.968351 -22.382496,25.194913 C -22.898122,24.417571 -23.155935,23.292573 -23.155934,21.819913 C -23.155935,20.343357 -22.898122,19.218358 -22.382496,18.444913 C -21.862967,17.667578 -21.112968,17.278907 -20.132496,17.278898 M -12.491871,18.216398 C -13.10125,18.216406 -13.560233,18.517187 -13.868824,19.118741 C -14.173514,19.716404 -14.325858,20.616794 -14.325856,21.819913 C -14.325858,23.019135 -14.173514,23.919525 -13.868824,24.521085 C -13.560233,25.118743 -13.10125,25.41757 -12.491871,25.41757 C -11.878595,25.41757 -11.419611,25.118743 -11.114918,24.521085 C -10.80633,23.919525 -10.652033,23.019135 -10.652028,21.819913 C -10.652033,20.616794 -10.80633,19.716404 -11.114918,19.118741 C -11.419611,18.517187 -11.878595,18.216406 -12.491871,18.216398 M -12.491871,17.278898 C -11.511407,17.278907 -10.763361,17.667578 -10.247731,18.444913 C -9.7282061,19.218358 -9.4684407,20.343357 -9.4684339,21.819913 C -9.4684407,23.292573 -9.7282061,24.417571 -10.247731,25.194913 C -10.763361,25.968351 -11.511407,26.355069 -12.491871,26.35507 C -13.472343,26.355069 -14.222342,25.968351 -14.741871,25.194913 C -15.257497,24.417571 -15.51531,23.292573 -15.515309,21.819913 C -15.51531,20.343357 -15.257497,19.218358 -14.741871,18.444913 C -14.222342,17.667578 -13.472343,17.278907 -12.491871,17.278898"
         id="path2566" />
      <path
         id="path2568"
         d="M -35.413746,28.58128 C -36.023125,28.581288 -36.482108,28.882069 -36.790699,29.483623 C -37.095389,30.081286 -37.247733,30.981676 -37.247731,32.184795 C -37.247733,33.384017 -37.095389,34.284407 -36.790699,34.885967 C -36.482108,35.483624 -36.023125,35.782452 -35.413746,35.782451 C -34.800469,35.782452 -34.341486,35.483624 -34.036793,34.885967 C -33.728205,34.284407 -33.573908,33.384017 -33.573903,32.184795 C -33.573908,30.981676 -33.728205,30.081286 -34.036793,29.483623 C -34.341486,28.882069 -34.800469,28.581288 -35.413746,28.58128 M -35.413746,27.64378 C -34.433282,27.643789 -33.685236,28.03246 -33.169606,28.809795 C -32.650081,29.58324 -32.390316,30.708239 -32.390309,32.184795 C -32.390316,33.657454 -32.650081,34.782453 -33.169606,35.559795 C -33.685236,36.333233 -34.433282,36.719951 -35.413746,36.719951 C -36.394218,36.719951 -37.144217,36.333233 -37.663746,35.559795 C -38.179372,34.782453 -38.437185,33.657454 -38.437184,32.184795 C -38.437185,30.708239 -38.179372,29.58324 -37.663746,28.809795 C -37.144217,28.03246 -36.394218,27.643789 -35.413746,27.64378 M -27.773121,28.58128 C -28.3825,28.581288 -28.841483,28.882069 -29.150074,29.483623 C -29.454764,30.081286 -29.607108,30.981676 -29.607106,32.184795 C -29.607108,33.384017 -29.454764,34.284407 -29.150074,34.885967 C -28.841483,35.483624 -28.3825,35.782452 -27.773121,35.782451 C -27.159844,35.782452 -26.700861,35.483624 -26.396168,34.885967 C -26.08758,34.284407 -25.933283,33.384017 -25.933278,32.184795 C -25.933283,30.981676 -26.08758,30.081286 -26.396168,29.483623 C -26.700861,28.882069 -27.159844,28.581288 -27.773121,28.58128 M -27.773121,27.64378 C -26.792657,27.643789 -26.044611,28.03246 -25.528981,28.809795 C -25.009456,29.58324 -24.749691,30.708239 -24.749684,32.184795 C -24.749691,33.657454 -25.009456,34.782453 -25.528981,35.559795 C -26.044611,36.333233 -26.792657,36.719951 -27.773121,36.719951 C -28.753593,36.719951 -29.503592,36.333233 -30.023121,35.559795 C -30.538747,34.782453 -30.79656,33.657454 -30.796559,32.184795 C -30.79656,30.708239 -30.538747,29.58324 -30.023121,28.809795 C -29.503592,28.03246 -28.753593,27.643789 -27.773121,27.64378 M -20.132496,28.58128 C -20.741875,28.581288 -21.200858,28.882069 -21.509449,29.483623 C -21.814139,30.081286 -21.966483,30.981676 -21.966481,32.184795 C -21.966483,33.384017 -21.814139,34.284407 -21.509449,34.885967 C -21.200858,35.483624 -20.741875,35.782452 -20.132496,35.782451 C -19.519219,35.782452 -19.060236,35.483624 -18.755543,34.885967 C -18.446955,34.284407 -18.292658,33.384017 -18.292653,32.184795 C -18.292658,30.981676 -18.446955,30.081286 -18.755543,29.483623 C -19.060236,28.882069 -19.519219,28.581288 -20.132496,28.58128 M -20.132496,27.64378 C -19.152032,27.643789 -18.403986,28.03246 -17.888356,28.809795 C -17.368831,29.58324 -17.109066,30.708239 -17.109059,32.184795 C -17.109066,33.657454 -17.368831,34.782453 -17.888356,35.559795 C -18.403986,36.333233 -19.152032,36.719951 -20.132496,36.719951 C -21.112968,36.719951 -21.862967,36.333233 -22.382496,35.559795 C -22.898122,34.782453 -23.155935,33.657454 -23.155934,32.184795 C -23.155935,30.708239 -22.898122,29.58324 -22.382496,28.809795 C -21.862967,28.03246 -21.112968,27.643789 -20.132496,27.64378 M -12.491871,28.58128 C -13.10125,28.581288 -13.560233,28.882069 -13.868824,29.483623 C -14.173514,30.081286 -14.325858,30.981676 -14.325856,32.184795 C -14.325858,33.384017 -14.173514,34.284407 -13.868824,34.885967 C -13.560233,35.483624 -13.10125,35.782452 -12.491871,35.782451 C -11.878595,35.782452 -11.419611,35.483624 -11.114918,34.885967 C -10.80633,34.284407 -10.652033,33.384017 -10.652028,32.184795 C -10.652033,30.981676 -10.80633,30.081286 -11.114918,29.483623 C -11.419611,28.882069 -11.878595,28.581288 -12.491871,28.58128 M -12.491871,27.64378 C -11.511407,27.643789 -10.763361,28.03246 -10.247731,28.809795 C -9.7282061,29.58324 -9.4684407,30.708239 -9.4684339,32.184795 C -9.4684407,33.657454 -9.7282061,34.782453 -10.247731,35.559795 C -10.763361,36.333233 -11.511407,36.719951 -12.491871,36.719951 C -13.472343,36.719951 -14.222342,36.333233 -14.741871,35.559795 C -15.257497,34.782453 -15.51531,33.657454 -15.515309,32.184795 C -15.51531,30.708239 -15.257497,29.58324 -14.741871,28.809795 C -14.222342,28.03246 -13.472343,27.643789 -12.491871,27.64378"
         style="font-size:12px;font-style:normal;font-weight:normal;fill:#000000;fill-opacity:1;stroke:none;stroke-width:1px;stroke-linecap:butt;stroke-linejoin:miter;stroke-opacity:1;font-family:Bitstream Vera Sans" />
    </g>
  </g>
</svg>
