<?xml version="1.0"?>
<svg xmlns:sodipodi="http://sodipodi.sourceforge.net/DTD/sodipodi-0.dtd" xmlns:inkscape="http://www.inkscape.org/namespaces/inkscape" width="24.000000pt" height="24.000000pt" id="svg9760" sodipodi:version="0.32" inkscape:version="0.40pre3" sodipodi:docbase="/lethe/arsgratia/k3d-icons/scalable_unfixed" sodipodi:docname="Transform.svg" preserveAspectRatio="xMidYMid meet" zoomAndPan="magnify" version="1.0" contentScriptType="text/ecmascript" contentStyleType="text/css">
  <defs id="defs3">
    <linearGradient id="linearGradient1904">
      <stop style="stop-color:#b8b7b3;stop-opacity:1.0000000;" offset="0.0000000" id="stop1905"></stop>
      <stop style="stop-color:#807d74;stop-opacity:1.0000000;" offset="1.0000000" id="stop1906"></stop>
    </linearGradient>
    <linearGradient inkscape:collect="always" id="linearGradient9741" gradientUnits="userSpaceOnUse" gradientTransform="matrix(1.069815,0.000000,0.000000,0.934741,2.444282,-4.300117)" x1="1.5578442" y1="20.978584" x2="20.319031" y2="20.978584"><stop style="stop-color:#b8b7b3;stop-opacity:1.0000000;" offset="0.0000000" id="stop1905linearGradient9741"/><stop style="stop-color:#807d74;stop-opacity:1.0000000;" offset="1.0000000" id="stop1906linearGradient9741"/></linearGradient>
  </defs>
  <sodipodi:namedview id="base" pagecolor="#ffffff" bordercolor="#666666" borderopacity="1.0" inkscape:pageopacity="0.0" inkscape:pageshadow="2" inkscape:zoom="13.893067" inkscape:cx="13.128347" inkscape:cy="10.640800" inkscape:current-layer="layer1" inkscape:window-width="640" inkscape:window-height="530" inkscape:window-x="0" inkscape:window-y="47"></sodipodi:namedview>
  <metadata id="metadata4">
    <rdf:RDF xmlns:rdf="http://www.w3.org/1999/02/22-rdf-syntax-ns#" id="RDF5">
      <cc:Work xmlns:cc="http://web.resource.org/cc/" rdf:about="" id="Work6">
        <dc:format xmlns:dc="http://purl.org/dc/elements/1.1/" id="format7">image/svg+xml</dc:format>
        <dc:type xmlns:dc="http://purl.org/dc/elements/1.1/" id="type9" rdf:resource="http://purl.org/dc/dcmitype/StillImage"></dc:type>
      </cc:Work>
    </rdf:RDF>
  </metadata>
  <g inkscape:label="Layer 1" inkscape:groupmode="layer" id="layer1">
    <g id="g10302">
      <g id="g10027" transform="translate(334.1858,-204.9477)">
        <path style="fill:#bab5ab;stroke:#000000;stroke-width:1.6491390;stroke-linecap:square;stroke-linejoin:bevel;stroke-miterlimit:4.0000000;stroke-dashoffset:0.0000000" d="M 44.738081,32.591033 L 57.487393,39.727613 L 57.487393,53.433392 L 45.748003,45.479248 L 44.738081,32.591033 z " id="path10011" sodipodi:nodetypes="ccccc" transform="matrix(0.606377,0.000000,0.000000,0.606377,-353.3214,194.8994)"></path>
        <path style="fill:#bab5ab;stroke:#000000;stroke-width:1.6491390;stroke-linecap:square;stroke-linejoin:bevel;stroke-miterlimit:4.0000000;stroke-dashoffset:0.0000000" d="M 57.764203,39.801420 L 69.912763,33.621586 L 68.897901,45.643866 L 57.786398,53.910593 L 57.764203,39.801420 z " id="path10012" sodipodi:nodetypes="ccccc" transform="matrix(0.606377,0.000000,0.000000,0.606377,-353.3214,194.8994)"></path>
        <path style="fill:#bab5ab;stroke:#000000;stroke-width:1.6491390;stroke-linecap:square;stroke-linejoin:bevel;stroke-miterlimit:4.0000000;stroke-dashoffset:0.0000000" d="M -76.639263,201.91183 L -62.714583,206.09767 L -75.096800,211.74933 L -88.271528,204.93045 L -76.639263,201.91183 z " id="path10013" sodipodi:nodetypes="ccccc" transform="matrix(0.606377,0.000000,0.000000,0.606377,-272.7347,90.47990)"></path>
      </g>
      <g id="g9988" transform="matrix(0.866025,0.500000,-0.500000,0.866025,53.45500,-51.18620)">
        <path style="fill:#990000;fill-opacity:1.0000000;fill-rule:evenodd;stroke:none;stroke-width:0.25000000pt;stroke-linecap:butt;stroke-linejoin:miter;stroke-opacity:1.0000000" d="M 6.6244555,72.215952 L 15.003284,75.946795 L 10.008800,80.210112 L 6.6244555,72.215952 z " id="path9989" sodipodi:nodetypes="cccc"></path>
        <path style="fill:#990000;fill-opacity:1.0000000;fill-rule:nonzero;stroke:none;stroke-width:2.5000000;stroke-linecap:square;stroke-linejoin:miter;stroke-miterlimit:4.0000000;stroke-dashoffset:0.0000000;stroke-opacity:1.0000000" d="M 9.3933505,76.091049 L 9.3298935,77.741447 C 9.3211175,77.691191 12.813904,78.139009 12.813904,79.341894 C 12.813904,81.672951 7.5030405,84.345682 0.023018468,84.345682 C -7.4570185,84.345682 -13.021719,81.609487 -13.021719,79.278437 C -13.021719,78.162850 -9.7317495,77.722899 -9.8093875,77.787741 L -9.7459305,76.148787 C -11.986982,76.454376 -14.552714,77.837165 -14.552714,79.636808 C -14.552714,83.040890 -10.658775,86.864371 -0.016024532,86.864371 C 10.690070,86.864371 14.280668,83.040890 14.280668,79.636808 C 14.280668,77.801156 12.881392,76.652844 9.3933505,76.091049 z " id="path9990" sodipodi:nodetypes="cccccccczcc"></path>
        <path style="fill:#990000;fill-opacity:1.0000000;fill-rule:evenodd;stroke:none;stroke-width:0.25000000pt;stroke-linecap:butt;stroke-linejoin:miter;stroke-opacity:1.0000000" d="M -6.6244555,72.011916 L -15.003285,75.742759 L -10.008801,80.006076 L -6.6244555,72.011916 z " id="path9991" sodipodi:nodetypes="cccc"></path>
      </g>
      <g id="g9992" transform="matrix(-0.797963,0.602706,0.602706,0.797963,34.90212,-22.27987)">
        <path style="fill:#990000;fill-opacity:1.0000000;fill-rule:evenodd;stroke:none;stroke-width:0.25000000pt;stroke-linecap:butt;stroke-linejoin:miter;stroke-opacity:1.0000000" d="M 18.195367,15.210356 L 26.433617,12.000747 L 26.385410,18.567209 L 18.195367,15.210356 z " id="path9993" sodipodi:nodetypes="cccc"></path>
        <path style="fill:none;fill-opacity:0.75000000;fill-rule:evenodd;stroke:#990000;stroke-width:2.5000000;stroke-linecap:butt;stroke-linejoin:miter;stroke-miterlimit:4.0000000;stroke-opacity:1.0000000" d="M 25.873269,15.091611 L 30.201511,15.091611" id="path9994"></path>
      </g>
    </g>
  </g>
</svg>
