<?xml version="1.0"?>
<svg xmlns:sodipodi="http://sodipodi.sourceforge.net/DTD/sodipodi-0.dtd" xmlns:inkscape="http://www.inkscape.org/namespaces/inkscape" width="24.000000pt" height="24.000000pt" id="svg4770" sodipodi:version="0.32" inkscape:version="0.40pre3" sodipodi:docbase="/lethe/arsgratia/k3d-icons/scalable_unfixed" sodipodi:docname="vertex.svg" preserveAspectRatio="xMidYMid meet" zoomAndPan="magnify" version="1.0" contentScriptType="text/ecmascript" contentStyleType="text/css">
  <defs id="defs3">
    <linearGradient id="linearGradient12426">
      <stop style="stop-color:#eae8e3;stop-opacity:1.0000000;" offset="0.0000000" id="stop12427"></stop>
      <stop style="stop-color:#807d74;stop-opacity:1.0000000;" offset="1.0000000" id="stop12428"></stop>
    </linearGradient>
    <linearGradient inkscape:collect="always" id="linearGradient4787" gradientUnits="userSpaceOnUse" gradientTransform="scale(1.075664,0.929658)" x1="12.729933" y1="5.6810675" x2="17.816595" y2="19.925369"><stop style="stop-color:#eae8e3;stop-opacity:1.0000000;" offset="0.0000000" id="stop12427linearGradient4787"/><stop style="stop-color:#807d74;stop-opacity:1.0000000;" offset="1.0000000" id="stop12428linearGradient4787"/></linearGradient>
  </defs>
  <sodipodi:namedview id="base" pagecolor="#ffffff" bordercolor="#666666" borderopacity="1.0" inkscape:pageopacity="0.0" inkscape:pageshadow="2" inkscape:zoom="6.9465337" inkscape:cx="13.109425" inkscape:cy="24.226178" inkscape:current-layer="layer1" inkscape:window-width="640" inkscape:window-height="530" inkscape:window-x="0" inkscape:window-y="47"></sodipodi:namedview>
  <metadata id="metadata4">
    <rdf:RDF xmlns:rdf="http://www.w3.org/1999/02/22-rdf-syntax-ns#" id="RDF5">
      <cc:Work xmlns:cc="http://web.resource.org/cc/" rdf:about="" id="Work6">
        <dc:format xmlns:dc="http://purl.org/dc/elements/1.1/" id="format7">image/svg+xml</dc:format>
        <dc:type xmlns:dc="http://purl.org/dc/elements/1.1/" id="type9" rdf:resource="http://purl.org/dc/dcmitype/StillImage"></dc:type>
      </cc:Work>
    </rdf:RDF>
  </metadata>
  <g inkscape:label="Layer 1" inkscape:groupmode="layer" id="layer1">
    <g id="g5990" transform="translate(183.5124,-468.7739)">
      <g id="g6101" transform="translate(-93.37593,270.7986)">
        <path style="fill:#bab5ab;stroke:#000000;stroke-linecap:square;stroke-linejoin:bevel;stroke-dashoffset:0.0000000" d="M 44.738081,32.591033 L 57.487393,39.727613 L 57.487393,53.433392 L 45.748003,45.479248 L 44.738081,32.591033 z " id="path6102" sodipodi:nodetypes="ccccc" transform="translate(-132.8988,172.2025)"></path>
        <path style="fill:#bab5ab;stroke:#000000;stroke-width:1.2125000;stroke-linecap:square;stroke-linejoin:bevel;stroke-dashoffset:0.0000000" d="M 57.764203,39.801420 L 69.912763,33.621586 L 68.897901,45.643866 L 57.786398,53.910593 L 57.764203,39.801420 z " id="path6103" sodipodi:nodetypes="ccccc" transform="translate(-132.8988,172.2025)"></path>
        <path style="fill:#bab5ab;stroke:#000000;stroke-linecap:square;stroke-linejoin:bevel;stroke-dashoffset:0.0000000" d="M -76.639263,201.91183 L -62.714583,206.09767 L -75.096800,211.74933 L -88.271528,204.93045 L -76.639263,201.91183 z " id="path6104" sodipodi:nodetypes="ccccc"></path>
      </g>
      <path sodipodi:type="arc" style="fill:#000000;fill-opacity:1.0000000;fill-rule:nonzero;stroke:#807d74;stroke-width:0.0000000;stroke-linecap:square;stroke-linejoin:bevel;stroke-miterlimit:4.0000000;stroke-dashoffset:0.0000000;stroke-opacity:1.0000000" id="path6105" sodipodi:cx="-96.605515" sodipodi:cy="-87.276924" sodipodi:rx="3.4174511" sodipodi:ry="3.4174511" d="M -93.188063 -87.276924 A 3.4174511 3.4174511 0 1 1  -100.02297,-87.276924 A 3.4174511 3.4174511 0 1 1  -93.188063 -87.276924 z" transform="matrix(0.496913,0.000000,0.000000,0.496913,-122.0921,515.9572)"></path>
      <path sodipodi:type="arc" style="fill:#000000;fill-opacity:1.0000000;fill-rule:nonzero;stroke:#807d74;stroke-width:0.0000000;stroke-linecap:square;stroke-linejoin:bevel;stroke-miterlimit:4.0000000;stroke-dashoffset:0.0000000;stroke-opacity:1.0000000" id="path6106" sodipodi:cx="-96.605515" sodipodi:cy="-87.276924" sodipodi:rx="3.4174511" sodipodi:ry="3.4174511" d="M -93.188063 -87.276924 A 3.4174511 3.4174511 0 1 1  -100.02297,-87.276924 A 3.4174511 3.4174511 0 1 1  -93.188063 -87.276924 z" transform="matrix(0.496913,0.000000,0.000000,0.496913,-133.0042,518.9580)"></path>
      <path sodipodi:type="arc" style="fill:#000000;fill-opacity:1.0000000;fill-rule:nonzero;stroke:#807d74;stroke-width:0.0000000;stroke-linecap:square;stroke-linejoin:bevel;stroke-miterlimit:4.0000000;stroke-dashoffset:0.0000000;stroke-opacity:1.0000000" id="path6107" sodipodi:cx="-96.605515" sodipodi:cy="-87.276924" sodipodi:rx="3.4174511" sodipodi:ry="3.4174511" d="M -93.188063 -87.276924 A 3.4174511 3.4174511 0 1 1  -100.02297,-87.276924 A 3.4174511 3.4174511 0 1 1  -93.188063 -87.276924 z" transform="matrix(0.496913,0.000000,0.000000,0.496913,-132.3222,531.7798)"></path>
      <path sodipodi:type="arc" style="fill:#df421e;fill-opacity:1.0000000;fill-rule:nonzero;stroke:#807d74;stroke-width:0.0000000;stroke-linecap:square;stroke-linejoin:bevel;stroke-miterlimit:4.0000000;stroke-dashoffset:0.0000000;stroke-opacity:1.0000000" id="path6108" sodipodi:cx="-96.605515" sodipodi:cy="-87.276924" sodipodi:rx="3.4174511" sodipodi:ry="3.4174511" d="M -93.188063 -87.276924 A 3.4174511 3.4174511 0 1 1  -100.02297,-87.276924 A 3.4174511 3.4174511 0 1 1  -93.188063 -87.276924 z" transform="matrix(1.145505,0.000000,0.000000,1.145505,-47.33953,576.9448)"></path>
      <path sodipodi:type="arc" style="fill:#df421e;fill-opacity:1.0000000;fill-rule:nonzero;stroke:#807d74;stroke-width:0.0000000;stroke-linecap:square;stroke-linejoin:bevel;stroke-miterlimit:4.0000000;stroke-dashoffset:0.0000000;stroke-opacity:1.0000000" id="path6109" sodipodi:cx="-96.605515" sodipodi:cy="-87.276924" sodipodi:rx="3.4174511" sodipodi:ry="3.4174511" d="M -93.188063 -87.276924 A 3.4174511 3.4174511 0 1 1  -100.02297,-87.276924 A 3.4174511 3.4174511 0 1 1  -93.188063 -87.276924 z" transform="matrix(1.145505,0.000000,0.000000,1.145505,-58.33969,582.1481)"></path>
      <path sodipodi:type="arc" style="fill:#df421e;fill-opacity:1.0000000;fill-rule:nonzero;stroke:#807d74;stroke-width:0.0000000;stroke-linecap:square;stroke-linejoin:bevel;stroke-miterlimit:4.0000000;stroke-dashoffset:0.0000000;stroke-opacity:1.0000000" id="path6110" sodipodi:cx="-96.605515" sodipodi:cy="-87.276924" sodipodi:rx="3.4174511" sodipodi:ry="3.4174511" d="M -93.188063 -87.276924 A 3.4174511 3.4174511 0 1 1  -100.02297,-87.276924 A 3.4174511 3.4174511 0 1 1  -93.188063 -87.276924 z" transform="matrix(1.145505,0.000000,0.000000,1.145505,-57.38487,594.2878)"></path>
      <path sodipodi:type="arc" style="fill:#df421e;fill-opacity:1.0000000;fill-rule:nonzero;stroke:#807d74;stroke-width:0.0000000;stroke-linecap:square;stroke-linejoin:bevel;stroke-miterlimit:4.0000000;stroke-dashoffset:0.0000000;stroke-opacity:1.0000000" id="path6111" sodipodi:cx="-96.605515" sodipodi:cy="-87.276924" sodipodi:rx="3.4174511" sodipodi:ry="3.4174511" d="M -93.188063 -87.276924 A 3.4174511 3.4174511 0 1 1  -100.02297,-87.276924 A 3.4174511 3.4174511 0 1 1  -93.188063 -87.276924 z" transform="matrix(1.145505,0.000000,0.000000,1.145505,-47.70034,587.1949)"></path>
    </g>
  </g>
</svg>
