<?xml version="1.0" encoding="UTF-8" standalone="no"?>
<svg
   xmlns:dc="http://purl.org/dc/elements/1.1/"
   xmlns:cc="http://web.resource.org/cc/"
   xmlns:rdf="http://www.w3.org/1999/02/22-rdf-syntax-ns#"
   xmlns:svg="http://www.w3.org/2000/svg"
   xmlns="http://www.w3.org/2000/svg"
   xmlns:sodipodi="http://inkscape.sourceforge.net/DTD/sodipodi-0.dtd"
   xmlns:inkscape="http://www.inkscape.org/namespaces/inkscape"
   width="24.000000pt"
   height="24.000000pt"
   id="svg4046"
   sodipodi:version="0.32"
   inkscape:version="0.43"
   sodipodi:docbase="I:\ArtWorks\K3d_Tests\Dev_Notes\Icons"
   sodipodi:docname="BlobbySegment.svg"
   preserveAspectRatio="xMidYMid meet"
   zoomAndPan="magnify"
   version="1.0"
   contentScriptType="text/ecmascript"
   contentStyleType="text/css"
   inkscape:export-filename="I:\ArtWorks\K3d_Tests\Dev_Notes\Icons\BlobbyEllipsoid.png"
   inkscape:export-xdpi="90"
   inkscape:export-ydpi="90">
  <defs
     id="defs3" />
  <sodipodi:namedview
     id="base"
     pagecolor="#ffffff"
     bordercolor="#666666"
     borderopacity="1.0"
     inkscape:pageopacity="0.0"
     inkscape:pageshadow="2"
     inkscape:zoom="13.893067"
     inkscape:cx="14.212775"
     inkscape:cy="12.035718"
     inkscape:current-layer="layer1"
     inkscape:window-width="1680"
     inkscape:window-height="1035"
     inkscape:window-x="-4"
     inkscape:window-y="-4"
     showguides="true"
     inkscape:guide-bbox="true" />
  <metadata
     id="metadata4">
    <rdf:RDF>
      <cc:Work
         rdf:about="">
        <dc:format>image/svg+xml</dc:format>
        <dc:type
           rdf:resource="http://purl.org/dc/dcmitype/StillImage" />
      </cc:Work>
    </rdf:RDF>
  </metadata>
  <g
     inkscape:label="Layer 1"
     inkscape:groupmode="layer"
     id="layer1">
    <g
       id="g2571"
       transform="matrix(0.930193,0.893236,-0.882129,0.941905,21.26468,-5.575413)">
      <g
         id="g2555">
        <path
           style="fill:none;fill-opacity:1;fill-rule:evenodd;stroke:#000000;stroke-width:0.77519274;stroke-linecap:butt;stroke-linejoin:miter;stroke-miterlimit:4;stroke-dashoffset:0;stroke-opacity:1"
           d="M 1.3948923,15.377576 C 1.3973519,14.008921 1.4841127,12.61611 1.6636738,11.238182 C 2.6250952,3.860368 5.8846748,-0.31070409 8.9395229,1.9277517 C 11.441758,3.7612777 13.034324,9.3292329 13.000263,15.338241"
           id="path2487" />
        <path
           id="path2549"
           d="M 3.6335573,15.048839 C 3.6350986,13.954494 3.6894649,12.840835 3.8019821,11.739076 C 4.4044312,5.8399479 6.4469598,2.5048559 8.3611989,4.2946729 C 9.9291579,5.7607177 10.927096,10.212725 10.905753,15.017388"
           style="fill:none;fill-opacity:1;fill-rule:evenodd;stroke:#000000;stroke-width:0.77519286;stroke-linecap:butt;stroke-linejoin:miter;stroke-miterlimit:4;stroke-dashoffset:0;stroke-opacity:1" />
        <path
           style="fill:none;fill-opacity:1;fill-rule:evenodd;stroke:#000000;stroke-width:0.77519292;stroke-linecap:butt;stroke-linejoin:miter;stroke-miterlimit:4;stroke-dashoffset:0;stroke-opacity:1"
           d="M 5.6070594,15.053975 C 5.6077642,14.281061 5.6326244,13.494508 5.6840755,12.716359 C 5.9595594,8.5499316 6.8935528,6.1944276 7.768883,7.458537 C 8.4858686,8.493973 8.9421988,11.638331 8.9324393,15.031761"
           id="path2551" />
        <path
           style="fill:none;fill-opacity:0.75;fill-rule:evenodd;stroke:#b20000;stroke-width:0.77519327px;stroke-linecap:butt;stroke-linejoin:miter;stroke-opacity:1"
           d="M 7.1258564,9.6301277 L 7.1258564,15.100483"
           id="path2553" />
      </g>
      <g
         transform="matrix(1,0,0,-1,0,29.80079)"
         id="g2561">
        <path
           id="path2563"
           d="M 1.3948923,15.377576 C 1.3973519,14.008921 1.4841127,12.61611 1.6636738,11.238182 C 2.6250952,3.860368 5.8846748,-0.31070409 8.9395229,1.9277517 C 11.441758,3.7612777 13.034324,9.3292329 13.000263,15.338241"
           style="fill:none;fill-opacity:1;fill-rule:evenodd;stroke:#000000;stroke-width:0.77519274;stroke-linecap:butt;stroke-linejoin:miter;stroke-miterlimit:4;stroke-dashoffset:0;stroke-opacity:1" />
        <path
           style="fill:none;fill-opacity:1;fill-rule:evenodd;stroke:#000000;stroke-width:0.77519286;stroke-linecap:butt;stroke-linejoin:miter;stroke-miterlimit:4;stroke-dashoffset:0;stroke-opacity:1"
           d="M 3.6335573,15.048839 C 3.6350986,13.954494 3.6894649,12.840835 3.8019821,11.739076 C 4.4044312,5.8399479 6.4469598,2.5048559 8.3611989,4.2946729 C 9.9291579,5.7607177 10.927096,10.212725 10.905753,15.017388"
           id="path2565" />
        <path
           id="path2567"
           d="M 5.6070594,15.053975 C 5.6077642,14.281061 5.6326244,13.494508 5.6840755,12.716359 C 5.9595594,8.5499316 6.8935528,6.1944276 7.768883,7.458537 C 8.4858686,8.493973 8.9421988,11.638331 8.9324393,15.031761"
           style="fill:none;fill-opacity:1;fill-rule:evenodd;stroke:#000000;stroke-width:0.77519292;stroke-linecap:butt;stroke-linejoin:miter;stroke-miterlimit:4;stroke-dashoffset:0;stroke-opacity:1" />
        <path
           id="path2569"
           d="M 7.1258564,9.6301277 L 7.1258564,15.100483"
           style="fill:none;fill-opacity:0.75;fill-rule:evenodd;stroke:#b20000;stroke-width:0.77519327px;stroke-linecap:butt;stroke-linejoin:miter;stroke-opacity:1" />
      </g>
    </g>
  </g>
</svg>
