<?xml version="1.0"?>
<svg xmlns:sodipodi="http://sodipodi.sourceforge.net/DTD/sodipodi-0.dtd" xmlns:inkscape="http://www.inkscape.org/namespaces/inkscape" width="24.000000pt" height="24.000000pt" id="svg10352" sodipodi:version="0.32" inkscape:version="0.40pre3" sodipodi:docbase="/lethe/arsgratia/k3d-icons/scalable_unfixed" sodipodi:docname="GraphVizEngine.svg" preserveAspectRatio="xMidYMid meet" zoomAndPan="magnify" version="1.0" contentScriptType="text/ecmascript" contentStyleType="text/css">
  <defs id="defs3"></defs>
  <sodipodi:namedview id="base" pagecolor="#ffffff" bordercolor="#666666" borderopacity="1.0" inkscape:pageopacity="0.0" inkscape:pageshadow="2" inkscape:zoom="4.9119411" inkscape:cx="16.988135" inkscape:cy="14.108933" inkscape:current-layer="layer1" inkscape:window-width="640" inkscape:window-height="530" inkscape:window-x="0" inkscape:window-y="47"></sodipodi:namedview>
  <metadata id="metadata4">
    <rdf:RDF xmlns:rdf="http://www.w3.org/1999/02/22-rdf-syntax-ns#" id="RDF5">
      <cc:Work xmlns:cc="http://web.resource.org/cc/" rdf:about="" id="Work6">
        <dc:format xmlns:dc="http://purl.org/dc/elements/1.1/" id="format7">image/svg+xml</dc:format>
        <dc:type xmlns:dc="http://purl.org/dc/elements/1.1/" id="type9" rdf:resource="http://purl.org/dc/dcmitype/StillImage"></dc:type>
      </cc:Work>
    </rdf:RDF>
  </metadata>
  <g inkscape:label="Layer 1" inkscape:groupmode="layer" id="layer1">
    <g id="g10403" transform="translate(-0.119158,0.646130)">
      <path style="fill:#bab5ab;fill-opacity:1.0000000;fill-rule:nonzero;stroke:#000000;stroke-width:1.0000000;stroke-linecap:square;stroke-linejoin:bevel;stroke-miterlimit:4.0000000;stroke-dashoffset:0.0000000;stroke-opacity:1.0000000" d="M 25.510472,1.2682597 C 22.795903,0.13915984 24.241374,3.5723461 21.302249,3.6451258 C 18.837149,3.7061672 19.861385,-0.031602457 17.902881,1.4666318 C 15.567769,3.2529671 19.270960,3.6991741 17.864426,6.2809202 C 16.684740,8.4462800 13.969846,5.6947956 14.288102,8.1400278 C 14.667558,11.055463 16.890801,8.0816459 18.423392,10.590612 C 19.708804,12.694930 15.969673,13.681215 18.246434,14.628213 C 20.961003,15.757313 19.491714,12.313469 22.430837,12.240690 C 24.895937,12.179647 23.871701,15.917417 25.830204,14.419183 C 28.165318,12.632848 24.485947,12.197299 25.892480,9.6155534 C 27.072167,7.4501940 29.787060,10.201677 29.468804,7.7564465 C 29.089349,4.8410106 26.866105,7.8148284 25.333515,5.3058615 C 24.048102,3.2015427 27.787232,2.2152572 25.510472,1.2682597 z M 23.036066,5.3928916 C 24.497041,6.0465642 25.150778,7.7589676 24.497106,9.2199424 C 23.843433,10.680914 22.131031,11.334654 20.670056,10.680980 C 19.209082,10.027309 18.555344,8.3149054 19.209017,6.8539317 C 19.862688,5.3929569 21.575093,4.7392192 23.036066,5.3928916 z " id="path10393"></path>
      <path style="fill:#bab5ab;fill-opacity:1.0000000;fill-rule:nonzero;stroke:#000000;stroke-width:1.0000000;stroke-linecap:square;stroke-linejoin:bevel;stroke-miterlimit:4.0000000;stroke-dashoffset:0.0000000;stroke-opacity:1.0000000" d="M 11.077734,7.9239251 C 7.7320819,8.0576681 11.519625,9.8727171 8.4214839,11.142675 C 5.3233419,12.412633 6.7109339,8.4521791 4.2339839,10.705175 C 1.7570339,12.958172 5.8222359,11.928384 4.2652339,14.892675 C 2.7082329,17.856966 1.2769889,13.918376 0.82773392,17.236425 C 0.37847892,20.554474 2.8025559,17.152324 3.5152339,20.423925 C 4.2279109,23.695525 0.60158292,21.624627 2.3902339,24.455175 C 4.1788849,27.285723 3.8663469,23.094584 6.5152339,25.142675 C 9.1641209,27.190766 5.0443569,27.936572 8.2339839,28.955175 C 11.423612,29.973778 8.4820819,26.963918 11.827734,26.830175 C 15.173386,26.696432 12.479594,29.943883 15.577734,28.673925 C 18.675876,27.403967 14.507034,26.989422 16.983984,24.736425 C 19.460934,22.483428 19.489483,26.669467 21.046484,23.705175 C 22.603485,20.740884 19.128480,23.116974 19.577734,19.798925 C 20.026989,16.480876 22.759162,19.664276 22.046484,16.392675 C 21.333807,13.121075 20.178883,17.160724 18.390234,14.330175 C 16.601583,11.499626 20.757870,12.222015 18.108984,10.173925 C 15.460097,8.1258341 17.173612,11.942529 13.983984,10.923925 C 10.794356,9.9053221 14.423387,7.7901821 11.077734,7.9239251 z M 11.733984,13.080175 C 14.896322,13.080174 17.452734,15.586880 17.452734,18.673925 C 17.452735,21.760970 14.896323,24.267675 11.733984,24.267675 C 8.5716449,24.267675 6.0152339,21.760970 6.0152339,18.673925 C 6.0152329,15.586880 8.5716449,13.080175 11.733984,13.080175 z " id="path10400"></path>
    </g>
  </g>
</svg>
