<?xml version="1.0"?>
<svg xmlns:sodipodi="http://sodipodi.sourceforge.net/DTD/sodipodi-0.dtd" xmlns:inkscape="http://www.inkscape.org/namespaces/inkscape" width="24.000000pt" height="24.000000pt" id="svg10039" sodipodi:version="0.32" inkscape:version="0.40pre3" sodipodi:docbase="/lethe/arsgratia/k3d-icons/scalable_fix" sodipodi:docname="Array1D.svg" preserveAspectRatio="xMidYMid meet" zoomAndPan="magnify" version="1.0" contentScriptType="text/ecmascript" contentStyleType="text/css">
  <defs id="defs3"></defs>
  <sodipodi:namedview id="base" pagecolor="#ffffff" bordercolor="#666666" borderopacity="1.0" inkscape:pageopacity="0.0" inkscape:pageshadow="2" inkscape:zoom="13.893067" inkscape:cx="15.599584" inkscape:cy="11.563652" inkscape:current-layer="layer1" inkscape:window-width="640" inkscape:window-height="530" inkscape:window-x="0" inkscape:window-y="47"></sodipodi:namedview>
  <metadata id="metadata4">
    <rdf:RDF xmlns:rdf="http://www.w3.org/1999/02/22-rdf-syntax-ns#" id="RDF5">
      <cc:Work xmlns:cc="http://web.resource.org/cc/" rdf:about="" id="Work6">
        <dc:format xmlns:dc="http://purl.org/dc/elements/1.1/" id="format7">image/svg+xml</dc:format>
        <dc:type xmlns:dc="http://purl.org/dc/elements/1.1/" id="type9" rdf:resource="http://purl.org/dc/dcmitype/StillImage"></dc:type>
      </cc:Work>
    </rdf:RDF>
  </metadata>
  <g inkscape:label="Layer 1" inkscape:groupmode="layer" id="layer1">
    <g id="g3374" transform="translate(-0.150962,-2.191088e-2)">
      <path sodipodi:type="arc" style="fill:#990000;stroke:#000000;stroke-width:2.1161976;stroke-linecap:square;stroke-linejoin:bevel;stroke-dashoffset:0.0000000" id="path3299" sodipodi:cx="14.213105" sodipodi:cy="5.0481038" sodipodi:rx="9.2335644" sodipodi:ry="2.5899436" d="M 23.446670 5.0481038 A 9.2335644 2.5899436 0 1 1  4.9795408,5.0481038 A 9.2335644 2.5899436 0 1 1  23.446670 5.0481038 z" transform="matrix(0.416472,0.000000,0.000000,0.536169,-0.544527,6.556371)"></path>
      <path style="fill:#990000;stroke:#000000;stroke-width:1.8650836;stroke-linecap:square;stroke-linejoin:bevel;stroke-dashoffset:0.0000000" d="M -208.39929,135.18852 C -206.17491,137.96797 -196.39419,138.09431 -194.07168,135.18852 L -194.07168,156.41342 C -196.49232,159.31921 -206.07678,159.69823 -208.39929,156.41342 L -208.39929,135.18852 z " id="path3303" sodipodi:nodetypes="ccccc" transform="matrix(0.536169,0.000000,0.000000,0.536169,113.2538,-63.16120)"></path>
      <path sodipodi:type="arc" style="fill:#bab5ab;stroke:#000000;stroke-width:2.1161976;stroke-linecap:square;stroke-linejoin:bevel;stroke-dashoffset:0.0000000" id="path3325" sodipodi:cx="14.213105" sodipodi:cy="5.0481038" sodipodi:rx="9.2335644" sodipodi:ry="2.5899436" d="M 23.446670 5.0481038 A 9.2335644 2.5899436 0 1 1  4.9795408,5.0481038 A 9.2335644 2.5899436 0 1 1  23.446670 5.0481038 z" transform="matrix(0.416472,0.000000,0.000000,0.536169,9.321642,6.546234)"></path>
      <path style="fill:#bab5ab;stroke:#000000;stroke-width:1.8650836;stroke-linecap:square;stroke-linejoin:bevel;stroke-dashoffset:0.0000000" d="M -208.39929,135.18852 C -206.17491,137.96797 -196.39419,138.09431 -194.07168,135.18852 L -194.07168,156.41342 C -196.49232,159.31921 -206.07678,159.69823 -208.39929,156.41342 L -208.39929,135.18852 z " id="path3326" sodipodi:nodetypes="ccccc" transform="matrix(0.536169,0.000000,0.000000,0.536169,123.1200,-63.17134)"></path>
      <path sodipodi:type="arc" style="fill:#bab5ab;stroke:#000000;stroke-width:2.1161976;stroke-linecap:square;stroke-linejoin:bevel;stroke-dashoffset:0.0000000" id="path3329" sodipodi:cx="14.213105" sodipodi:cy="5.0481038" sodipodi:rx="9.2335644" sodipodi:ry="2.5899436" d="M 23.446670 5.0481038 A 9.2335644 2.5899436 0 1 1  4.9795408,5.0481038 A 9.2335644 2.5899436 0 1 1  23.446670 5.0481038 z" transform="matrix(0.416472,0.000000,0.000000,0.536169,19.25138,6.546234)"></path>
      <path style="fill:#bab5ab;stroke:#000000;stroke-width:1.8650836;stroke-linecap:square;stroke-linejoin:bevel;stroke-dashoffset:0.0000000" d="M -208.39929,135.18852 C -206.17491,137.96797 -196.39419,138.09431 -194.07168,135.18852 L -194.07168,156.41342 C -196.49232,159.31921 -206.07678,159.69823 -208.39929,156.41342 L -208.39929,135.18852 z " id="path3330" sodipodi:nodetypes="ccccc" transform="matrix(0.536169,0.000000,0.000000,0.536169,133.0497,-63.17134)"></path>
    </g>
  </g>
</svg>
