<?xml version="1.0"?>
<svg version="1.0" x="0.0000000" y="0.0000000" width="30.000000" height="30.000000" id="svg1448" preserveAspectRatio="xMidYMid meet" zoomAndPan="magnify" contentScriptType="text/ecmascript" contentStyleType="text/css"><defs id="defs3"><linearGradient xmlns:xlink="http://www.w3.org/1999/xlink" x1="119.10229" y1="84.630272" x2="119.29437" y2="97.331215" id="linearGradient1964" xlink:href="#linearGradient12426" gradientUnits="userSpaceOnUse" gradientTransform="scale(0.933470,1.071272)" spreadMethod="reflect" xlink:type="simple" xlink:show="other" xlink:actuate="onLoad"><stop xmlns="http://www.w3.org/2000/svg" style="stop-color:#eae8e3;stop-opacity:1.0000000;" offset="0.0000000" id="stop12427"/><stop xmlns="http://www.w3.org/2000/svg" style="stop-color:#807d74;stop-opacity:1.0000000;" offset="1.0000000" id="stop12428"/></linearGradient><radialGradient xmlns:xlink="http://www.w3.org/1999/xlink" cx="105.96836" cy="-33.376244" r="13.188590" fx="100.86923" fy="-40.098114" id="radialGradient1824" xlink:href="#linearGradient14316" gradientUnits="userSpaceOnUse" gradientTransform="translate(-97.32947,43.49082)" xlink:type="simple" xlink:show="other" xlink:actuate="onLoad"><stop xmlns="http://www.w3.org/2000/svg" style="stop-color:#c5d2c8;stop-opacity:1.0000000;" offset="0.0000000" id="stop14317"/><stop xmlns="http://www.w3.org/2000/svg" style="stop-color:#5d7555;stop-opacity:1.0000000;" offset="1.0000000" id="stop14318"/></radialGradient><radialGradient xmlns:xlink="http://www.w3.org/1999/xlink" cx="105.96836" cy="-33.376244" r="13.188590" fx="100.86923" fy="-40.098114" id="radialGradient1160" xlink:href="#linearGradient12426" gradientUnits="userSpaceOnUse" gradientTransform="translate(-97.34473,43.13095)" xlink:type="simple" xlink:show="other" xlink:actuate="onLoad"><stop xmlns="http://www.w3.org/2000/svg" style="stop-color:#eae8e3;stop-opacity:1.0000000;" offset="0.0000000" id="stop12427"/><stop xmlns="http://www.w3.org/2000/svg" style="stop-color:#807d74;stop-opacity:1.0000000;" offset="1.0000000" id="stop12428"/></radialGradient><linearGradient xmlns:xlink="http://www.w3.org/1999/xlink" id="linearGradient14316" xlink:type="simple" xlink:show="other" xlink:actuate="onLoad"><stop style="stop-color:#c5d2c8;stop-opacity:1.0000000;" offset="0.0000000" id="stop14317"/><stop style="stop-color:#5d7555;stop-opacity:1.0000000;" offset="1.0000000" id="stop14318"/></linearGradient><linearGradient xmlns:xlink="http://www.w3.org/1999/xlink" id="linearGradient1904" xlink:type="simple" xlink:show="other" xlink:actuate="onLoad"><stop style="stop-color:#b8b7b3;stop-opacity:1.0000000;" offset="0.0000000" id="stop1905"/><stop style="stop-color:#807d74;stop-opacity:1.0000000;" offset="1.0000000" id="stop1906"/></linearGradient><linearGradient xmlns:xlink="http://www.w3.org/1999/xlink" id="linearGradient12426" xlink:type="simple" xlink:show="other" xlink:actuate="onLoad"><stop style="stop-color:#eae8e3;stop-opacity:1.0000000;" offset="0.0000000" id="stop12427"/><stop style="stop-color:#807d74;stop-opacity:1.0000000;" offset="1.0000000" id="stop12428"/></linearGradient></defs><g id="layer1"><g transform="translate(-96.64998,-74.96579)" id="g1958"><path d="M 8.3974867 14.723721 A 4.1987433 14.561600 0 1 1  0.0000000,14.723721 A 4.1987433 14.561600 0 1 1  8.3974867 14.723721 z" transform="translate(97.28578,75.57738)" style="fill:#807d74;fill-opacity:1.0000000;fill-rule:nonzero;stroke:#000000;stroke-width:1.0000000;stroke-linecap:square;stroke-linejoin:bevel;stroke-miterlimit:4.0000000;stroke-dashoffset:0.0000000;stroke-opacity:1.0000000" id="path1869"/><path d="M 101.21652,75.560833 C 112.88962,90.569108 112.94918,90.747777 123.90760,75.560833 C 128.37435,79.193788 127.48100,101.94443 123.90760,105.22004 C 112.94918,90.926446 112.88962,90.926446 101.21652,105.22004 C 104.07524,102.83778 109.07799,84.732556 101.21652,75.560833 z " style="fill:#807d74;fill-opacity:1.0000000;fill-rule:nonzero;stroke:#000000;stroke-width:1.0000000;stroke-linecap:square;stroke-linejoin:bevel;stroke-miterlimit:4.0000000;stroke-dashoffset:0.0000000;stroke-opacity:1.0000000" id="path1871"/><path d="M 101.09983,75.560305 C 112.77293,90.568580 112.83249,90.747249 123.79091,75.560305 C 128.25766,79.193260 127.36431,101.94390 123.79091,105.21951 C 112.83249,90.925918 112.77293,90.925918 101.09983,105.21951 C 103.95855,102.83725 108.96130,84.732028 101.09983,75.560305 z " style="opacity:0.57746482;fill:url(#linearGradient1964);fill-opacity:1.0000000;fill-rule:nonzero;stroke:#000000;stroke-width:1.0000000;stroke-linecap:square;stroke-linejoin:bevel;stroke-miterlimit:4.0000000;stroke-dashoffset:0.0000000;stroke-opacity:1.0000000" id="path1897"/><path d="M 105.57433,83.106563 C 107.02117,85.465076 109.34490,89.473152 112.95032,89.494761 C 117.17268,89.507798 120.56238,84.064123 121.86695,81.187330 C 117.76032,86.141096 112.87809,92.060574 105.57433,83.106563 z " style="fill:#ffffff;fill-opacity:1.0000000;fill-rule:evenodd;stroke:#000000;stroke-width:0.0000000;stroke-linecap:butt;stroke-linejoin:miter;stroke-miterlimit:4.0000000;stroke-opacity:1.0000000" id="path1248"/><path d="M 98.476285,86.777055 C 98.395691,89.251668 98.132311,92.808682 98.339758,95.749744 C 98.547205,98.690806 99.288648,102.97417 101.09136,102.98497 C 103.20254,102.99149 102.11107,100.80364 101.45191,101.15814 C 100.79276,101.51263 99.481944,99.519182 98.476285,86.777055 z " style="fill:#ffffff;fill-opacity:1.0000000;fill-rule:evenodd;stroke:#000000;stroke-width:0.0000000;stroke-linecap:butt;stroke-linejoin:miter;stroke-miterlimit:4.0000000;stroke-opacity:1.0000000" id="path1249"/></g><path d="M 6.8243730,19.945926 L 0.28488302,22.613336 C 0.66590302,22.869706 6.7461130,25.070716 6.7461130,25.070716 L 6.7818730,23.602066 L 25.781793,23.660486 L 25.808233,25.223076 L 32.254453,22.399136 C 31.867473,22.151856 25.761503,20.097906 25.761503,20.097906 L 25.788513,21.472996 L 6.7886030,21.414586 L 6.8243730,19.945926 z " style="fill:#565248;fill-opacity:1.0000000;fill-rule:evenodd;stroke:#807d74;stroke-width:0.0000000;stroke-linecap:butt;stroke-linejoin:miter;stroke-miterlimit:4.0000000;stroke-opacity:1.0000000" id="path1250"/><path d="M -93.188063 -87.276924 A 3.4174511 3.4174511 0 1 1  -100.02297,-87.276924 A 3.4174511 3.4174511 0 1 1  -93.188063 -87.276924 z" transform="translate(113.0461,106.7325)" style="fill:#000000;fill-opacity:1.0000000;fill-rule:nonzero;stroke:#807d74;stroke-width:0.0000000;stroke-linecap:square;stroke-linejoin:bevel;stroke-miterlimit:4.0000000;stroke-dashoffset:0.0000000;stroke-opacity:1.0000000" id="path1251"/></g></svg>
