<?xml version="1.0"?>
<svg xmlns:sodipodi="http://sodipodi.sourceforge.net/DTD/sodipodi-0.dtd" xmlns:inkscape="http://www.inkscape.org/namespaces/inkscape" width="24.000000pt" height="24.000000pt" id="svg5525" sodipodi:version="0.32" inkscape:version="0.40pre3" sodipodi:docbase="/lethe/arsgratia/k3d-icons/scalable_unfixed" sodipodi:docname="rotate.svg" preserveAspectRatio="xMidYMid meet" zoomAndPan="magnify" version="1.0" contentScriptType="text/ecmascript" contentStyleType="text/css">
  <defs id="defs3"></defs>
  <sodipodi:namedview id="base" pagecolor="#ffffff" bordercolor="#666666" borderopacity="1.0" inkscape:pageopacity="0.0" inkscape:pageshadow="2" inkscape:zoom="9.8238822" inkscape:cx="13.726638" inkscape:cy="8.5224558" inkscape:current-layer="layer1" inkscape:window-width="640" inkscape:window-height="530" inkscape:window-x="4" inkscape:window-y="47"></sodipodi:namedview>
  <metadata id="metadata4">
    <rdf:RDF xmlns:rdf="http://www.w3.org/1999/02/22-rdf-syntax-ns#" id="RDF5">
      <cc:Work xmlns:cc="http://web.resource.org/cc/" rdf:about="" id="Work6">
        <dc:format xmlns:dc="http://purl.org/dc/elements/1.1/" id="format7">image/svg+xml</dc:format>
        <dc:type xmlns:dc="http://purl.org/dc/elements/1.1/" id="type9" rdf:resource="http://purl.org/dc/dcmitype/StillImage"></dc:type>
      </cc:Work>
    </rdf:RDF>
  </metadata>
  <g inkscape:label="Layer 1" inkscape:groupmode="layer" id="layer1">
    <g id="g6700" transform="translate(121.0234,-429.7203)">
      <g id="g6869" transform="matrix(0.707107,-0.707107,0.707107,0.707107,-120.9049,439.2447)" style="opacity:0.40000001">
        <path sodipodi:type="arc" style="fill:#bab5ab;fill-opacity:1.0000000;fill-rule:nonzero;stroke:#000000;stroke-width:1.4454792;stroke-linecap:square;stroke-linejoin:bevel;stroke-miterlimit:4.0000000;stroke-dashoffset:0.0000000;stroke-opacity:1.0000000" id="path6870" sodipodi:cx="14.213105" sodipodi:cy="5.0481038" sodipodi:rx="9.2335644" sodipodi:ry="2.5899436" d="M 23.446670 5.0481038 A 9.2335644 2.5899436 0 1 1  4.9795408,5.0481038 A 9.2335644 2.5899436 0 1 1  23.446670 5.0481038 z" transform="matrix(0.609720,0.000000,0.000000,0.784957,-2.147814,2.119215)"></path>
        <path style="fill:#bab5ab;fill-opacity:1.0000000;fill-rule:nonzero;stroke:#000000;stroke-width:1.2739551;stroke-linecap:square;stroke-linejoin:bevel;stroke-miterlimit:4.0000000;stroke-dashoffset:0.0000000;stroke-opacity:1.0000000" d="M -145.42693,95.018750 C -143.20255,97.798200 -133.42183,97.924540 -131.09932,95.018750 L -131.09932,116.24365 C -133.51996,119.14944 -143.10442,119.52846 -145.42693,116.24365 L -145.42693,95.018750 z " id="path6871" sodipodi:nodetypes="ccccc" transform="matrix(0.784957,0.000000,0.000000,0.784957,115.0235,-68.41639)"></path>
        <path style="fill:none;fill-opacity:0.75000000;fill-rule:evenodd;stroke:#000000;stroke-width:1.2739551;stroke-linecap:butt;stroke-linejoin:miter;stroke-miterlimit:4.0000000;stroke-opacity:1.0000000" d="M -138.51906,118.44744 L -138.32823,97.230380" id="path6872" sodipodi:nodetypes="cc" transform="matrix(0.784957,0.000000,0.000000,0.784957,115.0235,-68.41639)"></path>
      </g>
      <path style="fill:#000000;fill-opacity:1.0000000;fill-rule:evenodd;stroke:none;stroke-width:0.25000000pt;stroke-linecap:butt;stroke-linejoin:miter;stroke-opacity:1.0000000" d="M -200.10033,212.74028 L -210.90536,217.55143 L -204.46466,223.04925 L -200.10033,212.74028 z " id="path6873" sodipodi:nodetypes="cccc" transform="translate(89.80430,223.3481)"></path>
      <g id="g6874" transform="matrix(0.707107,0.707107,-0.707107,0.707107,-99.81239,429.9265)" style="opacity:0.40000001">
        <path sodipodi:type="arc" style="fill:#bab5ab;fill-opacity:1.0000000;fill-rule:nonzero;stroke:#000000;stroke-width:1.4454792;stroke-linecap:square;stroke-linejoin:bevel;stroke-miterlimit:4.0000000;stroke-dashoffset:0.0000000;stroke-opacity:1.0000000" id="path6875" sodipodi:cx="14.213105" sodipodi:cy="5.0481038" sodipodi:rx="9.2335644" sodipodi:ry="2.5899436" d="M 23.446670 5.0481038 A 9.2335644 2.5899436 0 1 1  4.9795408,5.0481038 A 9.2335644 2.5899436 0 1 1  23.446670 5.0481038 z" transform="matrix(0.609720,0.000000,0.000000,0.784957,-2.147814,2.119215)"></path>
        <path style="fill:#bab5ab;fill-opacity:1.0000000;fill-rule:nonzero;stroke:#000000;stroke-width:1.2739551;stroke-linecap:square;stroke-linejoin:bevel;stroke-miterlimit:4.0000000;stroke-dashoffset:0.0000000;stroke-opacity:1.0000000" d="M -145.42693,95.018750 C -143.20255,97.798200 -133.42183,97.924540 -131.09932,95.018750 L -131.09932,116.24365 C -133.51996,119.14944 -143.10442,119.52846 -145.42693,116.24365 L -145.42693,95.018750 z " id="path6876" sodipodi:nodetypes="ccccc" transform="matrix(0.784957,0.000000,0.000000,0.784957,115.0235,-68.41639)"></path>
        <path style="fill:none;fill-opacity:0.75000000;fill-rule:evenodd;stroke:#000000;stroke-width:1.2739551;stroke-linecap:butt;stroke-linejoin:miter;stroke-miterlimit:4.0000000;stroke-opacity:1.0000000" d="M -138.51906,118.44744 L -138.32823,97.230380" id="path6877" sodipodi:nodetypes="cc" transform="matrix(0.784957,0.000000,0.000000,0.784957,115.0235,-68.41639)"></path>
      </g>
      <path style="fill:#000000;fill-opacity:1.0000000;fill-rule:evenodd;stroke:none;stroke-width:0.25000000pt;stroke-linecap:butt;stroke-linejoin:miter;stroke-opacity:1.0000000" d="M -101.46733,443.24829 L -90.662303,448.05944 L -97.103003,453.55726 L -101.46733,443.24829 z " id="path6878" sodipodi:nodetypes="cccc" transform="translate(0.000000,-6.944444)"></path>
      <path style="fill:#000000;fill-opacity:1.0000000;fill-rule:nonzero;stroke:none;stroke-width:2.5000000;stroke-linecap:square;stroke-linejoin:miter;stroke-miterlimit:4.0000000;stroke-dashoffset:0.0000000;stroke-opacity:1.0000000" d="M -186.41228,218.45907 L -186.47574,220.10947 C -186.48451,220.05921 -183.85979,220.50703 -183.85979,221.70992 C -183.85979,224.04097 -188.30259,224.59179 -195.78261,224.59179 C -203.26265,224.59179 -207.86284,223.97751 -207.86284,221.64646 C -207.86284,220.53087 -205.53738,220.09092 -205.61502,220.15576 L -205.55156,218.51681 C -207.79261,218.82240 -210.35834,220.20519 -210.35834,222.00483 C -210.35834,225.40891 -206.46440,230.38980 -195.82166,230.38980 C -185.11556,230.38980 -181.52496,225.40891 -181.52496,222.00483 C -181.52496,220.16918 -182.92424,219.02087 -186.41228,218.45907 z " id="path6879" sodipodi:nodetypes="cccccccczcc" transform="translate(89.80430,223.3481)"></path>
    </g>
  </g>
</svg>
