/* XPM */
static char * automagic_on_xpm[] = {
"16 15 3 1",
" 	c None",
".	c #000000",
"+	c #FFFFFF",
"      .         ",
"  .  .+.  .     ",
" .+.  .  .+.    ",
".+++.     .     ",
" .+++.          ",
"  .+...         ",
"   .....        ",
"    .....       ",
"     .....      ",
"      .....     ",
"       .....    ",
"        .....   ",
"         .....  ",
"          ...   ",
"           .    "};
