/* XPM */
static char * mat_preview_date_icon_xpm[] = {
"22 24 446 2",
"  	c None",
". 	c #B0ADB4",
"+ 	c #98999B",
"@ 	c #AEAEAE",
"# 	c #9A9899",
"$ 	c #999999",
"% 	c #AFAFAF",
"& 	c #999B9A",
"* 	c #AFAFAD",
"= 	c #9B999C",
"- 	c #DBDBD9",
"; 	c #848681",
"> 	c #D9DBD8",
", 	c #858786",
"' 	c #D9D9D9",
") 	c #868485",
"! 	c #DADADA",
"~ 	c #DCDBD9",
"{ 	c #858384",
"] 	c #DFCAB5",
"^ 	c #D6BAA2",
"/ 	c #F8F9F4",
"( 	c #878787",
"_ 	c #D3BA9B",
": 	c #CFB899",
"< 	c #F6FBF5",
"[ 	c #D3B39A",
"} 	c #CBB294",
"| 	c #F8FAF9",
"1 	c #868686",
"2 	c #CCB193",
"3 	c #C3AC8D",
"4 	c #FAFCFB",
"5 	c #C4A98B",
"6 	c #BEA68A",
"7 	c #F8FBF4",
"8 	c #888A87",
"9 	c #B49674",
"0 	c #B59876",
"a 	c #D8B794",
"b 	c #CCA98B",
"c 	c #DEE4E4",
"d 	c #C5A27A",
"e 	c #C19F79",
"f 	c #DDE3E1",
"g 	c #868885",
"h 	c #C09A76",
"i 	c #BA9873",
"j 	c #DFE3E2",
"k 	c #848887",
"l 	c #B89470",
"m 	c #B2906B",
"n 	c #E1E3E2",
"o 	c #888888",
"p 	c #B18B67",
"q 	c #AB8B65",
"r 	c #DFE5E3",
"s 	c #858585",
"t 	c #A17751",
"u 	c #886744",
"v 	c #D4A27D",
"w 	c #C7986E",
"x 	c #B3B7B8",
"y 	c #917D7F",
"z 	c #860000",
"A 	c #850504",
"B 	c #B8B8BA",
"C 	c #8D7B7B",
"D 	c #870100",
"E 	c #870704",
"F 	c #B5B7B4",
"G 	c #8F787E",
"H 	c #850100",
"I 	c #850804",
"J 	c #B3B8B4",
"K 	c #8F7A7F",
"L 	c #860200",
"M 	c #87040A",
"N 	c #B4B6B5",
"O 	c #8C7E7E",
"P 	c #925E36",
"Q 	c #81553A",
"R 	c #CBAD89",
"S 	c #C7A17A",
"T 	c #968283",
"U 	c #867B7F",
"V 	c #BD7F80",
"W 	c #BF8281",
"X 	c #9C9293",
"Y 	c #867C7A",
"Z 	c #BF8182",
"` 	c #9D9593",
" .	c #877B7B",
"..	c #C18584",
"+.	c #BF8382",
"@.	c #9F9492",
"#.	c #7F6B6C",
"$.	c #8B643B",
"%.	c #765738",
"&.	c #CDAB86",
"*.	c #C5A27C",
"=.	c #8B0504",
"-.	c #B75C5B",
";.	c #B8605C",
">.	c #B95D60",
",.	c #B95B5B",
"'.	c #B65C5C",
").	c #B75B5C",
"!.	c #B85E5E",
"~.	c #BA605F",
"{.	c #BA6261",
"].	c #BD6363",
"^.	c #BC6463",
"/.	c #BD6564",
"(.	c #B86464",
"_.	c #BC6262",
":.	c #901517",
"<.	c #86603B",
"[.	c #72573A",
"}.	c #C9A885",
"|.	c #C3A076",
"1.	c #950306",
"2.	c #F4E5E2",
"3.	c #E6A8A9",
"4.	c #E3A6A5",
"5.	c #BE4E4D",
"6.	c #EEBABC",
"7.	c #F0BEC1",
"8.	c #A11514",
"9.	c #E4ADAA",
"0.	c #DC928F",
"a.	c #C04347",
"b.	c #C34747",
"c.	c #E9918D",
"d.	c #C24A4B",
"e.	c #E6908F",
"f.	c #EA9090",
"g.	c #9A1212",
"h.	c #835D38",
"i.	c #725438",
"j.	c #BF9C74",
"k.	c #A70302",
"l.	c #F4CACB",
"m.	c #F2C6C5",
"n.	c #F3C1C2",
"o.	c #D6777B",
"p.	c #F5C7C9",
"q.	c #E8A4A3",
"r.	c #DD8D90",
"s.	c #EFBAB6",
"t.	c #EFAFB0",
"u.	c #C8181B",
"v.	c #CF2C2F",
"w.	c #CB3536",
"x.	c #CF3336",
"y.	c #CD3132",
"z.	c #CC2E2F",
"A.	c #C92E2A",
"B.	c #AB1214",
"C.	c #825C37",
"D.	c #6D5235",
"E.	c #CD9B7A",
"F.	c #C2926A",
"G.	c #C00000",
"H.	c #FCB6BE",
"I.	c #F07071",
"J.	c #F9B2B8",
"K.	c #EF7778",
"L.	c #F8ADB1",
"M.	c #F7ADAE",
"N.	c #F06261",
"O.	c #F8C6C9",
"P.	c #DA211F",
"Q.	c #D90000",
"R.	c #DB0000",
"S.	c #E78989",
"T.	c #E00E0D",
"U.	c #ED868A",
"V.	c #E31112",
"W.	c #EA878A",
"X.	c #B90D09",
"Y.	c #87532E",
"Z.	c #794D32",
"`.	c #C7A582",
" +	c #A30003",
".+	c #BE0200",
"++	c #C00002",
"@+	c #C10001",
"#+	c #C10100",
"$+	c #C20102",
"%+	c #C20001",
"&+	c #BE0203",
"*+	c #C10000",
"=+	c #BD0100",
"-+	c #BE0002",
";+	c #BE0201",
">+	c #A00E11",
",+	c #795732",
"'+	c #6B4C30",
")+	c #C5A481",
"!+	c #BB9872",
"~+	c #FEFFFF",
"{+	c #FDFEFF",
"]+	c #FFFDFE",
"^+	c #FBFCFE",
"/+	c #FEFCFF",
"(+	c #F9FBF8",
"_+	c #FDF9F8",
":+	c #F8F8F8",
"<+	c #F5F5F7",
"[+	c #F4F2F3",
"}+	c #EEF2F5",
"|+	c #EFEFED",
"1+	c #EDEDEB",
"2+	c #EDEDEF",
"3+	c #E7E7E7",
"4+	c #E6E6E4",
"5+	c #E4E4E4",
"6+	c #E2E2E2",
"7+	c #795630",
"8+	c #6C4D30",
"9+	c #C2A07D",
"0+	c #B6936B",
"a+	c #FFFFFA",
"b+	c #FCFCFC",
"c+	c #FEFCFD",
"d+	c #FAFCF9",
"e+	c #E7E5EA",
"f+	c #191919",
"g+	c #0E0E0E",
"h+	c #F5F5F5",
"i+	c #F0F2EF",
"j+	c #F1EDEA",
"k+	c #1E1E20",
"l+	c #000000",
"m+	c #1B1A18",
"n+	c #7E8283",
"o+	c #E4E4E2",
"p+	c #DEDEE0",
"q+	c #DFDFDD",
"r+	c #73512C",
"s+	c #684A30",
"t+	c #C09F7C",
"u+	c #B9936E",
"v+	c #FCFCFE",
"w+	c #FCFEFD",
"x+	c #F7F3F4",
"y+	c #A2A4A3",
"z+	c #212121",
"A+	c #110D0E",
"B+	c #F2F1EF",
"C+	c #EDEFEE",
"D+	c #909090",
"E+	c #010103",
"F+	c #000100",
"G+	c #010006",
"H+	c #020204",
"I+	c #868688",
"J+	c #DEDCDF",
"K+	c #DBDBDB",
"L+	c #724F29",
"M+	c #644A29",
"N+	c #BE9D7A",
"O+	c #B39068",
"P+	c #F6FCFA",
"Q+	c #F9F7F8",
"R+	c #141615",
"S+	c #020001",
"T+	c #000201",
"U+	c #0D0E12",
"V+	c #EDEDED",
"W+	c #EBEBEB",
"X+	c #1D1F1E",
"Y+	c #010101",
"Z+	c #767674",
"`+	c #E1DBDB",
" @	c #717574",
".@	c #010000",
"+@	c #1B1B1D",
"@@	c #DAD5D9",
"#@	c #714E28",
"$@	c #62472C",
"%@	c #C1906F",
"&@	c #B7835C",
"*@	c #F6E6E6",
"=@	c #F9E7E7",
"-@	c #130100",
";@	c #4A3A3A",
">@	c #B5A3A3",
",@	c #1F0D0D",
"'@	c #EBD9D9",
")@	c #E9D7D7",
"!@	c #160404",
"~@	c #120000",
"{@	c #D8C6C6",
"]@	c #E0CECE",
"^@	c #D2C0C0",
"/@	c #150303",
"(@	c #DAC8C8",
"_@	c #D9C6C8",
":@	c #794422",
"<@	c #6D4126",
"[@	c #B99875",
"}@	c #AF8C66",
"|@	c #F5F3F4",
"1@	c #F3F1F2",
"2@	c #E2E2E4",
"3@	c #F0F0F2",
"4@	c #EBEBE9",
"5@	c #0F0F11",
"6@	c #E5E5E5",
"7@	c #E3E3E3",
"8@	c #CFCFCF",
"9@	c #CCCCCC",
"0@	c #D4D2D3",
"a@	c #D1D3D2",
"b@	c #6A4622",
"c@	c #5E4526",
"d@	c #B69874",
"e@	c #AA8662",
"f@	c #F0F1F3",
"g@	c #EEF0EF",
"h@	c #EBE9EA",
"i@	c #E6E6E6",
"j@	c #100E0F",
"k@	c #0C0E0B",
"l@	c #E0E0E0",
"m@	c #020202",
"n@	c #D8D8D8",
"o@	c #C8C8C8",
"p@	c #D5D3D4",
"q@	c #CFD0D2",
"r@	c #684724",
"s@	c #5A4228",
"t@	c #B59775",
"u@	c #AB855E",
"v@	c #ECECEA",
"w@	c #EBEBED",
"x@	c #E8E8E8",
"y@	c #E6E6E8",
"z@	c #0B0B09",
"A@	c #0C0E0D",
"B@	c #DEDEDE",
"C@	c #1D1D1D",
"D@	c #A6A6A6",
"E@	c #D6D6D6",
"F@	c #A2A2A2",
"G@	c #1D1C1A",
"H@	c #CFCFD1",
"I@	c #D1CFD0",
"J@	c #684420",
"K@	c #5A3E26",
"L@	c #B19371",
"M@	c #A28460",
"N@	c #EAEAEA",
"O@	c #E9E5E4",
"P@	c #E5E5E7",
"Q@	c #E4E4E6",
"R@	c #0D0D0D",
"S@	c #0E0C0D",
"T@	c #7F7F7F",
"U@	c #2C2C2C",
"V@	c #030303",
"W@	c #777978",
"X@	c #D2D0D1",
"Y@	c #D1D1CF",
"Z@	c #64401E",
"`@	c #5A4027",
" #	c #B88766",
".#	c #AA7853",
"+#	c #E3D7D9",
"@#	c #E5D6D3",
"##	c #E5D1D0",
"$#	c #DFCFD0",
"%#	c #DDCDCD",
"&#	c #1F0C0E",
"*#	c #1E0C0A",
"=#	c #D9C7C7",
"-#	c #827070",
";#	c #2B1919",
">#	c #130101",
",#	c #7E6C6C",
"'#	c #D1C3C3",
")#	c #D4C1BD",
"!#	c #D0C2C1",
"~#	c #723A15",
"{#	c #633920",
"]#	c #AE8D6C",
"^#	c #A17F5A",
"/#	c #E2E0E1",
"(#	c #E1E1E3",
"_#	c #DDDBDC",
":#	c #DCDCDE",
"<#	c #D9DADC",
"[#	c #DCD8D9",
"}#	c #D6D6D8",
"|#	c #D5D5D5",
"1#	c #D3D3D3",
"2#	c #D2D2D2",
"3#	c #D0D0D0",
"4#	c #D1D1D1",
"5#	c #D1CFD2",
"6#	c #D3D2D0",
"7#	c #613D1B",
"8#	c #563A22",
"9#	c #9F7E5B",
"0#	c #896438",
"a#	c #7D5935",
"b#	c #785631",
"c#	c #785734",
"d#	c #78522D",
"e#	c #724F2F",
"f#	c #704E29",
"g#	c #6E4D2A",
"h#	c #6D4B28",
"i#	c #6C4A27",
"j#	c #694724",
"k#	c #664421",
"l#	c #63411E",
"m#	c #62401D",
"n#	c #603E1B",
"o#	c #623C18",
"p#	c #5A3D1D",
"q#	c #5A3918",
"r#	c #523316",
"s#	c #4E3820",
"t#	c #94765A",
"u#	c #5D4328",
"v#	c #533B21",
"w#	c #4F371F",
"x#	c #4C361E",
"y#	c #4B351D",
"z#	c #4A341C",
"A#	c #4A321A",
"B#	c #452F18",
"C#	c #442E17",
"D#	c #422C15",
"E#	c #412B14",
"F#	c #3F2912",
"G#	c #3E2811",
"H#	c #3D2710",
"I#	c #3F270F",
"J#	c #39240F",
"K#	c #3A2510",
"L#	c #39230E",
"M#	c #655546",
"    . +     @ #     @ $     % &     * =     ",
"    - ;     > ,     ' )     ! )     ~ {     ",
"] ^ / ( _ : < ( [ } | 1 2 3 4 1 5 6 7 8 9 0 ",
"a b c , d e f g h i j k l m n o p q r s t u ",
"v w x y z A B C D E F G H I J K L M N O P Q ",
"R S T U V W X Y V Z `  ...V `  .W +.@.#.$.%.",
"&.*.=.-.;.>.,.'.).).!.~.{.].^.]./.(._.:.<.[.",
"}.|.1.2.3.4.5.6.7.8.9.0.a.b.c.d.e.b.f.g.h.i.",
"}.j.k.l.m.n.o.p.q.r.s.t.u.v.w.x.y.z.A.B.C.D.",
"E.F.G.H.I.J.K.L.M.N.O.P.Q.R.S.T.U.V.W.X.Y.Z.",
"`.i  +.+++G.@+#+G.#+#+++$+%+&+*+=+-+;+>+,+'+",
")+!+~+{+]+^+/+(+_+:+<+[+}+|+1+2+3+4+5+6+7+8+",
"9+0+a+b+c+d+e+f+g+h+i+j+8 k+l+m+n+o+p+q+r+s+",
"t+u+v+w+x+y+z+l+A+B+C+D+E+F+G+H+l+I+J+K+L+M+",
"N+O+P+Q+R+S+l+T+U+V+W+X+Y+Z+`+ @.@+@> @@#@$@",
"%@&@*@=@-@;@>@,@,@'@)@!@~@{@]@^@~@/@(@_@:@<@",
"[@}@|@1@2@3@4@5@g+6@7@Y+l+8@K+9@l+S+0@a@b@c@",
"d@e@f@g@1+h@i@j@k@6+l@m@Y+9@n@o@l+Y+p@q@r@s@",
"t@u@v@w@x@y@6@z@A@B@K+C@l+D@E@F@Y+G@H@I@J@K@",
"L@M@N@O@P@Q@l@R@S@K+K+T@l+m@U@V@l+W@X@Y@Z@`@",
" #.#+#@###$#%#&#*#(@=#{@-#;#>#;#,#'#)#!#~#{#",
"]#^#/#(#_#:#<#[#}#|#1#2#3#4#3#8@3#5#3#6#7#8#",
"9#0#a#b#c#d#e#f#g#h#i#j#j#k#l#m#n#o#p#q#r#s#",
"t#u#v#w#x#y#z#A#A#B#B#C#D#E#F#G#H#I#J#K#L#M#"};
