/* XPM */
static char * play_from_cursor_xpm[] = {
"32 20 2 1",
" 	c None",
".	c #000000",
"                                ",
"                                ",
"                                ",
"                                ",
"         ... ...                ",
"            .                   ",
"            .    .              ",
"            .    ...            ",
"            .    .....          ",
"            .    .......        ",
"            .    ........       ",
"            .    .......        ",
"            .    .....          ",
"            .    ...            ",
"            .    .              ",
"            .                   ",
"         ... ...                ",
"                                ",
"                                ",
"                                "};
