/* XPM */
static char * recordframe_xpm[] = {
"32 20 2 1",
" 	c None",
".	c #FF0000",
"                                ",
"                                ",
"                                ",
"          ...    .. ..          ",
"         .....   .. ..          ",
"        .......  .. ..          ",
"        .......  .. ..          ",
"        .......  .. ..          ",
"         .....   .. ..          ",
"          ...    .. ..          ",
"                                ",
"                                ",
"      .....  ......  .....      ",
"      .    . .      .     .     ",
"      .    . .....  .           ",
"      .....  .      .     .     ",
"      .    . ......  .....      ",
"                                ",
"                                ",
"                                "};
