<?xml version="1.0" encoding="UTF-8" standalone="no"?>
<!-- Created with Inkscape (http://www.inkscape.org/) -->
<svg
xmlns:svg="http://www.w3.org/2000/svg"
xmlns="http://www.w3.org/2000/svg"
version="1.0"
width="1794.604"
height="835.198"
viewBox="0 0 1794.604 835.198"
id="svg2"
xml:space="preserve"><defs
id="defs24" />

<g
id="g7">
<path
d="M 0,82.802 L 0,504 C 0,549.729 37.072,586.802 82.802,586.802 C 128.527,586.802 165.599,549.73 165.599,504 L 165.599,82.802 C 165.599,37.072 128.527,0 82.802,0 C 37.072,0 0,37.072 0,82.802 L 0,82.802 z "
id="path9" />
<path
d="M 211.452,395.051 C 179.117,427.386 179.113,479.813 211.452,512.148 L 394.453,695.154 C 426.788,727.489 479.215,727.489 511.55,695.154 C 543.885,662.819 543.885,610.392 511.55,578.057 L 328.548,395.051 C 296.213,362.716 243.787,362.716 211.452,395.051 L 211.452,395.051 z "
id="path11" />
<path
d="M 511.198,331.198 C 465.473,331.198 428.401,368.27 428.401,414 C 428.401,459.73 465.473,496.802 511.198,496.802 L 654.6,496.802 C 700.329,496.802 737.402,459.73 737.402,414 C 737.402,368.27 700.33,331.198 654.6,331.198 L 511.198,331.198 L 511.198,331.198 z "
id="path13" />
<path
d="M 1155.604,208.802 L 1155.604,752.397 C 1155.604,798.135 1192.667,835.199 1238.397,835.199 C 1284.135,835.199 1321.199,798.136 1321.199,752.397 L 1321.199,208.802 C 1321.199,163.073 1284.136,126 1238.397,126 C 1192.667,126 1155.604,163.072 1155.604,208.802 L 1155.604,208.802 z "
id="path15" />
<path
d="M 723.599,133.198 C 677.874,133.198 640.802,170.27 640.802,216 C 640.802,261.73 677.874,298.802 723.599,298.802 C 723.599,298.802 787.553,298.802 844.101,298.802 C 825.846,317.052 801.606,341.297 798.222,344.681 C 778.82,359.97 766.502,383.476 766.502,409.584 L 766.502,410.696 C 766.502,444.182 786.677,474.382 817.619,487.196 C 834.63,494.245 852.969,494.948 870.041,490.518 C 873.42,490.131 876.773,489.604 880.197,489.604 C 928.836,489.604 968.404,529.164 968.404,577.802 C 968.404,626.432 928.836,666.009 880.197,666.009 C 831.563,666.009 791.999,626.432 791.999,577.802 C 792,532.072 754.928,495 709.198,495 C 663.473,495 626.401,532.072 626.401,577.802 C 626.401,717.75 740.255,831.604 880.198,831.604 C 1020.146,831.604 1134.009,717.75 1134.009,577.802 C 1134.009,487.134 1086.065,407.646 1014.346,362.747 C 1058.063,319.035 1102.553,274.549 1102.553,274.549 C 1118.391,258.707 1126.802,237.529 1126.802,215.983 C 1126.802,205.317 1124.737,194.56 1120.5,184.316 C 1107.686,153.374 1077.486,133.199 1044,133.199 L 723.599,133.199 L 723.599,133.198 z "
id="path17" />
<path
d="M 1339.198,212.401 C 1339.198,258.126 1376.27,295.198 1422,295.198 C 1530.334,295.198 1629,383.568 1629,480.603 C 1629,577.635 1530.334,666 1422,666 C 1376.271,666 1339.198,703.072 1339.198,748.802 C 1339.198,794.532 1376.27,831.604 1422,831.604 C 1514.101,831.604 1607.344,795.217 1677.832,731.795 C 1753.128,664.031 1794.603,574.822 1794.603,480.604 C 1794.603,386.376 1753.127,297.167 1677.832,229.404 C 1607.344,165.982 1514.101,129.6 1422,129.6 C 1376.271,129.599 1339.198,166.671 1339.198,212.401 L 1339.198,212.401 z "
id="path19" />
<path
d="M 421.198,280.802 C 421.198,326.505 384.104,363.599 338.401,363.599 C 292.693,363.599 255.599,326.505 255.599,280.802 C 255.599,235.094 292.693,198 338.401,198 C 384.104,198 421.198,235.094 421.198,280.802 L 421.198,280.802 z "
id="path21" />
</g>
</svg>